<svg xmlns="http://www.w3.org/2000/svg" fill="none" viewBox="0 0 277 113" height="113" width="277">
<path fill="white" d="M197.598 27.9922V24.7235H198.21V29.0488H197.506L195.918 25.7306V29.0488H195.306V24.7235H196.035L197.598 27.9922ZM201.909 29.0488H199.11V24.7235H201.847V25.2796H199.728V26.5463H201.526V27.1024H199.728V28.4927H201.909V29.0488ZM204.52 26.812L205.867 29.0488H205.175L204.168 27.331L203.136 29.0488H202.469L203.816 26.8367L202.549 24.7235H203.235L204.174 26.3238L205.126 24.7235H205.787L204.52 26.812ZM208.182 29.0488H207.564V25.2796H206.334V24.7235H209.412V25.2796H208.182V29.0488ZM215.401 29.1106C214.288 29.1106 213.707 28.2394 213.707 26.8861C213.707 25.5576 214.282 24.6617 215.401 24.6617C216.327 24.6617 216.797 25.2796 216.84 26.0952H216.222C216.191 25.5947 215.92 25.2178 215.419 25.2178H215.382C214.696 25.2178 214.325 25.8666 214.325 26.8861C214.325 27.9181 214.69 28.5545 215.382 28.5545H215.419C215.932 28.5545 216.179 28.1961 216.222 27.6771H216.84C216.797 28.4989 216.352 29.1106 215.401 29.1106ZM218.994 26.7564L219.977 24.7235H220.644L219.291 27.331V29.0488H218.673V27.331L217.332 24.7235H218.012L218.994 26.7564ZM222.811 29.1106C221.698 29.1106 221.118 28.2394 221.118 26.8861C221.118 25.5576 221.692 24.6617 222.811 24.6617C223.738 24.6617 224.207 25.2796 224.25 26.0952H223.632C223.602 25.5947 223.33 25.2178 222.829 25.2178H222.792C222.106 25.2178 221.735 25.8666 221.735 26.8861C221.735 27.9181 222.1 28.5545 222.792 28.5545H222.829C223.342 28.5545 223.589 28.1961 223.632 27.6771H224.25C224.207 28.4989 223.762 29.1106 222.811 29.1106ZM227.931 29.0488H224.996V24.7235H225.614V28.4927H227.931V29.0488ZM231.549 29.0488H228.75V24.7235H231.487V25.2796H229.368V26.5463H231.166V27.1024H229.368V28.4927H231.549V29.0488ZM196.758 31.6431C197.784 31.6431 198.402 32.4711 198.402 33.8676C198.402 35.2641 197.796 36.0921 196.758 36.0921C195.72 36.0921 195.114 35.2641 195.114 33.8676C195.114 32.4711 195.732 31.6431 196.758 31.6431ZM196.789 32.1869H196.727C196.159 32.1869 195.72 32.6936 195.72 33.8676C195.72 34.1457 195.745 34.3805 195.788 34.5906L197.561 32.675C197.376 32.3414 197.104 32.1869 196.789 32.1869ZM196.727 35.5483H196.789C197.357 35.5483 197.796 35.0416 197.796 33.8676C197.796 33.6266 197.777 33.4165 197.74 33.2312L195.992 35.122C196.177 35.4124 196.437 35.5483 196.727 35.5483ZM200.463 31.6431C201.489 31.6431 202.107 32.4711 202.107 33.8676C202.107 35.2641 201.501 36.0921 200.463 36.0921C199.425 36.0921 198.819 35.2641 198.819 33.8676C198.819 32.4711 199.437 31.6431 200.463 31.6431ZM200.494 32.1869H200.432C199.864 32.1869 199.425 32.6936 199.425 33.8676C199.425 34.1457 199.45 34.3805 199.493 34.5906L201.266 32.675C201.081 32.3414 200.809 32.1869 200.494 32.1869ZM200.432 35.5483H200.494C201.062 35.5483 201.501 35.0416 201.501 33.8676C201.501 33.6266 201.483 33.4165 201.445 33.2312L199.697 35.122C199.882 35.4124 200.142 35.5483 200.432 35.5483ZM204.557 33.7069H203.779V32.9284H204.557V33.7069ZM204.557 36.0488H203.779V35.2703H204.557V36.0488ZM208.565 34.1704L207.2 35.4989H209.35V36.0488H206.44V35.468L208.052 33.8861C208.553 33.398 208.683 33.2064 208.683 32.8851C208.683 32.5082 208.374 32.2054 207.947 32.2054H207.885C207.416 32.2054 207.101 32.5206 207.088 33.0272H206.483C206.483 32.1992 207.076 31.6617 207.91 31.6617C208.732 31.6617 209.288 32.1684 209.288 32.8666C209.288 33.4104 209.022 33.7255 208.565 34.1704ZM211.56 36.1106C210.694 36.1106 210.138 35.6657 210.095 34.9057H210.701C210.762 35.3135 211.059 35.5669 211.529 35.5669H211.59C212.103 35.5669 212.437 35.2703 212.437 34.8501C212.437 34.4114 212.072 34.1642 211.578 34.1642H211.294V33.6143H211.597C212.091 33.6143 212.412 33.3177 212.412 32.9098C212.412 32.4835 212.066 32.2054 211.609 32.2054H211.547C211.133 32.2054 210.818 32.4773 210.781 32.8789H210.175C210.194 32.1745 210.781 31.6617 211.578 31.6617C212.425 31.6617 213.018 32.1436 213.018 32.8542C213.018 33.3424 212.709 33.7317 212.283 33.88C212.709 34.0035 213.049 34.3681 213.049 34.8872C213.049 35.6904 212.375 36.1106 211.56 36.1106ZM215.672 33.7069H214.894V32.9284H215.672V33.7069ZM215.672 36.0488H214.894V35.2703H215.672V36.0488ZM218.97 36.1106C218.105 36.1106 217.548 35.6657 217.505 34.9057H218.111C218.173 35.3135 218.469 35.5669 218.939 35.5669H219.001C219.513 35.5669 219.847 35.2703 219.847 34.8501C219.847 34.4114 219.483 34.1642 218.988 34.1642H218.704V33.6143H219.007C219.501 33.6143 219.822 33.3177 219.822 32.9098C219.822 32.4835 219.476 32.2054 219.019 32.2054H218.957C218.543 32.2054 218.228 32.4773 218.191 32.8789H217.586C217.604 32.1745 218.191 31.6617 218.988 31.6617C219.835 31.6617 220.428 32.1436 220.428 32.8542C220.428 33.3424 220.119 33.7317 219.693 33.88C220.119 34.0035 220.459 34.3681 220.459 34.8872C220.459 35.6904 219.785 36.1106 218.97 36.1106ZM223.725 31.7235V34.5411H224.411V35.0787H223.725V36.0488H223.151V35.0787H221.025V34.4608L223.101 31.7235H223.725ZM223.151 32.4958L221.612 34.5411H223.151V32.4958Z"></path>
<rect stroke-width="0.61791" stroke-opacity="0.15" stroke="white" height="19.9791" width="69.4119" y="20.2386" x="190.27"></rect>
<path fill="white" d="M249.692 34.7593C248.752 34.7593 247.967 34.4366 247.339 33.7913C246.711 33.1459 246.397 32.3426 246.397 31.3814C246.397 30.6948 246.67 29.9483 247.216 29.1417C247.761 28.3348 248.587 27.4611 249.692 26.5205C250.798 27.4611 251.623 28.3348 252.169 29.1417C252.715 29.9483 252.988 30.6948 252.988 31.3814C252.988 32.3426 252.674 33.1459 252.045 33.7913C251.417 34.4366 250.633 34.7593 249.692 34.7593ZM249.692 33.9354C250.406 33.9354 250.997 33.6935 251.464 33.2096C251.93 32.7254 252.164 32.116 252.164 31.3814C252.164 30.8802 251.956 30.3138 251.541 29.6821C251.126 29.0505 250.509 28.3605 249.692 27.6121C248.875 28.3605 248.259 29.0505 247.844 29.6821C247.428 30.3138 247.221 30.8802 247.221 31.3814C247.221 32.116 247.454 32.7254 247.921 33.2096C248.388 33.6935 248.978 33.9354 249.692 33.9354Z"></path>
<line stroke-width="0.61791" stroke-opacity="0.15" stroke="white" y2="40.5267" x2="239.703" y1="19.9297" x1="239.703"></line>
<path fill="white" d="M20.1179 28.1055H19.2117V22.5772H17.4082V21.7616H21.9214V22.5772H20.1179V28.1055ZM27.2195 28.1055H23.1141V21.7616H27.1289V22.5772H24.0204V24.4351H26.6576V25.2507H24.0204V27.2898H27.2195V28.1055ZM30.5329 25.432L31.6114 21.7616H32.717V28.1055H31.8742V23.2932L30.9679 26.3745H30.0979L29.1917 23.2932V28.1055H28.3579V21.7616H29.4545L30.5329 25.432ZM34.8976 28.1055H33.9913V21.7616H36.2389C37.3989 21.7616 38.2236 22.4504 38.2236 23.6919C38.2236 24.9335 37.3717 25.6132 36.2298 25.6132H34.8976V28.1055ZM34.8976 22.5772V24.7976H36.1029C36.8733 24.7976 37.3173 24.4079 37.3173 23.6919C37.3173 22.976 36.8914 22.5772 36.1029 22.5772H34.8976ZM43.5217 28.1055H39.4163V21.7616H43.4311V22.5772H40.3226V24.4351H42.9599V25.2507H40.3226V27.2898H43.5217V28.1055ZM47.977 25.0332H48.0224C48.6477 25.0332 48.9014 25.3323 48.9014 25.9032V28.1055H47.9952V26.0482C47.9952 25.6948 47.8592 25.5589 47.5058 25.5589H45.7476V28.1055H44.8414V21.7616H47.0436C48.1492 21.7616 48.9921 22.4775 48.9921 23.4654C48.9921 24.2357 48.6205 24.7795 47.977 25.0332ZM45.7476 24.7432H46.8352C47.5602 24.7432 48.0858 24.3263 48.0858 23.6285C48.0858 22.9488 47.6327 22.5772 46.8352 22.5772H45.7476V24.7432ZM54.8068 28.1055H53.8733L53.3839 26.4742H51.1364L50.647 28.1055H49.7407L51.7164 21.7616H52.8583L54.8068 28.1055ZM52.2602 22.7041L51.3811 25.6585H53.1483L52.2602 22.7041ZM58.1564 28.1055H57.2502V22.5772H55.4467V21.7616H59.9599V22.5772H58.1564V28.1055ZM63.1374 28.1961C61.7598 28.1961 60.9804 27.3533 60.9804 25.9757V21.7616H61.8867V25.8489C61.8867 26.9001 62.3308 27.3805 63.1192 27.3805H63.1555C63.9439 27.3805 64.388 26.9001 64.388 25.8489V21.7616H65.2943V25.9757C65.2943 27.3533 64.5149 28.1961 63.1374 28.1961ZM69.7133 25.0332H69.7586C70.384 25.0332 70.6377 25.3323 70.6377 25.9032V28.1055H69.7315V26.0482C69.7315 25.6948 69.5955 25.5589 69.2421 25.5589H67.4839V28.1055H66.5776V21.7616H68.7799C69.8855 21.7616 70.7284 22.4775 70.7284 23.4654C70.7284 24.2357 70.3568 24.7795 69.7133 25.0332ZM67.4839 24.7432H68.5714C69.2965 24.7432 69.8221 24.3263 69.8221 23.6285C69.8221 22.9488 69.369 22.5772 68.5714 22.5772H67.4839V24.7432ZM76.1262 28.1055H72.0208V21.7616H76.0356V22.5772H72.9271V24.4351H75.5643V25.2507H72.9271V27.2898H76.1262V28.1055ZM80.0105 24.6707H78.8686V23.5288H80.0105V24.6707ZM80.0105 28.1055H78.8686V26.9636H80.0105V28.1055ZM88.1236 22.5863V21.7616H92.5009V22.6135C91.0418 23.5469 90.1355 25.0785 90.1355 27.7339V28.1055H89.2202V27.6886C89.2202 25.0423 90.2534 23.4019 91.5131 22.5863H88.1236ZM96.0137 24.136C97.1918 24.136 97.9712 24.9698 97.9712 26.0845C97.9712 27.3261 97.065 28.1961 95.769 28.1961C94.5637 28.1961 93.6393 27.5255 93.5305 26.4107H94.4186C94.5274 27.0451 95.0621 27.3986 95.7418 27.3986H95.8143C96.5574 27.3986 97.0831 26.882 97.0831 26.1298C97.0831 25.3957 96.5756 24.9335 95.8687 24.9335H95.7962C95.3884 24.9335 94.8899 25.1238 94.5908 25.5226H93.7571L94.5274 21.7616H97.9078V22.5682H95.2162L94.7902 24.5891C95.0712 24.3082 95.5424 24.136 96.0137 24.136ZM101.176 25.0242C100.215 25.0242 99.4993 24.2991 99.4993 23.3476C99.4993 22.396 100.215 21.671 101.176 21.671C102.137 21.671 102.852 22.396 102.852 23.3476C102.852 24.2991 102.137 25.0242 101.176 25.0242ZM101.176 24.2901C101.674 24.2901 102.073 23.8732 102.073 23.3476C102.073 22.831 101.674 22.4232 101.176 22.4232C100.677 22.4232 100.279 22.831 100.279 23.3476C100.279 23.8732 100.677 24.2901 101.176 24.2901ZM105.631 28.1055H104.725V21.7616H108.722V22.5772H105.631V24.6163H108.45V25.432H105.631V28.1055ZM116.735 28.1055H115.801L118.248 21.7616H119.155L116.735 28.1055ZM129.361 25.3504L127.358 27.2989H130.512V28.1055H126.244V27.2536L128.609 24.9335C129.343 24.2176 129.533 23.9366 129.533 23.4654C129.533 22.9125 129.08 22.4685 128.455 22.4685H128.364C127.676 22.4685 127.213 22.9307 127.195 23.6738H126.307C126.307 22.4594 127.177 21.671 128.401 21.671C129.606 21.671 130.422 22.4141 130.422 23.4382C130.422 24.2357 130.032 24.6979 129.361 25.3504ZM135.294 21.7616V25.8942H136.3V26.6826H135.294V28.1055H134.451V26.6826H131.333V25.7764L134.378 21.7616H135.294ZM134.451 22.8944L132.194 25.8942H134.451V22.8944ZM139.214 25.0242C138.254 25.0242 137.538 24.2991 137.538 23.3476C137.538 22.396 138.254 21.671 139.214 21.671C140.175 21.671 140.891 22.396 140.891 23.3476C140.891 24.2991 140.175 25.0242 139.214 25.0242ZM139.214 24.2901C139.713 24.2901 140.112 23.8732 140.112 23.3476C140.112 22.831 139.713 22.4232 139.214 22.4232C138.716 22.4232 138.317 22.831 138.317 23.3476C138.317 23.8732 138.716 24.2901 139.214 24.2901ZM144.821 28.1961C143.189 28.1961 142.337 26.9183 142.337 24.9335C142.337 22.9851 143.18 21.671 144.821 21.671C146.18 21.671 146.869 22.5772 146.932 23.7735H146.026C145.981 23.0394 145.582 22.4866 144.848 22.4866H144.793C143.787 22.4866 143.244 23.4382 143.244 24.9335C143.244 26.447 143.778 27.3805 144.793 27.3805H144.848C145.6 27.3805 145.963 26.8548 146.026 26.0936H146.932C146.869 27.2989 146.216 28.1961 144.821 28.1961ZM20.8067 38.0332H20.852C21.4773 38.0332 21.7311 38.3323 21.7311 38.9032V41.1055H20.8248V39.0482C20.8248 38.6948 20.6889 38.5589 20.3354 38.5589H18.5773V41.1055H17.671V34.7616H19.8732C20.9789 34.7616 21.8217 35.4775 21.8217 36.4654C21.8217 37.2357 21.4501 37.7795 20.8067 38.0332ZM18.5773 37.7432H19.6648C20.3898 37.7432 20.9154 37.3263 20.9154 36.6285C20.9154 35.9488 20.4623 35.5772 19.6648 35.5772H18.5773V37.7432ZM27.2195 41.1055H23.1141V34.7616H27.1289V35.5772H24.0204V37.4351H26.6576V38.2507H24.0204V40.2898H27.2195V41.1055ZM32.7805 41.1055H28.4757V34.7616H29.382V40.2898H32.7805V41.1055ZM38.5046 41.1055H37.5711L37.0817 39.4742H34.8342L34.3448 41.1055H33.4385L35.4142 34.7616H36.5561L38.5046 41.1055ZM35.9579 35.7041L35.0789 38.6585H36.8461L35.9579 35.7041ZM41.8542 41.1055H40.9479V35.5772H39.1445V34.7616H43.6577V35.5772H41.8542V41.1055ZM48.5933 34.7616V35.5138H47.2883V40.3533H48.5933V41.1055H45.077V40.3533H46.382V35.5138H45.077V34.7616H48.5933ZM52.2873 40.0633L53.7646 34.7616H54.7433L52.8674 41.1055H51.6892L49.8042 34.7616H50.7829L52.2873 40.0633ZM59.824 41.1055H55.7186V34.7616H59.7333V35.5772H56.6248V37.4351H59.2621V38.2507H56.6248V40.2898H59.824V41.1055ZM67.357 41.1055H66.4508V34.7616H67.357V37.5257H69.7858V34.7616H70.6921V41.1055H69.7858V38.3413H67.357V41.1055ZM74.0055 41.1961C72.628 41.1961 71.8486 40.3533 71.8486 38.9757V34.7616H72.7549V38.8489C72.7549 39.9001 73.1989 40.3805 73.9874 40.3805H74.0236C74.8121 40.3805 75.2562 39.9001 75.2562 38.8489V34.7616H76.1624V38.9757C76.1624 40.3533 75.383 41.1961 74.0055 41.1961ZM79.4396 38.432L80.518 34.7616H81.6237V41.1055H80.7809V36.2932L79.8746 39.3745H79.0046L78.0983 36.2932V41.1055H77.2645V34.7616H78.3611L79.4396 38.432ZM86.6318 34.7616V35.5138H85.3268V40.3533H86.6318V41.1055H83.1155V40.3533H84.4205V35.5138H83.1155V34.7616H86.6318ZM90.0177 41.1055H88.2777V34.7616H89.9905C91.5493 34.7616 92.6459 35.9035 92.6459 37.9426C92.6459 39.9817 91.5674 41.1055 90.0177 41.1055ZM89.184 35.5772V40.2898H89.9452C91.0599 40.2898 91.7396 39.5557 91.7396 37.9335C91.7396 36.3113 91.0418 35.5772 89.9452 35.5772H89.184ZM97.5 34.7616V35.5138H96.1949V40.3533H97.5V41.1055H93.9836V40.3533H95.2887V35.5138H93.9836V34.7616H97.5ZM101.629 41.1055H100.723V35.5772H98.9193V34.7616H103.432V35.5772H101.629V41.1055ZM106.619 37.7432L108.06 34.7616H109.039L107.054 38.586V41.1055H106.148V38.586L104.181 34.7616H105.178L106.619 37.7432ZM112.615 37.6707H111.473V36.5288H112.615V37.6707ZM112.615 41.1055H111.473V39.9636H112.615V41.1055ZM118.049 37.6707H116.907V36.5288H118.049V37.6707ZM118.049 41.1055H116.907V39.9636H118.049V41.1055ZM128.618 37.136C129.796 37.136 130.576 37.9698 130.576 39.0845C130.576 40.3261 129.669 41.1961 128.373 41.1961C127.168 41.1961 126.244 40.5255 126.135 39.4107H127.023C127.132 40.0451 127.667 40.3986 128.346 40.3986H128.419C129.162 40.3986 129.688 39.882 129.688 39.1298C129.688 38.3957 129.18 37.9335 128.473 37.9335H128.401C127.993 37.9335 127.494 38.1238 127.195 38.5226H126.362L127.132 34.7616H130.512V35.5682H127.821L127.395 37.5891C127.676 37.3082 128.147 37.136 128.618 37.136ZM134.052 37.136C135.23 37.136 136.01 37.9698 136.01 39.0845C136.01 40.3261 135.103 41.1961 133.807 41.1961C132.602 41.1961 131.678 40.5255 131.569 39.4107H132.457C132.566 40.0451 133.101 40.3986 133.78 40.3986H133.853C134.596 40.3986 135.122 39.882 135.122 39.1298C135.122 38.3957 134.614 37.9335 133.907 37.9335H133.835C133.427 37.9335 132.928 38.1238 132.629 38.5226H131.796L132.566 34.7616H135.946V35.5682H133.255L132.829 37.5891C133.11 37.3082 133.581 37.136 134.052 37.136ZM137.81 37.4804C137.021 37.4804 136.641 36.846 136.641 36.1029C136.641 35.3597 137.021 34.7253 137.81 34.7253C138.607 34.7253 138.988 35.3597 138.988 36.1029C138.988 36.846 138.607 37.4804 137.81 37.4804ZM137.674 41.1055H136.94L140.746 34.7616H141.48L137.674 41.1055ZM137.801 36.9276H137.828C138.163 36.9276 138.335 36.5651 138.335 36.1029C138.335 35.6316 138.163 35.2872 137.828 35.2872H137.801C137.465 35.2872 137.293 35.6316 137.293 36.1029C137.293 36.5651 137.465 36.9276 137.801 36.9276ZM140.601 41.1417C139.813 41.1417 139.432 40.5073 139.432 39.7642C139.432 39.0211 139.813 38.3867 140.601 38.3867C141.398 38.3867 141.779 39.0211 141.779 39.7642C141.779 40.5073 141.398 41.1417 140.601 41.1417ZM140.592 40.5889H140.619C140.954 40.5889 141.127 40.2264 141.127 39.7642C141.127 39.2929 140.954 38.9485 140.619 38.9485H140.592C140.257 38.9485 140.084 39.2929 140.084 39.7642C140.084 40.2264 140.257 40.5889 140.592 40.5889Z"></path>
<path fill="white" d="M23.2536 99.1684C19.6944 99.1684 17.8358 96.3804 17.8358 92.0501C17.8358 87.7989 19.6747 84.9318 23.2536 84.9318C26.2196 84.9318 27.7223 86.9091 27.8608 89.5191H25.8834C25.7846 87.9175 24.9146 86.7114 23.3129 86.7114H23.1943C20.9995 86.7114 19.8131 88.7875 19.8131 92.0501C19.8131 95.3522 20.9797 97.3889 23.1943 97.3889H23.3129C24.9541 97.3889 25.745 96.242 25.8834 94.5811H27.8608C27.7223 97.2109 26.2987 99.1684 23.2536 99.1684ZM34.3386 99.1684C31.0563 99.1684 29.2371 96.4397 29.2371 92.0501C29.2371 87.6605 31.0563 84.9318 34.3386 84.9318C37.621 84.9318 39.4401 87.6605 39.4401 92.0501C39.4401 96.4397 37.621 99.1684 34.3386 99.1684ZM34.2991 97.3889H34.3782C36.4148 97.3889 37.4628 95.372 37.4628 92.0501C37.4628 88.7282 36.4148 86.7114 34.3782 86.7114H34.2991C32.2624 86.7114 31.2145 88.7282 31.2145 92.0501C31.2145 95.372 32.2624 97.3889 34.2991 97.3889ZM48.0139 92.9597L43.644 97.2109H50.5251V98.9707H41.2119V97.112L46.3727 92.0501C47.9744 90.488 48.3896 89.8751 48.3896 88.8469C48.3896 87.6407 47.4009 86.6718 46.0366 86.6718H45.8389C44.3361 86.6718 43.3277 87.6802 43.2881 89.3016H41.3504C41.3504 86.652 43.2486 84.9318 45.918 84.9318C48.5478 84.9318 50.3274 86.5532 50.3274 88.7875C50.3274 90.5276 49.4771 91.536 48.0139 92.9597ZM58.5057 91.4767H56.0143V88.9853H58.5057V91.4767ZM58.5057 98.9707H56.0143V96.4793H58.5057V98.9707ZM79.9639 84.9318C83.2462 84.9318 85.1247 87.443 85.1247 91.6546C85.1247 96.1431 82.6333 99.1684 79.3114 99.1684C76.9979 99.1684 75.3172 97.8239 74.9415 95.5697H76.8793C77.0968 96.6375 78.0063 97.4284 79.3114 97.4284H79.4893C81.4271 97.4284 83.1671 95.6093 83.4044 92.0501C82.7519 93.4738 81.2294 94.2252 79.6475 94.2252C77.1166 94.2252 75.1788 92.406 75.1788 89.7169C75.1788 86.9684 77.077 84.9318 79.9639 84.9318ZM79.8848 92.4851H80.0628C81.7237 92.4851 82.9496 91.2592 82.9496 89.5982C82.9496 87.9175 81.7435 86.6718 80.0628 86.6718H79.8848C78.2832 86.6718 77.1166 87.9175 77.1166 89.5785C77.1166 91.2196 78.2239 92.4851 79.8848 92.4851ZM91.6421 84.8725C94.9244 84.8725 96.9017 87.5221 96.9017 91.9908C96.9017 96.4595 94.964 99.1091 91.6421 99.1091C88.3202 99.1091 86.3824 96.4595 86.3824 91.9908C86.3824 87.5221 88.3597 84.8725 91.6421 84.8725ZM91.741 86.6125H91.5432C89.7241 86.6125 88.3202 88.2339 88.3202 91.9908C88.3202 92.8806 88.3993 93.632 88.5377 94.3042L94.2126 88.1746C93.6194 87.1068 92.7494 86.6125 91.741 86.6125ZM91.5432 97.3691H91.741C93.5601 97.3691 94.964 95.7477 94.964 91.9908C94.964 91.2196 94.9047 90.5473 94.786 89.9542L89.1902 96.0047C89.7834 96.9341 90.6139 97.3691 91.5432 97.3691ZM103.696 90.3101C106.266 90.3101 107.967 92.1292 107.967 94.5613C107.967 97.2702 105.99 99.1684 103.162 99.1684C100.532 99.1684 98.5154 97.7052 98.2781 95.2731H100.216C100.453 96.6572 101.62 97.4284 103.103 97.4284H103.261C104.882 97.4284 106.029 96.3013 106.029 94.6602C106.029 93.0585 104.922 92.0501 103.38 92.0501H103.221C102.332 92.0501 101.244 92.4653 100.592 93.3354H98.7725L100.453 85.1295H107.829V86.8893H101.956L101.027 91.2987C101.64 90.6858 102.668 90.3101 103.696 90.3101ZM112.23 98.9707H110.253V85.1295H115.157C117.688 85.1295 119.487 86.6323 119.487 89.3412C119.487 92.0501 117.628 93.5331 115.137 93.5331H112.23V98.9707ZM112.23 86.9091V91.7535H114.86C116.541 91.7535 117.51 90.9033 117.51 89.3412C117.51 87.7791 116.58 86.9091 114.86 86.9091H112.23ZM123.691 98.9707H121.714V85.1295H126.617C129.148 85.1295 130.948 86.6323 130.948 89.3412C130.948 92.0501 129.089 93.5331 126.598 93.5331H123.691V98.9707ZM123.691 86.9091V91.7535H126.321C128.001 91.7535 128.97 90.9033 128.97 89.3412C128.97 87.7791 128.041 86.9091 126.321 86.9091H123.691ZM137.485 93.1376L139.838 85.1295H142.25V98.9707H140.411V88.4712L138.434 95.194H136.536L134.558 88.4712V98.9707H132.739V85.1295H135.132L137.485 93.1376Z"></path>
</svg>
