<svg xmlns="http://www.w3.org/2000/svg" fill="none" viewBox="0 0 96 29" height="29" width="96">
<path fill="#0D0D0D" d="M8.59629 9.21436H8.44629V9.36436V14.2456V14.3956H8.59629H11.2279C11.5254 14.3956 11.7687 14.4311 11.9381 14.5172C12.095 14.5971 12.1933 14.7218 12.2103 14.9365L12.2212 15.0747H12.2666H12.3598H12.4164H12.4166H12.4732H12.5664H12.6155L12.623 14.9326C12.6336 14.7301 12.7388 14.6037 12.9201 14.5196C13.1114 14.4309 13.3788 14.3956 13.6758 14.3956H16.3216H16.4716V14.2456V9.36436V9.21436H16.3216H13.8881C13.7198 9.21436 13.5115 9.22527 13.3182 9.25104C13.1317 9.27591 12.9358 9.31734 12.8091 9.38975L12.8091 9.3897L12.8055 9.39186C12.6306 9.49832 12.5033 9.63887 12.4165 9.80485C12.3297 9.63887 12.2024 9.49832 12.0275 9.39186L12.0275 9.39181L12.0239 9.38975C11.9001 9.31899 11.729 9.27687 11.5577 9.25136C11.3826 9.22527 11.191 9.21436 11.0157 9.21436H8.59629ZM8.74629 14.0956V9.51436H11.0157C11.1799 9.51436 11.3562 9.52466 11.5136 9.54809C11.6735 9.57191 11.7989 9.60725 11.8734 9.64925C12.1384 9.81154 12.2664 10.0916 12.2664 10.4962V14.3822C12.2102 14.3302 12.1457 14.2863 12.0741 14.2499C11.8402 14.1309 11.5388 14.0956 11.2279 14.0956H8.74629ZM12.5666 10.4962C12.5666 10.0916 12.6945 9.81157 12.9596 9.64928C13.0315 9.60888 13.1744 9.57286 13.3578 9.54841C13.536 9.52466 13.7309 9.51436 13.8881 9.51436H16.1716V14.0956H13.6758C13.3645 14.0956 13.0447 14.1311 12.7938 14.2475C12.7098 14.2865 12.6328 14.3351 12.5666 14.3943V10.4962Z" clip-rule="evenodd" fill-rule="evenodd"></path>
<path fill="#0D0D0D" d="M16.8341 9.73179V14.896H13.0988L13.0564 15.0092C12.9857 15.1648 12.8725 15.3205 12.4622 15.3205C12.0518 15.3205 11.9387 15.1648 11.8679 15.0092L11.8255 14.896H8.09025V9.73179H7.75069V9.88743L7.42527 9.78839C7.38283 9.66105 7.26964 9.56201 7.12815 9.56201C6.95837 9.56201 6.81688 9.70349 6.81688 9.87328C6.81688 10.0431 6.95837 10.1845 7.12815 10.1845C7.19889 10.1845 7.26964 10.1563 7.32623 10.1138L7.75069 10.2411V10.6514L7.42527 10.5949C7.38283 10.4817 7.26964 10.4109 7.1423 10.4109C6.97252 10.4109 6.83103 10.5524 6.83103 10.7222C6.83103 10.892 6.97252 11.0335 7.1423 11.0335C7.22719 11.0335 7.31208 10.991 7.36868 10.9344L7.75069 11.0052V11.4296L7.42527 11.4155C7.36868 11.3306 7.26964 11.2598 7.15645 11.2598C6.98667 11.2598 6.84518 11.4013 6.84518 11.5711C6.84518 11.7409 6.98667 11.8824 7.15645 11.8824C7.25549 11.8824 7.35453 11.8258 7.41112 11.755L7.75069 11.7692V12.2219L7.41112 12.2361C7.35453 12.1512 7.26964 12.1088 7.15645 12.1088C6.98667 12.1088 6.84518 12.2502 6.84518 12.42C6.84518 12.5898 6.98667 12.7313 7.15645 12.7313C7.26964 12.7313 7.36868 12.6747 7.41112 12.5898L7.73654 12.5757V13.0001L7.36868 13.0567C7.31208 13.0001 7.22719 12.9577 7.1423 12.9577C6.97252 12.9577 6.83103 13.0991 6.83103 13.2689C6.83103 13.4387 6.97252 13.5802 7.1423 13.5802C7.26964 13.5802 7.38283 13.5095 7.42527 13.3963L7.73654 13.3397V13.75L7.32623 13.8773C7.26964 13.8349 7.19889 13.8066 7.12815 13.8066C6.95837 13.8066 6.81688 13.9481 6.81688 14.1178C6.81688 14.2876 6.95837 14.4291 7.12815 14.4291C7.26964 14.4291 7.38283 14.3301 7.42527 14.2027L7.73654 14.1037V14.4999L7.28379 14.6979C7.24134 14.6696 7.18475 14.6413 7.114 14.6413C6.94422 14.6413 6.80273 14.7828 6.80273 14.9526C6.80273 15.1224 6.94422 15.2639 7.114 15.2639C7.26964 15.2639 7.39697 15.1507 7.41112 15.0092L7.72239 14.8677V15.2356H11.6274C11.783 15.5044 12.0518 15.6459 12.4622 15.6459C12.8725 15.6459 13.1413 15.5044 13.2969 15.2356H17.1595V9.73179H16.8341Z"></path>
<path fill="#0D0D0D" d="M9.9129 8.02002C9.13473 8.02002 8.49805 8.14736 8.49805 8.28884C8.49805 8.44448 9.13473 8.55766 9.9129 8.55766C10.6911 8.55766 11.3278 8.43033 11.3278 8.28884C11.3278 8.13321 10.7052 8.02002 9.9129 8.02002Z"></path>
<path fill="#0D0D0D" d="M11.8649 6.32196L11.0443 6.90205L11.0301 6.95865L11.2282 7.04354C11.2707 7.05769 11.2707 7.10013 11.2424 7.11428L10.733 7.55289H10.6906L10.3227 7.01524C10.2944 6.98695 10.3086 6.9445 10.351 6.9445L10.5915 6.90205V6.84546L9.95484 5.9541H9.8558L9.21911 6.84546V6.90205L9.45964 6.9445C9.50208 6.95865 9.51623 6.98695 9.48794 7.01524L9.12007 7.55289H9.07763L8.59658 7.11428C8.58243 7.10013 8.58243 7.07184 8.61072 7.04354L8.8088 6.95865L8.79466 6.90205L7.94574 6.32196L7.875 6.35026L8.3702 7.87831C8.62487 7.76512 9.20496 7.68022 9.8841 7.68022C10.5632 7.68022 11.1433 7.76512 11.398 7.87831L11.8932 6.35026L11.8649 6.32196Z"></path>
<path fill="#0D0D0D" d="M12.4598 18.2354C11.6816 18.2354 11.0449 18.3627 11.0449 18.5042C11.0449 18.6598 11.6816 18.773 12.4598 18.773C13.2379 18.773 13.8746 18.6457 13.8746 18.5042C13.8605 18.3627 13.2379 18.2354 12.4598 18.2354Z"></path>
<path fill="#0D0D0D" d="M14.3971 16.5378L13.5765 17.1179V17.1745L13.7746 17.2594C13.8171 17.2735 13.8171 17.316 13.7888 17.3301L13.2794 17.7687H13.237L12.8691 17.2311C12.8408 17.2028 12.855 17.1603 12.8974 17.1603L13.1379 17.1179V17.0613L12.5012 16.1699H12.4022L11.7655 17.0613V17.1179L12.006 17.1603C12.0485 17.1745 12.0626 17.2028 12.0343 17.2311L11.6665 17.7687H11.624L11.143 17.3301C11.1288 17.316 11.1288 17.2735 11.1571 17.2594L11.3552 17.1745V17.1179L10.5063 16.5378L10.4355 16.5661L10.9307 18.0941C11.1854 17.9809 11.7655 17.896 12.4446 17.896C13.1238 17.896 13.7039 17.9809 13.9585 18.0941L14.4537 16.5661L14.3971 16.5378Z"></path>
<path fill="#0D0D0D" d="M14.9774 8.02002C14.1992 8.02002 13.5625 8.14736 13.5625 8.28884C13.5625 8.44448 14.1992 8.55766 14.9774 8.55766C15.7555 8.55766 16.3922 8.43033 16.3922 8.28884C16.3922 8.13321 15.7555 8.02002 14.9774 8.02002Z"></path>
<path fill="#0D0D0D" d="M16.9303 6.32196L16.1097 6.90205L16.0956 6.95865L16.2936 7.04354C16.3361 7.05769 16.3361 7.10013 16.3078 7.11428L15.7984 7.55289H15.756L15.3881 7.01524C15.3598 6.98695 15.374 6.9445 15.4164 6.9445L15.657 6.90205V6.84546L15.0203 5.9541H14.9212L14.2845 6.84546V6.90205L14.5251 6.9445C14.5675 6.95865 14.5817 6.98695 14.5534 7.01524L14.1855 7.55289H14.1431L13.662 7.11428C13.6479 7.10013 13.6479 7.07184 13.6762 7.04354L13.8742 6.95865L13.8601 6.90205L13.0112 6.32196L12.9404 6.35026L13.4356 7.87831C13.6903 7.76512 14.2704 7.68022 14.9495 7.68022C15.6287 7.68022 16.2087 7.76512 16.4634 7.87831L16.9586 6.35026L16.9303 6.32196Z"></path>
<path fill="#0D0D0D" d="M9.27561 10.1562C9.40295 10.1562 9.51614 10.1845 9.58688 10.2553C9.64347 10.2977 9.68592 10.3826 9.68592 10.4817C9.68592 10.7505 9.48784 10.8637 9.23317 10.8637H8.9502V10.8212C9.03509 10.8212 9.03509 10.8071 9.03509 10.6939V10.326C9.03509 10.2128 9.02094 10.1987 8.9502 10.1987V10.1562H9.27561ZM9.23317 10.6797C9.23317 10.7788 9.26146 10.7929 9.30391 10.7929C9.40295 10.7929 9.48784 10.6939 9.48784 10.4958C9.48784 10.2694 9.37465 10.1987 9.27561 10.1987C9.24732 10.1987 9.23317 10.1987 9.23317 10.2128C9.23317 10.2128 9.23317 10.2411 9.23317 10.2694V10.6797Z"></path>
<path fill="#0D0D0D" d="M10.5067 10.4963C10.5067 10.7227 10.3511 10.8641 10.1389 10.8641C9.92664 10.8641 9.78516 10.7085 9.78516 10.5104C9.78516 10.3406 9.89834 10.1284 10.153 10.1284C10.3511 10.1284 10.5067 10.2841 10.5067 10.4963ZM9.98324 10.468C9.98324 10.6661 10.054 10.8075 10.1672 10.8075C10.2662 10.8075 10.3087 10.7227 10.3087 10.5246C10.3087 10.3123 10.2379 10.185 10.1389 10.185C10.054 10.185 9.98324 10.2841 9.98324 10.468Z"></path>
<path fill="#0D0D0D" d="M11.4548 10.1562V10.1987C11.3699 10.2128 11.3699 10.2128 11.3699 10.326L11.3841 10.6797C11.3841 10.7929 11.3841 10.8071 11.469 10.8071V10.8495H11.1294V10.8071C11.2143 10.7929 11.2143 10.7929 11.2143 10.6797V10.2977L11.0021 10.8354H10.9455L10.7474 10.3402L10.7333 10.5807C10.7333 10.6797 10.7333 10.7222 10.7333 10.7646C10.7333 10.8071 10.7616 10.8212 10.8323 10.8212V10.8637H10.5635V10.8212C10.6201 10.8212 10.6342 10.8071 10.6484 10.7646C10.6484 10.7363 10.6625 10.6797 10.6625 10.5807L10.6767 10.3685C10.6908 10.227 10.6767 10.227 10.5918 10.2128V10.1704H10.8464L11.0304 10.5949L11.2002 10.1704H11.4548V10.1562Z"></path>
<path fill="#0D0D0D" d="M11.8079 10.6797C11.8079 10.7929 11.822 10.8071 11.8928 10.8071V10.8495H11.5391V10.8071C11.6098 10.8071 11.624 10.7929 11.624 10.6797V10.326C11.624 10.2128 11.6098 10.1987 11.5391 10.1987V10.1562H11.8928V10.1987C11.822 10.1987 11.8079 10.2128 11.8079 10.326V10.6797Z"></path>
<path fill="#0D0D0D" d="M10.0683 12.1527H9.96926L9.5731 11.6434V11.8415C9.5731 11.9547 9.5731 12.0113 9.58725 12.0537C9.58725 12.0961 9.61555 12.1103 9.68629 12.1103V12.1527H9.41747V12.1103C9.45991 12.1103 9.48821 12.0961 9.50236 12.0537C9.50236 12.0254 9.51651 11.9547 9.51651 11.8415V11.6434C9.51651 11.5585 9.51651 11.5444 9.48821 11.5161C9.47406 11.4878 9.44577 11.4878 9.40332 11.4878V11.4453H9.64385L9.99756 11.8981V11.7566C9.99756 11.6434 9.99756 11.5868 9.98341 11.5444C9.98341 11.5019 9.95511 11.4878 9.88437 11.4878V11.4453H10.1532V11.4878C10.0966 11.4878 10.0683 11.5019 10.0683 11.5444C10.0683 11.5727 10.0542 11.6434 10.0542 11.7566V12.1527H10.0683Z"></path>
<path fill="#0D0D0D" d="M10.5061 12.1527C10.4353 11.9547 10.3363 11.7 10.2939 11.5868C10.2514 11.5019 10.2373 11.4878 10.1807 11.4878V11.4453H10.5344V11.4878H10.4919C10.4495 11.4878 10.4495 11.5019 10.4636 11.5444C10.4778 11.6009 10.5627 11.8132 10.6051 11.9264C10.6334 11.8415 10.7042 11.6292 10.7183 11.5726C10.7466 11.5019 10.7325 11.5019 10.69 11.4878H10.6617V11.4453H10.9164V11.4878C10.8598 11.5019 10.8456 11.5019 10.8032 11.6009C10.8032 11.6151 10.6617 11.9405 10.591 12.1527H10.5061Z"></path>
<path fill="#0D0D0D" d="M10.9873 11.9273C11.0156 11.9839 11.0722 12.1112 11.1854 12.1112C11.242 12.1112 11.2844 12.0688 11.2844 11.9981C11.2844 11.9415 11.242 11.899 11.1712 11.8707L11.1571 11.8566C11.0722 11.8141 10.9731 11.7575 10.9731 11.6443C10.9731 11.517 11.058 11.418 11.2278 11.418C11.2561 11.418 11.2985 11.418 11.3268 11.4321C11.3551 11.4321 11.3693 11.4463 11.3834 11.4463C11.3834 11.4887 11.3976 11.5453 11.4117 11.616L11.3693 11.6302C11.341 11.5595 11.3127 11.4887 11.2278 11.4887C11.1712 11.4887 11.1288 11.5312 11.1288 11.5877C11.1288 11.6443 11.1712 11.6726 11.242 11.7009L11.2703 11.7151C11.3693 11.7575 11.4542 11.8141 11.4542 11.9415C11.4542 12.0688 11.341 12.1678 11.1854 12.1678C11.1429 12.1678 11.1005 12.1537 11.0722 12.1537C11.0439 12.1395 11.0156 12.1395 11.0014 12.1254C10.9873 12.0688 10.9731 12.0122 10.959 11.9415L10.9873 11.9273Z"></path>
<path fill="#0D0D0D" d="M9.58718 13.2549C9.58718 13.3681 9.60133 13.3823 9.67207 13.3823V13.4247H9.31836V13.3823C9.3891 13.3823 9.40325 13.3681 9.40325 13.2549V12.9012C9.40325 12.788 9.3891 12.7739 9.31836 12.7739V12.7314H9.67207V12.7739C9.60133 12.7739 9.58718 12.788 9.58718 12.9012V13.2549Z"></path>
<path fill="#0D0D0D" d="M10.0076 13.2691C10.0076 13.3257 10.0076 13.354 10.0359 13.3681C10.05 13.3823 10.0783 13.3823 10.1066 13.3823C10.1349 13.3823 10.1915 13.3823 10.2057 13.354C10.2198 13.3398 10.2481 13.3115 10.2623 13.2408L10.3047 13.2549C10.3047 13.2974 10.2764 13.4106 10.2623 13.4389H9.72461V13.3964C9.8095 13.3964 9.8095 13.3823 9.8095 13.2691V12.9154C9.8095 12.8022 9.79535 12.788 9.72461 12.788V12.7314H10.0783V12.7739C10.0076 12.7739 9.99343 12.788 9.99343 12.9012V13.2691H10.0076Z"></path>
<path fill="#0D0D0D" d="M10.6204 13.2691C10.6204 13.3257 10.6204 13.354 10.6487 13.3681C10.6628 13.3823 10.6911 13.3823 10.7194 13.3823C10.7477 13.3823 10.8043 13.3823 10.8185 13.354C10.8326 13.3398 10.8609 13.3115 10.8751 13.2408L10.9175 13.2549C10.9175 13.2974 10.8892 13.4106 10.8751 13.4389H10.3516V13.3964C10.4365 13.3964 10.4365 13.3823 10.4365 13.2691V12.9154C10.4365 12.8022 10.4223 12.788 10.3516 12.788V12.7314H10.7053V12.7739C10.6345 12.7739 10.6204 12.788 10.6204 12.9012V13.2691Z"></path>
<path fill="#0D0D0D" d="M11.1291 13.4389C11.0584 13.2408 10.9593 12.9861 10.9169 12.8729C10.8745 12.788 10.8603 12.7739 10.8037 12.7739V12.7314H11.1574V12.7739H11.115C11.0725 12.7739 11.0725 12.788 11.0867 12.8305C11.1008 12.8871 11.1857 13.0993 11.2282 13.2125C11.2565 13.1276 11.3272 12.9154 11.3414 12.8588C11.3697 12.788 11.3555 12.788 11.3131 12.7739H11.2848V12.7314H11.5394V12.7739C11.4828 12.788 11.4687 12.788 11.4262 12.8871C11.4262 12.9012 11.2848 13.2266 11.214 13.4389H11.1291Z"></path>
<path fill="#0D0D0D" d="M13.9021 10.1562V10.1987C13.8172 10.2128 13.8172 10.2128 13.8172 10.326L13.8314 10.6797C13.8314 10.7929 13.8314 10.8071 13.9162 10.8071V10.8495H13.5767V10.8071C13.6616 10.7929 13.6616 10.7929 13.6616 10.6797V10.2977L13.4493 10.8354H13.3928L13.1947 10.3402L13.1805 10.5807C13.1805 10.6797 13.1805 10.7222 13.1805 10.7646C13.1805 10.8071 13.2088 10.8212 13.2796 10.8212V10.8637H13.0107V10.8212C13.0673 10.8212 13.0815 10.8071 13.0956 10.7646C13.0956 10.7363 13.1098 10.6797 13.1098 10.5807L13.1239 10.3685C13.1381 10.227 13.1239 10.227 13.039 10.2128V10.1704H13.2937L13.4776 10.5949L13.6474 10.1704H13.9021V10.1562Z"></path>
<path fill="#0D0D0D" d="M14.2561 10.6797C14.2561 10.7929 14.2703 10.8071 14.341 10.8071V10.8495H13.9873V10.8071C14.058 10.8071 14.0722 10.7929 14.0722 10.6797V10.326C14.0722 10.2128 14.058 10.1987 13.9873 10.1987V10.1562H14.341V10.1987C14.2703 10.1987 14.2561 10.2128 14.2561 10.326V10.6797Z"></path>
<path fill="#0D0D0D" d="M15.0478 10.8637H14.9488L14.5526 10.3543V10.5524C14.5526 10.6656 14.5526 10.7222 14.5667 10.7646C14.5667 10.8071 14.595 10.8212 14.6658 10.8212V10.8637H14.397V10.8212C14.4394 10.8212 14.4677 10.8071 14.4819 10.7646C14.4819 10.7363 14.496 10.6797 14.496 10.5524V10.3543C14.496 10.2694 14.496 10.2553 14.4677 10.227C14.4536 10.1987 14.4253 10.1987 14.3828 10.1987V10.1562H14.6233L14.9771 10.609V10.4675C14.9771 10.3543 14.9771 10.2977 14.9629 10.2553C14.9629 10.2128 14.9346 10.1987 14.8497 10.1987V10.1562H15.1185V10.1987C15.0619 10.1987 15.0336 10.2128 15.0336 10.2553C15.0336 10.2836 15.0195 10.3543 15.0195 10.4675V10.8637H15.0478Z"></path>
<path fill="#0D0D0D" d="M15.5016 10.8075H15.5299C15.5724 10.8075 15.5724 10.7934 15.5582 10.751L15.5158 10.6378H15.3318L15.3035 10.7368C15.2894 10.7793 15.2894 10.7934 15.3318 10.7934H15.3601V10.8358H15.1055V10.7934C15.1621 10.7792 15.1762 10.7793 15.2187 10.6944L15.4309 10.1426L15.5016 10.1284L15.5724 10.3265C15.6148 10.4538 15.6714 10.5812 15.6997 10.6944C15.728 10.7934 15.7563 10.7934 15.8129 10.8075V10.85H15.4733V10.8075H15.5016ZM15.3601 10.5812H15.5016L15.4309 10.3689L15.3601 10.5812Z"></path>
<path fill="#0D0D0D" d="M13.8883 11.9673C13.8883 12.0805 13.9025 12.0946 13.9874 12.0946V12.1371H13.6054V12.0946C13.6903 12.0946 13.7044 12.0805 13.7044 11.9673V11.5004H13.6903C13.6195 11.5004 13.5912 11.5146 13.5771 11.5287C13.5629 11.5429 13.5488 11.5712 13.5346 11.6277H13.4922C13.4922 11.5429 13.5063 11.458 13.5063 11.4014H13.5346C13.5488 11.4297 13.5629 11.4297 13.5912 11.4297H14.0157C14.044 11.4297 14.044 11.4297 14.0723 11.4014H14.1006C14.1006 11.4438 14.1006 11.5429 14.1147 11.6136H14.0723C14.0581 11.5429 14.044 11.5146 14.0298 11.5004C14.0157 11.4863 13.9732 11.4721 13.9308 11.4721H13.8883V11.9673Z"></path>
<path fill="#0D0D0D" d="M14.4544 11.9688C14.4544 12.082 14.4685 12.0961 14.5393 12.0961V12.1386H14.1855V12.0961C14.2563 12.0961 14.2704 12.082 14.2704 11.9688V11.6151C14.2704 11.5019 14.2563 11.4878 14.1855 11.4878V11.4453H14.5393V11.4878C14.4685 11.4878 14.4544 11.5019 14.4544 11.6151V11.9688Z"></path>
<path fill="#0D0D0D" d="M15.3593 11.7858C15.3593 12.0122 15.2036 12.1537 14.9914 12.1537C14.7792 12.1537 14.6377 11.9981 14.6377 11.8C14.6377 11.6302 14.7509 11.418 15.0056 11.418C15.2036 11.4321 15.3593 11.5736 15.3593 11.7858ZM14.8358 11.7717C14.8358 11.9698 14.9065 12.1112 15.0197 12.1112C15.1187 12.1112 15.1612 12.0264 15.1612 11.8283C15.1612 11.616 15.0763 11.4887 14.9914 11.4887C14.8924 11.4887 14.8358 11.5736 14.8358 11.7717Z"></path>
<path fill="#0D0D0D" d="M14.2136 12.7314V12.7739C14.1287 12.788 14.1287 12.788 14.1287 12.9012L14.1429 13.2549C14.1429 13.3681 14.1429 13.3823 14.2278 13.3823V13.4247H13.8882V13.3823C13.9731 13.3681 13.9731 13.3681 13.9731 13.2549V12.8729L13.7609 13.4106H13.7043L13.5062 12.9154L13.492 13.1559C13.492 13.2549 13.492 13.2974 13.492 13.3398C13.492 13.3823 13.5203 13.3964 13.5911 13.3964V13.4389H13.3223V13.3964C13.3789 13.3964 13.393 13.3823 13.4072 13.3398C13.4072 13.3115 13.4213 13.2549 13.4213 13.1559L13.4355 12.9437C13.4496 12.8022 13.4355 12.8022 13.3506 12.788V12.7314H13.6052L13.7892 13.1559L13.959 12.7314H14.2136Z"></path>
<path fill="#0D0D0D" d="M14.3842 12.9012C14.3842 12.788 14.37 12.7739 14.2993 12.7739V12.7314H14.8087C14.8087 12.7456 14.8087 12.8305 14.8228 12.9154H14.7804C14.7662 12.8588 14.7521 12.8305 14.7379 12.8163C14.7238 12.8022 14.6813 12.788 14.6247 12.788H14.6106C14.5681 12.788 14.5681 12.788 14.5681 12.8305V13.0427H14.6247C14.7238 13.0427 14.7238 13.0427 14.7379 12.9578H14.7804V13.2125H14.7379C14.7238 13.1135 14.7238 13.1135 14.6247 13.1135H14.5681V13.2832C14.5681 13.3398 14.5681 13.3681 14.5964 13.3823C14.6106 13.3964 14.6389 13.3964 14.6672 13.3964C14.7096 13.3964 14.7521 13.3964 14.7804 13.3681C14.7945 13.354 14.8228 13.3115 14.8369 13.2549L14.8794 13.2691C14.8794 13.3257 14.8511 13.4389 14.8369 13.4672H14.2852V13.4247C14.37 13.4106 14.37 13.4106 14.37 13.2974V12.9012H14.3842Z"></path>
<path fill="#0D0D0D" d="M15.2468 13.3964H15.2751C15.3175 13.3964 15.3175 13.3823 15.3034 13.3398L15.2609 13.2266H15.0911L15.0628 13.3257C15.0487 13.3681 15.0487 13.3823 15.0911 13.3823H15.1194V13.4247H14.8789V13.3823C14.9355 13.3681 14.9496 13.3681 14.9921 13.2832L15.2043 12.7314L15.2751 12.7173L15.3458 12.9154C15.3883 13.0427 15.4448 13.17 15.4731 13.2832C15.5014 13.3823 15.5297 13.3823 15.5863 13.3823V13.4247H15.2468V13.3964ZM15.1194 13.1559H15.2609L15.1902 12.9437L15.1194 13.1559Z"></path>
<path fill="#0D0D0D" d="M11.4829 22.0838C11.4829 22.2394 11.3556 22.3667 11.2 22.3667C11.0443 22.3667 10.917 22.2394 10.917 22.0838C10.917 21.9281 11.0443 21.8008 11.2 21.8008C11.3556 21.8008 11.4829 21.9281 11.4829 22.0838Z"></path>
<path fill="#0D0D0D" d="M14.3374 22.5505C14.3374 22.7062 14.2101 22.8335 14.0545 22.8335C13.8988 22.8335 13.7715 22.7062 13.7715 22.5505C13.7715 22.3949 13.8988 22.2676 14.0545 22.2676C14.2101 22.2676 14.3374 22.3949 14.3374 22.5505Z"></path>
<path fill="#0D0D0D" d="M12.7281 2.21901C12.7281 2.37464 12.6007 2.50198 12.4451 2.50198C12.2894 2.50198 12.1621 2.37464 12.1621 2.21901C12.1621 2.06337 12.2894 1.93604 12.4451 1.93604C12.6007 1.93604 12.7281 2.06337 12.7281 2.21901Z"></path>
<path fill="#0D0D0D" d="M19.4196 4.85181C19.4196 5.00744 19.2781 5.12063 19.1224 5.12063C18.9668 5.12063 18.8395 4.97915 18.8536 4.82351C18.8536 4.66788 18.9951 4.55469 19.1507 4.55469C19.3064 4.56884 19.4196 4.69617 19.4196 4.85181Z"></path>
<path fill="#0D0D0D" d="M5.31269 16.9338C5.42588 17.0894 5.48247 17.2592 5.46833 17.429C5.46833 17.6271 5.39758 17.7827 5.04387 18.0232L4.02517 18.7448L3.84124 18.476C3.84124 18.476 4.88823 17.7402 4.90238 17.7261C5.08631 17.5988 5.15706 17.5139 5.15706 17.3724C5.15706 17.2875 5.12876 17.1885 5.05802 17.0894C4.95898 16.9479 4.83164 16.8913 4.7043 16.8913C4.60526 16.8913 4.49207 16.9621 4.29399 17.1036L3.34604 17.7544L3.16211 17.4856L4.06762 16.863C4.32229 16.6791 4.52037 16.5659 4.7043 16.5659C4.98727 16.5801 5.18535 16.7499 5.31269 16.9338Z"></path>
<path fill="#0D0D0D" d="M2.06055 14.9526L3.9989 14.2734L4.09794 14.5706L2.99435 15.9147L4.39506 15.3629L4.4941 15.6458L2.58404 16.3816L2.485 16.0845L3.58859 14.7403L2.15959 15.2355L2.06055 14.9526Z"></path>
<path fill="#0D0D0D" d="M3.8077 13.1068L1.77832 13.4082L1.82612 13.7301L3.85551 13.4287L3.8077 13.1068Z"></path>
<path fill="#0D0D0D" d="M1.70699 10.9763L1.72113 10.6367L3.74438 11.4573L3.73023 11.7827L1.65039 12.4053V12.0657L3.33407 11.5988L1.70699 10.9763Z"></path>
<path fill="#0D0D0D" d="M3.55985 6.39307C3.27688 6.39307 3.13539 6.56285 2.95146 6.88827L2.71094 7.31272L4.5078 8.28897L4.66344 8.006L3.91357 7.59569L3.95601 7.5108C4.08335 7.28442 4.12579 7.24198 4.45121 7.27027L5.0313 7.32687L5.20108 7.02975L4.52195 6.97315C4.38047 6.95901 4.28143 6.94486 4.19654 6.97315C4.16824 6.9873 4.13994 7.00145 4.0975 7.02975C4.11165 6.98731 4.12579 6.95901 4.12579 6.91656C4.12579 6.85997 4.11165 6.80337 4.0975 6.74678C4.05505 6.63359 3.97016 6.53455 3.84282 6.46381C3.75793 6.42136 3.65889 6.39307 3.55985 6.39307ZM3.19199 7.0156C3.30518 6.80337 3.40422 6.71848 3.5174 6.71848C3.55985 6.71848 3.63059 6.73263 3.68719 6.76093C3.75793 6.80337 3.82867 6.87412 3.84282 6.94486C3.85697 6.97316 3.85697 7.00145 3.85697 7.02975C3.85697 7.15709 3.78623 7.27027 3.71549 7.39761L3.67304 7.46835L3.09295 7.15709L3.19199 7.0156Z"></path>
<path fill="#0D0D0D" d="M6.06278 3.30306L5.80371 3.5L7.0453 5.13323L7.30437 4.93629L6.06278 3.30306Z"></path>
<path fill="#0D0D0D" d="M6.92676 2.70013L8.24257 2.021L8.36991 2.26152L7.86056 2.53034L8.66703 4.10083L8.38406 4.25647L7.56344 2.68598L7.05409 2.9548L6.92676 2.70013Z"></path>
<path fill="#0D0D0D" d="M10.2236 1.39982L10.5632 1.30078L10.2944 2.67319L10.5066 3.45136L10.1953 3.53625L9.98309 2.77223L9.00684 1.75353L9.3464 1.6545L10.0397 2.37607L10.2236 1.39982Z"></path>
<path fill="#0D0D0D" d="M16.4639 4.18558L17.4967 2.43115L18.473 3.01124L18.3315 3.25177L17.6382 2.84146L17.3552 3.32251L18.0061 3.70452L17.8646 3.94505L17.2137 3.56304L16.7468 4.35536L16.4639 4.18558Z"></path>
<path fill="#0D0D0D" d="M21.7124 8.75562L22.4623 7.86426L22.5755 8.20382L22.0237 8.84051L22.8443 9.02444L22.9575 9.36401L21.8256 9.09518L21.0333 10.0431L20.9201 9.70357L21.5143 8.99614L20.623 8.79806L20.5098 8.45849L21.7124 8.75562Z"></path>
<path fill="#0D0D0D" d="M21.1318 10.765L23.1692 10.5952L23.2683 11.7271L22.9853 11.7412L22.9146 10.9348L22.3486 10.9914L22.4194 11.7412L22.1505 11.7695L22.0798 11.0055L21.1601 11.0763L21.1318 10.765Z"></path>
<path fill="#0D0D0D" d="M22.0353 12.5762C21.7948 12.5762 21.5826 12.6469 21.4128 12.7601C21.1015 12.9865 21.0449 13.3119 21.0449 13.4958C21.0449 14.1891 21.6958 14.4579 22.1768 14.4579C22.4173 14.4579 22.6296 14.3872 22.7993 14.274C23.1389 14.0193 23.1672 13.6515 23.1672 13.5241C23.1672 12.944 22.6013 12.5762 22.0353 12.5762ZM22.191 14.1467C21.7948 14.1467 21.3279 13.9344 21.3279 13.5241C21.3279 13.3826 21.3845 13.1846 21.5543 13.0572C21.6816 12.9723 21.8372 12.9157 22.007 12.9157C22.2051 12.9157 22.573 12.9723 22.771 13.2412C22.8418 13.326 22.8701 13.4392 22.8701 13.5524C22.8701 13.7081 22.7993 13.892 22.6437 14.0193C22.5305 14.1042 22.3749 14.1467 22.191 14.1467Z"></path>
<path fill="#0D0D0D" d="M20.8491 5.76953C20.6369 5.76953 20.4247 5.84028 20.2125 5.96761C19.8163 6.22229 19.6748 6.576 19.6748 6.83067C19.6748 7.00046 19.7173 7.17024 19.8163 7.31173C20.0285 7.65129 20.3681 7.73618 20.5803 7.73618C20.7925 7.73618 21.0189 7.66544 21.2311 7.5381C21.4858 7.38247 21.7688 7.08535 21.7688 6.67504C21.7688 6.50526 21.7263 6.33547 21.6273 6.19399C21.4292 5.92517 21.1604 5.76953 20.8491 5.76953ZM20.5237 7.43906C20.3398 7.43906 20.17 7.36832 20.0568 7.18439C20.0002 7.0995 19.9719 6.98631 19.9719 6.88727C19.9719 6.66089 20.1134 6.42037 20.3822 6.25059C20.5662 6.1374 20.7359 6.0808 20.8916 6.0808C21.0897 6.0808 21.2453 6.16569 21.3585 6.33547C21.4151 6.43451 21.4575 6.5477 21.4575 6.64674C21.4575 6.87312 21.316 7.0995 21.0614 7.25513C20.8774 7.38247 20.6935 7.43906 20.5237 7.43906Z"></path>
<path fill="#0D0D0D" d="M15.2604 1.5542C14.8359 1.5542 14.4681 1.83717 14.3125 2.34652C14.2842 2.45971 14.2559 2.5729 14.2559 2.68608C14.2559 2.88416 14.2842 3.05395 14.369 3.20958C14.553 3.54915 14.9067 3.67648 15.1614 3.67648C15.317 3.67648 15.4585 3.64819 15.5858 3.57744C15.9254 3.39351 16.1659 2.95491 16.1659 2.53045C16.1659 2.34652 16.1235 2.17674 16.0527 2.03525C15.8971 1.72398 15.5858 1.5542 15.2604 1.5542ZM15.1614 3.37936C15.0199 3.37936 14.7935 3.30862 14.6803 3.08224C14.6237 2.9832 14.5954 2.84172 14.5954 2.71438C14.5954 2.34652 14.8359 1.83717 15.2887 1.83717C15.5434 1.83717 15.8546 2.0211 15.8546 2.48801C15.8546 2.78512 15.6424 3.37936 15.1614 3.37936Z"></path>
<path fill="#0D0D0D" d="M3.94219 8.98203L4.21101 9.05277L3.89974 10.1847L1.91895 9.63286L2.25851 8.50098L2.52733 8.57172L2.28681 9.39233L2.82445 9.54797L3.03668 8.7981L3.3055 8.86884L3.09328 9.61871L3.71581 9.7885L3.94219 8.98203Z"></path>
<path fill="#0D0D0D" d="M4.45151 4.70936C4.73448 4.38395 5.0316 4.41224 5.0316 4.41224L5.0882 4.68107C5.0882 4.68107 4.86182 4.68107 4.69203 4.87915C4.62129 4.96404 4.57885 5.04893 4.57885 5.13382C4.57885 5.20456 4.60714 5.26116 4.66374 5.3036C4.80522 5.43094 5.04575 5.28945 5.20138 5.23286C5.31457 5.19041 5.48435 5.11967 5.65414 5.11967C5.78147 5.11967 5.90881 5.14797 6.022 5.26116C6.16349 5.38849 6.22008 5.52998 6.22008 5.69976C6.22008 5.86954 6.14934 6.02518 6.022 6.18081C5.76733 6.47793 5.41361 6.50623 5.41361 6.50623L5.34287 6.23741C5.5551 6.19496 5.71073 6.11007 5.79562 5.99688C5.86637 5.91199 5.90881 5.81295 5.90881 5.74221C5.90881 5.67147 5.88051 5.58657 5.80977 5.52998C5.75318 5.48753 5.69658 5.47338 5.62584 5.47338C5.4985 5.47338 5.34287 5.54413 5.20138 5.60072C4.94671 5.69976 4.69204 5.78465 4.45151 5.57242C4.33832 5.45924 4.26758 5.3319 4.26758 5.17627C4.26758 5.02063 4.32417 4.85085 4.45151 4.70936Z"></path>
<path fill="#0D0D0D" d="M20.5992 15.2219L21.3774 15.5757L21.335 15.6605C21.2359 15.9011 21.1935 15.9435 20.8681 15.9435H20.288L20.1465 16.2548H20.8256C20.9671 16.2548 21.0661 16.2548 21.151 16.2265C21.1793 16.2123 21.2076 16.1982 21.2359 16.1699C21.2359 16.184 21.2218 16.1982 21.2218 16.2265C21.2218 16.2972 21.2359 16.3821 21.2642 16.4387C21.3633 16.6509 21.6038 16.7641 21.7877 16.7641C22.1131 16.7641 22.2405 16.566 22.3961 16.2123C22.3961 16.1982 22.58 15.7737 22.58 15.7737L20.7266 14.939L20.5992 15.2219ZM21.8019 16.4387C21.7028 16.4387 21.5472 16.3821 21.4906 16.2265C21.4764 16.184 21.4765 16.1416 21.4765 16.1133C21.4765 16.0001 21.533 15.8869 21.5896 15.7596L21.6179 15.6747L22.2122 15.9435L22.1414 16.0991C22.0282 16.368 21.9575 16.4387 21.8019 16.4387Z"></path>
<path fill="#0D0D0D" d="M19.5192 17.1599C19.307 17.4287 19.1514 17.6692 19.1514 17.9663C19.1514 18.221 19.2646 18.5181 19.5617 18.7586C19.7598 18.9143 19.9861 18.9992 20.2125 18.9992C20.4955 18.9992 20.7219 18.9143 21.0756 18.4757L21.401 18.0654L19.8022 16.792L19.5192 17.1599ZM20.2408 18.702C20.0852 18.702 19.9295 18.6455 19.7598 18.5181C19.6041 18.3908 19.4343 18.1927 19.4343 17.938C19.4343 17.7541 19.5334 17.5843 19.6749 17.4004L19.8163 17.2306L20.9907 18.1644L20.9058 18.2776C20.6794 18.5464 20.5238 18.702 20.2408 18.702Z"></path>
<path fill="#0D0D0D" d="M24.1742 11.9958C24.1742 5.54404 18.9109 0.294922 12.4591 0.294922C5.99326 0.294922 0.744141 5.54404 0.744141 11.9958C0.744141 15.8725 2.6542 19.4662 5.85177 21.6592C6.16304 22.8336 7.23833 23.6966 8.5117 23.6966C8.85127 23.6966 9.19083 23.6259 9.5021 23.5127C9.92656 23.6542 10.3793 23.7674 10.8179 23.8664C10.6906 24.2201 10.5066 24.5597 10.3369 24.8568C10.3369 24.8568 10.3369 24.8568 10.351 24.8568H10.3369L10.5774 25.0973C10.634 25.069 10.7047 25.0408 10.7896 25.0408C11.0301 25.0408 11.2282 25.2388 11.2282 25.4794C11.2282 25.7199 11.0301 25.918 10.7896 25.918C10.5774 25.918 10.3935 25.7765 10.2944 25.635C10.2944 25.635 10.2378 25.8331 10.2378 26.0877C10.2378 26.9225 11.1575 27.8846 12.4309 28.2949C13.7042 27.8988 14.6239 26.9367 14.6239 26.0877C14.6239 25.8048 14.5673 25.635 14.5673 25.635C14.4682 25.7482 14.3126 25.918 14.0721 25.918C13.8316 25.918 13.6335 25.7199 13.6335 25.4794C13.6335 25.2388 13.8316 25.0408 14.0721 25.0408C14.157 25.0408 14.2277 25.069 14.2985 25.1115L14.539 24.871H14.5531C14.4258 24.5456 14.3268 24.2626 14.256 23.9796C16.3642 23.6966 18.1469 22.8053 19.5476 21.3197C22.4905 19.0701 24.1742 15.6744 24.1742 11.9958ZM8.5117 23.3712C7.18174 23.3712 6.0923 22.2818 6.0923 20.9518C6.0923 20.5274 6.20549 20.1454 6.38942 19.7916C6.51675 19.9048 6.64409 20.018 6.78558 20.1454C6.67239 20.4 6.60164 20.6688 6.60164 20.966C6.60164 21.6875 6.96951 22.2959 7.66279 22.7062C8.05895 22.9468 8.5117 23.159 8.99275 23.3429C8.83712 23.3571 8.68148 23.3712 8.5117 23.3712ZM12.4591 19.8482C11.9639 19.8482 11.4687 19.8058 10.9735 19.7067C10.5066 18.7871 9.54455 18.1929 8.5117 18.1929C8.25703 18.1929 8.0165 18.2353 7.77598 18.2919C5.78103 16.8204 4.59255 14.4576 4.59255 11.9816C4.59255 7.65217 8.11554 4.12918 12.445 4.12918C16.7745 4.12918 20.2975 7.65217 20.2975 11.9816C20.3116 16.3252 16.7886 19.8482 12.4591 19.8482ZM14.1994 19.9897C13.9589 20.3293 13.8174 20.7962 13.7891 21.2631C13.0392 21.065 12.3743 20.8103 11.78 20.5415C11.8932 20.3293 12.2186 20.1736 12.4591 20.1736C13.0534 20.1736 13.6335 20.1029 14.1994 19.9897ZM11.7093 20.1454C11.6102 20.2161 11.5253 20.3151 11.4687 20.4C11.1716 20.2585 10.8038 20.0746 10.5491 19.9331C10.9028 20.018 11.3556 20.1029 11.7093 20.1454ZM8.5117 18.5324C9.31817 18.5324 10.0822 18.9427 10.5208 19.6077C10.1388 19.5087 9.75677 19.3813 9.37476 19.2257H9.36061C9.10594 19.0984 8.82297 19.0418 8.52585 19.0418C7.87501 19.0418 7.30907 19.353 6.95536 19.8341C6.81387 19.7492 6.65824 19.6643 6.51675 19.5794C6.96951 18.9427 7.69108 18.5324 8.5117 18.5324ZM14.0721 24.7012C13.6335 24.7012 13.2798 25.0125 13.2798 25.4794C13.2798 25.9321 13.6335 26.2575 14.0721 26.2575C14.1428 26.2575 14.1994 26.2434 14.256 26.2292C14.1711 26.8801 13.4071 27.6016 12.4309 27.9271C11.4687 27.6016 10.7047 26.8659 10.6057 26.2292C10.6623 26.2434 10.733 26.2575 10.7896 26.2575C11.2565 26.2575 11.5819 25.9321 11.5819 25.4794C11.5819 25.0549 11.2424 24.7153 10.8179 24.7012C10.9453 24.4607 11.0726 24.206 11.1716 23.923C11.7093 24.0221 12.2328 24.0645 12.728 24.0645C13.1383 24.0645 13.5203 24.0362 13.9023 24.0079C13.9589 24.2343 14.0296 24.4607 14.1145 24.7012C14.1004 24.7012 14.0862 24.7012 14.0721 24.7012ZM12.728 23.7391C11.1575 23.7391 9.19083 23.2014 7.84672 22.4091C7.43641 22.1686 6.95536 21.7158 6.95536 20.9518C6.95536 20.7396 6.9978 20.5415 7.06855 20.3717C7.5779 20.782 8.08724 21.1782 8.41266 21.3621C8.4834 21.4046 8.52585 21.4187 8.62489 21.4187C8.83712 21.4187 9.0069 21.2489 9.0069 21.0367C9.0069 20.8811 8.92201 20.7396 8.78052 20.683C8.49755 20.5557 7.91746 20.3151 7.29492 19.9897C7.59204 19.6077 8.0448 19.353 8.55415 19.353C8.79467 19.353 9.02105 19.4096 9.23328 19.5087L9.65773 19.7633C11.0301 20.5981 14.5531 22.7487 18.7977 21.5602C17.1706 23.0175 15.1898 23.7391 12.728 23.7391ZM19.3212 21.0509C17.4111 21.73 15.6426 21.6734 14.1287 21.3338C14.1853 20.6547 14.4541 19.9331 14.8927 19.7916C18.2318 18.7588 20.6653 15.6461 20.6653 11.9816C20.6653 7.46824 16.9867 3.80376 12.4733 3.80376C7.94576 3.80376 4.28128 7.46824 4.28128 11.9816C4.28128 14.4859 5.45561 16.877 7.42226 18.4192C6.95536 18.6315 6.5592 18.9569 6.26208 19.3672C6.10644 19.2681 5.96496 19.155 5.83762 19.0559L5.76688 19.1267C5.85177 19.2398 5.99326 19.3813 6.16304 19.537C5.92251 19.9473 5.78103 20.4283 5.78103 20.9377C5.78103 21.0226 5.78103 21.0933 5.79518 21.1782C2.85228 19.0418 1.112 15.632 1.112 11.9958C1.112 5.72797 6.21963 0.620337 12.4874 0.620337C18.7553 0.620337 23.8629 5.71382 23.8629 11.9958C23.8204 15.5895 22.1792 18.8861 19.3212 21.0509Z"></path>
<path fill="#0D0D0D" d="M38.8329 18.6749C38.8329 21.8018 36.4135 24.0797 33.3998 24.0797C30.3296 24.0797 27.9668 21.7876 27.9668 18.7881C27.9668 15.6613 30.3862 13.3834 33.3998 13.3834C36.4701 13.3692 38.8329 15.6754 38.8329 18.6749ZM37.1068 18.7315C37.1068 15.8877 35.7202 13.8927 33.3998 13.8927C30.8673 13.8927 29.6929 16.2838 29.6929 18.7315C29.6929 21.5754 31.0795 23.5562 33.3998 23.5562C35.9324 23.5562 37.1068 21.1651 37.1068 18.7315Z"></path>
<path fill="#0D0D0D" d="M72.0106 18.6749C72.0106 21.8018 69.5912 24.0797 66.5776 24.0797C63.5073 24.0797 61.1445 21.7876 61.1445 18.7881C61.1445 15.6613 63.5639 13.3834 66.5776 13.3834C69.662 13.3692 72.0106 15.6754 72.0106 18.6749ZM70.2845 18.7315C70.2845 15.8877 68.8979 13.8927 66.5776 13.8927C64.045 13.8927 62.8707 16.2838 62.8707 18.7315C62.8707 21.5754 64.2572 23.5562 66.5776 23.5562C69.1102 23.5562 70.2845 21.1651 70.2845 18.7315Z"></path>
<path fill="#0D0D0D" d="M76.2138 18.7745H77.5014C79.4539 18.7745 79.8925 17.5436 79.8925 16.3551C79.8925 15.4638 79.4822 14.629 78.5625 14.2328C78.0814 14.0348 77.6145 14.0348 76.9779 14.0348H76.1997V18.7745H76.2138ZM78.6049 20.4441C77.9966 19.581 77.7702 19.2697 77.0203 19.2697H76.2138V22.7786C76.2138 23.0615 76.327 23.203 76.6524 23.2596L77.8268 23.5143V23.8963H73.2002V23.5143L74.2613 23.2596C74.5726 23.1747 74.6858 23.0615 74.6858 22.7786V14.6715C74.6858 14.3885 74.5726 14.2753 74.2613 14.1763L73.2002 13.9216V13.5537H77.7136C78.6615 13.5537 79.3265 13.6386 79.8642 13.8367C80.9819 14.2753 81.6186 15.3364 81.6186 16.341C81.6186 17.6143 80.6706 18.6755 79.086 19.0434V19.0999C79.3973 19.2414 79.5812 19.4395 80.6989 20.911L82.1138 22.7786C82.3119 23.0615 82.5807 23.2313 82.892 23.3021L83.9248 23.5284V23.9105H81.4488C81.1658 23.9105 81.0102 23.8256 80.7555 23.4719L78.6049 20.4441Z"></path>
<path fill="#0D0D0D" d="M58.3292 17.0909H58.7537V20.5431H58.3292L58.0745 19.5103C57.9896 19.1424 57.7633 18.9868 57.4095 18.9868H54.9052V22.7786C54.9052 23.0615 55.0184 23.203 55.3438 23.2596L56.5182 23.5143V23.8963H51.8916V23.5143L52.9527 23.2596C53.264 23.1747 53.3913 23.0615 53.3913 22.7786V14.6715C53.3913 14.3885 53.2782 14.2753 52.9527 14.1904L51.8916 13.9357V13.5537H59.7158V16.1429H59.2771L58.7961 14.5866C58.6829 14.1904 58.5131 14.0348 58.1594 14.0348H54.9052V18.4916H57.4095C57.7491 18.4916 57.9613 18.3501 58.0745 17.9681L58.3292 17.0909Z"></path>
<path fill="#0D0D0D" d="M84.748 23.8963V23.5143L85.8092 23.2596C86.1205 23.1747 86.2478 23.0615 86.2478 22.7786V14.6715C86.2478 14.3885 86.1346 14.2753 85.8092 14.1904L84.748 13.9357V13.5537H89.6152C90.931 13.5537 91.8931 13.7235 92.6571 14.0772C94.6096 14.9686 95.501 16.8928 95.501 18.7887C95.501 20.628 94.8077 22.3541 93.0533 23.2738C92.2468 23.7124 91.129 23.9105 89.6576 23.9105H84.748V23.8963ZM87.7758 14.0348V22.9484C87.7758 23.3304 87.8607 23.4153 88.2427 23.4153H89.502C90.7046 23.4153 91.596 23.2455 92.2326 22.7786C93.2938 22.0004 93.789 20.5997 93.789 18.817C93.789 17.0626 93.2938 15.3364 91.8648 14.5017C91.2564 14.148 90.4782 14.0348 89.2756 14.0348H87.7758Z"></path>
<path fill="#0D0D0D" d="M42.8935 23.5279V23.91H39.2432V23.5279L40.1628 23.3016C40.5024 23.2167 40.7429 23.1035 40.9693 22.8347L44.1386 18.8731L40.9693 14.6709C40.7712 14.388 40.5165 14.2465 40.1911 14.1474L39.3281 13.9211V13.5391H43.8697V13.9211L42.8935 14.1192C42.5539 14.1757 42.6388 14.3172 42.8086 14.5578L45.1431 17.8968H45.1997L47.5908 14.5578C47.7606 14.3314 47.8172 14.2465 47.5059 14.1616L46.5863 13.9352V13.5532H50.2366V13.9352L49.3169 14.1616C48.9774 14.2465 48.7368 14.3597 48.5105 14.6143L45.5251 18.3779L48.8359 22.7781C49.034 23.061 49.3028 23.2025 49.6141 23.3016L50.4771 23.5279V23.91H45.9354V23.5279L46.9117 23.3299C47.2512 23.2733 47.1947 23.1601 47.0249 22.9196L44.4923 19.3541H44.4357L41.8748 22.8913C41.705 23.1176 41.6484 23.2025 41.9597 23.2874L42.8935 23.5279Z"></path>
<path fill="#0D0D0D" d="M31.9993 8.67208C31.7163 8.95505 31.2777 9.15314 30.6835 9.15314C30.16 9.15314 29.6789 8.98335 29.3535 8.65794C28.9008 8.20518 28.9291 7.63924 28.9291 7.03085V4.15869H29.5092V7.25723C29.5092 7.65338 29.495 8.0354 29.8063 8.33252C30.0185 8.54475 30.3439 8.65794 30.7118 8.65794C31.0796 8.65794 31.3626 8.5306 31.5465 8.34667C31.8861 8.0071 31.8578 7.63924 31.8578 6.76203V4.17284H32.4379V6.62054C32.4379 7.52605 32.4662 8.20518 31.9993 8.67208Z"></path>
<path fill="#0D0D0D" d="M37.2056 9.05409L34.8428 5.0359L34.857 9.05409H34.3193V4.15869H34.9277L37.2905 8.20518L37.2764 4.15869H37.814V9.05409H37.2056Z"></path>
<path fill="#0D0D0D" d="M40.4604 4.15869H39.8662V9.06824H40.4604V4.15869Z"></path>
<path fill="#0D0D0D" d="M44.124 9.05409H43.4449L41.7471 4.15869H42.3696L43.7986 8.48815L45.2701 4.15869H45.836L44.124 9.05409Z"></path>
<path fill="#0D0D0D" d="M47.1797 9.05409V4.15869H49.8396V4.63974H47.7598V6.26683H49.7123V6.74788H47.7598V8.55889H49.8962V9.05409H47.1797Z"></path>
<path fill="#0D0D0D" d="M53.6315 4.89441C53.3486 4.61143 52.9807 4.62558 52.5845 4.62558H52.0469V6.4649H52.245C52.7402 6.4649 53.2778 6.49319 53.6032 6.15363C53.7589 5.99799 53.8579 5.75747 53.8579 5.51694C53.8579 5.23397 53.7447 5.00759 53.6315 4.89441ZM54.1692 9.05408L53.6032 7.78071C53.2495 7.00254 53.0939 6.91765 52.3865 6.91765H52.0469V9.05408H51.4668V4.14453H52.5279C53.1788 4.14453 53.674 4.14453 54.056 4.52654C54.2965 4.76707 54.438 5.09248 54.438 5.50279C54.438 5.84236 54.339 6.12533 54.1267 6.35171C53.9569 6.53564 53.6598 6.70542 53.3344 6.73372C53.5042 6.74787 53.6457 6.83276 53.7447 6.9318C53.8721 7.05913 53.9711 7.27136 54.1126 7.58263L54.7776 9.05408H54.1692Z"></path>
<path fill="#0D0D0D" d="M61.103 4.15869H60.5088V9.06824H61.103V4.15869Z"></path>
<path fill="#0D0D0D" d="M64.4705 4.63974V9.05409H63.8762V4.63974H62.4189V4.15869H65.9136V4.63974H64.4705Z"></path>
<path fill="#0D0D0D" d="M68.7429 7.11574V9.05409H68.1628V7.11574L66.6064 4.15869H67.2714L68.4882 6.45076L69.6625 4.15869H70.2992L68.7429 7.11574Z"></path>
<path fill="#0D0D0D" d="M75.8034 4.56893C74.8413 4.56893 74.2187 5.3754 74.2187 6.60632C74.2187 7.8231 74.912 8.65787 75.8317 8.65787C76.8504 8.65787 77.4305 7.78065 77.4305 6.56388C77.4305 5.36125 76.7513 4.56893 75.8034 4.56893ZM75.8034 9.15306C74.53 9.15306 73.6104 8.10607 73.6104 6.63462C73.6104 5.12072 74.53 4.07373 75.86 4.07373C77.1475 4.07373 78.053 5.12072 78.053 6.59217C78.0389 8.10607 77.1192 9.15306 75.8034 9.15306Z"></path>
<path fill="#0D0D0D" d="M80.2315 4.63974V6.26683H82.1274V6.73373H80.2315V9.05409H79.6514V4.15869H82.2547V4.63974H80.2315Z"></path>
<path fill="#0D0D0D" d="M55.9672 5.34709C55.9672 4.59722 56.5755 4.05957 57.4528 4.05957C58.3441 4.05957 58.7827 4.52647 58.8252 4.56892L58.5422 4.92263C58.429 4.83774 58.0329 4.55477 57.4952 4.55477C56.8727 4.55477 56.519 4.88019 56.519 5.31879C56.519 5.53102 56.6038 5.68666 56.7453 5.81399C56.9151 5.96963 57.1556 6.08281 57.4245 6.196C57.7499 6.35164 58.2026 6.52142 58.4997 6.83269C58.712 7.04492 58.8676 7.32789 58.8676 7.7099C58.8676 8.53052 58.3017 9.15305 57.283 9.15305C56.4199 9.15305 55.8681 8.672 55.8115 8.62956L56.0803 8.2334C56.2218 8.33244 56.7595 8.65785 57.2688 8.65785C58.0046 8.65785 58.2875 8.24754 58.2875 7.76649C58.2875 7.54012 58.1885 7.35619 58.0328 7.2147C57.8065 6.98832 57.4528 6.84684 57.1273 6.6912C56.8019 6.53557 56.4765 6.37993 56.2501 6.13941C56.1228 5.99792 55.9672 5.74325 55.9672 5.34709Z"></path>
</svg>
