<svg xmlns="http://www.w3.org/2000/svg" fill="none" viewBox="0 0 80 26" height="26" width="80">
<g clip-path="url(#clip0_1989_10165)">
<path fill="#0D0D0D" d="M5.62375 13.8947C5.20686 13.8947 4.57446 13.8947 3.94207 13.8947C3.9218 13.8947 3.89725 13.8972 3.8819 13.8874C3.70323 13.7717 3.52518 13.6543 3.34774 13.5374C3.48649 13.4021 3.60315 13.1937 3.7677 13.1445C4.53701 12.9139 5.31062 12.6753 6.1002 12.5363C7.64374 12.2644 9.19834 12.2565 10.7149 12.6998C11.2938 12.869 11.8655 13.1285 12.3769 13.4489C13.121 13.915 13.4133 14.7944 13.2015 15.653C12.7956 17.2974 11.8863 18.6534 10.7339 19.8588C9.08598 21.5825 7.09792 22.8192 4.9582 23.8309C3.8954 24.3333 2.81603 24.7908 1.65377 25.0159C1.47449 25.0504 1.28906 25.0682 1.10671 25.0688C0.780691 25.0694 0.68184 24.9643 0.783146 24.6531C0.941553 24.1697 1.12206 23.6906 1.33327 23.2276C2.43107 20.8249 3.78673 18.5673 5.24186 16.3669C5.40456 16.1209 5.59551 15.8909 5.7926 15.6714C5.89206 15.5607 6.02407 15.4629 6.16037 15.4045C6.45447 15.2772 6.65278 15.418 6.57296 15.7237C6.4735 16.105 6.3286 16.4795 6.15853 16.8355C5.53473 18.143 4.88391 19.4375 4.26318 20.7468C4.12073 21.0475 4.04215 21.382 3.96356 21.708C3.86655 22.1102 3.98934 22.2578 4.40378 22.1938C4.71138 22.1465 5.02697 22.0573 5.30387 21.9171C7.22747 20.946 8.82381 19.5851 10.0597 17.817C10.4361 17.2789 10.7167 16.6898 10.7836 16.0182C10.8506 15.3485 10.6105 14.8744 10.0125 14.5503C9.39849 14.2176 8.72189 14.0965 8.04221 14.0294C7.31097 13.9575 6.57419 13.9446 5.62253 13.8947H5.62375Z"></path>
<path fill="#0D0D0D" d="M18.752 9.26132C19.8768 9.29269 20.9728 9.47595 22.0534 9.749C22.2953 9.80988 22.5396 9.91873 22.7416 10.0632C23.0253 10.2656 22.978 10.5362 22.6428 10.6161C22.2885 10.7004 21.9189 10.733 21.5536 10.7563C20.4533 10.827 19.3519 10.875 18.2522 10.9507C18.0226 10.9666 17.7917 11.0429 17.5738 11.1247C17.0218 11.3313 16.8395 11.6763 16.9549 12.2569C17.0734 12.854 17.3871 13.3552 17.7457 13.83C18.6808 15.0697 19.638 16.2929 20.5534 17.5462C20.8635 17.9706 21.1238 18.4466 21.3215 18.9336C21.8158 20.15 21.3663 21.2945 20.2004 21.9046C19.5097 22.2662 18.7588 22.4113 17.9925 22.4746C16.0124 22.6382 14.0575 22.4162 12.1155 22.0472C11.9289 22.0116 11.7385 21.9421 11.5789 21.8418C11.4837 21.7822 11.372 21.6106 11.3972 21.5294C11.4352 21.407 11.5721 21.2564 11.6919 21.2299C12.0289 21.1555 12.3771 21.1205 12.7227 21.1026C13.7634 21.0491 14.8066 21.0362 15.8454 20.9587C16.6062 20.9015 17.3718 20.8179 18.1147 20.6525C18.946 20.4667 19.2021 19.9588 18.83 19.1901C18.5083 18.5253 18.0779 17.9072 17.6468 17.3033C16.9052 16.2646 16.1094 15.2641 15.3684 14.2248C14.9232 13.6012 14.5622 12.9259 14.429 12.1505C14.3154 11.4912 14.5241 10.9433 14.9705 10.471C15.544 9.86522 16.2838 9.57926 17.0808 9.44397C17.6321 9.35049 18.1939 9.32097 18.7514 9.26255L18.752 9.26132Z"></path>
<path fill="#0D0D0D" d="M9.82655 2.9977C9.3894 2.97064 8.95163 2.94665 8.51447 2.91406C8.42483 2.90729 8.32414 2.88885 8.25292 2.83965C8.15837 2.77508 8.04233 2.68406 8.02329 2.58751C8.01101 2.52355 8.13749 2.38518 8.22652 2.35566C8.76621 2.17732 9.30344 1.97131 9.85847 1.86676C11.3946 1.57711 12.9394 1.50885 14.475 1.89074C14.7703 1.96393 15.0626 2.06601 15.3401 2.19024C16.4815 2.70128 16.8836 3.58869 16.5294 4.79342C16.2703 5.67529 15.7588 6.41326 15.1596 7.08973C13.6977 8.73909 11.9509 10.0164 9.97329 10.9788C9.7013 11.111 9.40106 11.1904 9.10574 11.2642C9.00566 11.2894 8.8055 11.2482 8.78708 11.1928C8.75393 11.0914 8.78278 10.921 8.85462 10.8417C9.1217 10.5483 9.39799 10.2568 9.70498 10.0065C10.8771 9.05026 12.0823 8.12657 13.0512 6.95628C13.5086 6.40403 13.9267 5.79582 14.2411 5.15379C14.6567 4.3039 14.3958 3.78117 13.5086 3.46508C12.3181 3.04136 11.076 2.97371 9.82532 2.9977H9.82655Z"></path>
<path fill="#0D0D0D" d="M62.8432 17.9762C62.2244 18.5432 61.6583 19.0285 61.1339 19.5549C60.8282 19.8617 60.4788 19.863 60.1153 19.8144C59.9987 19.799 59.8759 19.6674 59.7967 19.5592C59.4308 19.0586 59.0796 18.5469 58.6713 17.9658C58.5521 18.5617 58.4472 19.0746 58.3471 19.5887C58.2163 20.2596 58.0837 20.9293 57.964 21.6021C57.9124 21.8912 57.773 22.032 57.4685 22.0154C57.1854 22 56.9005 22.0123 56.585 22.0123C56.7851 20.9798 56.9767 19.9915 57.1682 19.0032C57.2824 18.4129 57.3985 17.8219 57.5115 17.2309C57.5943 16.7949 57.6662 16.7863 58.0892 16.7266C58.8131 16.6239 59.2932 16.8699 59.6499 17.5107C59.9054 17.9689 60.2664 18.368 60.6022 18.8224C60.962 18.5033 61.2966 18.2062 61.6319 17.9092C61.8228 17.7395 62.0144 17.5704 62.2047 17.4C62.9906 16.6977 62.9906 16.7026 64.0454 16.7346C64.3162 16.7426 64.3794 16.8601 64.3309 17.1054C64.0264 18.6564 63.7261 20.2086 63.4284 21.7608C63.3946 21.9348 63.3234 22.0295 63.1263 22.0172C62.8924 22.0019 62.656 22.0129 62.4208 22.0123C62.1869 22.0123 62.0942 21.9256 62.1458 21.6704C62.3791 20.521 62.597 19.3692 62.8199 18.2173C62.8291 18.1693 62.8297 18.1201 62.8439 17.9775L62.8432 17.9762Z"></path>
<path fill="#0D0D0D" d="M27.3556 9.36941C28.123 9.36941 28.8991 9.36141 29.6746 9.37187C30.3788 9.38109 31.0892 9.35465 31.7842 9.44321C32.761 9.56805 33.3007 10.2519 33.3228 11.2377C33.3363 11.841 33.2043 12.4135 32.9673 12.9627C32.5191 13.9989 31.6804 14.5321 30.5992 14.5911C29.3578 14.6582 28.1102 14.6065 26.8466 14.6065C26.8466 14.5161 26.8325 14.4257 26.8484 14.3409C27.048 13.2991 27.2555 12.2592 27.4514 11.2168C27.4999 10.9579 27.6005 10.8152 27.8953 10.8392C28.1881 10.8632 28.4847 10.8447 28.8193 10.8447C28.6265 11.8527 28.4399 12.8299 28.2538 13.8021C29.017 13.8021 29.7593 13.8378 30.4961 13.7892C30.9707 13.7579 31.3157 13.4313 31.5368 13.0144C31.8524 12.4184 32.0157 11.7789 31.9899 11.1006C31.9727 10.6486 31.7418 10.346 31.3078 10.231C31.1033 10.1769 30.8853 10.1517 30.6729 10.1498C29.7323 10.1412 28.7917 10.1504 27.8511 10.1424C27.3593 10.1381 27.1843 9.86815 27.3537 9.36879L27.3556 9.36941Z"></path>
<path fill="#0D0D0D" d="M38.4562 14.6295C38.5483 14.1111 38.6343 13.6246 38.7257 13.1081C38.6017 13.1019 38.5023 13.0933 38.4028 13.0933C37.5445 13.0921 36.6867 13.097 35.8284 13.0896C35.6331 13.0878 35.5386 13.1333 35.5073 13.3491C35.4465 13.7704 35.3476 14.1861 35.2598 14.6301C34.9209 14.6301 34.5955 14.6418 34.2719 14.6203C34.2093 14.616 34.0951 14.4721 34.1068 14.413C34.3235 13.3141 34.5139 12.2071 34.7957 11.1241C35.0947 9.97538 35.9438 9.41883 37.0895 9.34011C37.7065 9.29768 38.3389 9.30629 38.9499 9.39484C39.872 9.52891 40.397 10.1783 40.2828 11.1026C40.1459 12.2133 39.9003 13.3104 39.686 14.4106C39.6694 14.496 39.5301 14.6123 39.4404 14.6197C39.1279 14.6455 38.8123 14.6295 38.4568 14.6295H38.4562ZM35.6964 12.3147C36.7193 12.3147 37.6562 12.3264 38.5919 12.3006C38.7159 12.2969 38.8983 12.1222 38.9419 11.9906C39.0327 11.7145 39.0757 11.4144 39.0898 11.1223C39.1138 10.642 38.8786 10.3271 38.4335 10.2208C37.919 10.0978 37.4026 10.1094 36.8949 10.2669C36.47 10.3985 36.155 10.6697 36.0132 11.0903C35.8849 11.4722 35.8087 11.8713 35.6958 12.3153L35.6964 12.3147Z"></path>
<path fill="#0D0D0D" d="M58.0099 14.6317C58.1045 14.109 58.1916 13.6293 58.2856 13.1084C58.1622 13.1023 58.0652 13.0937 57.9688 13.0937C57.1203 13.0924 56.2717 13.1041 55.4238 13.0863C55.1715 13.0807 55.0874 13.1767 55.0518 13.4024C54.9885 13.8033 54.9044 14.2012 54.8234 14.6305C54.4857 14.6305 54.1603 14.644 53.8373 14.6194C53.7716 14.6145 53.6531 14.4552 53.666 14.3876C53.8576 13.3655 54.0295 12.3379 54.2824 11.3305C54.606 10.0409 55.3766 9.42473 56.7365 9.32941C57.2928 9.29067 57.8626 9.30789 58.4158 9.38107C59.4313 9.51513 59.928 10.1406 59.8285 11.167C59.761 11.8649 59.6075 12.5549 59.4853 13.2474C59.4196 13.6189 59.3343 13.9866 59.268 14.358C59.233 14.5536 59.131 14.6385 58.9339 14.6348C58.6386 14.6286 58.3433 14.6329 58.0093 14.6329L58.0099 14.6317ZM55.2642 12.3139C56.2754 12.3139 57.2222 12.3243 58.1683 12.3003C58.2831 12.2973 58.4544 12.1269 58.4931 12.0015C58.5815 11.7124 58.6349 11.4049 58.646 11.103C58.6638 10.5932 58.4213 10.2808 57.9117 10.215C57.504 10.1627 57.0785 10.1658 56.6702 10.218C56.0974 10.2912 55.7038 10.643 55.5294 11.1952C55.4202 11.5415 55.36 11.9037 55.2654 12.3139H55.2642Z"></path>
<path fill="#0D0D0D" d="M62.9531 9.37248C62.7523 10.4124 62.5638 11.4031 62.3692 12.392C62.1647 13.4288 62.4926 13.8618 63.5431 13.8981C63.8157 13.9073 64.0969 13.8833 64.3634 13.8249C65.0535 13.6742 65.4612 13.221 65.6024 12.5396C65.797 11.6018 65.9726 10.6596 66.1568 9.71932C66.1783 9.61047 66.2047 9.50346 66.2348 9.37125C66.5811 9.37125 66.9175 9.35833 67.2515 9.3817C67.3215 9.38662 67.4492 9.53913 67.4376 9.60125C67.2147 10.7408 67.0225 11.8896 66.7235 13.01C66.4797 13.9239 65.7988 14.4491 64.8668 14.633C64.0367 14.7965 63.2023 14.8242 62.3747 14.6391C61.3936 14.4202 60.957 13.8618 61.0595 12.8569C61.1424 12.0482 61.3236 11.2494 61.4642 10.4462C61.5114 10.175 61.5477 9.89889 61.6305 9.63876C61.6649 9.53175 61.8031 9.39461 61.9056 9.38477C62.2384 9.3528 62.5761 9.37248 62.9531 9.37248Z"></path>
<path fill="#0D0D0D" d="M51.8951 21.2384C52.2868 21.2384 52.6318 21.2384 52.9775 21.2384C53.6928 21.2384 54.4087 21.2366 55.124 21.2427C55.2578 21.2439 55.4653 21.2267 55.4144 21.4438C55.3665 21.6468 55.5145 22.0047 55.1227 22.0071C53.6099 22.0176 52.0977 22.0096 50.5848 22.0071C50.5554 22.0071 50.5265 21.993 50.4614 21.977C50.5885 21.311 50.7138 20.6456 50.8427 19.9814C51.0189 19.0706 51.1988 18.1605 51.3738 17.2497C51.4585 16.8081 51.5353 16.7387 51.9779 16.738C53.2759 16.7374 54.5739 16.738 55.8724 16.738H56.2132C56.1702 16.9613 56.1653 17.1636 56.0861 17.3296C56.0413 17.4225 55.8736 17.5068 55.7601 17.5086C54.8201 17.5227 53.8794 17.5227 52.9394 17.5129C52.7098 17.5104 52.5882 17.5572 52.5569 17.8173C52.5115 18.1986 52.4157 18.5743 52.3328 18.9962H55.345C55.2971 19.2367 55.2861 19.4439 55.2075 19.621C55.1713 19.7028 55.0036 19.7668 54.895 19.7686C54.0876 19.7809 53.2802 19.7834 52.4728 19.7699C52.2444 19.7662 52.1499 19.8307 52.1186 20.0644C52.0694 20.4365 51.981 20.803 51.8957 21.2384H51.8951Z"></path>
<path fill="#0D0D0D" d="M70.8134 16.737C70.7729 16.9596 70.7422 17.1386 70.7072 17.3169C70.6673 17.5211 70.5095 17.5168 70.3511 17.5162C69.4313 17.5149 68.5116 17.5248 67.5919 17.51C67.3235 17.5057 67.1811 17.5574 67.1498 17.8581C67.1123 18.2203 67.0178 18.5764 66.9374 18.9915H69.9416C69.9109 19.1852 69.8857 19.323 69.8679 19.4626C69.839 19.6901 69.7334 19.786 69.4847 19.7811C68.678 19.7651 67.87 19.7823 67.0626 19.77C66.8465 19.767 66.7581 19.8254 66.7274 20.048C66.6752 20.4287 66.5843 20.8038 66.5027 21.2165C66.6525 21.2251 66.771 21.2374 66.8895 21.238C67.8092 21.2398 68.7289 21.2349 69.6487 21.2435C69.7985 21.2448 70.0281 21.166 70.0269 21.4588C70.0251 21.8819 69.9323 22.0116 69.6204 22.0122C68.1997 22.0135 66.7796 22.0129 65.3588 22.0122C65.2686 22.0122 65.1783 22.0006 65.061 21.9919C65.2311 21.1039 65.3963 20.2362 65.5633 19.3685C65.7002 18.6576 65.8414 17.9479 65.9777 17.237C66.0594 16.8139 66.1441 16.7376 66.5616 16.737C67.87 16.7364 69.1778 16.737 70.4861 16.737C70.577 16.737 70.6679 16.737 70.8122 16.737H70.8134Z"></path>
<path fill="#0D0D0D" d="M47.0967 14.6329C47.1176 13.9693 47.2281 13.8592 47.8353 13.858C48.6322 13.8568 49.4286 13.8592 50.2255 13.8512C50.3759 13.85 50.5356 13.8334 50.6743 13.7805C50.9991 13.6563 51.0679 13.2719 50.8088 13.0395C50.6731 12.9177 50.5141 12.8212 50.36 12.7222C49.6993 12.2972 49.0233 11.895 48.3793 11.4461C47.8261 11.0605 47.7168 10.6472 47.9317 10.0987C48.0858 9.7051 48.3946 9.46649 48.787 9.4462C50.088 9.37916 51.3915 9.35641 52.6931 9.31644C52.7207 10.012 52.5936 10.146 51.9784 10.146C51.2938 10.146 50.6099 10.1442 49.9253 10.1497C49.7128 10.1516 49.4777 10.1399 49.388 10.4C49.2929 10.6768 49.4513 10.8545 49.6656 10.9806C50.1838 11.2862 50.7106 11.5771 51.2318 11.8778C51.4436 12.0002 51.6579 12.1207 51.8581 12.2609C52.4027 12.6422 52.5906 13.0622 52.4647 13.5788C52.3247 14.152 51.9385 14.4908 51.2803 14.5579C50.7941 14.6077 50.3035 14.623 49.8141 14.6286C48.9165 14.639 48.0189 14.6317 47.0967 14.6317V14.6329Z"></path>
<path fill="#0D0D0D" d="M40.8667 14.6328C40.9078 13.9404 40.9926 13.8592 41.6354 13.858C42.4323 13.8568 43.2293 13.858 44.0262 13.8506C44.1668 13.8494 44.3154 13.8322 44.445 13.7817C44.7759 13.6538 44.8477 13.2787 44.5856 13.0425C44.4425 12.914 44.2724 12.8144 44.1103 12.7098C43.4503 12.2836 42.7706 11.8851 42.1321 11.4288C41.5482 11.0119 41.453 10.451 41.7987 9.90924C42.0247 9.55501 42.3869 9.41234 42.7663 9.40496C43.9998 9.38036 45.2339 9.39574 46.468 9.39574C46.5073 9.97566 46.3551 10.1454 45.7841 10.146C45.0995 10.1466 44.4149 10.1442 43.7303 10.1491C43.497 10.1509 43.2354 10.13 43.1476 10.4246C43.0586 10.7235 43.2686 10.8864 43.4804 11.0131C43.9532 11.296 44.4388 11.5568 44.9171 11.8304C45.156 11.9676 45.3954 12.1047 45.6244 12.2578C46.0935 12.5715 46.3692 12.9872 46.2421 13.5782C46.123 14.1298 45.7012 14.492 45.0528 14.5572C44.5358 14.6089 44.0146 14.6218 43.4945 14.6285C42.6276 14.6396 41.76 14.6316 40.8667 14.6316V14.6328Z"></path>
<path fill="#0D0D0D" d="M35.8626 20.25C35.3174 20.3551 34.8219 20.4788 34.3184 20.5378C33.9586 20.5802 33.581 20.5802 33.2243 20.5206C32.3654 20.3779 31.9202 19.8103 32.0099 18.937C32.0774 18.2802 32.2235 17.6302 32.3586 16.9826C32.3783 16.8873 32.5219 16.7569 32.6165 16.7496C32.9603 16.7213 33.3072 16.7385 33.6768 16.7385C33.5682 17.335 33.449 17.9008 33.3649 18.4727C33.2728 19.1006 33.5639 19.4628 34.1877 19.5624C34.7795 19.6572 35.345 19.528 35.9043 19.365C35.9829 19.3423 36.0652 19.2144 36.0842 19.1221C36.2212 18.4641 36.3519 17.8042 36.4649 17.1413C36.514 16.8529 36.6276 16.7047 36.945 16.7317C37.2275 16.7563 37.5136 16.7366 37.8365 16.7366C37.7107 17.4033 37.5928 18.0404 37.47 18.6769C37.2907 19.6073 37.1071 20.5366 36.9285 21.467C36.8382 21.9369 36.7596 22.0076 36.2826 22.0113C36.0781 22.0131 35.8743 22.0088 35.6698 22.0045C35.6409 22.0045 35.6121 21.9885 35.5396 21.967C35.6446 21.4061 35.7502 20.8441 35.862 20.2494L35.8626 20.25Z"></path>
<path fill="#0D0D0D" d="M43.9223 16.7328C43.9383 17.3951 43.8228 17.5157 43.2015 17.5163C42.5679 17.5163 41.9336 17.5163 41.3 17.5188C41.1876 17.5188 41.0618 17.5015 40.9672 17.5452C40.8334 17.6073 40.6449 17.7026 40.6222 17.8133C40.5939 17.9492 40.667 18.1762 40.7757 18.258C41.0918 18.4959 41.4467 18.6829 41.7875 18.8877C42.2682 19.1767 42.7754 19.4301 43.226 19.7597C43.8044 20.1828 43.8879 20.8107 43.5103 21.3832C43.2911 21.7153 42.959 21.8678 42.5857 21.9207C42.2326 21.9712 41.8747 21.9988 41.518 22.0031C40.5571 22.0161 39.5962 22.0118 38.6353 22.0124C38.5352 22.0124 38.4352 22.0013 38.3382 21.9951C38.3007 21.4097 38.4425 21.2529 38.9884 21.248C39.8467 21.24 40.705 21.2332 41.5634 21.2203C41.6733 21.2184 41.7893 21.2 41.8906 21.1588C42.2283 21.0223 42.2922 20.6385 42.0134 20.3974C41.8753 20.2781 41.7157 20.1828 41.5609 20.0838C40.9077 19.665 40.2421 19.2647 39.603 18.825C39.2401 18.5753 38.9638 18.2444 39.0786 17.7408C39.2075 17.1744 39.5115 16.8749 40.0997 16.8011C40.4736 16.7543 40.8524 16.739 41.2294 16.7347C42.127 16.7254 43.0247 16.7316 43.9217 16.7316L43.9223 16.7328Z"></path>
<path fill="#0D0D0D" d="M31.0156 16.7336C31.0807 17.3351 30.9254 17.5159 30.3703 17.5171C29.7066 17.5183 29.0423 17.5171 28.3786 17.5208C28.257 17.5214 28.133 17.5306 28.0145 17.5565C27.6817 17.6284 27.57 17.9605 27.8144 18.1997C27.9795 18.3609 28.1858 18.4857 28.3872 18.6025C28.8814 18.8891 29.3886 19.1536 29.881 19.4426C30.0904 19.5656 30.2973 19.7076 30.4698 19.8768C31.0955 20.4905 30.8953 21.4837 30.0775 21.8066C29.835 21.9025 29.5648 21.9707 29.3063 21.9763C28.071 22.0021 26.8351 22.0027 25.5991 22.0107C25.55 22.0107 25.5009 21.9953 25.4554 21.988C25.399 21.4351 25.5512 21.2549 26.067 21.2494C26.9351 21.2408 27.8033 21.2352 28.6708 21.2211C28.7906 21.2193 28.9183 21.1977 29.027 21.1504C29.3321 21.0169 29.4033 20.6375 29.1473 20.4266C28.9048 20.2267 28.626 20.0711 28.362 19.8971C27.7665 19.5035 27.1494 19.1388 26.5809 18.7095C26.1099 18.3535 26.0492 17.9132 26.2954 17.4015C26.4777 17.0221 26.8105 16.8566 27.1998 16.8037C27.5325 16.7588 27.8702 16.7404 28.2061 16.7367C29.0435 16.7275 29.8816 16.7336 30.7191 16.7336C30.8192 16.7336 30.9192 16.7336 31.0156 16.7336Z"></path>
<path fill="#0D0D0D" d="M76.6334 16.7324C76.6052 16.8948 76.583 17.0135 76.5634 17.1328C76.5198 17.3954 76.3706 17.519 76.0998 17.5165C75.4257 17.511 74.7516 17.5141 74.0768 17.5165C73.9239 17.5171 73.7618 17.5024 73.6212 17.5485C73.4911 17.5915 73.305 17.6918 73.2872 17.7926C73.262 17.9347 73.3247 18.1469 73.4284 18.2459C73.6175 18.4248 73.8613 18.5484 74.0891 18.6837C74.6846 19.038 75.3084 19.3516 75.8757 19.7464C76.4566 20.1504 76.5499 20.7986 76.1895 21.3656C75.9697 21.7119 75.6283 21.8748 75.2433 21.9191C74.7681 21.9738 74.2874 22.0003 73.8085 22.0083C72.971 22.0218 72.1329 22.0126 71.2955 22.0114C71.1954 22.0114 71.0959 22.0015 70.9971 21.996C71.0075 21.3386 71.0972 21.2506 71.7197 21.2463C72.5468 21.2408 73.3744 21.2346 74.2014 21.2205C74.331 21.218 74.4697 21.1965 74.587 21.1449C74.8995 21.0071 74.9628 20.6467 74.7067 20.4223C74.5317 20.2685 74.3261 20.1498 74.129 20.0225C73.5033 19.6185 72.8611 19.2384 72.2533 18.8086C71.7246 18.4347 71.6166 18.0362 71.8081 17.5079C71.9702 17.0602 72.3233 16.8573 72.7623 16.8013C73.1356 16.754 73.5144 16.738 73.8914 16.7337C74.789 16.7244 75.6873 16.7306 76.6316 16.7306L76.6334 16.7324Z"></path>
<path fill="#0D0D0D" d="M74.9564 10.1491H72.8916C72.9039 10.0224 72.9051 9.9228 72.9235 9.82625C72.999 9.43144 73.0697 9.37178 73.4724 9.37055C74.5653 9.36871 75.6582 9.36994 76.7517 9.36994C77.3122 9.36994 77.8728 9.36994 78.4555 9.36994C78.4358 9.49662 78.4229 9.5944 78.4057 9.69157C78.3345 10.0931 78.2719 10.1467 77.8654 10.1473C77.416 10.1479 76.966 10.1571 76.5171 10.143C76.3115 10.1368 76.2347 10.2118 76.1973 10.4092C75.9597 11.6706 75.7104 12.93 75.4642 14.1901C75.393 14.5535 75.3015 14.6286 74.9288 14.6323C74.6936 14.6347 74.4591 14.6323 74.2239 14.6298C74.1951 14.6298 74.1662 14.6163 74.0987 14.5984C74.3817 13.1305 74.6642 11.6656 74.957 10.1485L74.9564 10.1491Z"></path>
<path fill="#0D0D0D" d="M50.6101 16.7373C50.5868 16.8763 50.564 16.9845 50.5518 17.094C50.5168 17.3965 50.3756 17.5398 50.0465 17.522C49.5983 17.4974 49.1464 17.5294 48.6976 17.5109C48.4612 17.5011 48.3826 17.5939 48.3414 17.8135C48.1063 19.0662 47.8521 20.3158 47.6182 21.5685C47.5617 21.8717 47.4162 22.0199 47.1061 22.0125C46.8427 22.0064 46.5787 22.0113 46.2435 22.0113C46.5333 20.5028 46.8145 19.0397 47.1049 17.5306H45.0978C44.9946 16.9507 45.1617 16.7379 45.6872 16.7373C47.2308 16.736 48.7749 16.7373 50.3185 16.7373C50.4087 16.7373 50.4996 16.7373 50.6107 16.7373H50.6101Z"></path>
<path fill="#0D0D0D" d="M68.0764 14.6332C68.2692 13.6314 68.4503 12.6819 68.6339 11.7324C68.769 11.0325 68.9139 10.3339 69.0398 9.63225C69.0754 9.43546 69.1509 9.35183 69.3572 9.36597C69.5911 9.38257 69.8269 9.37765 70.0614 9.36781C70.299 9.35797 70.3856 9.41701 70.3297 9.68637C70.07 10.9434 69.8324 12.2047 69.5887 13.4648C69.5659 13.5822 69.5537 13.7009 69.5316 13.8553C69.9552 13.8553 70.3518 13.8553 70.7478 13.8553C71.2685 13.8553 71.7898 13.851 72.3104 13.8571C72.6131 13.8608 72.6493 13.9377 72.6186 14.2366C72.5861 14.5514 72.459 14.6486 72.133 14.6424C70.9081 14.6197 69.682 14.6332 68.4565 14.6332H68.0752H68.0764Z"></path>
</g>
<defs>
<clipPath id="clip0_1989_10165">
<rect transform="translate(0.672363 0.5)" fill="white" height="25" width="78.4091"></rect>
</clipPath>
</defs>
</svg>
