<svg xmlns="http://www.w3.org/2000/svg" fill="none" viewBox="0 0 277 202" height="202" width="277">
<line stroke-width="0.8" stroke-opacity="0.15" stroke="white" y2="56.3532" x2="259.573" y1="56.3532" x1="16.5284"></line>
<line stroke-width="0.8" stroke-opacity="0.15" stroke="white" y2="79.422" x2="259.573" y1="79.422" x1="16.5284"></line>
<line stroke-width="0.8" stroke-opacity="0.15" stroke="white" y2="102.49" x2="259.573" y1="102.49" x1="16.5284"></line>
<line stroke-width="0.8" stroke-opacity="0.15" stroke="white" y2="125.559" x2="259.573" y1="125.559" x1="16.5284"></line>
<line stroke-width="0.8" stroke-opacity="0.15" stroke="white" y2="148.628" x2="259.573" y1="148.628" x1="16.5284"></line>
<path fill="white" d="M19.2563 27.1084C17.6069 27.1084 16.8456 26.2384 16.8184 24.9606H17.7247C17.77 25.8759 18.3319 26.2928 19.3016 26.2928H19.3469C20.1807 26.2928 20.6157 25.8397 20.6157 25.2959C20.6157 24.8156 20.3529 24.5165 19.7004 24.3806L18.6944 24.1631C17.625 23.9365 17.1356 23.3746 17.1356 22.4412C17.1356 21.4533 17.9603 20.5833 19.3469 20.5833C20.7788 20.5833 21.5945 21.408 21.6217 22.5952H20.7154C20.6701 21.843 20.1354 21.399 19.356 21.399H19.3198C18.5494 21.399 18.0419 21.8521 18.0419 22.423C18.0419 22.9215 18.3229 23.1752 18.9572 23.3021L19.8726 23.4924C20.9238 23.7099 21.522 24.2537 21.522 25.2415C21.522 26.32 20.6792 27.1084 19.2563 27.1084ZM24.8535 27.1084C23.2222 27.1084 22.3703 25.8306 22.3703 23.8459C22.3703 21.8974 23.2132 20.5833 24.8535 20.5833C26.2129 20.5833 26.9017 21.4896 26.9651 22.6859H26.0588C26.0135 21.9518 25.6148 21.399 24.8807 21.399H24.8263C23.8204 21.399 23.2766 22.3505 23.2766 23.8459C23.2766 25.3594 23.8113 26.2928 24.8263 26.2928H24.8807C25.6329 26.2928 25.9954 25.7672 26.0588 25.0059H26.9651C26.9017 26.2112 26.2492 27.1084 24.8535 27.1084ZM28.901 27.0178H27.9947V20.6739H28.901V23.4381H31.3298V20.6739H32.2361V27.0178H31.3298V24.2537H28.901V27.0178ZM37.6701 27.0178H33.5647V20.6739H37.5795V21.4896H34.471V23.3474H37.1082V24.1631H34.471V26.2022H37.6701V27.0178ZM40.9835 24.3443L42.062 20.6739H43.1676V27.0178H42.3248V22.2055L41.4185 25.2868H40.5485L39.6423 22.2055V27.0178H38.8085V20.6739H39.9051L40.9835 24.3443ZM48.9552 27.0178H48.0217L47.5323 25.3865H45.2848L44.7954 27.0178H43.8891L45.8648 20.6739H47.0067L48.9552 27.0178ZM46.4085 21.6165L45.5295 24.5709H47.2967L46.4085 21.6165ZM52.4226 23.5831H51.2807V22.4412H52.4226V23.5831ZM52.4226 27.0178H51.2807V25.8759H52.4226V27.0178Z"></path>
<path fill="white" d="M95.5719 184.292L97.0491 178.99H98.0278L96.1519 185.334H94.9737L93.0887 178.99H94.0674L95.5719 184.292ZM103.525 185.334H102.592L102.103 183.702H99.855L99.3656 185.334H98.4593L100.435 178.99H101.577L103.525 185.334ZM100.979 179.932L100.1 182.887H101.867L100.979 179.932ZM107.654 183.784V178.99H108.552V185.334H107.518L105.189 180.467V185.334H104.292V178.99H105.362L107.654 183.784ZM113.614 178.99V179.742H112.309V184.582H113.614V185.334H110.098V184.582H111.403V179.742H110.098V178.99H113.614ZM119.538 185.334H115.233V178.99H116.139V184.518H119.538V185.334ZM124.972 185.334H120.667V178.99H121.573V184.518H124.972V185.334ZM129.916 178.99V179.742H128.611V184.582H129.916V185.334H126.4V184.582H127.705V179.742H126.4V178.99H129.916ZM134.825 183.784V178.99H135.722V185.334H134.689L132.36 180.467V185.334H131.463V178.99H132.532L134.825 183.784ZM144.46 182.66L145.539 178.99H146.644V185.334H145.802V180.521L144.895 183.603H144.025L143.119 180.521V185.334H142.285V178.99H143.382L144.46 182.66ZM149.894 185.424C148.39 185.424 147.556 184.174 147.556 182.162C147.556 180.15 148.39 178.899 149.894 178.899C151.399 178.899 152.233 180.15 152.233 182.162C152.233 184.174 151.399 185.424 149.894 185.424ZM149.876 184.609H149.913C150.846 184.609 151.326 183.684 151.326 182.162C151.326 180.639 150.846 179.715 149.913 179.715H149.876C148.943 179.715 148.463 180.639 148.463 182.162C148.463 183.684 148.943 184.609 149.876 184.609ZM157.576 185.334H153.271V178.99H154.178V184.518H157.576V185.334ZM162.883 185.334H158.778V178.99H162.793V179.806H159.684V181.663H162.321V182.479H159.684V184.518H162.883V185.334ZM166.369 185.424C164.738 185.424 163.886 184.147 163.886 182.162C163.886 180.213 164.729 178.899 166.369 178.899C167.728 178.899 168.417 179.806 168.48 181.002H167.574C167.529 180.268 167.13 179.715 166.396 179.715H166.342C165.336 179.715 164.792 180.666 164.792 182.162C164.792 183.675 165.327 184.609 166.342 184.609H166.396C167.148 184.609 167.511 184.083 167.574 183.322H168.48C168.417 184.527 167.765 185.424 166.369 185.424ZM171.631 185.424C170.253 185.424 169.474 184.582 169.474 183.204V178.99H170.38V183.077C170.38 184.128 170.824 184.609 171.613 184.609H171.649C172.437 184.609 172.881 184.128 172.881 183.077V178.99H173.788V183.204C173.788 184.582 173.008 185.424 171.631 185.424ZM179.312 185.334H175.008V178.99H175.914V184.518H179.312V185.334ZM184.62 185.334H180.514V178.99H184.529V179.806H181.42V181.663H184.058V182.479H181.42V184.518H184.62V185.334Z"></path>
<path fill="white" d="M197.179 21.0408V17.772H197.791V22.0974H197.086L195.498 18.7792V22.0974H194.886V17.772H195.616L197.179 21.0408ZM201.489 22.0974H198.69V17.772H201.428V18.3282H199.308V19.5949H201.106V20.151H199.308V21.5413H201.489V22.0974ZM204.101 19.8606L205.448 22.0974H204.756L203.749 20.3796L202.717 22.0974H202.049L203.396 19.8853L202.13 17.772H202.816L203.755 19.3724L204.706 17.772H205.367L204.101 19.8606ZM207.763 22.0974H207.145V18.3282H205.915V17.772H208.992V18.3282H207.763V22.0974ZM214.981 22.1592C213.869 22.1592 213.288 21.2879 213.288 19.9347C213.288 18.6062 213.863 17.7102 214.981 17.7102C215.908 17.7102 216.378 18.3282 216.421 19.1438H215.803C215.772 18.6433 215.5 18.2664 215 18.2664H214.963C214.277 18.2664 213.906 18.9152 213.906 19.9347C213.906 20.9666 214.271 21.6031 214.963 21.6031H215C215.513 21.6031 215.76 21.2447 215.803 20.7257H216.421C216.378 21.5475 215.933 22.1592 214.981 22.1592ZM218.575 19.805L219.557 17.772H220.225L218.872 20.3796V22.0974H218.254V20.3796L216.913 17.772H217.592L218.575 19.805ZM222.391 22.1592C221.279 22.1592 220.698 21.2879 220.698 19.9347C220.698 18.6062 221.273 17.7102 222.391 17.7102C223.318 17.7102 223.788 18.3282 223.831 19.1438H223.213C223.182 18.6433 222.91 18.2664 222.41 18.2664H222.373C221.687 18.2664 221.316 18.9152 221.316 19.9347C221.316 20.9666 221.681 21.6031 222.373 21.6031H222.41C222.923 21.6031 223.17 21.2447 223.213 20.7257H223.831C223.788 21.5475 223.343 22.1592 222.391 22.1592ZM227.511 22.0974H224.576V17.772H225.194V21.5413H227.511V22.0974ZM231.13 22.0974H228.331V17.772H231.068V18.3282H228.949V19.5949H230.747V20.151H228.949V21.5413H231.13V22.0974ZM196.338 24.6917C197.364 24.6917 197.982 25.5197 197.982 26.9162C197.982 28.3127 197.377 29.1407 196.338 29.1407C195.3 29.1407 194.695 28.3127 194.695 26.9162C194.695 25.5197 195.313 24.6917 196.338 24.6917ZM196.369 25.2355H196.308C195.739 25.2355 195.3 25.7422 195.3 26.9162C195.3 27.1942 195.325 27.4291 195.368 27.6391L197.142 25.7236C196.956 25.3899 196.685 25.2355 196.369 25.2355ZM196.308 28.5969H196.369C196.938 28.5969 197.377 28.0902 197.377 26.9162C197.377 26.6752 197.358 26.4651 197.321 26.2797L195.572 28.1705C195.758 28.461 196.017 28.5969 196.308 28.5969ZM200.044 24.6917C201.069 24.6917 201.687 25.5197 201.687 26.9162C201.687 28.3127 201.082 29.1407 200.044 29.1407C199.005 29.1407 198.4 28.3127 198.4 26.9162C198.4 25.5197 199.018 24.6917 200.044 24.6917ZM200.074 25.2355H200.013C199.444 25.2355 199.005 25.7422 199.005 26.9162C199.005 27.1942 199.03 27.4291 199.073 27.6391L200.847 25.7236C200.661 25.3899 200.39 25.2355 200.074 25.2355ZM200.013 28.5969H200.074C200.643 28.5969 201.082 28.0902 201.082 26.9162C201.082 26.6752 201.063 26.4651 201.026 26.2797L199.277 28.1705C199.463 28.461 199.722 28.5969 200.013 28.5969ZM204.138 26.7555H203.359V25.977H204.138V26.7555ZM204.138 29.0974H203.359V28.3188H204.138V29.0974ZM207.936 24.772V28.5475H209.141V29.0974H206.094V28.5475H207.355V25.6433L206.354 26.6011V25.8534L207.466 24.772H207.936ZM211.641 24.772V28.5475H212.846V29.0974H209.799V28.5475H211.06V25.6433L210.059 26.6011V25.8534L211.171 24.772H211.641ZM215.253 26.7555H214.474V25.977H215.253V26.7555ZM215.253 29.0974H214.474V28.3188H215.253V29.0974ZM219.051 24.772V28.5475H220.256V29.0974H217.209V28.5475H218.47V25.6433L217.469 26.6011V25.8534L218.581 24.772H219.051ZM222.274 29.1592C221.44 29.1592 220.927 28.6587 220.927 27.9975C220.927 27.4661 221.267 27.1263 221.656 26.9903C221.23 26.8544 220.84 26.4528 220.84 25.9028C220.84 25.2417 221.378 24.7102 222.274 24.7102C223.17 24.7102 223.707 25.2417 223.707 25.9028C223.707 26.4528 223.318 26.8544 222.892 26.9903C223.281 27.1263 223.621 27.4661 223.621 27.9975C223.621 28.6587 223.108 29.1592 222.274 29.1592ZM222.243 26.6937H222.305C222.75 26.6937 223.102 26.3848 223.102 25.9831C223.102 25.5568 222.756 25.254 222.305 25.254H222.243C221.792 25.254 221.446 25.5568 221.446 25.9831C221.446 26.3848 221.798 26.6937 222.243 26.6937ZM222.243 28.6154H222.305C222.706 28.6154 223.021 28.3436 223.021 27.9419C223.021 27.5465 222.706 27.256 222.305 27.256H222.243C221.841 27.256 221.526 27.5465 221.526 27.9419C221.526 28.3436 221.841 28.6154 222.243 28.6154Z"></path>
<rect stroke-width="0.8" stroke-opacity="0.15" stroke="white" height="19.797" width="69.2299" y="13.3783" x="189.943"></rect>
<path fill="white" d="M249.272 27.8079C248.332 27.8079 247.548 27.4852 246.919 26.8398C246.291 26.1945 245.977 25.3912 245.977 24.43C245.977 23.7434 246.25 22.9968 246.796 22.1903C247.342 21.3834 248.167 20.5097 249.272 19.5691C250.378 20.5097 251.203 21.3834 251.749 22.1903C252.295 22.9968 252.568 23.7434 252.568 24.43C252.568 25.3912 252.254 26.1945 251.625 26.8398C250.997 27.4852 250.213 27.8079 249.272 27.8079ZM249.272 26.984C249.986 26.984 250.577 26.7421 251.044 26.2582C251.511 25.774 251.744 25.1646 251.744 24.43C251.744 23.9288 251.536 23.3624 251.121 22.7307C250.706 22.0991 250.089 21.4091 249.272 20.6607C248.455 21.4091 247.839 22.0991 247.424 22.7307C247.009 23.3624 246.801 23.9288 246.801 24.43C246.801 25.1646 247.034 25.774 247.501 26.2582C247.968 26.7421 248.558 26.984 249.272 26.984Z"></path>
<line stroke-width="0.8" stroke-opacity="0.15" stroke="white" y2="33.5753" x2="239.377" y1="12.9783" x1="239.377"></line>
<path stroke-miterlimit="10" stroke="#E5E5E5" d="M125.451 103.399L112.664 97.9298"></path>
<path stroke-miterlimit="10" stroke="#E5E5E5" d="M152.306 98.7131L140.311 91.6769"></path>
<path stroke-miterlimit="10" stroke="#E5E5E5" d="M156.531 115.435L145.91 124.413"></path>
<path stroke-miterlimit="10" stroke="#E5E5E5" d="M163.016 92.1599L154.472 99.2219"></path>
<path stroke-miterlimit="10" stroke="#E5E5E5" d="M164.908 77.8367L164.841 88.9207"></path>
<path stroke-miterlimit="10" stroke="#E5E5E5" d="M159.676 113.537L169.928 120.663"></path>
<path stroke-miterlimit="10" stroke="#E5E5E5" d="M108.376 96.0715L98.3921 101.713"></path>
<path stroke-miterlimit="10" stroke="#E5E5E5" d="M109.739 98.0598L99.7551 103.701"></path>
<path stroke-miterlimit="10" stroke="#E5E5E5" d="M127.994 118.929L123.232 122.709"></path>
<path stroke-miterlimit="10" stroke="#E5E5E5" d="M144.684 126.642L143.864 132.666"></path>
<path stroke-miterlimit="10" stroke="#E5E5E5" d="M170.329 124.549L168.847 131.154"></path>
<path stroke-miterlimit="10" stroke="#E5E5E5" d="M170.502 66.8787L166.359 72.2312"></path>
<path stroke-miterlimit="10" stroke="#E5E5E5" d="M155.387 71.7131L161.738 74.0545"></path>
<path stroke-miterlimit="10" stroke="#E5E5E5" d="M164.457 77.0183L171.165 76.1124"></path>
<path stroke-miterlimit="10" stroke="#E5E5E5" d="M139.4 88.8792L137.847 82.2911"></path>
<path stroke-miterlimit="10" stroke="#E5E5E5" d="M109.635 94.9958L109.843 88.2304"></path>
<path stroke-miterlimit="10" stroke="#E5E5E5" d="M127.994 105.484L129.213 113.863"></path>
<path fill="white" d="M171.799 77.8369C172.752 77.8369 173.524 77.0648 173.524 76.1124C173.524 75.16 172.752 74.3879 171.799 74.3879C170.846 74.3879 170.073 75.16 170.073 76.1124C170.073 77.0648 170.846 77.8369 171.799 77.8369Z"></path>
<path fill="white" d="M137.675 82.833C138.628 82.833 139.4 82.0609 139.4 81.1085C139.4 80.1561 138.628 79.384 137.675 79.384C136.722 79.384 135.95 80.1561 135.95 81.1085C135.95 82.0609 136.722 82.833 137.675 82.833Z"></path>
<path fill="white" d="M122.895 124.434C123.848 124.434 124.621 123.661 124.621 122.709C124.621 121.757 123.848 120.985 122.895 120.985C121.943 120.985 121.17 121.757 121.17 122.709C121.17 123.661 121.943 124.434 122.895 124.434Z"></path>
<path fill="white" d="M168.531 134.406C169.484 134.406 170.257 133.634 170.257 132.682C170.257 131.729 169.484 130.957 168.531 130.957C167.578 130.957 166.806 131.729 166.806 132.682C166.806 133.634 167.578 134.406 168.531 134.406Z"></path>
<path fill="white" d="M143.531 135.665C144.483 135.665 145.256 134.893 145.256 133.941C145.256 132.989 144.483 132.217 143.531 132.217C142.578 132.217 141.805 132.989 141.805 133.941C141.805 134.893 142.578 135.665 143.531 135.665Z"></path>
<path fill="white" d="M109.739 89.0395C110.692 89.0395 111.465 88.2674 111.465 87.315C111.465 86.3626 110.692 85.5906 109.739 85.5906C108.786 85.5906 108.014 86.3626 108.014 87.315C108.014 88.2674 108.786 89.0395 109.739 89.0395Z"></path>
<path fill="white" d="M154.753 72.8603C155.706 72.8603 156.478 72.0882 156.478 71.1358C156.478 70.1834 155.706 69.4114 154.753 69.4114C153.8 69.4114 153.027 70.1834 153.027 71.1358C153.027 72.0882 153.8 72.8603 154.753 72.8603Z"></path>
<path fill="white" d="M170.932 68.6035C171.885 68.6035 172.657 67.8314 172.657 66.879C172.657 65.9266 171.885 65.1545 170.932 65.1545C169.979 65.1545 169.207 65.9266 169.207 66.879C169.207 67.8314 169.979 68.6035 170.932 68.6035Z"></path>
<path fill="white" d="M97.2257 107.551C99.5045 107.551 101.352 105.705 101.352 103.427C101.352 101.149 99.5045 99.303 97.2257 99.303C94.9469 99.303 93.0995 101.149 93.0995 103.427C93.0995 105.705 94.9469 107.551 97.2257 107.551Z"></path>
<path fill="white" d="M109.739 101.412C112.018 101.412 113.865 99.5651 113.865 97.2874C113.865 95.0097 112.018 93.1633 109.739 93.1633C107.46 93.1633 105.613 95.0097 105.613 97.2874C105.613 99.5651 107.46 101.412 109.739 101.412Z"></path>
<path stroke-miterlimit="10" stroke="#E5E5E5" d="M136.343 93.0466L128.376 101.295"></path>
<path stroke-miterlimit="10" stroke="#E5E5E5" d="M138.309 94.5647L130.343 102.813"></path>
<path stroke-miterlimit="10" stroke="#E5E5E5" d="M153.149 100.238L155.397 111.483"></path>
<path stroke-miterlimit="10" stroke="#E5E5E5" d="M155.517 99.4851L157.764 110.73"></path>
<path stroke-miterlimit="10" stroke="#E5E5E5" d="M153.149 100.238L155.397 111.483"></path>
<path stroke-miterlimit="10" stroke="#E5E5E5" d="M155.517 99.4851L157.764 110.73"></path>
<path stroke-miterlimit="10" stroke="#E5E5E5" d="M130.801 119.923L141.075 125.016"></path>
<path stroke-miterlimit="10" stroke="#E5E5E5" d="M131.652 117.589L141.926 122.682"></path>
<path stroke-miterlimit="10" stroke="#E5E5E5" d="M130.801 119.923L141.075 125.016"></path>
<path stroke-miterlimit="10" stroke="#E5E5E5" d="M131.652 117.589L141.926 122.682"></path>
<path fill="white" d="M140.413 96.1135C142.598 95.4653 143.843 93.1697 143.196 90.9861C142.548 88.8025 140.251 87.5578 138.067 88.206C135.882 88.8542 134.636 91.1498 135.284 93.3334C135.932 95.517 138.228 96.7617 140.413 96.1135Z"></path>
<path fill="white" d="M127.022 107.523C129.3 107.523 131.148 105.677 131.148 103.399C131.148 101.122 129.3 99.2751 127.022 99.2751C124.743 99.2751 122.895 101.122 122.895 103.399C122.895 105.677 124.743 107.523 127.022 107.523Z"></path>
<path fill="white" d="M153.027 103.399C155.306 103.399 157.154 101.553 157.154 99.2752C157.154 96.9975 155.306 95.1511 153.027 95.1511C150.748 95.1511 148.901 96.9975 148.901 99.2752C148.901 101.553 150.748 103.399 153.027 103.399Z"></path>
<path fill="white" d="M156.641 116.729C158.92 116.729 160.767 114.883 160.767 112.605C160.767 110.328 158.92 108.481 156.641 108.481C154.362 108.481 152.515 110.328 152.515 112.605C152.515 114.883 154.362 116.729 156.641 116.729Z"></path>
<path fill="white" d="M164.088 95.1513C166.367 95.1513 168.215 93.3048 168.215 91.0272C168.215 88.7495 166.367 86.9031 164.088 86.9031C161.81 86.9031 159.962 88.7495 159.962 91.0272C159.962 93.3048 161.81 95.1513 164.088 95.1513Z"></path>
<path fill="white" d="M164.088 79.3842C166.367 79.3842 168.215 77.5378 168.215 75.2601C168.215 72.9824 166.367 71.136 164.088 71.136C161.81 71.136 159.962 72.9824 159.962 75.2601C159.962 77.5378 161.81 79.3842 164.088 79.3842Z"></path>
<path fill="white" d="M144.369 128.911C146.647 128.911 148.495 127.065 148.495 124.787C148.495 122.509 146.647 120.663 144.369 120.663C142.09 120.663 140.242 122.509 140.242 124.787C140.242 127.065 142.09 128.911 144.369 128.911Z"></path>
<path fill="white" d="M129.739 121.303C132.018 121.303 133.865 119.456 133.865 117.179C133.865 114.901 132.018 113.054 129.739 113.054C127.46 113.054 125.613 114.901 125.613 117.179C125.613 119.456 127.46 121.303 129.739 121.303Z"></path>
<path fill="white" d="M170.932 125.427C173.211 125.427 175.058 123.58 175.058 121.303C175.058 119.025 173.211 117.178 170.932 117.178C168.653 117.178 166.806 119.025 166.806 121.303C166.806 123.58 168.653 125.427 170.932 125.427Z"></path>
</svg>
