<svg xmlns="http://www.w3.org/2000/svg" fill="none" viewBox="0 0 217 264" height="264" width="217">
<g filter="url(#filter0_b_3449_12568)">
<rect stroke-opacity="0.1" stroke="#0D0D0D" height="262.609" width="216" y="0.5" x="0.5"></rect>
</g>
<path fill="#0D0D0D" d="M136.914 244.06C135.834 244.06 135.27 243.214 135.27 241.9C135.27 240.61 135.828 239.74 136.914 239.74C137.814 239.74 138.27 240.34 138.312 241.132H137.712C137.682 240.646 137.418 240.28 136.932 240.28H136.896C136.23 240.28 135.87 240.91 135.87 241.9C135.87 242.902 136.224 243.52 136.896 243.52H136.932C137.43 243.52 137.67 243.172 137.712 242.668H138.312C138.27 243.466 137.838 244.06 136.914 244.06ZM140.398 244.06C139.402 244.06 138.85 243.232 138.85 241.9C138.85 240.568 139.402 239.74 140.398 239.74C141.394 239.74 141.946 240.568 141.946 241.9C141.946 243.232 141.394 244.06 140.398 244.06ZM140.386 243.52H140.41C141.028 243.52 141.346 242.908 141.346 241.9C141.346 240.892 141.028 240.28 140.41 240.28H140.386C139.768 240.28 139.45 240.892 139.45 241.9C139.45 242.908 139.768 243.52 140.386 243.52ZM143.995 242.23L144.709 239.8H145.441V244H144.883V240.814L144.283 242.854H143.707L143.107 240.814V244H142.555V239.8H143.281L143.995 242.23ZM146.885 244H146.285V239.8H147.773C148.541 239.8 149.087 240.256 149.087 241.078C149.087 241.9 148.523 242.35 147.767 242.35H146.885V244ZM146.885 240.34V241.81H147.683C148.193 241.81 148.487 241.552 148.487 241.078C148.487 240.604 148.205 240.34 147.683 240.34H146.885ZM151.191 244.06C150.195 244.06 149.643 243.232 149.643 241.9C149.643 240.568 150.195 239.74 151.191 239.74C152.187 239.74 152.739 240.568 152.739 241.9C152.739 243.232 152.187 244.06 151.191 244.06ZM151.179 243.52H151.203C151.821 243.52 152.139 242.908 152.139 241.9C152.139 240.892 151.821 240.28 151.203 240.28H151.179C150.561 240.28 150.243 240.892 150.243 241.9C150.243 242.908 150.561 243.52 151.179 243.52ZM154.794 244.06C153.702 244.06 153.198 243.484 153.18 242.638H153.78C153.81 243.244 154.182 243.52 154.824 243.52H154.854C155.406 243.52 155.694 243.22 155.694 242.86C155.694 242.542 155.52 242.344 155.088 242.254L154.422 242.11C153.714 241.96 153.39 241.588 153.39 240.97C153.39 240.316 153.936 239.74 154.854 239.74C155.802 239.74 156.342 240.286 156.36 241.072H155.76C155.73 240.574 155.376 240.28 154.86 240.28H154.836C154.326 240.28 153.99 240.58 153.99 240.958C153.99 241.288 154.176 241.456 154.596 241.54L155.202 241.666C155.898 241.81 156.294 242.17 156.294 242.824C156.294 243.538 155.736 244.06 154.794 244.06ZM159.55 239.8V240.298H158.686V243.502H159.55V244H157.222V243.502H158.086V240.298H157.222V239.8H159.55ZM162.284 244H161.684V240.34H160.49V239.8H163.478V240.34H162.284V244ZM166.985 244H164.267V239.8H166.925V240.34H164.867V241.57H166.613V242.11H164.867V243.46H166.985V244ZM173.029 244H171.493V239.8H172.993C173.749 239.8 174.199 240.244 174.199 240.892C174.199 241.408 173.905 241.744 173.509 241.87C173.911 241.948 174.289 242.284 174.289 242.86C174.289 243.538 173.797 244 173.029 244ZM172.093 240.34V241.606H172.897C173.323 241.606 173.599 241.384 173.599 240.97C173.599 240.562 173.365 240.34 172.897 240.34H172.093ZM172.093 242.14V243.46H172.921C173.425 243.46 173.689 243.238 173.689 242.794C173.689 242.356 173.383 242.14 172.927 242.14H172.093ZM178.054 244H177.436L177.112 242.92H175.624L175.3 244H174.7L176.008 239.8H176.764L178.054 244ZM176.368 240.424L175.786 242.38H176.956L176.368 240.424ZM179.978 244.06C178.886 244.06 178.382 243.484 178.364 242.638H178.964C178.994 243.244 179.366 243.52 180.008 243.52H180.038C180.59 243.52 180.878 243.22 180.878 242.86C180.878 242.542 180.704 242.344 180.272 242.254L179.606 242.11C178.898 241.96 178.574 241.588 178.574 240.97C178.574 240.316 179.12 239.74 180.038 239.74C180.986 239.74 181.526 240.286 181.544 241.072H180.944C180.914 240.574 180.56 240.28 180.044 240.28H180.02C179.51 240.28 179.174 240.58 179.174 240.958C179.174 241.288 179.36 241.456 179.78 241.54L180.386 241.666C181.082 241.81 181.478 242.17 181.478 242.824C181.478 243.538 180.92 244.06 179.978 244.06ZM184.974 244H182.256V239.8H184.914V240.34H182.856V241.57H184.602V242.11H182.856V243.46H184.974V244Z"></path>
<rect fill="#9E9E9E" height="6" width="1" y="239" x="190"></rect>
<rect fill="#0D0D0D" height="3" width="1" y="242" x="190"></rect>
<rect fill="#9E9E9E" height="6" width="1" y="239" x="192"></rect>
<rect fill="#0D0D0D" height="5" width="1" y="240" x="192"></rect>
<rect fill="#9E9E9E" height="6" width="1" y="239" x="194"></rect>
<rect fill="#0D0D0D" height="5" width="1" y="240" x="194"></rect>
<rect fill="#9E9E9E" height="6" width="1" y="239" x="196"></rect>
<rect fill="#0D0D0D" height="6" width="1" y="239" x="196"></rect>
<rect fill="#9E9E9E" height="6" width="1" y="239" x="198"></rect>
<rect fill="#0D0D0D" height="5" width="1" y="240" x="198"></rect>
<rect fill="#9E9E9E" height="6" width="1" y="239" x="200"></rect>
<rect fill="#0D0D0D" height="5" width="1" y="240" x="200"></rect>
<rect fill="#9E9E9E" height="6" width="1" y="239" x="202"></rect>
<rect fill="#0D0D0D" height="6" width="1" y="239" x="202"></rect>
<rect fill="#9E9E9E" height="6" width="1" y="239" x="204"></rect>
<rect fill="#0D0D0D" height="3" width="1" y="242" x="204"></rect>
<rect fill="#9E9E9E" height="6" width="1" y="239" x="206"></rect>
<rect fill="#0D0D0D" height="3" width="1" y="242" x="206"></rect>
<path fill="#0D0D0D" d="M138.48 252H137.862L137.538 250.92H136.05L135.726 252H135.126L136.434 247.8H137.19L138.48 252ZM136.794 248.424L136.212 250.38H137.382L136.794 248.424ZM141.562 247.8V248.298H140.698V251.502H141.562V252H139.234V251.502H140.098V248.298H139.234V247.8H141.562ZM144.751 249.966H144.781C145.195 249.966 145.363 250.164 145.363 250.542V252H144.763V250.638C144.763 250.404 144.673 250.314 144.439 250.314H143.275V252H142.675V247.8H144.133C144.865 247.8 145.423 248.274 145.423 248.928C145.423 249.438 145.177 249.798 144.751 249.966ZM143.275 249.774H143.995C144.475 249.774 144.823 249.498 144.823 249.036C144.823 248.586 144.523 248.34 143.995 248.34H143.275V249.774ZM149.081 252H146.231V247.8H146.831V251.46H149.081V252ZM151.191 252.06C150.195 252.06 149.643 251.232 149.643 249.9C149.643 248.568 150.195 247.74 151.191 247.74C152.187 247.74 152.739 248.568 152.739 249.9C152.739 251.232 152.187 252.06 151.191 252.06ZM151.179 251.52H151.203C151.821 251.52 152.139 250.908 152.139 249.9C152.139 248.892 151.821 248.28 151.203 248.28H151.179C150.561 248.28 150.243 248.892 150.243 249.9C150.243 250.908 150.561 251.52 151.179 251.52ZM154.902 252.06C153.822 252.06 153.258 251.214 153.258 249.9C153.258 248.61 153.816 247.74 154.902 247.74C155.802 247.74 156.258 248.34 156.3 249.132H155.7C155.67 248.646 155.406 248.28 154.92 248.28H154.884C154.218 248.28 153.858 248.91 153.858 249.9C153.858 250.902 154.212 251.52 154.884 251.52H154.92C155.418 251.52 155.658 251.172 155.7 250.668H156.3C156.258 251.466 155.826 252.06 154.902 252.06ZM160.114 252H159.43L158.206 250.008L157.672 250.65V252H157.072V247.8H157.672V249.834L159.34 247.8H160.042L158.602 249.534L160.114 252Z"></path>
<rect fill="#9E9E9E" height="6" width="1" y="247" x="190"></rect>
<rect fill="#0D0D0D" height="1" width="1" y="252" x="190"></rect>
<rect fill="#9E9E9E" height="6" width="1" y="247" x="192"></rect>
<rect fill="#0D0D0D" height="3" width="1" y="250" x="192"></rect>
<rect fill="#9E9E9E" height="6" width="1" y="247" x="194"></rect>
<rect fill="#0D0D0D" height="3" width="1" y="250" x="194"></rect>
<rect fill="#9E9E9E" height="6" width="1" y="247" x="196"></rect>
<rect fill="#0D0D0D" height="3" width="1" y="250" x="196"></rect>
<rect fill="#9E9E9E" height="6" width="1" y="247" x="198"></rect>
<rect fill="#0D0D0D" height="5" width="1" y="248" x="198"></rect>
<rect fill="#9E9E9E" height="6" width="1" y="247" x="200"></rect>
<rect fill="#0D0D0D" height="3" width="1" y="250" x="200"></rect>
<rect fill="#9E9E9E" height="6" width="1" y="247" x="202"></rect>
<rect fill="#0D0D0D" height="1" width="1" y="252" x="202"></rect>
<rect fill="#9E9E9E" height="6" width="1" y="247" x="204"></rect>
<rect fill="#0D0D0D" height="1" width="1" y="252" x="204"></rect>
<rect fill="#9E9E9E" height="6" width="1" y="247" x="206"></rect>
<rect fill="#0D0D0D" height="3" width="1" y="250" x="206"></rect>
<circle fill="#0D0D0D" r="2" cy="14" cx="14"></circle>
<path fill="#0D0D0D" d="M25.48 16H24.862L24.538 14.92H23.05L22.726 16H22.126L23.434 11.8H24.19L25.48 16ZM23.794 12.424L23.212 14.38H24.382L23.794 12.424ZM27.4037 16.06C26.3117 16.06 25.8077 15.484 25.7897 14.638H26.3897C26.4197 15.244 26.7917 15.52 27.4337 15.52H27.4637C28.0157 15.52 28.3037 15.22 28.3037 14.86C28.3037 14.542 28.1297 14.344 27.6977 14.254L27.0317 14.11C26.3237 13.96 25.9997 13.588 25.9997 12.97C25.9997 12.316 26.5457 11.74 27.4637 11.74C28.4117 11.74 28.9517 12.286 28.9697 13.072H28.3697C28.3397 12.574 27.9857 12.28 27.4697 12.28H27.4457C26.9357 12.28 26.5997 12.58 26.5997 12.958C26.5997 13.288 26.7857 13.456 27.2057 13.54L27.8117 13.666C28.5077 13.81 28.9037 14.17 28.9037 14.824C28.9037 15.538 28.3457 16.06 27.4037 16.06ZM31.0013 16.06C29.9093 16.06 29.4053 15.484 29.3873 14.638H29.9873C30.0173 15.244 30.3893 15.52 31.0313 15.52H31.0613C31.6133 15.52 31.9013 15.22 31.9013 14.86C31.9013 14.542 31.7273 14.344 31.2953 14.254L30.6293 14.11C29.9213 13.96 29.5973 13.588 29.5973 12.97C29.5973 12.316 30.1433 11.74 31.0613 11.74C32.0093 11.74 32.5493 12.286 32.5673 13.072H31.9673C31.9373 12.574 31.5833 12.28 31.0673 12.28H31.0433C30.5333 12.28 30.1973 12.58 30.1973 12.958C30.1973 13.288 30.3833 13.456 30.8033 13.54L31.4093 13.666C32.1053 13.81 32.5013 14.17 32.5013 14.824C32.5013 15.538 31.9433 16.06 31.0013 16.06ZM35.997 16H33.279V11.8H35.937V12.34H33.879V13.57H35.625V14.11H33.879V15.46H35.997V16ZM38.1906 14.23L38.9046 11.8H39.6366V16H39.0786V12.814L38.4786 14.854H37.9026L37.3026 12.814V16H36.7506V11.8H37.4766L38.1906 14.23ZM42.0403 16H40.5043V11.8H42.0043C42.7603 11.8 43.2103 12.244 43.2103 12.892C43.2103 13.408 42.9163 13.744 42.5203 13.87C42.9223 13.948 43.3003 14.284 43.3003 14.86C43.3003 15.538 42.8083 16 42.0403 16ZM41.1043 12.34V13.606H41.9083C42.3343 13.606 42.6103 13.384 42.6103 12.97C42.6103 12.562 42.3763 12.34 41.9083 12.34H41.1043ZM41.1043 14.14V15.46H41.9323C42.4363 15.46 42.7003 15.238 42.7003 14.794C42.7003 14.356 42.3943 14.14 41.9383 14.14H41.1043ZM46.8739 16H44.0239V11.8H44.6239V15.46H46.8739V16ZM48.9896 13.774L49.9436 11.8H50.5916L49.2776 14.332V16H48.6776V14.332L47.3756 11.8H48.0356L48.9896 13.774Z"></path>
<defs>
<filter color-interpolation-filters="sRGB" filterUnits="userSpaceOnUse" height="385.863" width="339.254" y="-61.1268" x="-61.1268" id="filter0_b_3449_12568">
<feFlood result="BackgroundImageFix" flood-opacity="0"></feFlood>
<feGaussianBlur stdDeviation="30.5634" in="BackgroundImageFix"></feGaussianBlur>
<feComposite result="effect1_backgroundBlur_3449_12568" operator="in" in2="SourceAlpha"></feComposite>
<feBlend result="shape" in2="effect1_backgroundBlur_3449_12568" in="SourceGraphic" mode="normal"></feBlend>
</filter>
</defs>
</svg>
