<svg xmlns="http://www.w3.org/2000/svg" fill="none" viewBox="0 0 56 20" height="20" width="56">
<path fill="#0D0D0D" d="M13.6306 9.09959H17.6571C17.6571 9.09959 17.8161 8.49335 17.0992 7.58433C15.6826 6.11781 14.0918 7.09068 14.0918 7.09068C13.3119 7.50537 12.3099 9.22729 12.8972 11.6983C13.6306 14.1699 16.4468 14.6787 18.1972 14.1047C19.3555 13.725 20.0237 12.8881 20.3445 12.3635C20.448 11.9386 20.5213 11.5143 20.5679 11.092H13.6299V9.09959H13.6306Z"></path>
<path fill="#0D0D0D" d="M10.1128 0.0148482C5.8642 0.241416 2.07342 3.1868 0.972031 7.53554C-0.383631 12.888 2.84857 18.3325 8.19172 19.6906C11.988 20.6552 15.837 19.3006 18.229 16.5152C17.1776 16.7672 15.9467 16.7836 14.6109 16.323C10.1382 14.7754 9.31847 10.6292 10.4329 7.72778C11.5459 4.82633 15.4436 3.47379 18.1488 5.41884C20.4674 7.08446 20.5949 10.0525 20.5818 10.8709C21.0088 6.06902 17.9205 1.52805 13.1065 0.303209C12.1045 0.048491 11.0936 -0.0380177 10.1128 0.0148482ZM5.24668 8.83453C5.95604 8.83453 6.52764 9.40713 6.52764 10.1177C6.52764 10.8283 5.95604 11.4009 5.24668 11.4009C4.53732 11.4009 3.94996 10.8283 3.94996 10.1177C3.94996 9.40781 4.53801 8.83453 5.24668 8.83453Z"></path>
<path fill="#0D0D0D" d="M50.4224 4.52097C49.6281 4.55255 48.8159 4.683 48.1491 4.93771C46.7516 5.51031 46.0518 6.87315 46.0518 8.30534H48.5809C48.5171 7.57346 49.0654 6.90886 49.5733 6.71799C49.7967 6.62324 50.1037 6.55733 50.4218 6.55733C51.0564 6.52575 51.7061 6.68847 52.1509 7.10247C52.4374 7.38808 52.5183 7.76295 52.423 8.17695C52.2633 8.84498 51.5341 9.07567 50.4218 9.23564C50.04 9.29881 49.6007 9.33245 49.125 9.3963C47.7913 9.55559 45.8873 10.2147 45.4432 12.1543C45.2842 12.9184 45.4055 14.3272 46.5796 15.2493C47.3739 15.8542 48.4918 16.1316 49.3492 16.0993C49.7309 16.0993 50.1195 16.067 50.4375 16.0032C51.3258 15.813 52.0125 15.4045 52.6787 14.8648C52.7109 15.0241 52.872 15.6201 52.9988 15.7787H55.6724C55.2605 14.952 55.3201 13.7526 55.3201 13.0846V9.65308C55.2886 8.7626 55.2865 7.86662 55.096 7.0393C54.9048 6.21199 54.1817 4.84091 51.8302 4.55392C51.3861 4.52234 50.8974 4.52165 50.4218 4.52165L50.4224 4.52097ZM52.5834 10.2456C52.5834 10.5003 52.6143 12.3163 52.4552 12.6671C52.1688 13.4299 51.3744 13.8721 50.4224 13.9661C50.2326 13.9977 50.0188 14.0293 49.7981 13.9984C49.1627 13.9984 48.6281 13.6901 48.4054 13.2129C48.1511 12.7358 48.3101 12.249 48.4691 11.962C48.8502 11.294 49.5157 11.1745 50.4382 10.9837C50.7226 10.9521 51.0345 10.8862 51.3826 10.7914C52.0817 10.6321 52.2339 10.501 52.5834 10.2463V10.2456Z"></path>
<path fill="#0D0D0D" d="M31.8475 6.08163C30.7359 4.84031 29.0204 4.2986 27.274 4.55332C25.686 4.80804 24.5428 5.69921 23.7485 6.97142C23.3352 7.70331 23.0501 8.53062 22.9226 9.32636C22.6684 11.268 23.2084 14.5127 26.6079 15.7856C28.1952 16.3905 30.1972 16.168 31.7214 15.0537C32.5788 14.4173 33.4376 12.9851 33.4999 12.0946H30.6735C30.5775 12.477 30.3562 12.9851 29.8476 13.3675C28.7037 14.1941 27.4015 13.6545 26.8299 13.2398C25.9725 12.6034 25.6867 11.5536 25.6552 10.0582C25.6552 9.26319 25.8773 7.99029 26.5448 7.38542C27.2754 6.78056 28.1643 6.62196 29.0217 6.87599C29.9436 7.16297 30.642 8.18047 30.5782 9.10322H26.5763V11.1087H33.4999C33.5637 10.3761 33.4376 9.67651 33.3101 9.00848C33.088 8.02256 32.4842 6.81282 31.8489 6.08163H31.8475Z"></path>
<path fill="#0D0D0D" d="M40.043 9.04003C39.1849 8.88075 38.2007 8.84917 37.6928 8.27657C37.4701 8.02185 37.4701 7.57626 37.5969 7.32155C37.9464 6.62193 38.8045 6.3988 39.6297 6.46196C40.3603 6.46196 41.0272 6.84438 41.313 7.48083C41.4404 7.73555 41.4726 8.02185 41.5035 8.30815H43.8536C43.8858 7.3854 43.5048 6.43038 42.9332 5.8262C42.2026 5.06273 40.4871 4.26768 38.3597 4.58557C37.2151 4.74416 35.6909 5.41288 35.1816 6.90755C34.7368 8.30815 35.1816 9.58036 36.039 10.2491C37.1199 11.0771 39.1527 11.2988 39.9785 11.4911C40.9312 11.6813 41.4075 11.809 41.5665 12.3493C41.6625 12.7001 41.6303 13.1135 41.4075 13.4004C40.8037 14.1948 39.5653 14.2587 38.5811 13.9717C37.7552 13.7183 37.4057 13.0496 37.2467 12.1577H34.769C34.769 12.9858 35.0226 13.5597 35.4366 14.2271C35.976 15.0867 36.9293 15.7856 38.3268 16.0087C39.8511 16.2641 41.4075 16.0726 42.3294 15.5638C42.8687 15.2446 43.282 14.8319 43.6316 14.3864C44.1394 13.7499 44.5842 12.1577 43.7899 10.7585C43.0915 9.54947 41.5028 9.29544 40.0416 9.04072"></path>
</svg>
