<svg xmlns="http://www.w3.org/2000/svg" fill="none" viewBox="0 0 276 202" height="202" width="276">
<line stroke-width="0.8" stroke-opacity="0.15" stroke="white" y2="56.3532" x2="259.522" y1="56.3532" x1="16.4777"></line>
<line stroke-width="0.8" stroke-opacity="0.15" stroke="white" y2="79.422" x2="259.522" y1="79.422" x1="16.4777"></line>
<line stroke-width="0.8" stroke-opacity="0.15" stroke="white" y2="102.49" x2="259.522" y1="102.49" x1="16.4777"></line>
<line stroke-width="0.8" stroke-opacity="0.15" stroke="white" y2="125.559" x2="259.522" y1="125.559" x1="16.4777"></line>
<line stroke-width="0.8" stroke-opacity="0.15" stroke="white" y2="148.628" x2="259.522" y1="148.628" x1="16.4777"></line>
<path fill="white" d="M19.2055 27.1084C17.5561 27.1084 16.7949 26.2384 16.7677 24.9606H17.6739C17.7192 25.8759 18.2811 26.2928 19.2508 26.2928H19.2962C20.1299 26.2928 20.5649 25.8397 20.5649 25.2959C20.5649 24.8156 20.3021 24.5165 19.6496 24.3806L18.6436 24.1631C17.5742 23.9365 17.0849 23.3746 17.0849 22.4412C17.0849 21.4533 17.9096 20.5833 19.2962 20.5833C20.7281 20.5833 21.5437 21.408 21.5709 22.5952H20.6646C20.6193 21.843 20.0846 21.399 19.3052 21.399H19.269C18.4986 21.399 17.9911 21.8521 17.9911 22.423C17.9911 22.9215 18.2721 23.1752 18.9065 23.3021L19.8218 23.4924C20.8731 23.7099 21.4712 24.2537 21.4712 25.2415C21.4712 26.32 20.6284 27.1084 19.2055 27.1084ZM24.8027 27.1084C23.1714 27.1084 22.3196 25.8306 22.3196 23.8459C22.3196 21.8974 23.1624 20.5833 24.8027 20.5833C26.1621 20.5833 26.8509 21.4896 26.9143 22.6859H26.0081C25.9628 21.9518 25.564 21.399 24.8299 21.399H24.7755C23.7696 21.399 23.2258 22.3505 23.2258 23.8459C23.2258 25.3594 23.7605 26.2928 24.7755 26.2928H24.8299C25.5821 26.2928 25.9446 25.7672 26.0081 25.0059H26.9143C26.8509 26.2112 26.1984 27.1084 24.8027 27.1084ZM28.8502 27.0178H27.9439V20.6739H28.8502V23.4381H31.279V20.6739H32.1853V27.0178H31.279V24.2537H28.8502V27.0178ZM37.6194 27.0178H33.514V20.6739H37.5287V21.4896H34.4202V23.3474H37.0575V24.1631H34.4202V26.2022H37.6194V27.0178ZM40.9328 24.3443L42.0112 20.6739H43.1169V27.0178H42.274V22.2055L41.3678 25.2868H40.4977L39.5915 22.2055V27.0178H38.7577V20.6739H39.8543L40.9328 24.3443ZM48.9044 27.0178H47.9709L47.4815 25.3865H45.234L44.7446 27.0178H43.8383L45.814 20.6739H46.9559L48.9044 27.0178ZM46.3578 21.6165L45.4787 24.5709H47.2459L46.3578 21.6165ZM52.3718 23.5831H51.2299V22.4412H52.3718V23.5831ZM52.3718 27.0178H51.2299V25.8759H52.3718V27.0178Z"></path>
<path fill="white" d="M88.4995 185.334H87.5932V178.99H89.8408C91.0008 178.99 91.8255 179.679 91.8255 180.92C91.8255 182.162 90.9736 182.842 89.8317 182.842H88.4995V185.334ZM88.4995 179.806V182.026H89.7048C90.4751 182.026 90.9192 181.636 90.9192 180.92C90.9192 180.204 90.4933 179.806 89.7048 179.806H88.4995ZM97.5405 185.334H96.607L96.1177 183.702H93.8701L93.3807 185.334H92.4745L94.4501 178.99H95.592L97.5405 185.334ZM94.9939 179.932L94.1148 182.887H95.882L94.9939 179.932ZM100.89 185.334H99.9839V179.806H98.1804V178.99H102.694V179.806H100.89V185.334ZM106.043 185.424C104.412 185.424 103.56 184.147 103.56 182.162C103.56 180.213 104.403 178.899 106.043 178.899C107.403 178.899 108.091 179.806 108.155 181.002H107.249C107.203 180.268 106.805 179.715 106.07 179.715H106.016C105.01 179.715 104.466 180.666 104.466 182.162C104.466 183.675 105.001 184.609 106.016 184.609H106.07C106.823 184.609 107.185 184.083 107.249 183.322H108.155C108.091 184.527 107.439 185.424 106.043 185.424ZM110.091 185.334H109.184V178.99H110.091V181.754H112.52V178.99H113.426V185.334H112.52V182.57H110.091V185.334ZM116.739 185.424C115.235 185.424 114.401 184.174 114.401 182.162C114.401 180.15 115.235 178.899 116.739 178.899C118.244 178.899 119.077 180.15 119.077 182.162C119.077 184.174 118.244 185.424 116.739 185.424ZM116.721 184.609H116.757C117.691 184.609 118.171 183.684 118.171 182.162C118.171 180.639 117.691 179.715 116.757 179.715H116.721C115.788 179.715 115.307 180.639 115.307 182.162C115.307 183.684 115.788 184.609 116.721 184.609ZM122.173 185.424C120.796 185.424 120.016 184.582 120.016 183.204V178.99H120.923V183.077C120.923 184.128 121.367 184.609 122.155 184.609H122.191C122.98 184.609 123.424 184.128 123.424 183.077V178.99H124.33V183.204C124.33 184.582 123.551 185.424 122.173 185.424ZM129.855 185.334H125.55V178.99H126.456V184.518H129.855V185.334ZM133.041 185.424C131.537 185.424 130.703 184.174 130.703 182.162C130.703 180.15 131.537 178.899 133.041 178.899C134.546 178.899 135.38 180.15 135.38 182.162C135.38 184.174 134.546 185.424 133.041 185.424ZM133.023 184.609H133.06C133.993 184.609 134.473 183.684 134.473 182.162C134.473 180.639 133.993 179.715 133.06 179.715H133.023C132.09 179.715 131.61 180.639 131.61 182.162C131.61 183.684 132.09 184.609 133.023 184.609ZM140.723 185.334H136.418V178.99H137.325V184.518H140.723V185.334ZM149.344 182.66L150.422 178.99H151.528V185.334H150.685V180.521L149.779 183.603H148.909L148.002 180.521V185.334H147.169V178.99H148.265L149.344 182.66ZM154.778 185.424C153.273 185.424 152.44 184.174 152.44 182.162C152.44 180.15 153.273 178.899 154.778 178.899C156.282 178.899 157.116 180.15 157.116 182.162C157.116 184.174 156.282 185.424 154.778 185.424ZM154.76 184.609H154.796C155.729 184.609 156.21 183.684 156.21 182.162C156.21 180.639 155.729 179.715 154.796 179.715H154.76C153.826 179.715 153.346 180.639 153.346 182.162C153.346 183.684 153.826 184.609 154.76 184.609ZM162.459 185.334H158.155V178.99H159.061V184.518H162.459V185.334ZM167.767 185.334H163.661V178.99H167.676V179.806H164.567V181.663H167.205V182.479H164.567V184.518H167.767V185.334ZM171.252 185.424C169.621 185.424 168.769 184.147 168.769 182.162C168.769 180.213 169.612 178.899 171.252 178.899C172.612 178.899 173.3 179.806 173.364 181.002H172.457C172.412 180.268 172.013 179.715 171.279 179.715H171.225C170.219 179.715 169.675 180.666 169.675 182.162C169.675 183.675 170.21 184.609 171.225 184.609H171.279C172.032 184.609 172.394 184.083 172.457 183.322H173.364C173.3 184.527 172.648 185.424 171.252 185.424ZM176.514 185.424C175.137 185.424 174.357 184.582 174.357 183.204V178.99H175.263V183.077C175.263 184.128 175.707 184.609 176.496 184.609H176.532C177.321 184.609 177.765 184.128 177.765 183.077V178.99H178.671V183.204C178.671 184.582 177.892 185.424 176.514 185.424ZM184.196 185.334H179.891V178.99H180.797V184.518H184.196V185.334ZM189.503 185.334H185.397V178.99H189.412V179.806H186.304V181.663H188.941V182.479H186.304V184.518H189.503V185.334Z"></path>
<path fill="white" d="M197.128 21.0408V17.772H197.74V22.0974H197.035L195.447 18.7792V22.0974H194.836V17.772H195.565L197.128 21.0408ZM201.439 22.0974H198.64V17.772H201.377V18.3282H199.257V19.5949H201.056V20.151H199.257V21.5413H201.439V22.0974ZM204.05 19.8606L205.397 22.0974H204.705L203.698 20.3796L202.666 22.0974H201.999L203.346 19.8853L202.079 17.772H202.765L203.704 19.3724L204.656 17.772H205.317L204.05 19.8606ZM207.712 22.0974H207.094V18.3282H205.864V17.772H208.941V18.3282H207.712V22.0974ZM214.93 22.1592C213.818 22.1592 213.237 21.2879 213.237 19.9347C213.237 18.6062 213.812 17.7102 214.93 17.7102C215.857 17.7102 216.327 18.3282 216.37 19.1438H215.752C215.721 18.6433 215.449 18.2664 214.949 18.2664H214.912C214.226 18.2664 213.855 18.9152 213.855 19.9347C213.855 20.9666 214.22 21.6031 214.912 21.6031H214.949C215.462 21.6031 215.709 21.2447 215.752 20.7257H216.37C216.327 21.5475 215.882 22.1592 214.93 22.1592ZM218.524 19.805L219.507 17.772H220.174L218.821 20.3796V22.0974H218.203V20.3796L216.862 17.772H217.542L218.524 19.805ZM222.34 22.1592C221.228 22.1592 220.647 21.2879 220.647 19.9347C220.647 18.6062 221.222 17.7102 222.34 17.7102C223.267 17.7102 223.737 18.3282 223.78 19.1438H223.162C223.131 18.6433 222.859 18.2664 222.359 18.2664H222.322C221.636 18.2664 221.265 18.9152 221.265 19.9347C221.265 20.9666 221.63 21.6031 222.322 21.6031H222.359C222.872 21.6031 223.119 21.2447 223.162 20.7257H223.78C223.737 21.5475 223.292 22.1592 222.34 22.1592ZM227.461 22.0974H224.525V17.772H225.143V21.5413H227.461V22.0974ZM231.079 22.0974H228.28V17.772H231.017V18.3282H228.898V19.5949H230.696V20.151H228.898V21.5413H231.079V22.0974ZM196.288 24.6917C197.313 24.6917 197.931 25.5197 197.931 26.9162C197.931 28.3127 197.326 29.1407 196.288 29.1407C195.25 29.1407 194.644 28.3127 194.644 26.9162C194.644 25.5197 195.262 24.6917 196.288 24.6917ZM196.319 25.2355H196.257C195.688 25.2355 195.25 25.7422 195.25 26.9162C195.25 27.1942 195.274 27.4291 195.318 27.6391L197.091 25.7236C196.906 25.3899 196.634 25.2355 196.319 25.2355ZM196.257 28.5969H196.319C196.887 28.5969 197.326 28.0902 197.326 26.9162C197.326 26.6752 197.307 26.4651 197.27 26.2797L195.521 28.1705C195.707 28.461 195.966 28.5969 196.257 28.5969ZM199.993 24.6917C201.018 24.6917 201.636 25.5197 201.636 26.9162C201.636 28.3127 201.031 29.1407 199.993 29.1407C198.955 29.1407 198.349 28.3127 198.349 26.9162C198.349 25.5197 198.967 24.6917 199.993 24.6917ZM200.024 25.2355H199.962C199.393 25.2355 198.955 25.7422 198.955 26.9162C198.955 27.1942 198.979 27.4291 199.023 27.6391L200.796 25.7236C200.611 25.3899 200.339 25.2355 200.024 25.2355ZM199.962 28.5969H200.024C200.592 28.5969 201.031 28.0902 201.031 26.9162C201.031 26.6752 201.012 26.4651 200.975 26.2797L199.227 28.1705C199.412 28.461 199.671 28.5969 199.962 28.5969ZM204.087 26.7555H203.309V25.977H204.087V26.7555ZM204.087 29.0974H203.309V28.3188H204.087V29.0974ZM208.435 24.772V27.5897H209.121V28.1273H208.435V29.0974H207.86V28.1273H205.734V27.5094L207.811 24.772H208.435ZM207.86 25.5444L206.321 27.5897H207.86V25.5444ZM211.8 27.219L210.434 28.5475H212.585V29.0974H209.674V28.5166L211.287 26.9347C211.788 26.4466 211.917 26.255 211.917 25.9337C211.917 25.5568 211.608 25.254 211.182 25.254H211.12C210.651 25.254 210.336 25.5691 210.323 26.0758H209.718C209.718 25.2478 210.311 24.7102 211.145 24.7102C211.967 24.7102 212.523 25.2169 212.523 25.9152C212.523 26.4589 212.257 26.7741 211.8 27.219ZM215.202 26.7555H214.424V25.977H215.202V26.7555ZM215.202 29.0974H214.424V28.3188H215.202V29.0974ZM218.499 29.1592C217.634 29.1592 217.078 28.7143 217.035 27.9543H217.641C217.702 28.3621 217.999 28.6154 218.469 28.6154H218.53C219.043 28.6154 219.377 28.3188 219.377 27.8987C219.377 27.4599 219.012 27.2128 218.518 27.2128H218.234V26.6628H218.537C219.031 26.6628 219.352 26.3662 219.352 25.9584C219.352 25.5321 219.006 25.254 218.549 25.254H218.487C218.073 25.254 217.758 25.5259 217.721 25.9275H217.115C217.134 25.2231 217.721 24.7102 218.518 24.7102C219.365 24.7102 219.958 25.1922 219.958 25.9028C219.958 26.391 219.649 26.7802 219.222 26.9285C219.649 27.0521 219.989 27.4167 219.989 27.9357C219.989 28.739 219.315 29.1592 218.499 29.1592ZM222.204 29.1592C221.339 29.1592 220.783 28.7143 220.74 27.9543H221.346C221.407 28.3621 221.704 28.6154 222.174 28.6154H222.235C222.748 28.6154 223.082 28.3188 223.082 27.8987C223.082 27.4599 222.717 27.2128 222.223 27.2128H221.939V26.6628H222.242C222.736 26.6628 223.057 26.3662 223.057 25.9584C223.057 25.5321 222.711 25.254 222.254 25.254H222.192C221.778 25.254 221.463 25.5259 221.426 25.9275H220.82C220.839 25.2231 221.426 24.7102 222.223 24.7102C223.07 24.7102 223.663 25.1922 223.663 25.9028C223.663 26.391 223.354 26.7802 222.927 26.9285C223.354 27.0521 223.694 27.4167 223.694 27.9357C223.694 28.739 223.02 29.1592 222.204 29.1592Z"></path>
<rect stroke-width="0.8" stroke-opacity="0.15" stroke="white" height="19.797" width="69.2299" y="13.3783" x="189.893"></rect>
<path fill="white" d="M249.222 27.8079C248.281 27.8079 247.497 27.4852 246.869 26.8398C246.24 26.1945 245.926 25.3912 245.926 24.43C245.926 23.7434 246.199 22.9968 246.745 22.1903C247.291 21.3834 248.116 20.5097 249.222 19.5691C250.327 20.5097 251.153 21.3834 251.699 22.1903C252.244 22.9968 252.517 23.7434 252.517 24.43C252.517 25.3912 252.203 26.1945 251.575 26.8398C250.947 27.4852 250.162 27.8079 249.222 27.8079ZM249.222 26.984C249.936 26.984 250.526 26.7421 250.993 26.2582C251.46 25.774 251.693 25.1646 251.693 24.43C251.693 23.9288 251.486 23.3624 251.07 22.7307C250.655 22.0991 250.039 21.4091 249.222 20.6607C248.405 21.4091 247.789 22.0991 247.373 22.7307C246.958 23.3624 246.75 23.9288 246.75 24.43C246.75 25.1646 246.983 25.774 247.45 26.2582C247.917 26.7421 248.508 26.984 249.222 26.984Z"></path>
<line stroke-width="0.8" stroke-opacity="0.15" stroke="white" y2="33.5753" x2="239.326" y1="12.9783" x1="239.326"></line>
<path stroke-miterlimit="10" stroke="#E5E5E5" d="M131.568 99.2021L134.951 108.554"></path>
<path stroke-miterlimit="10" stroke="#E5E5E5" d="M167.184 61.8394L160.129 70.8996"></path>
<path stroke-miterlimit="10" stroke="#E5E5E5" d="M165.124 69.7524L158.896 73.6894"></path>
<path stroke-miterlimit="10" stroke="#E5E5E5" d="M158.518 64.5557L158.283 71.9197"></path>
<path stroke-miterlimit="10" stroke="#E5E5E5" d="M181.638 85.3965L178.989 92.2713"></path>
<path stroke-miterlimit="10" stroke="#E5E5E5" d="M180.938 98.1382L182.564 105.324"></path>
<path stroke-miterlimit="10" stroke="#E5E5E5" d="M158.042 123.584L161.605 130.033"></path>
<path stroke-miterlimit="10" stroke="#E5E5E5" d="M152.134 130.033L156.367 124.002"></path>
<path stroke-miterlimit="10" stroke="#E5E5E5" d="M168.91 117.604L175.961 119.739"></path>
<path stroke-miterlimit="10" stroke="#E5E5E5" d="M191.583 90.7925L182.494 93.6011"></path>
<path stroke-miterlimit="10" stroke="#E5E5E5" d="M120.79 82.501L120.369 89.1017"></path>
<path stroke-miterlimit="10" stroke="#E5E5E5" d="M137.436 81.999L134.665 88.0045"></path>
<path stroke-miterlimit="10" stroke="#E5E5E5" d="M108.374 106.846L105.163 112.628"></path>
<path stroke-miterlimit="10" stroke="#E5E5E5" d="M124.261 117.345L120.612 126.297"></path>
<path stroke-miterlimit="10" stroke="#E5E5E5" d="M157.601 94.1411L148.341 96.9159"></path>
<path stroke-miterlimit="10" stroke="#E5E5E5" d="M166.517 118.442L157.256 121.217"></path>
<path stroke-miterlimit="10" stroke="#E5E5E5" d="M176.593 94.2998L162.578 92.6902"></path>
<path stroke-miterlimit="10" stroke="#E5E5E5" d="M164.914 102.918L159.88 105.922"></path>
<path stroke-miterlimit="10" stroke="#E5E5E5" d="M91.9436 94.6992L92.5442 101.286"></path>
<path stroke-miterlimit="10" stroke="#E5E5E5" d="M113.32 88.6582L118.618 92.415"></path>
<path stroke-miterlimit="10" stroke="#E5E5E5" d="M83.3635 98.1157L90.308 101.798"></path>
<path stroke-miterlimit="10" stroke="#E5E5E5" d="M134.21 110.046L127.073 114.455"></path>
<path stroke-miterlimit="10" stroke="#E5E5E5" d="M140.988 117.775L133.851 122.184"></path>
<path stroke-miterlimit="10" stroke="#E5E5E5" d="M112.604 106.764L123.001 114.5"></path>
<path stroke-miterlimit="10" stroke="#E5E5E5" d="M125.397 115.724L131.924 121.5"></path>
<path stroke-miterlimit="10" stroke="#E5E5E5" d="M136.162 123.409L140.487 124.934"></path>
<path stroke-miterlimit="10" stroke="#E5E5E5" d="M132.743 122.875L126.772 130.033"></path>
<path stroke-miterlimit="10" stroke="#E5E5E5" d="M135.019 109.419L143.832 118.921"></path>
<path stroke-miterlimit="10" stroke="#E5E5E5" d="M139.183 110.003L155.137 107.142"></path>
<path stroke-miterlimit="10" stroke="#E5E5E5" d="M122.189 90.8501L131.956 92.0871"></path>
<path stroke-miterlimit="10" stroke="#E5E5E5" d="M146.921 72.1587L156.61 73.5373"></path>
<path stroke-miterlimit="10" stroke="#E5E5E5" d="M96.7094 103.721L106.769 105.017"></path>
<path fill="white" d="M82.4412 99.4729C83.3941 99.4729 84.1665 98.7008 84.1665 97.7484C84.1665 96.796 83.3941 96.0239 82.4412 96.0239C81.4883 96.0239 80.7158 96.796 80.7158 97.7484C80.7158 98.7008 81.4883 99.4729 82.4412 99.4729Z"></path>
<path fill="white" d="M104.806 114.871C105.759 114.871 106.531 114.099 106.531 113.146C106.531 112.194 105.759 111.422 104.806 111.422C103.853 111.422 103.081 112.194 103.081 113.146C103.081 114.099 103.853 114.871 104.806 114.871Z"></path>
<path fill="white" d="M167.184 63.5637C168.137 63.5637 168.91 62.7916 168.91 61.8392C168.91 60.8868 168.137 60.1147 167.184 60.1147C166.231 60.1147 165.459 60.8868 165.459 61.8392C165.459 62.7916 166.231 63.5637 167.184 63.5637Z"></path>
<path fill="white" d="M165.124 104.643C166.077 104.643 166.849 103.871 166.849 102.918C166.849 101.966 166.077 101.194 165.124 101.194C164.171 101.194 163.399 101.966 163.399 102.918C163.399 103.871 164.171 104.643 165.124 104.643Z"></path>
<path fill="white" d="M151.635 132.231C152.588 132.231 153.36 131.459 153.36 130.506C153.36 129.554 152.588 128.782 151.635 128.782C150.682 128.782 149.909 129.554 149.909 130.506C149.909 131.459 150.682 132.231 151.635 132.231Z"></path>
<path fill="white" d="M161.668 131.47C162.621 131.47 163.393 130.698 163.393 129.745C163.393 128.793 162.621 128.021 161.668 128.021C160.715 128.021 159.943 128.793 159.943 129.745C159.943 130.698 160.715 131.47 161.668 131.47Z"></path>
<path fill="white" d="M176.593 121.5C177.546 121.5 178.319 120.728 178.319 119.776C178.319 118.823 177.546 118.051 176.593 118.051C175.64 118.051 174.868 118.823 174.868 119.776C174.868 120.728 175.64 121.5 176.593 121.5Z"></path>
<path fill="white" d="M183.101 107.647C184.053 107.647 184.826 106.875 184.826 105.922C184.826 104.97 184.053 104.198 183.101 104.198C182.148 104.198 181.375 104.97 181.375 105.922C181.375 106.875 182.148 107.647 183.101 107.647Z"></path>
<path fill="white" d="M191.583 92.1247C192.536 92.1247 193.309 91.3527 193.309 90.4003C193.309 89.4479 192.536 88.6758 191.583 88.6758C190.63 88.6758 189.858 89.4479 189.858 90.4003C189.858 91.3527 190.63 92.1247 191.583 92.1247Z"></path>
<path fill="white" d="M181.638 87.1208C182.591 87.1208 183.364 86.3487 183.364 85.3963C183.364 84.4439 182.591 83.6719 181.638 83.6719C180.685 83.6719 179.913 84.4439 179.913 85.3963C179.913 86.3487 180.685 87.1208 181.638 87.1208Z"></path>
<path fill="white" d="M165.732 71.6862C166.684 71.6862 167.457 70.9142 167.457 69.9618C167.457 69.0094 166.684 68.2373 165.732 68.2373C164.779 68.2373 164.006 69.0094 164.006 69.9618C164.006 70.9142 164.779 71.6862 165.732 71.6862Z"></path>
<path fill="white" d="M158.335 66.281C159.288 66.281 160.06 65.5089 160.06 64.5565C160.06 63.6041 159.288 62.832 158.335 62.832C157.382 62.832 156.61 63.6041 156.61 64.5565C156.61 65.5089 157.382 66.281 158.335 66.281Z"></path>
<path fill="white" d="M146.336 73.7678C147.289 73.7678 148.061 72.9957 148.061 72.0433C148.061 71.0909 147.289 70.3188 146.336 70.3188C145.383 70.3188 144.611 71.0909 144.611 72.0433C144.611 72.9957 145.383 73.7678 146.336 73.7678Z"></path>
<path fill="white" d="M137.776 83.1237C138.729 83.1237 139.501 82.3517 139.501 81.3993C139.501 80.4469 138.729 79.6748 137.776 79.6748C136.823 79.6748 136.051 80.4469 136.051 81.3993C136.051 82.3517 136.823 83.1237 137.776 83.1237Z"></path>
<path fill="white" d="M130.893 99.8625C131.845 99.8625 132.618 99.0904 132.618 98.138C132.618 97.1856 131.845 96.4136 130.893 96.4136C129.94 96.4136 129.167 97.1856 129.167 98.138C129.167 99.0904 129.94 99.8625 130.893 99.8625Z"></path>
<path fill="white" d="M120.79 84.2253C121.743 84.2253 122.515 83.4532 122.515 82.5008C122.515 81.5484 121.743 80.7764 120.79 80.7764C119.837 80.7764 119.065 81.5484 119.065 82.5008C119.065 83.4532 119.837 84.2253 120.79 84.2253Z"></path>
<path fill="white" d="M113.16 89.5207C114.113 89.5207 114.886 88.7486 114.886 87.7962C114.886 86.8439 114.113 86.0718 113.16 86.0718C112.207 86.0718 111.435 86.8439 111.435 87.7962C111.435 88.7486 112.207 89.5207 113.16 89.5207Z"></path>
<path fill="white" d="M133.293 117.697C134.246 117.697 135.019 116.925 135.019 115.973C135.019 115.02 134.246 114.248 133.293 114.248C132.341 114.248 131.568 115.02 131.568 115.973C131.568 116.925 132.341 117.697 133.293 117.697Z"></path>
<path fill="white" d="M140.177 126.323C141.13 126.323 141.902 125.551 141.902 124.599C141.902 123.647 141.13 122.875 140.177 122.875C139.224 122.875 138.452 123.647 138.452 124.599C138.452 125.551 139.224 126.323 140.177 126.323Z"></path>
<path fill="white" d="M127.073 131.757C128.026 131.757 128.798 130.985 128.798 130.033C128.798 129.08 128.026 128.308 127.073 128.308C126.12 128.308 125.347 129.08 125.347 130.033C125.347 130.985 126.12 131.757 127.073 131.757Z"></path>
<path fill="white" d="M120.793 128.021C121.746 128.021 122.518 127.249 122.518 126.297C122.518 125.344 121.746 124.572 120.793 124.572C119.84 124.572 119.068 125.344 119.068 126.297C119.068 127.249 119.84 128.021 120.793 128.021Z"></path>
<path fill="white" d="M86.4586 115.895C87.4115 115.895 88.184 115.123 88.184 114.17C88.184 113.218 87.4115 112.446 86.4586 112.446C85.5057 112.446 84.7333 113.218 84.7333 114.17C84.7333 115.123 85.5057 115.895 86.4586 115.895Z"></path>
<path fill="white" d="M92.0333 96.0241C92.9862 96.0241 93.7587 95.2521 93.7587 94.2997C93.7587 93.3473 92.9862 92.5752 92.0333 92.5752C91.0805 92.5752 90.308 93.3473 90.308 94.2997C90.308 95.2521 91.0805 96.0241 92.0333 96.0241Z"></path>
<path stroke-miterlimit="10" stroke="#E5E5E5" d="M110.646 103.777L116.872 92.415"></path>
<path stroke-miterlimit="10" stroke="#E5E5E5" d="M159.529 90.7925L158.264 76.943"></path>
<path stroke-miterlimit="10" stroke="#E5E5E5" d="M166.547 118.036L157.226 107.715"></path>
<path stroke-miterlimit="10" stroke="#E5E5E5" d="M158.028 121.915L145.241 116.446"></path>
<path stroke-miterlimit="10" stroke="#E5E5E5" d="M86.766 113.265L90.8763 105.017"></path>
<path stroke-miterlimit="10" stroke="#E5E5E5" d="M143.585 115.639L145.481 99.2021"></path>
<path stroke-miterlimit="10" stroke="#E5E5E5" d="M134.21 91.4688L145.583 97.2286"></path>
<path fill="white" d="M179.237 98.6486C181.516 98.6486 183.364 96.8022 183.364 94.5245C183.364 92.2468 181.516 90.4004 179.237 90.4004C176.959 90.4004 175.111 92.2468 175.111 94.5245C175.111 96.8022 176.959 98.6486 179.237 98.6486Z"></path>
<path fill="white" d="M165.732 121.5C168.01 121.5 169.858 119.654 169.858 117.376C169.858 115.098 168.01 113.252 165.732 113.252C163.453 113.252 161.605 115.098 161.605 117.376C161.605 119.654 163.453 121.5 165.732 121.5Z"></path>
<path fill="white" d="M157.542 125.945C159.821 125.945 161.668 124.099 161.668 121.821C161.668 119.543 159.821 117.697 157.542 117.697C155.263 117.697 153.416 119.543 153.416 121.821C153.416 124.099 155.263 125.945 157.542 125.945Z"></path>
<path fill="white" d="M156.662 110.888C158.941 110.888 160.788 109.041 160.788 106.764C160.788 104.486 158.941 102.64 156.662 102.64C154.383 102.64 152.536 104.486 152.536 106.764C152.536 109.041 154.383 110.888 156.662 110.888Z"></path>
<path fill="white" d="M154.274 104.643C156.553 104.643 158.401 102.796 158.401 100.519C158.401 98.2409 156.553 96.3945 154.274 96.3945C151.996 96.3945 150.148 98.2409 150.148 100.519C150.148 102.796 151.996 104.643 154.274 104.643Z"></path>
<path fill="white" d="M158.401 78.2101C160.679 78.2101 162.527 76.3637 162.527 74.086C162.527 71.8083 160.679 69.9619 158.401 69.9619C156.122 69.9619 154.274 71.8083 154.274 74.086C154.274 76.3637 156.122 78.2101 158.401 78.2101Z"></path>
<path fill="white" d="M159.88 97.2999C162.159 97.2999 164.006 95.4535 164.006 93.1758C164.006 90.8982 162.159 89.0518 159.88 89.0518C157.601 89.0518 155.754 90.8982 155.754 93.1758C155.754 95.4535 157.601 97.2999 159.88 97.2999Z"></path>
<path fill="white" d="M146.336 102.548C148.615 102.548 150.462 100.702 150.462 98.4239C150.462 96.1462 148.615 94.2998 146.336 94.2998C144.057 94.2998 142.21 96.1462 142.21 98.4239C142.21 100.702 144.057 102.548 146.336 102.548Z"></path>
<path fill="white" d="M133.293 125.624C135.572 125.624 137.42 123.778 137.42 121.5C137.42 119.222 135.572 117.376 133.293 117.376C131.015 117.376 129.167 119.222 129.167 121.5C129.167 123.778 131.015 125.624 133.293 125.624Z"></path>
<path fill="white" d="M141.546 120.876C143.825 120.876 145.672 119.03 145.672 116.752C145.672 114.474 143.825 112.628 141.546 112.628C139.267 112.628 137.42 114.474 137.42 116.752C137.42 119.03 139.267 120.876 141.546 120.876Z"></path>
<path fill="white" d="M135.694 114.171C137.973 114.171 139.821 112.324 139.821 110.046C139.821 107.769 137.973 105.922 135.694 105.922C133.415 105.922 131.568 107.769 131.568 110.046C131.568 112.324 133.415 114.171 135.694 114.171Z"></path>
<path fill="white" d="M125.658 119.763C127.937 119.763 129.785 117.917 129.785 115.639C129.785 113.362 127.937 111.515 125.658 111.515C123.38 111.515 121.532 113.362 121.532 115.639C121.532 117.917 123.38 119.763 125.658 119.763Z"></path>
<path fill="white" d="M109.55 109.141C111.829 109.141 113.676 107.294 113.676 105.017C113.676 102.739 111.829 100.893 109.55 100.893C107.271 100.893 105.424 102.739 105.424 105.017C105.424 107.294 107.271 109.141 109.55 109.141Z"></path>
<path fill="white" d="M133.411 95.5929C135.69 95.5929 137.537 93.7465 137.537 91.4688C137.537 89.1911 135.69 87.3447 133.411 87.3447C131.132 87.3447 129.285 89.1911 129.285 91.4688C129.285 93.7465 131.132 95.5929 133.411 95.5929Z"></path>
<path fill="white" d="M92.9474 106.672C95.2262 106.672 97.0736 104.826 97.0736 102.548C97.0736 100.27 95.2262 98.4238 92.9474 98.4238C90.6685 98.4238 88.8212 100.27 88.8212 102.548C88.8212 104.826 90.6685 106.672 92.9474 106.672Z"></path>
<path fill="white" d="M119.633 94.9166C121.912 94.9166 123.759 93.0702 123.759 90.7925C123.759 88.5149 121.912 86.6685 119.633 86.6685C117.354 86.6685 115.507 88.5149 115.507 90.7925C115.507 93.0702 117.354 94.9166 119.633 94.9166Z"></path>
<path fill="white" d="M167.184 63.5637C168.137 63.5637 168.91 62.7916 168.91 61.8392C168.91 60.8868 168.137 60.1147 167.184 60.1147C166.231 60.1147 165.459 60.8868 165.459 61.8392C165.459 62.7916 166.231 63.5637 167.184 63.5637Z"></path>
</svg>
