<svg xmlns="http://www.w3.org/2000/svg" fill="none" viewBox="0 0 217 265" height="265" width="217">
<path stroke-width="0.6" stroke-opacity="0.1" stroke="#0D0D0D" d="M77.7 234.843H10.3V254.243H77.7V234.843Z"></path>
<path fill="black" d="M19.1126 244.267C19.4566 242.983 19.7286 242.143 20.3286 242.143C20.9286 242.143 21.2006 242.983 21.5446 244.267C21.9286 245.711 22.3686 247.343 23.9286 247.343V246.543C23.0486 246.543 22.7286 245.559 22.3166 244.063C21.9606 242.727 21.5886 241.343 20.3286 241.343C19.0686 241.343 18.6966 242.727 18.3406 244.063C17.9406 245.559 17.6086 246.543 16.7286 246.543V240.543H15.9286V248.543H23.9286V247.743H16.7286V247.343C18.2886 247.343 18.7286 245.711 19.1126 244.267Z"></path>
<path stroke-width="0.6" stroke-opacity="0.1" stroke="#0D0D0D" d="M29.3 234.543V254.543"></path>
<path fill="#0D0D0D" d="M14 16.543C15.1046 16.543 16 15.6475 16 14.543C16 13.4384 15.1046 12.543 14 12.543C12.8954 12.543 12 13.4384 12 14.543C12 15.6475 12.8954 16.543 14 16.543Z"></path>
<path fill="#0D0D0D" d="M24.052 16.543H22.516V12.343H24.016C24.772 12.343 25.222 12.787 25.222 13.435C25.222 13.951 24.928 14.287 24.532 14.413C24.934 14.491 25.312 14.827 25.312 15.403C25.312 16.081 24.82 16.543 24.052 16.543ZM23.116 12.883V14.149H23.92C24.346 14.149 24.622 13.927 24.622 13.513C24.622 13.105 24.388 12.883 23.92 12.883H23.116ZM23.116 14.683V16.003H23.944C24.448 16.003 24.712 15.781 24.712 15.337C24.712 14.899 24.406 14.683 23.95 14.683H23.116ZM27.3977 16.603C26.4017 16.603 25.8497 15.775 25.8497 14.443C25.8497 13.111 26.4017 12.283 27.3977 12.283C28.3937 12.283 28.9457 13.111 28.9457 14.443C28.9457 15.775 28.3937 16.603 27.3977 16.603ZM27.3857 16.063H27.4097C28.0277 16.063 28.3457 15.451 28.3457 14.443C28.3457 13.435 28.0277 12.823 27.4097 12.823H27.3857C26.7677 12.823 26.4497 13.435 26.4497 14.443C26.4497 15.451 26.7677 16.063 27.3857 16.063ZM31.2953 16.543H30.6953V12.883H29.5013V12.343H32.4893V12.883H31.2953V16.543ZM36.273 16.543H35.655L35.331 15.463H33.843L33.519 16.543H32.919L34.227 12.343H34.983L36.273 16.543ZM34.587 12.967L34.005 14.923H35.175L34.587 12.967ZM39.0066 15.517V12.343H39.6006V16.543H38.9166L37.3746 13.321V16.543H36.7806V12.343H37.4886L39.0066 15.517ZM42.9523 12.343V12.841H42.0883V16.045H42.9523V16.543H40.6243V16.045H41.4883V12.841H40.6243V12.343H42.9523ZM45.4999 16.603C44.4199 16.603 43.8559 15.757 43.8559 14.443C43.8559 13.153 44.4139 12.283 45.4999 12.283C46.3999 12.283 46.8559 12.883 46.8979 13.675H46.2979C46.2679 13.189 46.0039 12.823 45.5179 12.823H45.4819C44.8159 12.823 44.4559 13.453 44.4559 14.443C44.4559 15.445 44.8099 16.063 45.4819 16.063H45.5179C46.0159 16.063 46.2559 15.715 46.2979 15.211H46.8979C46.8559 16.009 46.4239 16.603 45.4999 16.603ZM48.9896 16.603C47.8976 16.603 47.3936 16.027 47.3756 15.181H47.9756C48.0056 15.787 48.3776 16.063 49.0196 16.063H49.0496C49.6016 16.063 49.8896 15.763 49.8896 15.403C49.8896 15.085 49.7156 14.887 49.2836 14.797L48.6176 14.653C47.9096 14.503 47.5856 14.131 47.5856 13.513C47.5856 12.859 48.1316 12.283 49.0496 12.283C49.9976 12.283 50.5376 12.829 50.5556 13.615H49.9556C49.9256 13.117 49.5716 12.823 49.0556 12.823H49.0316C48.5216 12.823 48.1856 13.123 48.1856 13.501C48.1856 13.831 48.3716 13.999 48.7916 14.083L49.3976 14.209C50.0936 14.353 50.4896 14.713 50.4896 15.367C50.4896 16.081 49.9316 16.603 48.9896 16.603Z"></path>
<path stroke-width="0.6" stroke-opacity="0.1" stroke="#0D0D0D" d="M208 209.843H9.99994"></path>
<path stroke-width="0.6" stroke-opacity="0.1" stroke="#0D0D0D" d="M208 168.843H9.99994"></path>
<path stroke-width="0.6" stroke-opacity="0.1" stroke="#0D0D0D" d="M208 127.843H9.99994"></path>
<path stroke-width="0.6" stroke-opacity="0.1" stroke="#0D0D0D" d="M208 86.843L9.99994 86.8429"></path>
<path stroke-width="0.6" stroke-opacity="0.1" stroke="#0D0D0D" d="M208 45.843H9.99994"></path>
<path fill="#0D0D0D" d="M199.606 49.691C200.27 49.691 200.67 50.227 200.67 51.131C200.67 52.035 200.278 52.571 199.606 52.571C198.934 52.571 198.542 52.035 198.542 51.131C198.542 50.227 198.942 49.691 199.606 49.691ZM199.626 50.043H199.586C199.218 50.043 198.934 50.371 198.934 51.131C198.934 51.311 198.95 51.463 198.978 51.599L200.126 50.359C200.006 50.143 199.83 50.043 199.626 50.043ZM199.586 52.219H199.626C199.994 52.219 200.278 51.891 200.278 51.131C200.278 50.975 200.266 50.839 200.242 50.719L199.11 51.943C199.23 52.131 199.398 52.219 199.586 52.219ZM202.257 52.543H201.753V52.039H202.257V52.543ZM204.715 49.743V52.187H205.495V52.543H203.523V52.187H204.339V50.307L203.691 50.927V50.443L204.411 49.743H204.715ZM207.25 51.327L206.366 52.187H207.758V52.543H205.874V52.167L206.918 51.143C207.242 50.827 207.326 50.703 207.326 50.495C207.326 50.251 207.126 50.055 206.85 50.055H206.81C206.506 50.055 206.302 50.259 206.294 50.587H205.902C205.902 50.051 206.286 49.703 206.826 49.703C207.358 49.703 207.718 50.031 207.718 50.483C207.718 50.835 207.546 51.039 207.25 51.327Z"></path>
<path fill="#0D0D0D" d="M199.606 90.691C200.27 90.691 200.67 91.227 200.67 92.131C200.67 93.035 200.278 93.571 199.606 93.571C198.934 93.571 198.542 93.035 198.542 92.131C198.542 91.227 198.942 90.691 199.606 90.691ZM199.626 91.043H199.586C199.218 91.043 198.934 91.371 198.934 92.131C198.934 92.311 198.95 92.463 198.978 92.599L200.126 91.359C200.006 91.143 199.83 91.043 199.626 91.043ZM199.586 93.219H199.626C199.994 93.219 200.278 92.891 200.278 92.131C200.278 91.975 200.266 91.839 200.242 91.719L199.11 92.943C199.23 93.131 199.398 93.219 199.586 93.219ZM202.257 93.543H201.753V93.039H202.257V93.543ZM204.403 90.691C205.067 90.691 205.467 91.227 205.467 92.131C205.467 93.035 205.075 93.571 204.403 93.571C203.731 93.571 203.339 93.035 203.339 92.131C203.339 91.227 203.739 90.691 204.403 90.691ZM204.423 91.043H204.383C204.015 91.043 203.731 91.371 203.731 92.131C203.731 92.311 203.747 92.463 203.775 92.599L204.923 91.359C204.803 91.143 204.627 91.043 204.423 91.043ZM204.383 93.219H204.423C204.791 93.219 205.075 92.891 205.075 92.131C205.075 91.975 205.063 91.839 205.039 91.719L203.907 92.943C204.027 93.131 204.195 93.219 204.383 93.219ZM206.758 90.703C207.422 90.703 207.802 91.211 207.802 92.063C207.802 92.971 207.298 93.583 206.626 93.583C206.158 93.583 205.818 93.311 205.742 92.855H206.134C206.178 93.071 206.362 93.231 206.626 93.231H206.662C207.054 93.231 207.406 92.863 207.454 92.143C207.322 92.431 207.014 92.583 206.694 92.583C206.182 92.583 205.79 92.215 205.79 91.671C205.79 91.115 206.174 90.703 206.758 90.703ZM206.742 92.231H206.778C207.114 92.231 207.362 91.983 207.362 91.647C207.362 91.307 207.118 91.055 206.778 91.055H206.742C206.418 91.055 206.182 91.307 206.182 91.643C206.182 91.975 206.406 92.231 206.742 92.231Z"></path>
<path fill="#0D0D0D" d="M199.606 131.691C200.27 131.691 200.67 132.227 200.67 133.131C200.67 134.035 200.278 134.571 199.606 134.571C198.934 134.571 198.542 134.035 198.542 133.131C198.542 132.227 198.942 131.691 199.606 131.691ZM199.626 132.043H199.586C199.218 132.043 198.934 132.371 198.934 133.131C198.934 133.311 198.95 133.463 198.978 133.599L200.126 132.359C200.006 132.143 199.83 132.043 199.626 132.043ZM199.586 134.219H199.626C199.994 134.219 200.278 133.891 200.278 133.131C200.278 132.975 200.266 132.839 200.242 132.719L199.11 133.943C199.23 134.131 199.398 134.219 199.586 134.219ZM202.257 134.543H201.753V134.039H202.257V134.543ZM204.403 131.691C205.067 131.691 205.467 132.227 205.467 133.131C205.467 134.035 205.075 134.571 204.403 134.571C203.731 134.571 203.339 134.035 203.339 133.131C203.339 132.227 203.739 131.691 204.403 131.691ZM204.423 132.043H204.383C204.015 132.043 203.731 132.371 203.731 133.131C203.731 133.311 203.747 133.463 203.775 133.599L204.923 132.359C204.803 132.143 204.627 132.043 204.423 132.043ZM204.383 134.219H204.423C204.791 134.219 205.075 133.891 205.075 133.131C205.075 132.975 205.063 132.839 205.039 132.719L203.907 133.943C204.027 134.131 204.195 134.219 204.383 134.219ZM206.91 132.703C207.422 132.703 207.814 133.071 207.814 133.615C207.814 134.171 207.43 134.583 206.846 134.583C206.182 134.583 205.802 134.075 205.802 133.223C205.802 132.315 206.306 131.703 206.978 131.703C207.446 131.703 207.786 131.975 207.862 132.431H207.47C207.426 132.215 207.242 132.055 206.978 132.055H206.942C206.55 132.055 206.198 132.423 206.15 133.143C206.282 132.855 206.59 132.703 206.91 132.703ZM206.826 134.231H206.862C207.186 134.231 207.422 133.979 207.422 133.643C207.422 133.311 207.198 133.055 206.862 133.055H206.826C206.49 133.055 206.242 133.303 206.242 133.639C206.242 133.979 206.486 134.231 206.826 134.231Z"></path>
<path fill="#0D0D0D" d="M199.606 172.691C200.27 172.691 200.67 173.227 200.67 174.131C200.67 175.035 200.278 175.571 199.606 175.571C198.934 175.571 198.542 175.035 198.542 174.131C198.542 173.227 198.942 172.691 199.606 172.691ZM199.626 173.043H199.586C199.218 173.043 198.934 173.371 198.934 174.131C198.934 174.311 198.95 174.463 198.978 174.599L200.126 173.359C200.006 173.143 199.83 173.043 199.626 173.043ZM199.586 175.219H199.626C199.994 175.219 200.278 174.891 200.278 174.131C200.278 173.975 200.266 173.839 200.242 173.719L199.11 174.943C199.23 175.131 199.398 175.219 199.586 175.219ZM202.257 175.543H201.753V175.039H202.257V175.543ZM204.403 172.691C205.067 172.691 205.467 173.227 205.467 174.131C205.467 175.035 205.075 175.571 204.403 175.571C203.731 175.571 203.339 175.035 203.339 174.131C203.339 173.227 203.739 172.691 204.403 172.691ZM204.423 173.043H204.383C204.015 173.043 203.731 173.371 203.731 174.131C203.731 174.311 203.747 174.463 203.775 174.599L204.923 173.359C204.803 173.143 204.627 173.043 204.423 173.043ZM204.383 175.219H204.423C204.791 175.219 205.075 174.891 205.075 174.131C205.075 173.975 205.063 173.839 205.039 173.719L203.907 174.943C204.027 175.131 204.195 175.219 204.383 175.219ZM206.79 175.583C206.23 175.583 205.87 175.295 205.842 174.803H206.234C206.274 175.067 206.466 175.231 206.77 175.231H206.81C207.142 175.231 207.358 175.039 207.358 174.767C207.358 174.483 207.122 174.323 206.802 174.323H206.618V173.967H206.814C207.134 173.967 207.342 173.775 207.342 173.511C207.342 173.235 207.118 173.055 206.822 173.055H206.782C206.514 173.055 206.31 173.231 206.286 173.491H205.894C205.906 173.035 206.286 172.703 206.802 172.703C207.35 172.703 207.734 173.015 207.734 173.475C207.734 173.791 207.534 174.043 207.258 174.139C207.534 174.219 207.754 174.455 207.754 174.791C207.754 175.311 207.318 175.583 206.79 175.583Z"></path>
<path fill="#0D0D0D" d="M199.606 213.691C200.27 213.691 200.67 214.227 200.67 215.131C200.67 216.035 200.278 216.571 199.606 216.571C198.934 216.571 198.542 216.035 198.542 215.131C198.542 214.227 198.942 213.691 199.606 213.691ZM199.626 214.043H199.586C199.218 214.043 198.934 214.371 198.934 215.131C198.934 215.311 198.95 215.463 198.978 215.599L200.126 214.359C200.006 214.143 199.83 214.043 199.626 214.043ZM199.586 216.219H199.626C199.994 216.219 200.278 215.891 200.278 215.131C200.278 214.975 200.266 214.839 200.242 214.719L199.11 215.943C199.23 216.131 199.398 216.219 199.586 216.219ZM202.257 216.543H201.753V216.039H202.257V216.543ZM204.403 213.691C205.067 213.691 205.467 214.227 205.467 215.131C205.467 216.035 205.075 216.571 204.403 216.571C203.731 216.571 203.339 216.035 203.339 215.131C203.339 214.227 203.739 213.691 204.403 213.691ZM204.423 214.043H204.383C204.015 214.043 203.731 214.371 203.731 215.131C203.731 215.311 203.747 215.463 203.775 215.599L204.923 214.359C204.803 214.143 204.627 214.043 204.423 214.043ZM204.383 216.219H204.423C204.791 216.219 205.075 215.891 205.075 215.131C205.075 214.975 205.063 214.839 205.039 214.719L203.907 215.943C204.027 216.131 204.195 216.219 204.383 216.219ZM206.802 213.691C207.466 213.691 207.866 214.227 207.866 215.131C207.866 216.035 207.474 216.571 206.802 216.571C206.13 216.571 205.738 216.035 205.738 215.131C205.738 214.227 206.138 213.691 206.802 213.691ZM206.822 214.043H206.782C206.414 214.043 206.13 214.371 206.13 215.131C206.13 215.311 206.146 215.463 206.174 215.599L207.322 214.359C207.202 214.143 207.026 214.043 206.822 214.043ZM206.782 216.219H206.822C207.19 216.219 207.474 215.891 207.474 215.131C207.474 214.975 207.462 214.839 207.438 214.719L206.306 215.943C206.426 216.131 206.594 216.219 206.782 216.219Z"></path>
<path fill="#0D0D0D" d="M37.61 242.124L37.826 238.8H38.384L38.018 243H37.316L36.806 240.558L36.236 243H35.552L35.222 238.8H35.768L35.984 242.118L36.506 239.862H37.112L37.61 242.124ZM44.4633 238.8V242.466H45.6333V243H42.6753V242.466H43.8993V239.646L42.9273 240.576V239.85L44.0073 238.8H44.4633ZM48.595 238.8V241.536H49.261V242.058H48.595V243H48.037V242.058H45.973V241.458L47.989 238.8H48.595ZM48.037 239.55L46.543 241.536H48.037V239.55ZM51.5686 243H50.8126V242.244H51.5686V243ZM54.7223 238.74C55.7183 238.74 56.2883 239.502 56.2883 240.78C56.2883 242.142 55.5323 243.06 54.5243 243.06C53.8223 243.06 53.3123 242.652 53.1983 241.968H53.7863C53.8523 242.292 54.1283 242.532 54.5243 242.532H54.5783C55.1663 242.532 55.6943 241.98 55.7663 240.9C55.5683 241.332 55.1063 241.56 54.6263 241.56C53.8583 241.56 53.2703 241.008 53.2703 240.192C53.2703 239.358 53.8463 238.74 54.7223 238.74ZM54.6983 241.032H54.7523C55.2563 241.032 55.6283 240.66 55.6283 240.156C55.6283 239.646 55.2623 239.268 54.7523 239.268H54.6983C54.2123 239.268 53.8583 239.646 53.8583 240.15C53.8583 240.648 54.1943 241.032 54.6983 241.032ZM58.4099 243.06C57.4139 243.06 56.8379 242.184 56.8379 240.9C56.8379 239.634 57.3719 238.74 58.4879 238.74C59.4239 238.74 59.8499 239.37 59.8919 240.192H59.2919C59.2499 239.646 58.9919 239.28 58.4939 239.28H58.4699C57.7979 239.28 57.4379 239.892 57.4379 240.9C57.4379 241.854 57.7679 242.52 58.4879 242.52H58.5119C59.0039 242.52 59.3879 242.19 59.3879 241.596V241.398H58.5059V240.858H59.4719C59.7599 240.858 59.9159 241.014 59.9159 241.302V243H59.3879V242.556C59.2079 242.844 58.9079 243.06 58.4099 243.06ZM38.288 250H35.438V245.8H36.038V249.46H38.288V250ZM44.4633 245.8V249.466H45.6333V250H42.6753V249.466H43.8993V246.646L42.9273 247.576V246.85L44.0073 245.8H44.4633ZM47.593 245.722C48.589 245.722 49.189 246.526 49.189 247.882C49.189 249.238 48.601 250.042 47.593 250.042C46.585 250.042 45.997 249.238 45.997 247.882C45.997 246.526 46.597 245.722 47.593 245.722ZM47.623 246.25H47.563C47.011 246.25 46.585 246.742 46.585 247.882C46.585 248.152 46.609 248.38 46.651 248.584L48.373 246.724C48.193 246.4 47.929 246.25 47.623 246.25ZM47.563 249.514H47.623C48.175 249.514 48.601 249.022 48.601 247.882C48.601 247.648 48.583 247.444 48.547 247.264L46.849 249.1C47.029 249.382 47.281 249.514 47.563 249.514ZM51.5686 250H50.8126V249.244H51.5686V250ZM54.9683 247.372C55.7483 247.372 56.2643 247.924 56.2643 248.662C56.2643 249.484 55.6643 250.06 54.8063 250.06C54.0083 250.06 53.3963 249.616 53.3243 248.878H53.9123C53.9843 249.298 54.3383 249.532 54.7883 249.532H54.8363C55.3283 249.532 55.6763 249.19 55.6763 248.692C55.6763 248.206 55.3403 247.9 54.8723 247.9H54.8243C54.5543 247.9 54.2243 248.026 54.0263 248.29H53.4743L53.9843 245.8H56.2223V246.334H54.4403L54.1583 247.672C54.3443 247.486 54.6563 247.372 54.9683 247.372ZM58.4999 250.06C57.4199 250.06 56.8559 249.214 56.8559 247.9C56.8559 246.61 57.4139 245.74 58.4999 245.74C59.3999 245.74 59.8559 246.34 59.8979 247.132H59.2979C59.2679 246.646 59.0039 246.28 58.5179 246.28H58.4819C57.8159 246.28 57.4559 246.91 57.4559 247.9C57.4559 248.902 57.8099 249.52 58.4819 249.52H58.5179C59.0159 249.52 59.2559 249.172 59.2979 248.668H59.8979C59.8559 249.466 59.4239 250.06 58.4999 250.06ZM61.9836 248.23L62.6976 245.8H63.4296V250H62.8716V246.814L62.2716 248.854H61.6956L61.0956 246.814V250H60.5436V245.8H61.2696L61.9836 248.23Z"></path>
</svg>
