<svg xmlns="http://www.w3.org/2000/svg" fill="none" viewBox="0 0 276 202" height="202" width="276">
<line stroke-width="0.8" stroke-opacity="0.15" stroke="white" y2="56.3532" x2="259.522" y1="56.3532" x1="16.4777"></line>
<line stroke-width="0.8" stroke-opacity="0.15" stroke="white" y2="79.422" x2="259.522" y1="79.422" x1="16.4777"></line>
<line stroke-width="0.8" stroke-opacity="0.15" stroke="white" y2="102.49" x2="259.522" y1="102.49" x1="16.4777"></line>
<line stroke-width="0.8" stroke-opacity="0.15" stroke="white" y2="125.559" x2="259.522" y1="125.559" x1="16.4777"></line>
<line stroke-width="0.8" stroke-opacity="0.15" stroke="white" y2="148.628" x2="259.522" y1="148.628" x1="16.4777"></line>
<path fill="white" d="M19.2055 27.1084C17.5561 27.1084 16.7949 26.2384 16.7677 24.9606H17.6739C17.7192 25.8759 18.2811 26.2928 19.2508 26.2928H19.2962C20.1299 26.2928 20.5649 25.8397 20.5649 25.2959C20.5649 24.8156 20.3021 24.5165 19.6496 24.3806L18.6436 24.1631C17.5742 23.9365 17.0849 23.3746 17.0849 22.4412C17.0849 21.4533 17.9096 20.5833 19.2962 20.5833C20.7281 20.5833 21.5437 21.408 21.5709 22.5952H20.6646C20.6193 21.843 20.0846 21.399 19.3052 21.399H19.269C18.4986 21.399 17.9911 21.8521 17.9911 22.423C17.9911 22.9215 18.2721 23.1752 18.9065 23.3021L19.8218 23.4924C20.8731 23.7099 21.4712 24.2537 21.4712 25.2415C21.4712 26.32 20.6284 27.1084 19.2055 27.1084ZM24.8027 27.1084C23.1714 27.1084 22.3196 25.8306 22.3196 23.8459C22.3196 21.8974 23.1624 20.5833 24.8027 20.5833C26.1621 20.5833 26.8509 21.4896 26.9143 22.6859H26.0081C25.9628 21.9518 25.564 21.399 24.8299 21.399H24.7755C23.7696 21.399 23.2258 22.3505 23.2258 23.8459C23.2258 25.3594 23.7605 26.2928 24.7755 26.2928H24.8299C25.5821 26.2928 25.9446 25.7672 26.0081 25.0059H26.9143C26.8509 26.2112 26.1984 27.1084 24.8027 27.1084ZM28.8502 27.0178H27.9439V20.6739H28.8502V23.4381H31.279V20.6739H32.1853V27.0178H31.279V24.2537H28.8502V27.0178ZM37.6194 27.0178H33.514V20.6739H37.5287V21.4896H34.4202V23.3474H37.0575V24.1631H34.4202V26.2022H37.6194V27.0178ZM40.9328 24.3443L42.0112 20.6739H43.1169V27.0178H42.274V22.2055L41.3678 25.2868H40.4977L39.5915 22.2055V27.0178H38.7577V20.6739H39.8543L40.9328 24.3443ZM48.9044 27.0178H47.9709L47.4815 25.3865H45.234L44.7446 27.0178H43.8383L45.814 20.6739H46.9559L48.9044 27.0178ZM46.3578 21.6165L45.4787 24.5709H47.2459L46.3578 21.6165ZM52.3718 23.5831H51.2299V22.4412H52.3718V23.5831ZM52.3718 27.0178H51.2299V25.8759H52.3718V27.0178Z"></path>
<path fill="white" d="M81.6068 184.424C79.976 184.424 79.1244 183.147 79.1244 181.163C79.1244 179.215 79.967 177.901 81.6068 177.901C82.9658 177.901 83.6544 178.807 83.7178 180.003H82.8118C82.7665 179.269 82.3679 178.717 81.634 178.717H81.5796C80.574 178.717 80.0304 179.668 80.0304 181.163C80.0304 182.676 80.5649 183.609 81.5796 183.609H81.634C82.386 183.609 82.7484 183.083 82.8118 182.322H83.7178C83.6544 183.527 83.0021 184.424 81.6068 184.424ZM89.4039 184.334H88.4708L87.9815 182.703H85.7346L85.2454 184.334H84.3394L86.3145 177.992H87.456L89.4039 184.334ZM86.8581 178.934L85.9793 181.888H87.746L86.8581 178.934ZM92.7526 184.334H91.8466V178.807H90.0437V177.992H94.5555V178.807H92.7526V184.334ZM96.518 184.334H95.612V177.992H96.518V180.755H98.9461V177.992H99.8521V184.334H98.9461V181.57H96.518V184.334ZM105.701 184.334H104.768L104.279 182.703H102.032L101.543 184.334H100.637L102.612 177.992H103.753L105.701 184.334ZM103.155 178.934L102.277 181.888H104.043L103.155 178.934ZM109.739 181.262H109.784C110.409 181.262 110.663 181.561 110.663 182.132V184.334H109.757V182.277C109.757 181.924 109.621 181.788 109.267 181.788H107.51V184.334H106.604V177.992H108.805C109.911 177.992 110.753 178.707 110.753 179.695C110.753 180.465 110.382 181.009 109.739 181.262ZM107.51 180.972H108.597C109.322 180.972 109.847 180.556 109.847 179.858C109.847 179.179 109.394 178.807 108.597 178.807H107.51V180.972ZM116.566 184.334H115.633L115.144 182.703H112.897L112.408 184.334H111.502L113.477 177.992H114.618L116.566 184.334ZM114.02 178.934L113.142 181.888H114.908L114.02 178.934ZM120.694 182.784V177.992H121.591V184.334H120.558L118.23 179.469V184.334H117.333V177.992H118.402L120.694 182.784ZM125.347 184.334H124.441V178.807H122.638V177.992H127.15V178.807H125.347V184.334ZM129.113 184.334H128.207V177.992H129.113V180.755H131.541V177.992H132.447V184.334H131.541V181.57H129.113V184.334ZM137.517 177.992V178.744H136.212V183.582H137.517V184.334H134.002V183.582H135.306V178.744H134.002V177.992H137.517ZM142.424 182.784V177.992H143.321V184.334H142.288L139.96 179.469V184.334H139.063V177.992H140.132L142.424 182.784ZM148.744 184.334H144.64V177.992H148.654V178.807H145.546V180.664H148.183V181.48H145.546V183.518H148.744V184.334ZM157.489 181.661L158.567 177.992H159.673V184.334H158.83V179.523L157.924 182.603H157.054L156.148 179.523V184.334H155.315V177.992H156.411L157.489 181.661ZM162.922 184.424C161.418 184.424 160.584 183.174 160.584 181.163C160.584 179.151 161.418 177.901 162.922 177.901C164.426 177.901 165.259 179.151 165.259 181.163C165.259 183.174 164.426 184.424 162.922 184.424ZM162.903 183.609H162.94C163.873 183.609 164.353 182.685 164.353 181.163C164.353 179.641 163.873 178.717 162.94 178.717H162.903C161.97 178.717 161.49 179.641 161.49 181.163C161.49 182.685 161.97 183.609 162.903 183.609ZM170.601 184.334H166.297V177.992H167.203V183.518H170.601V184.334ZM175.907 184.334H171.802V177.992H175.816V178.807H172.708V180.664H175.345V181.48H172.708V183.518H175.907V184.334ZM179.391 184.424C177.76 184.424 176.909 183.147 176.909 181.163C176.909 179.215 177.751 177.901 179.391 177.901C180.75 177.901 181.439 178.807 181.502 180.003H180.596C180.551 179.269 180.152 178.717 179.418 178.717H179.364C178.358 178.717 177.815 179.668 177.815 181.163C177.815 182.676 178.349 183.609 179.364 183.609H179.418C180.17 183.609 180.533 183.083 180.596 182.322H181.502C181.439 183.527 180.786 184.424 179.391 184.424ZM184.651 184.424C183.274 184.424 182.495 183.582 182.495 182.205V177.992H183.401V182.078C183.401 183.129 183.845 183.609 184.633 183.609H184.67C185.458 183.609 185.902 183.129 185.902 182.078V177.992H186.808V182.205C186.808 183.582 186.029 184.424 184.651 184.424ZM192.331 184.334H188.027V177.992H188.933V183.518H192.331V184.334ZM197.636 184.334H193.532V177.992H197.546V178.807H194.438V180.664H197.075V181.48H194.438V183.518H197.636V184.334Z"></path>
<path fill="white" d="M197.128 21.0408V17.772H197.74V22.0974H197.035L195.447 18.7792V22.0974H194.836V17.772H195.565L197.128 21.0408ZM201.439 22.0974H198.64V17.772H201.377V18.3282H199.257V19.5949H201.056V20.151H199.257V21.5413H201.439V22.0974ZM204.05 19.8606L205.397 22.0974H204.705L203.698 20.3796L202.666 22.0974H201.999L203.346 19.8853L202.079 17.772H202.765L203.704 19.3724L204.656 17.772H205.317L204.05 19.8606ZM207.712 22.0974H207.094V18.3282H205.864V17.772H208.941V18.3282H207.712V22.0974ZM214.93 22.1592C213.818 22.1592 213.237 21.2879 213.237 19.9347C213.237 18.6062 213.812 17.7102 214.93 17.7102C215.857 17.7102 216.327 18.3282 216.37 19.1438H215.752C215.721 18.6433 215.449 18.2664 214.949 18.2664H214.912C214.226 18.2664 213.855 18.9152 213.855 19.9347C213.855 20.9666 214.22 21.6031 214.912 21.6031H214.949C215.462 21.6031 215.709 21.2447 215.752 20.7257H216.37C216.327 21.5475 215.882 22.1592 214.93 22.1592ZM218.524 19.805L219.507 17.772H220.174L218.821 20.3796V22.0974H218.203V20.3796L216.862 17.772H217.542L218.524 19.805ZM222.34 22.1592C221.228 22.1592 220.647 21.2879 220.647 19.9347C220.647 18.6062 221.222 17.7102 222.34 17.7102C223.267 17.7102 223.737 18.3282 223.78 19.1438H223.162C223.131 18.6433 222.859 18.2664 222.359 18.2664H222.322C221.636 18.2664 221.265 18.9152 221.265 19.9347C221.265 20.9666 221.63 21.6031 222.322 21.6031H222.359C222.872 21.6031 223.119 21.2447 223.162 20.7257H223.78C223.737 21.5475 223.292 22.1592 222.34 22.1592ZM227.461 22.0974H224.525V17.772H225.143V21.5413H227.461V22.0974ZM231.079 22.0974H228.28V17.772H231.017V18.3282H228.898V19.5949H230.696V20.151H228.898V21.5413H231.079V22.0974ZM196.288 24.6917C197.313 24.6917 197.931 25.5197 197.931 26.9162C197.931 28.3127 197.326 29.1407 196.288 29.1407C195.25 29.1407 194.644 28.3127 194.644 26.9162C194.644 25.5197 195.262 24.6917 196.288 24.6917ZM196.319 25.2355H196.257C195.688 25.2355 195.25 25.7422 195.25 26.9162C195.25 27.1942 195.274 27.4291 195.318 27.6391L197.091 25.7236C196.906 25.3899 196.634 25.2355 196.319 25.2355ZM196.257 28.5969H196.319C196.887 28.5969 197.326 28.0902 197.326 26.9162C197.326 26.6752 197.307 26.4651 197.27 26.2797L195.521 28.1705C195.707 28.461 195.966 28.5969 196.257 28.5969ZM200.475 24.772V28.5475H201.68V29.0974H198.633V28.5475H199.894V25.6433L198.893 26.6011V25.8534L200.005 24.772H200.475ZM204.087 26.7555H203.309V25.977H204.087V26.7555ZM204.087 29.0974H203.309V28.3188H204.087V29.0974ZM207.403 24.6917C208.429 24.6917 209.046 25.5197 209.046 26.9162C209.046 28.3127 208.441 29.1407 207.403 29.1407C206.365 29.1407 205.759 28.3127 205.759 26.9162C205.759 25.5197 206.377 24.6917 207.403 24.6917ZM207.434 25.2355H207.372C206.803 25.2355 206.365 25.7422 206.365 26.9162C206.365 27.1942 206.389 27.4291 206.433 27.6391L208.206 25.7236C208.021 25.3899 207.749 25.2355 207.434 25.2355ZM207.372 28.5969H207.434C208.002 28.5969 208.441 28.0902 208.441 26.9162C208.441 26.6752 208.422 26.4651 208.385 26.2797L206.637 28.1705C206.822 28.461 207.082 28.5969 207.372 28.5969ZM211.293 26.391C212.097 26.391 212.628 26.9594 212.628 27.7195C212.628 28.566 212.01 29.1592 211.126 29.1592C210.305 29.1592 209.674 28.7019 209.6 27.9419H210.206C210.28 28.3745 210.644 28.6154 211.108 28.6154H211.157C211.664 28.6154 212.022 28.2632 212.022 27.7504C212.022 27.2499 211.676 26.9347 211.194 26.9347H211.145C210.867 26.9347 210.527 27.0645 210.323 27.3364H209.755L210.28 24.772H212.585V25.322H210.75L210.459 26.6999C210.651 26.5084 210.972 26.391 211.293 26.391ZM215.202 26.7555H214.424V25.977H215.202V26.7555ZM215.202 29.0974H214.424V28.3188H215.202V29.0974ZM219 24.772V28.5475H220.205V29.0974H217.159V28.5475H218.419V25.6433L217.418 26.6011V25.8534L218.53 24.772H219ZM222.915 27.219L221.55 28.5475H223.7V29.0974H220.789V28.5166L222.402 26.9347C222.903 26.4466 223.032 26.255 223.032 25.9337C223.032 25.5568 222.724 25.254 222.297 25.254H222.235C221.766 25.254 221.451 25.5691 221.438 26.0758H220.833C220.833 25.2478 221.426 24.7102 222.26 24.7102C223.082 24.7102 223.638 25.2169 223.638 25.9152C223.638 26.4589 223.372 26.7741 222.915 27.219Z"></path>
<rect stroke-width="0.8" stroke-opacity="0.15" stroke="white" height="19.797" width="69.2299" y="13.3783" x="189.893"></rect>
<path fill="white" d="M249.222 27.8079C248.281 27.8079 247.497 27.4852 246.869 26.8398C246.24 26.1945 245.926 25.3912 245.926 24.43C245.926 23.7434 246.199 22.9968 246.745 22.1903C247.291 21.3834 248.116 20.5097 249.222 19.5691C250.327 20.5097 251.153 21.3834 251.699 22.1903C252.244 22.9968 252.517 23.7434 252.517 24.43C252.517 25.3912 252.203 26.1945 251.575 26.8398C250.947 27.4852 250.162 27.8079 249.222 27.8079ZM249.222 26.984C249.936 26.984 250.526 26.7421 250.993 26.2582C251.46 25.774 251.693 25.1646 251.693 24.43C251.693 23.9288 251.486 23.3624 251.07 22.7307C250.655 22.0991 250.039 21.4091 249.222 20.6607C248.405 21.4091 247.789 22.0991 247.373 22.7307C246.958 23.3624 246.75 23.9288 246.75 24.43C246.75 25.1646 246.983 25.774 247.45 26.2582C247.917 26.7421 248.508 26.984 249.222 26.984Z"></path>
<line stroke-width="0.8" stroke-opacity="0.15" stroke="white" y2="33.5753" x2="239.326" y1="12.9783" x1="239.326"></line>
<g clip-path="url(#clip0_3560_8363)">
<path stroke-miterlimit="10" stroke="#E5E5E5" d="M119.225 62.1211L126.932 64.358"></path>
<path stroke-miterlimit="10" stroke="#E5E5E5" d="M137.382 58.0459L133.516 62.7313"></path>
<path stroke-miterlimit="10" stroke="#E5E5E5" d="M134.769 65.4157L136.462 65.3994"></path>
<path stroke-miterlimit="10" stroke="#E5E5E5" d="M131.253 69.4666L132.034 78.4794"></path>
<path stroke-miterlimit="10" stroke="#E5E5E5" d="M122.586 76.8037L124.523 80.0168"></path>
<path stroke-miterlimit="10" stroke="#E5E5E5" d="M127.086 87.3213L128.039 95.5207"></path>
<path stroke-miterlimit="10" stroke="#E5E5E5" d="M118.541 91.3232L120.706 95.8378"></path>
<path stroke-miterlimit="10" stroke="#E5E5E5" d="M132.173 100.23L141.361 101.491"></path>
<path stroke-miterlimit="10" stroke="#E5E5E5" d="M151.754 95.8704L148.157 99.4495"></path>
<path stroke-miterlimit="10" stroke="#E5E5E5" d="M147.685 105.485L152.12 111.326"></path>
<path stroke-miterlimit="10" stroke="#E5E5E5" d="M158.615 113.619L165.858 112.18"></path>
<path stroke-miterlimit="10" stroke="#E5E5E5" d="M169.105 101.906L169.48 107.128"></path>
<path stroke-miterlimit="10" stroke="#E5E5E5" d="M158.46 94.2681L164.865 96.5131"></path>
<path stroke-miterlimit="10" stroke="white" d="M146.936 126.179L148.637 128.196"></path>
<path stroke-miterlimit="10" stroke="#E5E5E5" d="M153.253 118.007L150.655 124.715"></path>
<path stroke-miterlimit="10" stroke="#E5E5E5" d="M152.12 131.328L158.069 136.485"></path>
<path stroke-miterlimit="10" stroke="#E5E5E5" d="M145.699 130.482L138.562 134.891"></path>
<path stroke-miterlimit="10" stroke="#E5E5E5" d="M138.114 139.495L138.7 139.975"></path>
<path stroke-miterlimit="10" stroke="#E5E5E5" d="M124.694 129.424L131.864 134.411"></path>
<path stroke-miterlimit="10" stroke="#E5E5E5" d="M119.599 115.8L120.486 123.283"></path>
<path stroke-miterlimit="10" stroke="#E5E5E5" d="M112.168 114.84L115.977 122.461"></path>
<path stroke-miterlimit="10" stroke="#E5E5E5" d="M115.09 129.319L111.64 133.963"></path>
<path stroke-miterlimit="10" stroke="#E5E5E5" d="M133.76 140.617L131.766 145.953"></path>
<path stroke-miterlimit="10" stroke="#E5E5E5" d="M176.698 92.6655L171.75 95.659"></path>
<path stroke-miterlimit="10" stroke="#E5E5E5" d="M177.683 95L172.515 98.2456"></path>
<path stroke-miterlimit="10" stroke="#E5E5E5" d="M179.563 84.5149L180.051 88.2323"></path>
<path stroke-miterlimit="10" stroke="#E5E5E5" d="M183.974 94.0647L190.355 97.3998"></path>
<path stroke-miterlimit="10" stroke="#E5E5E5" d="M201.317 95.96L197.167 99.0103"></path>
<path stroke-miterlimit="10" stroke="#E5E5E5" d="M193.057 103.208L193.936 108.95"></path>
<path stroke-miterlimit="10" stroke="#E5E5E5" d="M196.068 102.541L196.963 108.641"></path>
<path stroke-miterlimit="10" stroke="#E5E5E5" d="M173.744 111.789L181.411 116.19"></path>
<path stroke-miterlimit="10" stroke="#E5E5E5" d="M172.613 114.051L180.222 118.24"></path>
<path stroke-miterlimit="10" stroke="#E5E5E5" d="M192.503 114.148L187.506 116.938"></path>
<path stroke-miterlimit="10" stroke="#E5E5E5" d="M199.372 114.018L205.932 117.809"></path>
<path stroke-miterlimit="10" stroke="#E5E5E5" d="M184.69 122.722L185.659 128.635"></path>
<path stroke-miterlimit="10" stroke="#E5E5E5" d="M92.9698 106.168L94.0116 106.551"></path>
<path stroke-miterlimit="10" stroke="#E5E5E5" d="M94.329 99.0591L91.4154 101.63"></path>
<path stroke-miterlimit="10" stroke="#E5E5E5" d="M80.632 97.2939L86.2638 102.044"></path>
<path stroke-miterlimit="10" stroke="#E5E5E5" d="M87.1834 108.389L81.8527 118.02"></path>
<path stroke-miterlimit="10" stroke="#E5E5E5" d="M82.6503 124.267L88.3391 129.424"></path>
<path stroke-miterlimit="10" stroke="#E5E5E5" d="M76.7987 123.893L74.6827 125.829"></path>
<path stroke-miterlimit="10" stroke="#E5E5E5" d="M70.1821 119.492L76.2534 120.615"></path>
<path stroke-miterlimit="10" stroke="#E5E5E5" d="M119.2 102.508L113.992 108.47"></path>
<path stroke-miterlimit="10" stroke="#E5E5E5" d="M126.126 102.793L121.479 108.527"></path>
<path stroke-miterlimit="10" stroke="#E5E5E5" d="M105.479 109.373L107.546 109.617"></path>
<path stroke-miterlimit="10" stroke="#E5E5E5" d="M151.77 85.6211L153.146 89.2571"></path>
<path stroke-miterlimit="10" stroke="#E5E5E5" d="M125.271 127.204L126.191 127.155"></path>
<path fill="white" d="M130.7 69.6046C132.979 69.6046 134.826 67.7582 134.826 65.4805C134.826 63.2029 132.979 61.3564 130.7 61.3564C128.421 61.3564 126.574 63.2029 126.574 65.4805C126.574 67.7582 128.421 69.6046 130.7 69.6046Z"></path>
<path fill="white" d="M120.624 77.487C122.903 77.487 124.751 75.6405 124.751 73.3629C124.751 71.0852 122.903 69.2388 120.624 69.2388C118.346 69.2388 116.498 71.0852 116.498 73.3629C116.498 75.6405 118.346 77.487 120.624 77.487Z"></path>
<path fill="white" d="M126.712 87.4269C128.991 87.4269 130.838 85.5805 130.838 83.3028C130.838 81.0251 128.991 79.1787 126.712 79.1787C124.433 79.1787 122.586 81.0251 122.586 83.3028C122.586 85.5805 124.433 87.4269 126.712 87.4269Z"></path>
<path fill="white" d="M132.36 85.369C134.639 85.369 136.486 83.5226 136.486 81.2449C136.486 78.9673 134.639 77.1208 132.36 77.1208C130.081 77.1208 128.234 78.9673 128.234 81.2449C128.234 83.5226 130.081 85.369 132.36 85.369Z"></path>
<path fill="white" d="M122.073 103.712C124.352 103.712 126.199 101.865 126.199 99.5877C126.199 97.31 124.352 95.4636 122.073 95.4636C119.794 95.4636 117.947 97.31 117.947 99.5877C117.947 101.865 119.794 103.712 122.073 103.712Z"></path>
<path fill="white" d="M128.177 103.541C130.456 103.541 132.303 101.695 132.303 99.4171C132.303 97.1394 130.456 95.293 128.177 95.293C125.898 95.293 124.051 97.1394 124.051 99.4171C124.051 101.695 125.898 103.541 128.177 103.541Z"></path>
<path fill="white" d="M145.243 106.429C147.522 106.429 149.369 104.582 149.369 102.305C149.369 100.027 147.522 98.1807 145.243 98.1807C142.964 98.1807 141.117 100.027 141.117 102.305C141.117 104.582 142.964 106.429 145.243 106.429Z"></path>
<path fill="white" d="M154.643 97.1881C156.922 97.1881 158.769 95.3417 158.769 93.064C158.769 90.7864 156.922 88.9399 154.643 88.9399C152.364 88.9399 150.517 90.7864 150.517 93.064C150.517 95.3417 152.364 97.1881 154.643 97.1881Z"></path>
<path fill="white" d="M168.666 102.069C170.945 102.069 172.792 100.222 172.792 97.9446C172.792 95.667 170.945 93.8206 168.666 93.8206C166.387 93.8206 164.54 95.667 164.54 97.9446C164.54 100.222 166.387 102.069 168.666 102.069Z"></path>
<path fill="white" d="M180.491 96.2933C182.77 96.2933 184.617 94.4469 184.617 92.1693C184.617 89.8916 182.77 88.0452 180.491 88.0452C178.212 88.0452 176.365 89.8916 176.365 92.1693C176.365 94.4469 178.212 96.2933 180.491 96.2933Z"></path>
<path fill="white" d="M193.789 103.598C196.068 103.598 197.915 101.752 197.915 99.4739C197.915 97.1963 196.068 95.3499 193.789 95.3499C191.51 95.3499 189.663 97.1963 189.663 99.4739C189.663 101.752 191.51 103.598 193.789 103.598Z"></path>
<path fill="white" d="M169.821 115.295C172.1 115.295 173.948 113.449 173.948 111.171C173.948 108.893 172.1 107.047 169.821 107.047C167.543 107.047 165.695 108.893 165.695 111.171C165.695 113.449 167.543 115.295 169.821 115.295Z"></path>
<path fill="white" d="M154.676 118.435C156.955 118.435 158.802 116.589 158.802 114.311C158.802 112.033 156.955 110.187 154.676 110.187C152.397 110.187 150.55 112.033 150.55 114.311C150.55 116.589 152.397 118.435 154.676 118.435Z"></path>
<path fill="white" d="M149.207 132.613C151.485 132.613 153.333 130.767 153.333 128.489C153.333 126.211 151.485 124.365 149.207 124.365C146.928 124.365 145.08 126.211 145.08 128.489C145.08 130.767 146.928 132.613 149.207 132.613Z"></path>
<path fill="white" d="M135.07 141.024C137.349 141.024 139.196 139.177 139.196 136.9C139.196 134.622 137.349 132.776 135.07 132.776C132.791 132.776 130.944 134.622 130.944 136.9C130.944 139.177 132.791 141.024 135.07 141.024Z"></path>
<path fill="white" d="M121.389 131.246C123.668 131.246 125.516 129.4 125.516 127.122C125.516 124.845 123.668 122.998 121.389 122.998C119.111 122.998 117.263 124.845 117.263 127.122C117.263 129.4 119.111 131.246 121.389 131.246Z"></path>
<path fill="white" d="M117.157 130.205C119.436 130.205 121.284 128.359 121.284 126.081C121.284 123.803 119.436 121.957 117.157 121.957C114.878 121.957 113.031 123.803 113.031 126.081C113.031 128.359 114.878 130.205 117.157 130.205Z"></path>
<path fill="white" d="M119.241 115.832C121.52 115.832 123.367 113.986 123.367 111.708C123.367 109.43 121.52 107.584 119.241 107.584C116.962 107.584 115.115 109.43 115.115 111.708C115.115 113.986 116.962 115.832 119.241 115.832Z"></path>
<path fill="white" d="M111.176 115.368C113.454 115.368 115.302 113.522 115.302 111.244C115.302 108.967 113.454 107.12 111.176 107.12C108.897 107.12 107.049 108.967 107.049 111.244C107.049 113.522 108.897 115.368 111.176 115.368Z"></path>
<path fill="white" d="M101.597 112.611C103.876 112.611 105.723 110.764 105.723 108.487C105.723 106.209 103.876 104.363 101.597 104.363C99.3178 104.363 97.4705 106.209 97.4705 108.487C97.4705 110.764 99.3178 112.611 101.597 112.611Z"></path>
<path fill="white" d="M97.8367 112.041C100.115 112.041 101.963 110.195 101.963 107.917C101.963 105.64 100.115 103.793 97.8367 103.793C95.5578 103.793 93.7104 105.64 93.7104 107.917C93.7104 110.195 95.5578 112.041 97.8367 112.041Z"></path>
<path fill="white" d="M89.1692 109.016C91.448 109.016 93.2954 107.169 93.2954 104.891C93.2954 102.614 91.448 100.767 89.1692 100.767C86.8903 100.767 85.043 102.614 85.043 104.891C85.043 107.169 86.8903 109.016 89.1692 109.016Z"></path>
<path fill="white" d="M80.1273 125.707C82.4061 125.707 84.2535 123.861 84.2535 121.583C84.2535 119.305 82.4061 117.459 80.1273 117.459C77.8485 117.459 76.0011 119.305 76.0011 121.583C76.0011 123.861 77.8485 125.707 80.1273 125.707Z"></path>
<path fill="white" d="M117.694 63.3088C118.647 63.3088 119.42 62.5367 119.42 61.5843C119.42 60.6319 118.647 59.8599 117.694 59.8599C116.742 59.8599 115.969 60.6319 115.969 61.5843C115.969 62.5367 116.742 63.3088 117.694 63.3088Z"></path>
<path fill="white" d="M138.374 58.477C139.327 58.477 140.1 57.7049 140.1 56.7525C140.1 55.8001 139.327 55.0281 138.374 55.0281C137.422 55.0281 136.649 55.8001 136.649 56.7525C136.649 57.7049 137.422 58.477 138.374 58.477Z"></path>
<path fill="white" d="M138.106 67.1562C139.059 67.1562 139.831 66.3841 139.831 65.4317C139.831 64.4793 139.059 63.7073 138.106 63.7073C137.153 63.7073 136.38 64.4793 136.38 65.4317C136.38 66.3841 137.153 67.1562 138.106 67.1562Z"></path>
<path fill="white" d="M151.201 85.8327C152.153 85.8327 152.926 85.0607 152.926 84.1083C152.926 83.1559 152.153 82.3838 151.201 82.3838C150.248 82.3838 149.475 83.1559 149.475 84.1083C149.475 85.0607 150.248 85.8327 151.201 85.8327Z"></path>
<path fill="white" d="M179.311 84.5881C180.264 84.5881 181.036 83.816 181.036 82.8636C181.036 81.9112 180.264 81.1392 179.311 81.1392C178.358 81.1392 177.586 81.9112 177.586 82.8636C177.586 83.816 178.358 84.5881 179.311 84.5881Z"></path>
<path fill="white" d="M202.595 96.8139C203.548 96.8139 204.32 96.0419 204.32 95.0895C204.32 94.1371 203.548 93.365 202.595 93.365C201.642 93.365 200.87 94.1371 200.87 95.0895C200.87 96.0419 201.642 96.8139 202.595 96.8139Z"></path>
<path fill="white" d="M195.954 116.239C198.233 116.239 200.08 114.392 200.08 112.115C200.08 109.837 198.233 107.99 195.954 107.99C193.675 107.99 191.828 109.837 191.828 112.115C191.828 114.392 193.675 116.239 195.954 116.239Z"></path>
<path fill="white" d="M207.275 120.322C208.228 120.322 209 119.55 209 118.598C209 117.645 208.228 116.873 207.275 116.873C206.322 116.873 205.549 117.645 205.549 118.598C205.549 119.55 206.322 120.322 207.275 120.322Z"></path>
<path fill="white" d="M183.868 123.023C186.147 123.023 187.995 121.176 187.995 118.899C187.995 116.621 186.147 114.774 183.868 114.774C181.59 114.774 179.742 116.621 179.742 118.899C179.742 121.176 181.59 123.023 183.868 123.023Z"></path>
<path fill="white" d="M185.854 131.808C186.807 131.808 187.579 131.036 187.579 130.083C187.579 129.131 186.807 128.359 185.854 128.359C184.901 128.359 184.129 129.131 184.129 130.083C184.129 131.036 184.901 131.808 185.854 131.808Z"></path>
<path fill="white" d="M159.29 139.226C160.243 139.226 161.016 138.454 161.016 137.502C161.016 136.549 160.243 135.777 159.29 135.777C158.337 135.777 157.565 136.549 157.565 137.502C157.565 138.454 158.337 139.226 159.29 139.226Z"></path>
<path fill="white" d="M145.512 126.699C146.465 126.699 147.237 125.927 147.237 124.975C147.237 124.023 146.465 123.25 145.512 123.25C144.559 123.25 143.786 124.023 143.786 124.975C143.786 125.927 144.559 126.699 145.512 126.699Z"></path>
<path fill="white" d="M140.002 142.716C140.955 142.716 141.727 141.944 141.727 140.991C141.727 140.039 140.955 139.267 140.002 139.267C139.049 139.267 138.277 140.039 138.277 140.991C138.277 141.944 139.049 142.716 140.002 142.716Z"></path>
<path fill="white" d="M131.367 149.036C132.32 149.036 133.093 148.264 133.093 147.312C133.093 146.359 132.32 145.587 131.367 145.587C130.414 145.587 129.642 146.359 129.642 147.312C129.642 148.264 130.414 149.036 131.367 149.036Z"></path>
<path fill="white" d="M127.672 128.879C128.625 128.879 129.398 128.107 129.398 127.155C129.398 126.202 128.625 125.43 127.672 125.43C126.719 125.43 125.947 126.202 125.947 127.155C125.947 128.107 126.719 128.879 127.672 128.879Z"></path>
<path fill="white" d="M110.801 137.046C111.754 137.046 112.527 136.274 112.527 135.322C112.527 134.369 111.754 133.597 110.801 133.597C109.848 133.597 109.076 134.369 109.076 135.322C109.076 136.274 109.848 137.046 110.801 137.046Z"></path>
<path fill="white" d="M89.511 131.995C90.4639 131.995 91.2364 131.223 91.2364 130.27C91.2364 129.318 90.4639 128.546 89.511 128.546C88.5581 128.546 87.7856 129.318 87.7856 130.27C87.7856 131.223 88.5581 131.995 89.511 131.995Z"></path>
<path fill="white" d="M73.6084 128.595C74.5613 128.595 75.3338 127.823 75.3338 126.87C75.3338 125.918 74.5613 125.146 73.6084 125.146C72.6555 125.146 71.8831 125.918 71.8831 126.87C71.8831 127.823 72.6555 128.595 73.6084 128.595Z"></path>
<path fill="white" d="M68.7254 120.843C69.6782 120.843 70.4507 120.071 70.4507 119.118C70.4507 118.166 69.6782 117.394 68.7254 117.394C67.7725 117.394 67 118.166 67 119.118C67 120.071 67.7725 120.843 68.7254 120.843Z"></path>
<path fill="white" d="M79.517 98.0097C80.4699 98.0097 81.2423 97.2377 81.2423 96.2853C81.2423 95.3329 80.4699 94.5608 79.517 94.5608C78.5641 94.5608 77.7916 95.3329 77.7916 96.2853C77.7916 97.2377 78.5641 98.0097 79.517 98.0097Z"></path>
<path fill="white" d="M95.509 99.8481C96.4619 99.8481 97.2344 99.076 97.2344 98.1236C97.2344 97.1712 96.4619 96.3992 95.509 96.3992C94.5562 96.3992 93.7837 97.1712 93.7837 98.1236C93.7837 99.076 94.5562 99.8481 95.509 99.8481Z"></path>
<path fill="white" d="M118.004 91.6487C118.957 91.6487 119.729 90.8766 119.729 89.9242C119.729 88.9718 118.957 88.1997 118.004 88.1997C117.051 88.1997 116.278 88.9718 116.278 89.9242C116.278 90.8766 117.051 91.6487 118.004 91.6487Z"></path>
</g>
<defs>
<clipPath id="clip0_3560_8363">
<rect transform="translate(67 55.0281)" fill="white" height="94" width="142"></rect>
</clipPath>
</defs>
</svg>
