<svg xmlns="http://www.w3.org/2000/svg" fill="none" viewBox="0 0 217 264" height="264" width="217">
<path fill="#0D0D0D" d="M38.616 240.974V237.8H39.21V242H38.526L36.984 238.778V242H36.39V237.8H37.098L38.616 240.974ZM42.8017 242H40.0837V237.8H42.7417V238.34H40.6837V239.57H42.4297V240.11H40.6837V241.46H42.8017V242ZM45.3373 239.828L46.6453 242H45.9733L44.9953 240.332L43.9933 242H43.3453L44.6533 239.852L43.4233 237.8H44.0893L45.0013 239.354L45.9253 237.8H46.5673L45.3373 239.828ZM48.893 242H48.293V238.34H47.099V237.8H50.087V238.34H48.893V242ZM55.9023 242.06C54.8223 242.06 54.2583 241.214 54.2583 239.9C54.2583 238.61 54.8163 237.74 55.9023 237.74C56.8023 237.74 57.2583 238.34 57.3003 239.132H56.7003C56.6703 238.646 56.4063 238.28 55.9203 238.28H55.8843C55.2183 238.28 54.8583 238.91 54.8583 239.9C54.8583 240.902 55.2123 241.52 55.8843 241.52H55.9203C56.4183 241.52 56.6583 241.172 56.7003 240.668H57.3003C57.2583 241.466 56.8263 242.06 55.9023 242.06ZM59.3919 239.774L60.3459 237.8H60.9939L59.6799 240.332V242H59.0799V240.332L57.7779 237.8H58.4379L59.3919 239.774ZM63.0976 242.06C62.0176 242.06 61.4536 241.214 61.4536 239.9C61.4536 238.61 62.0116 237.74 63.0976 237.74C63.9976 237.74 64.4536 238.34 64.4956 239.132H63.8956C63.8656 238.646 63.6016 238.28 63.1156 238.28H63.0796C62.4136 238.28 62.0536 238.91 62.0536 239.9C62.0536 240.902 62.4076 241.52 63.0796 241.52H63.1156C63.6136 241.52 63.8536 241.172 63.8956 240.668H64.4956C64.4536 241.466 64.0216 242.06 63.0976 242.06ZM68.0693 242H65.2193V237.8H65.8193V241.46H68.0693V242ZM71.5829 242H68.8649V237.8H71.5229V238.34H69.4649V239.57H71.2109V240.11H69.4649V241.46H71.5829V242ZM37.8 244.722C38.796 244.722 39.396 245.526 39.396 246.882C39.396 248.238 38.808 249.042 37.8 249.042C36.792 249.042 36.204 248.238 36.204 246.882C36.204 245.526 36.804 244.722 37.8 244.722ZM37.83 245.25H37.77C37.218 245.25 36.792 245.742 36.792 246.882C36.792 247.152 36.816 247.38 36.858 247.584L38.58 245.724C38.4 245.4 38.136 245.25 37.83 245.25ZM37.77 248.514H37.83C38.382 248.514 38.808 248.022 38.808 246.882C38.808 246.648 38.79 246.444 38.754 246.264L37.056 248.1C37.236 248.382 37.488 248.514 37.77 248.514ZM41.3977 244.722C42.3937 244.722 42.9937 245.526 42.9937 246.882C42.9937 248.238 42.4057 249.042 41.3977 249.042C40.3897 249.042 39.8017 248.238 39.8017 246.882C39.8017 245.526 40.4017 244.722 41.3977 244.722ZM41.4277 245.25H41.3677C40.8157 245.25 40.3897 245.742 40.3897 246.882C40.3897 247.152 40.4137 247.38 40.4557 247.584L42.1777 245.724C41.9977 245.4 41.7337 245.25 41.4277 245.25ZM41.3677 248.514H41.4277C41.9797 248.514 42.4057 248.022 42.4057 246.882C42.4057 246.648 42.3877 246.444 42.3517 246.264L40.6537 248.1C40.8337 248.382 41.0857 248.514 41.3677 248.514ZM45.3733 246.726H44.6173V245.97H45.3733V246.726ZM45.3733 249H44.6173V248.244H45.3733V249ZM49.265 247.176L47.939 248.466H50.027V249H47.201V248.436L48.767 246.9C49.253 246.426 49.379 246.24 49.379 245.928C49.379 245.562 49.079 245.268 48.665 245.268H48.605C48.149 245.268 47.843 245.574 47.831 246.066H47.243C47.243 245.262 47.819 244.74 48.629 244.74C49.427 244.74 49.967 245.232 49.967 245.91C49.967 246.438 49.709 246.744 49.265 247.176ZM52.1726 249.06C51.3326 249.06 50.7926 248.628 50.7506 247.89H51.3386C51.3986 248.286 51.6866 248.532 52.1426 248.532H52.2026C52.7006 248.532 53.0246 248.244 53.0246 247.836C53.0246 247.41 52.6706 247.17 52.1906 247.17H51.9146V246.636H52.2086C52.6886 246.636 53.0006 246.348 53.0006 245.952C53.0006 245.538 52.6646 245.268 52.2206 245.268H52.1606C51.7586 245.268 51.4526 245.532 51.4166 245.922H50.8286C50.8466 245.238 51.4166 244.74 52.1906 244.74C53.0126 244.74 53.5886 245.208 53.5886 245.898C53.5886 246.372 53.2886 246.75 52.8746 246.894C53.2886 247.014 53.6186 247.368 53.6186 247.872C53.6186 248.652 52.9646 249.06 52.1726 249.06ZM56.1663 246.726H55.4103V245.97H56.1663V246.726ZM56.1663 249H55.4103V248.244H56.1663V249ZM59.3679 249.06C58.5279 249.06 57.9879 248.628 57.9459 247.89H58.5339C58.5939 248.286 58.8819 248.532 59.3379 248.532H59.3979C59.8959 248.532 60.2199 248.244 60.2199 247.836C60.2199 247.41 59.8659 247.17 59.3859 247.17H59.1099V246.636H59.4039C59.8839 246.636 60.1959 246.348 60.1959 245.952C60.1959 245.538 59.8599 245.268 59.4159 245.268H59.3559C58.9539 245.268 58.6479 245.532 58.6119 245.922H58.0239C58.0419 245.238 58.6119 244.74 59.3859 244.74C60.2079 244.74 60.7839 245.208 60.7839 245.898C60.7839 246.372 60.4839 246.75 60.0699 246.894C60.4839 247.014 60.8139 247.368 60.8139 247.872C60.8139 248.652 60.1599 249.06 59.3679 249.06ZM63.9856 244.8V247.536H64.6516V248.058H63.9856V249H63.4276V248.058H61.3636V247.458L63.3796 244.8H63.9856ZM63.4276 245.55L61.9336 247.536H63.4276V245.55Z"></path>
<path fill="#0D0D0D" d="M20.7857 239.762V239H23.0714V239.762H20.7857ZM21.5476 243.952H22.3095V241.667H21.5476V243.952ZM21.9286 247C21.4587 247 21.0158 246.91 20.5998 246.729C20.1841 246.548 19.8206 246.302 19.5095 245.99C19.1984 245.679 18.9523 245.316 18.7712 244.9C18.5904 244.484 18.5 244.041 18.5 243.571C18.5 243.102 18.5904 242.659 18.7712 242.243C18.9523 241.827 19.1984 241.463 19.5095 241.152C19.8206 240.841 20.1841 240.595 20.5998 240.414C21.0158 240.233 21.4587 240.143 21.9286 240.143C22.3222 240.143 22.7 240.206 23.0619 240.333C23.4238 240.46 23.7635 240.644 24.081 240.886L24.6143 240.352L25.1476 240.886L24.6143 241.419C24.8556 241.737 25.0397 242.076 25.1667 242.438C25.2937 242.8 25.3571 243.178 25.3571 243.571C25.3571 244.041 25.2667 244.484 25.0859 244.9C24.9048 245.316 24.6587 245.679 24.3476 245.99C24.0365 246.302 23.6731 246.548 23.2573 246.729C22.8413 246.91 22.3984 247 21.9286 247ZM21.9286 246.238C22.6651 246.238 23.2937 245.978 23.8143 245.457C24.3349 244.937 24.5952 244.308 24.5952 243.571C24.5952 242.835 24.3349 242.206 23.8143 241.686C23.2937 241.165 22.6651 240.905 21.9286 240.905C21.1921 240.905 20.5635 241.165 20.0429 241.686C19.5222 242.206 19.2619 242.835 19.2619 243.571C19.2619 244.308 19.5222 244.937 20.0429 245.457C20.5635 245.978 21.1921 246.238 21.9286 246.238Z"></path>
<rect stroke-width="0.6" stroke-opacity="0.1" stroke="#0D0D0D" height="19.4" width="67.4" y="233.3" x="12.3"></rect>
<line stroke-width="0.6" stroke-opacity="0.1" stroke="#0D0D0D" y2="253" x2="31.3" y1="233" x1="31.3"></line>
<g filter="url(#filter0_b_3517_8184)">
<rect stroke-opacity="0.1" stroke="#0D0D0D" height="262.609" width="216" y="0.5" x="0.5"></rect>
</g>
<circle fill="#0D0D0D" r="2" cy="14" cx="14"></circle>
<path fill="#0D0D0D" d="M25.48 16H24.862L24.538 14.92H23.05L22.726 16H22.126L23.434 11.8H24.19L25.48 16ZM23.794 12.424L23.212 14.38H24.382L23.794 12.424ZM27.2057 16H26.0537V11.8H27.1877C28.2197 11.8 28.9457 12.556 28.9457 13.906C28.9457 15.256 28.2317 16 27.2057 16ZM26.6537 12.34V15.46H27.1577C27.8957 15.46 28.3457 14.974 28.3457 13.9C28.3457 12.826 27.8837 12.34 27.1577 12.34H26.6537ZM31.2053 16H29.7953V15.43H31.0493C31.3733 15.43 31.5053 15.25 31.5053 14.89V11.8H32.1053V15.022C32.1053 15.652 31.7633 16 31.2053 16ZM34.593 16.06C33.681 16.06 33.165 15.502 33.165 14.59V11.8H33.765V14.506C33.765 15.202 34.059 15.52 34.581 15.52H34.605C35.127 15.52 35.421 15.202 35.421 14.506V11.8H36.021V14.59C36.021 15.502 35.505 16.06 34.593 16.06ZM38.1966 16.06C37.1046 16.06 36.6006 15.484 36.5826 14.638H37.1826C37.2126 15.244 37.5846 15.52 38.2266 15.52H38.2566C38.8086 15.52 39.0966 15.22 39.0966 14.86C39.0966 14.542 38.9226 14.344 38.4906 14.254L37.8246 14.11C37.1166 13.96 36.7926 13.588 36.7926 12.97C36.7926 12.316 37.3386 11.74 38.2566 11.74C39.2046 11.74 39.7446 12.286 39.7626 13.072H39.1626C39.1326 12.574 38.7786 12.28 38.2626 12.28H38.2386C37.7286 12.28 37.3926 12.58 37.3926 12.958C37.3926 13.288 37.5786 13.456 37.9986 13.54L38.6046 13.666C39.3006 13.81 39.6966 14.17 39.6966 14.824C39.6966 15.538 39.1386 16.06 38.1966 16.06ZM42.0883 16H41.4883V12.34H40.2943V11.8H43.2823V12.34H42.0883V16ZM47.0659 16H46.4479L46.1239 14.92H44.6359L44.3119 16H43.7119L45.0199 11.8H45.7759L47.0659 16ZM45.3799 12.424L44.7979 14.38H45.9679L45.3799 12.424ZM49.2356 16H47.6996V11.8H49.1996C49.9556 11.8 50.4056 12.244 50.4056 12.892C50.4056 13.408 50.1116 13.744 49.7156 13.87C50.1176 13.948 50.4956 14.284 50.4956 14.86C50.4956 15.538 50.0036 16 49.2356 16ZM48.2996 12.34V13.606H49.1036C49.5296 13.606 49.8056 13.384 49.8056 12.97C49.8056 12.562 49.5716 12.34 49.1036 12.34H48.2996ZM48.2996 14.14V15.46H49.1276C49.6316 15.46 49.8956 15.238 49.8956 14.794C49.8956 14.356 49.5896 14.14 49.1336 14.14H48.2996ZM54.0693 16H51.2193V11.8H51.8193V15.46H54.0693V16ZM57.5829 16H54.8649V11.8H57.5229V12.34H55.4649V13.57H57.2109V14.11H55.4649V15.46H57.5829V16ZM64.1302 13.966H64.1602C64.5742 13.966 64.7422 14.164 64.7422 14.542V16H64.1422V14.638C64.1422 14.404 64.0522 14.314 63.8182 14.314H62.6542V16H62.0542V11.8H63.5122C64.2442 11.8 64.8022 12.274 64.8022 12.928C64.8022 13.438 64.5562 13.798 64.1302 13.966ZM62.6542 13.774H63.3742C63.8542 13.774 64.2022 13.498 64.2022 13.036C64.2022 12.586 63.9022 12.34 63.3742 12.34H62.6542V13.774ZM68.6519 16H68.0339L67.7099 14.92H66.2219L65.8979 16H65.2979L66.6059 11.8H67.3619L68.6519 16ZM66.9659 12.424L66.3839 14.38H67.5539L66.9659 12.424ZM70.6835 16.06C69.6035 16.06 69.0395 15.214 69.0395 13.9C69.0395 12.61 69.5975 11.74 70.6835 11.74C71.5835 11.74 72.0395 12.34 72.0815 13.132H71.4815C71.4515 12.646 71.1875 12.28 70.7015 12.28H70.6655C69.9995 12.28 69.6395 12.91 69.6395 13.9C69.6395 14.902 69.9935 15.52 70.6655 15.52H70.7015C71.1995 15.52 71.4395 15.172 71.4815 14.668H72.0815C72.0395 15.466 71.6075 16.06 70.6835 16.06ZM75.8952 16H75.2112L73.9872 14.008L73.4532 14.65V16H72.8532V11.8H73.4532V13.834L75.1212 11.8H75.8232L74.3832 13.534L75.8952 16ZM77.7708 16.06C76.6788 16.06 76.1748 15.484 76.1568 14.638H76.7568C76.7868 15.244 77.1588 15.52 77.8008 15.52H77.8308C78.3828 15.52 78.6708 15.22 78.6708 14.86C78.6708 14.542 78.4968 14.344 78.0648 14.254L77.3988 14.11C76.6908 13.96 76.3668 13.588 76.3668 12.97C76.3668 12.316 76.9128 11.74 77.8308 11.74C78.7788 11.74 79.3188 12.286 79.3368 13.072H78.7368C78.7068 12.574 78.3528 12.28 77.8368 12.28H77.8128C77.3028 12.28 76.9668 12.58 76.9668 12.958C76.9668 13.288 77.1528 13.456 77.5728 13.54L78.1788 13.666C78.8748 13.81 79.2708 14.17 79.2708 14.824C79.2708 15.538 78.7128 16.06 77.7708 16.06Z"></path>
<defs>
<filter color-interpolation-filters="sRGB" filterUnits="userSpaceOnUse" height="385.863" width="339.254" y="-61.1268" x="-61.1268" id="filter0_b_3517_8184">
<feFlood result="BackgroundImageFix" flood-opacity="0"></feFlood>
<feGaussianBlur stdDeviation="30.5634" in="BackgroundImageFix"></feGaussianBlur>
<feComposite result="effect1_backgroundBlur_3517_8184" operator="in" in2="SourceAlpha"></feComposite>
<feBlend result="shape" in2="effect1_backgroundBlur_3517_8184" in="SourceGraphic" mode="normal"></feBlend>
</filter>
</defs>
</svg>
