<svg xmlns="http://www.w3.org/2000/svg" fill="none" viewBox="0 0 46 46" height="46" width="46">
<g clip-path="url(#clip0_1989_10092)">
<path fill="#0D0D0D" d="M39.7985 22.3116C39.6466 20.4666 39.2066 18.691 38.5104 16.9773C38.494 16.937 38.4728 16.8958 38.4517 16.8545C38.3161 16.9783 38.1753 17.1043 38.0382 17.2235C38.0906 17.3516 38.1414 17.4776 38.1886 17.6041C38.7211 19.0282 39.0716 20.4952 39.2077 22.0104C39.3485 23.5822 39.3384 25.153 39.1071 26.7158C38.7264 29.2872 37.8164 31.66 36.3536 33.8099C34.8829 35.9715 33.0406 37.7556 30.8107 39.1284C28.7931 40.3699 26.6066 41.1492 24.2613 41.4859C22.9764 41.6706 21.6863 41.6939 20.3934 41.6293C18.0376 41.5118 15.8003 40.9252 13.681 39.8929C12.222 39.1819 10.9117 38.2517 9.71096 37.1643C9.69614 37.1505 9.68185 37.1357 9.66702 37.1193C9.53732 37.2384 9.3732 37.3925 9.23926 37.5201C9.25779 37.5365 9.27579 37.5518 9.29326 37.5672C10.6883 38.8288 12.2405 39.8516 13.9531 40.6303C15.949 41.5378 18.0413 42.0682 20.2288 42.2196C20.4681 42.236 20.7074 42.2572 20.9461 42.2763H22.1257C22.4873 42.2482 22.8494 42.2223 23.211 42.1926C24.8707 42.0555 26.4811 41.6923 28.036 41.0983C31.8023 39.6599 34.7897 37.2416 36.972 33.8597C39.2405 30.3444 40.1416 26.4765 39.7985 22.3132V22.3116Z"></path>
<path fill="#0D0D0D" d="M3.62276 27.6925C3.63388 27.7454 3.64182 27.7862 3.64606 27.8195C3.80117 27.7353 3.99864 27.621 4.17335 27.5098C3.89488 26.2106 3.82817 24.8987 3.84406 23.5795C3.88482 20.1933 4.77476 17.0513 6.66953 14.2375C10.8058 8.09416 17.3149 5.34704 24.5234 6.4281C27.9312 6.93898 30.9049 8.41392 33.4556 10.7333C34.9454 12.088 36.1975 13.6996 36.5776 14.436C36.7269 14.3502 36.8931 14.2533 37.0519 14.1575C36.9561 14.0082 36.8661 13.8669 36.7713 13.7292C34.686 10.6877 31.9622 8.42398 28.5496 7.00992C26.1381 6.01092 23.6202 5.56781 21.0134 5.64192C19.7539 5.67792 18.5077 5.83622 17.2811 6.13322C13.8674 6.9591 10.9308 8.62622 8.469 11.1309C6.62347 13.0087 5.24223 15.1819 4.34541 17.6569C3.49888 19.9932 3.12988 22.4036 3.26806 24.8897C3.32047 25.8332 3.42953 26.7676 3.6217 27.6925H3.62276Z"></path>
<path fill="#0D0D0D" d="M6.17339 20.564H6.30257C7.19674 20.564 8.09145 20.5656 8.98563 20.5619C9.09151 20.5619 9.15345 20.591 9.20851 20.6847C9.94598 21.9304 10.6872 23.174 11.4283 24.4176C11.4956 24.5304 11.5702 24.6384 11.6655 24.7855C11.6724 24.7045 11.6787 24.6648 11.6787 24.6246C11.6798 23.5388 11.6809 22.4524 11.6772 21.3666C11.6772 21.3068 11.647 21.2311 11.6041 21.1898C11.4077 20.9992 11.2017 20.8176 10.9995 20.6328L11.0408 20.5778H13.2659C13.0785 20.7673 12.9176 20.9431 12.7413 21.1024C12.629 21.2041 12.593 21.3126 12.5936 21.4619C12.5989 23.1179 12.5983 24.7739 12.5936 26.4304C12.5936 26.5554 12.6306 26.6401 12.719 26.7237C12.9319 26.9259 13.1362 27.1367 13.3332 27.3828C13.2882 27.3828 13.2432 27.3828 13.1982 27.3828C12.2987 27.3828 11.3997 27.3812 10.5003 27.3849C10.4002 27.3849 10.3436 27.3553 10.2912 27.2664C9.60504 26.0985 8.91468 24.9338 8.22486 23.768C8.08086 23.5245 7.93686 23.2815 7.75898 23.0438C7.75633 23.0941 7.7521 23.1438 7.7521 23.1941C7.7521 24.2604 7.75686 25.3271 7.74945 26.3934C7.74839 26.5495 7.79763 26.6618 7.89663 26.7724C8.06286 26.9582 8.21851 27.1531 8.39798 27.3664H6.01562C6.0998 27.2939 6.1591 27.2478 6.21257 27.1954C6.3878 27.0234 6.56515 26.8524 6.73192 26.6724C6.77639 26.6247 6.80921 26.5453 6.80921 26.4807C6.81345 24.7802 6.81398 23.0803 6.80921 21.3798C6.80921 21.311 6.7711 21.2263 6.72239 21.1771C6.53286 20.9865 6.33221 20.8075 6.13527 20.6238L6.17339 20.5645V20.564Z"></path>
<path fill="#0D0D0D" d="M16.1762 20.5788C16.2646 20.5725 16.3159 20.5656 16.3667 20.5656C17.3446 20.5651 18.3224 20.5677 19.3002 20.5619C19.4379 20.5608 19.4987 20.6133 19.5469 20.735C20.2982 22.6356 21.052 24.5351 21.8096 26.4331C21.8483 26.53 21.916 26.6194 21.9854 26.6983C22.0526 26.7746 22.14 26.8338 22.2416 26.9201C21.9817 27.0853 21.7609 27.2293 21.5354 27.3654C21.4973 27.3881 21.4401 27.3839 21.3914 27.3839C20.4432 27.385 19.495 27.3844 18.5469 27.3839C18.4997 27.3839 18.4532 27.3781 18.3679 27.3723C18.4214 27.3077 18.451 27.2669 18.4855 27.2314C18.667 27.0446 18.8476 26.8571 19.0329 26.6745C19.0975 26.6104 19.1133 26.5501 19.0773 26.4643C19.0069 26.297 18.9418 26.1271 18.8804 25.9561C18.8507 25.8735 18.8005 25.8444 18.7147 25.8444C18.0074 25.846 17.2996 25.846 16.5923 25.8417C16.4795 25.8412 16.4234 25.883 16.3953 25.9921C16.3477 26.1774 16.2932 26.3616 16.2328 26.5432C16.1979 26.648 16.2127 26.7285 16.2879 26.8116C16.4096 26.9466 16.5213 27.0901 16.6362 27.2314C16.6653 27.2674 16.6902 27.3071 16.7347 27.3707H14.5498C14.5832 27.3236 14.6022 27.2876 14.6297 27.26C14.7605 27.1266 14.8844 26.9847 15.0273 26.8656C15.2417 26.6872 15.345 26.4585 15.4191 26.1954C15.8633 24.6267 16.3149 23.0597 16.7739 21.4953C16.8252 21.3195 16.8077 21.2025 16.6664 21.0855C16.5309 20.9733 16.4139 20.8383 16.29 20.7123C16.2577 20.6794 16.2302 20.6424 16.1767 20.5794L16.1762 20.5788ZM18.4066 24.776C18.09 23.9777 17.7829 23.2031 17.4605 22.391C17.4272 22.4641 17.4097 22.4927 17.4007 22.5234C17.1958 23.2254 16.9941 23.9284 16.7855 24.6294C16.7479 24.7554 16.7755 24.7956 16.9078 24.794C17.3493 24.7887 17.7914 24.7924 18.2335 24.7914C18.28 24.7914 18.3266 24.7834 18.4071 24.7755L18.4066 24.776Z"></path>
<path fill="#0D0D0D" d="M30.4645 26.7047C30.5249 26.6343 30.6175 26.5734 30.6408 26.4924C31.0516 25.0921 31.4534 23.6897 31.8574 22.2878C31.9225 22.0613 31.9839 21.8336 32.0564 21.6091C32.076 21.5493 32.1194 21.4858 32.1703 21.4487C32.5461 21.1724 32.9257 20.9003 33.308 20.6324C33.3636 20.5932 33.4419 20.5688 33.5102 20.5678C33.8935 20.5614 34.2768 20.5694 34.6601 20.562C34.7697 20.5598 34.8147 20.6038 34.8517 20.6975C35.549 22.461 36.2489 24.2234 36.9482 25.9858C37.017 26.1594 37.0821 26.3347 37.1578 26.5051C37.1864 26.5703 37.2336 26.6306 37.2833 26.6825C37.4739 26.8805 37.6693 27.0743 37.8625 27.2707C37.8879 27.2966 37.9096 27.3268 37.9483 27.3734H33.6817C33.7135 27.3321 33.732 27.3014 33.7569 27.2765C33.9501 27.0806 34.1413 26.8821 34.3409 26.6931C34.4213 26.6168 34.4351 26.5486 34.3917 26.4485C34.3191 26.2823 34.2646 26.1076 34.1894 25.9424C34.1693 25.8984 34.1005 25.8492 34.0539 25.8487C33.3265 25.8428 32.5991 25.8455 31.8717 25.8428C31.788 25.8428 31.7504 25.8709 31.7287 25.9519C31.6726 26.1605 31.5996 26.3648 31.5503 26.575C31.5355 26.6391 31.554 26.7312 31.5927 26.7841C31.7171 26.9541 31.859 27.1113 31.9924 27.2744C32.012 27.2987 32.0236 27.3294 32.048 27.3728H29.853C29.9166 27.304 29.9668 27.2506 30.0166 27.196C30.1675 27.0308 30.3179 26.8651 30.4687 26.6994L30.465 26.7037L30.4645 26.7047ZM33.7299 24.7835C33.4096 23.973 33.0994 23.1873 32.7891 22.4017L32.75 22.4054C32.5218 23.1937 32.2936 23.9825 32.0617 24.7835H33.7299Z"></path>
<path fill="#0D0D0D" d="M27.6041 21.6243C27.0128 21.3866 26.4156 21.2416 25.8015 21.5386C25.7073 21.5841 25.6188 21.6566 25.5495 21.736C25.3541 21.9584 25.4124 22.2803 25.6871 22.4041C26.2234 22.6466 26.7698 22.8679 27.3124 23.0966C27.5004 23.176 27.6899 23.2517 27.9085 23.3417C27.5793 23.5482 27.2812 23.7351 26.9826 23.9225C26.4961 24.228 26.0106 24.534 25.522 24.8368C25.4764 24.8649 25.405 24.8966 25.3647 24.8797C24.8237 24.6573 24.2821 24.4339 23.8649 23.9998C23.3191 23.4312 23.2063 22.4841 23.6219 21.8139C24.1603 20.9451 24.9703 20.5173 25.9698 20.4183C26.584 20.3574 27.1838 20.431 27.7725 20.6147C27.8307 20.6327 27.9175 20.6131 27.9715 20.5793C28.1706 20.4554 28.3607 20.3183 28.5888 20.1631C28.6105 20.8699 28.6312 21.5417 28.6513 22.1945C28.2971 22.0013 27.9483 21.8107 27.5994 21.6196L27.6036 21.6238L27.6041 21.6243Z"></path>
<path fill="#0D0D0D" d="M26.3949 25.267C26.6919 25.0732 26.9704 24.8911 27.2494 24.7095C27.6655 24.439 28.0837 24.1727 28.4961 23.8963C28.5946 23.8301 28.6486 23.8423 28.7291 23.9239C29.6095 24.809 29.4814 26.1987 28.4522 26.9055C27.8418 27.3243 27.1588 27.5117 26.4282 27.544C25.7479 27.5741 25.0862 27.4693 24.4424 27.2512C24.3561 27.2221 24.2979 27.2348 24.228 27.2883C24.0104 27.4534 23.7881 27.6123 23.5387 27.7944C23.5228 27.563 23.5064 27.365 23.4995 27.1665C23.4985 27.139 23.5392 27.1019 23.5694 27.0823C23.9188 26.8541 24.2688 26.626 24.6229 26.4047C24.6648 26.3782 24.7331 26.3793 24.786 26.3877C25.1783 26.4491 25.5674 26.5418 25.9618 26.572C26.3366 26.6006 26.6961 26.5026 26.9778 26.2263C27.1594 26.0484 27.1646 25.8207 26.9894 25.637C26.9126 25.5566 26.8179 25.4909 26.7226 25.4316C26.6273 25.3723 26.5219 25.3294 26.3954 25.2664L26.3949 25.267Z"></path>
<path fill="#0D0D0D" d="M26.81 20.3533C26.6146 20.3761 26.4833 20.3576 26.3467 20.2003C25.5955 19.3316 24.8421 18.4633 24.057 17.6258C22.9738 16.4696 21.7975 15.4113 20.5163 14.4758C19.521 13.7489 18.4712 13.1152 17.3107 12.6827C16.6622 12.4413 15.9951 12.274 15.2984 12.2878C14.003 12.3132 13.157 13.0093 12.861 14.2651C12.6821 15.0238 12.7123 15.7877 12.8271 16.549C13.0696 18.1573 13.6292 19.6662 14.3063 21.1337C14.6001 21.7711 14.9331 22.3905 15.2481 23.0179C15.2608 23.0433 15.2725 23.0692 15.2921 23.1105C15.1931 23.1428 15.1031 23.1719 14.9988 23.2058C14.778 22.8072 14.5551 22.4202 14.3466 22.0258C13.5847 20.5858 12.9881 19.0833 12.6477 17.4855C12.4857 16.7242 12.3936 15.9539 12.4258 15.1746C12.4566 14.4303 12.5884 13.7092 12.9934 13.0649C13.4158 12.3931 14.0395 12.0458 14.8161 11.9601C15.6484 11.8679 16.4388 12.0606 17.2086 12.3471C19.0562 13.0358 20.6571 14.1301 22.1533 15.3917C23.5694 16.5866 24.8363 17.9271 26.0084 19.3596C26.235 19.6365 26.4627 19.9118 26.6893 20.1892C26.7284 20.2369 26.7628 20.2888 26.8094 20.3528L26.81 20.3533Z"></path>
<path fill="#0D0D0D" d="M19.9742 29.4218C20.573 29.883 21.1564 30.324 21.7287 30.7787C21.8838 30.9021 22.0278 31.0519 22.1374 31.2166C22.3021 31.4638 22.1173 31.7814 21.8176 31.7994C21.5641 31.8148 21.365 31.6851 21.1733 31.5458C20.7398 31.2298 20.4031 30.819 20.0732 30.4034C19.8996 30.1842 19.7376 29.9555 19.5518 29.7061C19.7021 29.605 19.8445 29.5092 19.9737 29.4224L19.9742 29.4218Z"></path>
<path fill="#0D0D0D" d="M30.5391 27.4473C30.7673 27.3939 30.7837 27.4013 30.8451 27.5966C31.1702 28.6306 31.4142 29.6815 31.4873 30.7657C31.5339 31.4608 31.5047 32.1496 31.2755 32.8172C30.9632 33.7272 30.3247 34.2355 29.3739 34.3498C28.6184 34.4409 27.8878 34.2963 27.1652 34.092C27.019 34.0507 26.8756 34.0009 26.7363 33.9326C26.7676 33.9395 26.7988 33.9448 26.8295 33.9533C27.4404 34.129 28.0604 34.2619 28.6994 34.2503C29.403 34.2376 30.0526 34.0645 30.5544 33.5271C30.9557 33.0977 31.1432 32.5705 31.2316 32.0019C31.3772 31.0637 31.2654 30.1394 31.0489 29.2272C30.9118 28.6502 30.7239 28.0847 30.5592 27.514C30.5529 27.4918 30.5465 27.4696 30.5396 27.4468L30.5391 27.4473Z"></path>
<path fill="#0D0D0D" d="M16.7026 25.8747C16.8567 25.8747 16.9779 25.8705 17.0986 25.8779C17.1304 25.88 17.1675 25.9123 17.1897 25.9404C17.9325 26.8727 18.6736 27.806 19.4148 28.7394C19.4265 28.7542 19.4344 28.7712 19.4513 28.7992C19.3396 28.8749 19.2311 28.9474 19.1099 29.0295C18.267 28.0162 17.4645 26.9817 16.7026 25.8758V25.8747Z"></path>
<path fill="#0D0D0D" d="M27.6007 21.6198C27.8924 21.7713 28.0025 22.0741 28.1741 22.3218C28.4112 22.6644 28.6415 23.0133 28.8496 23.3738C29.4325 24.3855 29.9979 25.4073 30.4447 26.4883C30.4712 26.5524 30.4595 26.6318 30.4659 26.7038L30.4696 26.6995C30.4272 26.7467 30.3854 26.7938 30.3208 26.8663C29.559 24.9737 28.5902 23.2298 27.3916 21.5849C27.4858 21.6018 27.5457 21.613 27.6055 21.6235L27.6007 21.6188V21.6198Z"></path>
<path fill="#0D0D0D" d="M16.8042 15.3524C16.7216 15.2137 16.8121 15.0273 16.6205 14.9447C16.4897 14.8886 16.3749 14.7954 16.2573 14.7213C16.2669 14.7187 16.3119 14.7144 16.3494 14.6954C16.4024 14.6689 16.4511 14.6324 16.4998 14.5985C16.5151 14.5874 16.5236 14.5598 16.539 14.5561C16.7592 14.5021 16.7931 14.3338 16.7947 14.1289C16.8545 14.4868 17.0181 14.7213 17.4083 14.733C17.2611 14.7997 17.1155 14.8087 16.9821 14.923C16.8312 15.0527 16.8815 15.2179 16.8037 15.3518L16.8042 15.3524Z"></path>
<path fill="#0D0D0D" d="M35.4265 30.2236C35.4212 29.8313 35.1581 29.7048 34.8643 29.5905C35.1687 29.5073 35.4445 29.3919 35.4381 28.9922C35.5064 29.3342 35.6425 29.592 36.0459 29.5836C35.9056 29.6651 35.7531 29.6577 35.6234 29.7784C35.4847 29.907 35.517 30.0622 35.427 30.2236H35.4265Z"></path>
<path fill="#0D0D0D" d="M25.759 9.25587C25.6107 9.32998 25.4567 9.32098 25.3248 9.45387C25.1957 9.58357 25.2354 9.74186 25.1374 9.91075C25.1295 9.50734 24.9548 9.29239 24.5688 9.26116C24.9225 9.2114 25.1411 9.04516 25.1523 8.66187C25.2354 8.98692 25.3815 9.23998 25.759 9.25587Z"></path>
<path fill="#0D0D0D" d="M15.4492 37.304C15.0669 37.3395 14.8483 37.5253 14.8292 37.9271C14.7906 37.5523 14.6228 37.3241 14.2241 37.3056C14.5831 37.2558 14.8128 37.0907 14.8239 36.6963C14.8922 37.0467 15.0643 37.2781 15.4487 37.3035L15.4492 37.304Z"></path>
<path fill="#0D0D0D" d="M33.8139 34.285C33.7218 34.0992 33.7609 33.9456 33.628 33.8112C33.501 33.6825 33.357 33.6846 33.1929 33.6206C33.5455 33.5544 33.7742 33.3913 33.7985 33.016C33.8483 33.3728 34.0076 33.6095 34.4084 33.6211C34.0283 33.6661 33.816 33.8588 33.8144 34.2855L33.8139 34.285Z"></path>
<path fill="#0D0D0D" d="M25.5288 21.9558C25.5796 21.5752 26.2552 21.3306 26.9196 21.4963C26.4378 21.6556 25.9878 21.8044 25.5288 21.9558Z"></path>
<path fill="#0D0D0D" d="M35.9619 30.6639C36.0577 30.6723 36.1308 30.7263 36.135 30.8439C36.1392 30.9625 36.0683 31.0244 35.9582 31.0376C35.866 31.0488 35.7665 30.9508 35.7628 30.8566C35.7591 30.7592 35.8459 30.6671 35.9613 30.6639H35.9619Z"></path>
<path fill="#0D0D0D" d="M30.7689 29.682C30.8864 29.6916 30.9441 29.7609 30.9489 29.8732C30.9531 29.97 30.8541 30.0622 30.7594 30.059C30.6683 30.0558 30.563 29.9526 30.5746 29.8647C30.5889 29.7567 30.6509 29.6873 30.7684 29.6826L30.7689 29.682Z"></path>
<path fill="#0D0D0D" d="M25.0479 13.2697C25.0606 13.1803 25.1156 13.1099 25.2326 13.1051C25.3337 13.1009 25.4259 13.1882 25.4206 13.2872C25.4147 13.4016 25.3475 13.4677 25.2353 13.4767C25.1384 13.4847 25.0484 13.3899 25.0479 13.2697Z"></path>
<path fill="#0D0D0D" d="M22.7489 9.6066C22.75 9.71408 22.6621 9.80249 22.5605 9.79719C22.4456 9.79084 22.3799 9.72413 22.3715 9.6119C22.3641 9.51872 22.4662 9.41813 22.5599 9.42502C22.6727 9.43349 22.7347 9.50178 22.7489 9.60608V9.6066Z"></path>
<path fill="#0D0D0D" d="M20.6425 9.36274C20.6309 9.47497 20.5737 9.54591 20.4567 9.54538C20.3408 9.54538 20.273 9.47603 20.2725 9.36221C20.2725 9.24838 20.3423 9.17903 20.4562 9.1785C20.5716 9.17797 20.6314 9.24838 20.642 9.36274H20.6425Z"></path>
<path fill="#0D0D0D" d="M10.888 33.6805C10.8896 33.7763 10.797 33.8758 10.7022 33.8705C10.5889 33.8637 10.5227 33.7948 10.5111 33.6842C10.5005 33.5862 10.5947 33.4978 10.6974 33.4999C10.815 33.5021 10.8748 33.5677 10.888 33.681V33.6805Z"></path>
<path fill="#0D0D0D" d="M10.2278 32.2703C10.1129 32.2592 10.0414 32.202 10.0314 32.0877C10.0224 31.9908 10.1145 31.8934 10.213 31.8976C10.3236 31.9024 10.3993 31.9574 10.4025 32.0771C10.4057 32.1957 10.3358 32.2529 10.2283 32.2703H10.2278Z"></path>
<path fill="#0D0D0D" d="M16.3682 33.7815C16.3571 33.8752 16.2872 33.9318 16.176 33.935C16.0781 33.9371 15.9849 33.8392 15.996 33.7439C16.0093 33.6322 16.0754 33.5686 16.1914 33.5692C16.2967 33.5692 16.3724 33.6533 16.3682 33.782V33.7815Z"></path>
<path fill="#0D0D0D" d="M15.0167 31.0055C15.1247 31.0193 15.2004 31.0712 15.2015 31.1903C15.2025 31.3062 15.1353 31.3724 15.022 31.3814C14.9251 31.3888 14.824 31.2925 14.8309 31.1982C14.8388 31.0892 14.8971 31.0177 15.0162 31.0061L15.0167 31.0055Z"></path>
<path fill="#0D0D0D" d="M30.9281 31.1535C30.9159 31.2604 30.8571 31.3329 30.7417 31.3319C30.6274 31.3308 30.5586 31.2604 30.5591 31.1466C30.5591 31.0322 30.6311 30.9639 30.7438 30.9634C30.8582 30.9634 30.9207 31.0317 30.9281 31.1529V31.1535Z"></path>
<path fill="#0D0D0D" d="M33.579 29.7723C33.5674 29.8872 33.5112 29.9597 33.3937 29.9587C33.2794 29.9576 33.2089 29.8914 33.2095 29.7765C33.2095 29.6632 33.2772 29.5912 33.3916 29.5912C33.5054 29.5912 33.5668 29.6617 33.579 29.7723Z"></path>
<path fill="#0D0D0D" d="M23.4004 25.5984C23.5402 25.7196 23.6519 25.817 23.7742 25.9229C23.6609 25.9928 23.556 26.0574 23.4316 26.1341C23.421 25.9472 23.4115 25.79 23.4004 25.5984Z"></path>
<path fill="#0D0D0D" d="M14.8634 14.2467C14.9015 14.3049 14.964 14.3605 14.9714 14.4224C14.983 14.5188 14.9031 14.5887 14.8142 14.5664C14.757 14.5521 14.6855 14.4674 14.6813 14.4097C14.6776 14.3578 14.7565 14.2996 14.7988 14.244L14.8634 14.2467Z"></path>
<path fill="#0D0D0D" d="M18.3072 11.8217C18.3485 11.8826 18.4236 11.9456 18.4205 12.0044C18.4178 12.0568 18.3294 12.1431 18.2775 12.1441C18.2267 12.1452 18.1367 12.0594 18.133 12.007C18.1288 11.9482 18.2018 11.8842 18.2415 11.8222H18.3072V11.8217Z"></path>
<path fill="#0D0D0D" d="M35.2442 31.2032C35.1463 31.272 35.0933 31.334 35.0298 31.3482C34.9414 31.3678 34.88 31.3054 34.8757 31.2138C34.871 31.1127 34.9382 31.0475 35.0282 31.0581C35.0901 31.0655 35.1452 31.1338 35.2442 31.2037V31.2032Z"></path>
<path fill="#0D0D0D" d="M8.43565 32.2515C8.33824 32.3246 8.27365 32.4082 8.22654 32.3997C8.16512 32.3886 8.11748 32.3034 8.06348 32.2505C8.11589 32.2023 8.16459 32.1202 8.22124 32.1149C8.27524 32.1096 8.33665 32.1843 8.43565 32.2515Z"></path>
<path fill="#0D0D0D" d="M14.9993 27.5605C15.0374 27.6188 15.1004 27.6744 15.1078 27.7358C15.1194 27.8327 15.0384 27.8999 14.95 27.8777C14.8944 27.8634 14.8251 27.7792 14.8214 27.7226C14.8182 27.6701 14.8944 27.6124 14.9357 27.5574L14.9993 27.5605Z"></path>
<path fill="#0D0D0D" d="M13.096 33.1833C13.0192 33.0838 12.9398 33.0266 12.9419 32.9721C12.9441 32.917 13.0192 32.835 13.0769 32.8196C13.1685 32.7953 13.2453 32.8657 13.2336 32.9625C13.2262 33.0245 13.1632 33.0801 13.096 33.1833Z"></path>
<path fill="#0D0D0D" d="M9.98687 33.3163C9.9117 33.2195 9.83334 33.1623 9.83652 33.1104C9.84023 33.0538 9.91117 32.9706 9.96834 32.9553C10.0605 32.9304 10.1356 33.0056 10.1272 33.0977C10.1219 33.1586 10.0557 33.2142 9.98687 33.3169V33.3163Z"></path>
<path fill="#0D0D0D" d="M33.2801 28.872C33.1833 28.9429 33.1245 29.0181 33.0705 29.0155C33.016 29.0128 32.935 28.9397 32.9201 28.8831C32.8958 28.7894 32.9715 28.7163 33.0636 28.7264C33.1255 28.7333 33.1806 28.8016 33.2807 28.8715L33.2801 28.872Z"></path>
<path fill="#0D0D0D" d="M33.5606 32.7809C33.5045 32.8227 33.4536 32.8873 33.3917 32.9005C33.2943 32.9217 33.2218 32.847 33.2382 32.756C33.2488 32.6983 33.3266 32.6204 33.3827 32.613C33.4356 32.6062 33.4992 32.6787 33.5585 32.7168L33.5611 32.7814L33.5606 32.7809Z"></path>
<path fill="#0D0D0D" d="M29.3409 32.6987C29.4087 32.7982 29.4828 32.8596 29.478 32.9136C29.4727 32.9703 29.3912 33.0195 29.343 33.0714C29.289 33.0185 29.2027 32.9713 29.1911 32.9105C29.1821 32.8628 29.2668 32.7982 29.3409 32.6987Z"></path>
<path fill="#0D0D0D" d="M34.9487 33.5985C34.8508 33.6715 34.7915 33.7504 34.738 33.7462C34.6819 33.7419 34.5993 33.6673 34.5855 33.6096C34.5633 33.518 34.6369 33.4428 34.7322 33.4566C34.7941 33.4656 34.8487 33.5296 34.9487 33.5985Z"></path>
<path fill="#0D0D0D" d="M14.3886 34.9353C14.4309 34.9893 14.4971 35.0385 14.5098 35.0989C14.5304 35.1942 14.4595 35.2704 14.3679 35.255C14.3102 35.2455 14.2324 35.1688 14.2229 35.1121C14.2144 35.0613 14.2864 34.9967 14.3224 34.9379L14.388 34.9348L14.3886 34.9353Z"></path>
<path fill="#0D0D0D" d="M16.4238 35.7169C16.3529 35.6169 16.2777 35.557 16.2814 35.503C16.2856 35.448 16.3603 35.3664 16.4169 35.3537C16.5069 35.3336 16.5847 35.4056 16.5715 35.4999C16.5625 35.5623 16.4958 35.6158 16.4238 35.7169Z"></path>
<path fill="#0D0D0D" d="M15.6344 15.2263C15.5793 15.266 15.4888 15.3333 15.438 15.3285C15.3813 15.3232 15.3305 15.2613 15.3173 15.2057C15.2961 15.1162 15.366 15.0389 15.4613 15.05C15.5216 15.0574 15.5756 15.1199 15.6328 15.1575L15.6344 15.2263Z"></path>
<path fill="#0D0D0D" d="M19.1091 11.4696C19.0509 11.5056 18.9868 11.5766 18.9349 11.5686C18.8799 11.5607 18.8042 11.4834 18.7941 11.4268C18.7782 11.3346 18.8544 11.2642 18.9476 11.2828C19.008 11.2949 19.0577 11.3627 19.1123 11.4061L19.1091 11.4696Z"></path>
<path fill="#0D0D0D" d="M18.6782 11.1661C18.621 11.2053 18.567 11.2694 18.5056 11.2773C18.4108 11.29 18.3372 11.2164 18.3595 11.1238C18.3732 11.0671 18.4537 10.9951 18.5098 10.9898C18.5622 10.9851 18.6221 11.0597 18.6787 11.0994C18.6787 11.1217 18.6787 11.1439 18.6782 11.1661Z"></path>
<path fill="#0D0D0D" d="M20.8015 10.8364C20.8598 10.8009 20.9238 10.731 20.9741 10.7395C21.0313 10.749 21.1091 10.8242 21.1186 10.8809C21.1345 10.9735 21.0546 11.0434 20.963 11.0275C20.9026 11.0169 20.8529 10.9476 20.7983 10.9047C20.7994 10.8819 20.7999 10.8592 20.801 10.8364H20.8015Z"></path>
<path fill="#0D0D0D" d="M30.2393 36.8865C30.1408 36.9606 30.0768 37.0437 30.0307 37.0347C29.9693 37.0226 29.9216 36.9395 29.8682 36.8865C29.9195 36.8378 29.9677 36.7563 30.0238 36.7499C30.0768 36.7441 30.1382 36.8182 30.2393 36.8865Z"></path>
<path fill="#0D0D0D" d="M22.7445 11.7637C22.6868 11.8008 22.6328 11.8606 22.5709 11.8701C22.4708 11.8855 22.4068 11.8013 22.4243 11.7171C22.4359 11.661 22.5211 11.5885 22.5788 11.5832C22.6307 11.579 22.6895 11.6563 22.7456 11.6976L22.7445 11.7637Z"></path>
<path fill="#0D0D0D" d="M21.7387 7.3888C21.6837 7.43009 21.6265 7.50686 21.5741 7.50368C21.5185 7.5005 21.4364 7.43009 21.4211 7.37397C21.3962 7.28291 21.4661 7.20615 21.5609 7.21674C21.6223 7.22362 21.6773 7.28715 21.7356 7.32527C21.7366 7.34644 21.7371 7.36815 21.7382 7.38933L21.7387 7.3888Z"></path>
<path fill="#0D0D0D" d="M24.0747 33.6603C24.1128 33.718 24.1779 33.7736 24.1827 33.834C24.1896 33.925 24.1149 34.0007 24.0239 33.9764C23.9678 33.9615 23.8995 33.8779 23.8947 33.8202C23.8905 33.7694 23.9667 33.7117 24.0075 33.6571C24.0302 33.6582 24.0525 33.6593 24.0752 33.6598L24.0747 33.6603Z"></path>
<path fill="#0D0D0D" d="M20.6652 35.121C20.6086 35.1586 20.5482 35.2311 20.4969 35.2253C20.4386 35.2179 20.3889 35.1406 20.3359 35.0934C20.3889 35.04 20.4349 34.9569 20.4969 34.9431C20.5419 34.933 20.6081 35.0135 20.6647 35.0532C20.6647 35.076 20.6647 35.0987 20.6647 35.121H20.6652Z"></path>
<path fill="#0D0D0D" d="M29.5102 30.891C29.4546 30.9313 29.3953 31.0064 29.344 31.0017C29.2862 30.9959 29.2021 30.9254 29.1888 30.8693C29.1666 30.7772 29.246 30.7057 29.3365 30.7153C29.3969 30.7211 29.4514 30.7862 29.5086 30.8243C29.5086 30.8466 29.5097 30.8693 29.5102 30.8916V30.891Z"></path>
<path fill="#0D0D0D" d="M18.0393 11.0109C17.9991 10.9537 17.934 10.9002 17.925 10.8383C17.9112 10.7435 17.9859 10.671 18.078 10.6932C18.1341 10.7065 18.2077 10.7859 18.2119 10.8409C18.2162 10.8944 18.1426 10.9547 18.1034 11.0114H18.0393V11.0109Z"></path>
<path fill="#0D0D0D" d="M31.6995 20.7481C31.6196 20.6846 31.5635 20.6401 31.4819 20.575H31.9303C31.8282 20.6512 31.753 20.7079 31.6995 20.7481Z"></path>
<path fill="#0D0D0D" d="M28.3281 23.1694C28.1005 23.3155 27.884 23.4579 27.6642 23.595C26.1358 24.5511 24.6016 25.4988 23.0801 26.4655C22.2304 27.0055 21.3976 27.573 20.5632 28.1379C19.0338 29.1734 17.498 30.1999 15.9854 31.2604C14.4041 32.3689 12.8884 33.5654 11.4394 34.8429C10.802 35.4046 10.1841 35.9885 9.55995 36.5645C9.39743 36.7143 8.94478 37.1776 8.80448 37.3073L8.80343 37.3084C8.78331 37.3279 8.76372 37.3465 8.74413 37.3645C7.95531 38.0808 7.17072 38.8018 6.37237 39.5075C6.17225 39.6844 6.21937 39.8898 6.21143 40.101C7.1056 39.2185 8.03684 38.3852 8.99613 37.5805C9.00301 37.5741 9.01043 37.5678 9.01784 37.5614C9.18037 37.4243 9.59595 37.041 9.59384 37.0389C9.89084 36.7938 10.1698 36.5614 10.4504 36.3321C12.5072 34.6549 14.6254 33.0588 16.7864 31.5192C18.9078 30.0083 21.0741 28.5641 23.2691 27.1622C25.0246 26.0409 26.7738 24.9101 28.5256 23.7829C28.5627 23.7591 28.5976 23.7326 28.6452 23.6993C28.541 23.5251 28.4388 23.3541 28.3271 23.1688L28.3281 23.1694Z"></path>
<path fill="#0D0D0D" d="M3.49492 28.3703C3.88933 28.1776 4.14504 28.0595 4.33721 27.9759C4.35521 27.9626 4.37798 27.951 4.40709 27.9404C4.88039 27.762 5.35051 27.5751 5.82168 27.3914C5.84921 27.3808 5.88415 27.3782 5.90321 27.3591C6.17427 27.0965 6.44639 26.835 6.70898 26.5639C6.74286 26.529 6.72433 26.4432 6.73492 26.3315C5.95615 26.7206 5.20386 27.0965 4.43409 27.4809C4.20751 27.6074 3.96556 27.7625 3.57274 27.9817C3.54098 28.0023 3.49809 28.0246 3.44145 28.0553C2.83051 28.3809 2.22009 28.7075 1.61127 29.0373C1.46833 29.1146 1.3328 29.2057 1.19092 29.2925C1.40215 29.4445 1.57157 29.4116 1.77062 29.2872C2.14068 29.0564 2.53086 28.8563 2.91733 28.653C3.10527 28.5545 3.29745 28.464 3.4928 28.3719L3.49439 28.3708L3.49492 28.3703Z"></path>
<path fill="#0D0D0D" d="M37.1561 14.3179L37.1535 14.3136C36.9819 14.4169 36.8062 14.5175 36.6352 14.6154C34.9919 15.5948 33.2665 16.4175 31.5295 17.2154C29.7888 18.0153 28.0195 18.7475 26.2095 19.4394C26.3005 19.5617 26.3831 19.6745 26.4678 19.7856C26.6076 19.9694 26.7156 20.2023 26.8977 20.3219C27.0729 20.4368 27.3345 20.4109 27.542 20.4892C27.7935 20.584 27.9883 20.5353 28.1799 20.3643C28.2779 20.2764 28.3954 20.2102 28.5061 20.1372C28.5966 20.0768 28.6532 20.0927 28.658 20.2124C28.6638 20.3643 28.6696 20.5168 28.6771 20.6687C28.6797 20.7259 28.6866 20.7831 28.6929 20.8561C30.0382 20.3447 31.3405 19.7872 32.6148 19.162C33.8822 18.5405 35.1025 17.8348 36.2884 17.0666C36.3038 17.0894 36.3186 17.1126 36.3339 17.1354C33.9272 19.2515 31.3707 21.1727 28.6829 22.9431C28.7406 23.0368 28.7935 23.1241 28.8475 23.2104C28.8989 23.293 28.9518 23.3751 29.0101 23.4672C32.0558 21.4639 35.0448 19.4024 37.8301 17.0205C38.0032 16.8702 38.1948 16.7034 38.3812 16.5409C38.4288 16.4382 38.576 16.3582 38.6761 16.2698C40.1362 14.9775 41.5126 13.6085 42.6895 12.0441C43.6319 10.7915 44.4286 9.46212 45.0089 8.00518C45.0359 7.93688 45.0576 7.86594 45.0793 7.79606C45.0994 7.73147 45.1164 7.66583 45.1344 7.60071C42.9468 10.4124 40.1409 12.4644 37.1556 14.3184L37.1561 14.3179Z"></path>
<path fill="#0D0D0D" d="M26.3125 20.3278C25.8202 20.3564 25.3606 20.4088 24.9323 20.5968C24.3468 20.8535 23.8534 21.231 23.5511 21.8054C23.4346 22.0267 23.3801 22.2824 23.3118 22.5265C23.2922 22.5958 23.2774 22.6371 23.2043 22.6572C22.3753 22.8833 21.5462 23.112 20.7177 23.3396C20.7039 23.3433 20.6886 23.3396 20.6542 23.3396C20.4339 22.7838 20.211 22.221 19.9834 21.646C20.3381 21.5253 20.678 21.4131 21.0152 21.294C22.5436 20.754 24.0715 20.214 25.5978 19.6687C25.709 19.629 25.7709 19.6385 25.8419 19.7354C25.9864 19.9318 26.1447 20.1182 26.3125 20.3278Z"></path>
<path fill="#0D0D0D" d="M12.6572 25.3414C12.6572 24.9332 12.6546 24.5314 12.662 24.1295C12.6625 24.0914 12.7223 24.0353 12.7663 24.021C13.3751 23.8151 13.9855 23.6139 14.5964 23.4133C15.1322 23.237 15.669 23.0633 16.2058 22.8886C16.227 22.8817 16.2493 22.878 16.2927 22.8674C16.2392 23.0543 16.191 23.2221 16.1428 23.39C16.038 23.7526 15.9353 24.1158 15.8252 24.4768C15.8109 24.524 15.7659 24.5859 15.7236 24.5965C14.7198 24.8501 13.7144 25.0973 12.7096 25.3451C12.7006 25.3472 12.6906 25.344 12.6583 25.3414H12.6572Z"></path>
<path fill="#0D0D0D" d="M9.56281 26.1869C9.03022 26.3484 8.51511 26.5082 7.99787 26.6596C7.87399 26.6962 7.83058 26.5876 7.82369 26.4992C7.8094 26.3139 7.81364 26.1265 7.81893 25.9402C7.81999 25.9079 7.85811 25.8618 7.8904 25.8486C8.25675 25.694 8.62416 25.5421 8.99369 25.397C9.02599 25.3843 9.09958 25.4097 9.11811 25.4399C9.26846 25.6808 9.40981 25.9275 9.56281 26.1874V26.1869Z"></path>
<path fill="#0D0D0D" d="M18.0291 24.0292C17.6718 24.117 17.3277 24.2017 16.9565 24.2928C17.1228 23.7168 17.2821 23.1662 17.4537 22.5717C17.6538 23.0789 17.838 23.5453 18.0291 24.0292Z"></path>
<path fill="#0D0D0D" d="M8.81906 37.1235C8.92494 37.0203 9.1023 36.8456 9.23941 36.7074C9.01071 36.4813 8.77988 36.259 8.56018 36.026C6.71624 34.072 5.36306 31.8299 4.60071 29.2443C4.49271 28.8774 4.40535 28.5041 4.30212 28.1357C4.29947 28.1261 4.29735 28.1171 4.29577 28.1087C4.12794 28.1881 3.91353 28.2897 3.76953 28.358C4.62983 31.7685 6.31388 34.6824 8.81959 37.124L8.81906 37.1235Z"></path>
</g>
<defs>
<clipPath id="clip0_1989_10092">
<rect transform="translate(0.663086 0.5)" fill="white" height="45" width="45"></rect>
</clipPath>
</defs>
</svg>
