<svg xmlns="http://www.w3.org/2000/svg" fill="none" viewBox="0 0 277 202" height="202" width="277">
<line stroke-width="0.8" stroke-opacity="0.15" stroke="white" y2="56.3532" x2="259.806" y1="56.3532" x1="16.761"></line>
<line stroke-width="0.8" stroke-opacity="0.15" stroke="white" y2="79.422" x2="259.806" y1="79.422" x1="16.761"></line>
<line stroke-width="0.8" stroke-opacity="0.15" stroke="white" y2="102.49" x2="259.806" y1="102.49" x1="16.761"></line>
<line stroke-width="0.8" stroke-opacity="0.15" stroke="white" y2="125.559" x2="259.806" y1="125.559" x1="16.761"></line>
<line stroke-width="0.8" stroke-opacity="0.15" stroke="white" y2="148.628" x2="259.806" y1="148.628" x1="16.761"></line>
<path stroke-miterlimit="10" stroke="white" d="M160.115 89.2908L167.539 95.7541" opacity="0.8"></path>
<path stroke-miterlimit="10" stroke="white" d="M158.666 91.4351L165.899 97.7991" opacity="0.8"></path>
<path stroke-miterlimit="10" stroke="white" d="M156.388 77.488V84.4975" opacity="0.8"></path>
<path stroke-miterlimit="10" stroke="white" d="M147.976 68.7844L153.505 71.9871" opacity="0.8"></path>
<path stroke-miterlimit="10" stroke="white" d="M143.938 97.2654L152.996 90.2051" opacity="0.8"></path>
<path stroke-miterlimit="10" stroke="white" d="M142.117 103.365L145.758 113.751" opacity="0.8"></path>
<path stroke-miterlimit="10" stroke="white" d="M136.016 90.7854L139.2 96.6851" opacity="0.8"></path>
<path stroke-miterlimit="10" stroke="white" d="M151.319 117.165L161.457 117.703" opacity="0.8"></path>
<path stroke-miterlimit="10" stroke-width="0.827567" stroke="white" d="M168.556 102.405L166.521 111.988" opacity="0.8"></path>
<path stroke-miterlimit="10" stroke-width="0.827567" stroke="white" d="M165.73 118.638L171.383 126.773" opacity="0.8"></path>
<path stroke-miterlimit="10" stroke-width="0.827567" stroke="white" d="M167.877 117.119L173.306 125.245" opacity="0.8"></path>
<path stroke-miterlimit="10" stroke="white" d="M171.383 99.5411L178.491 98.9949" opacity="0.8"></path>
<path stroke-miterlimit="10" stroke-width="0.827567" stroke="white" d="M185.688 100.608L189.454 105.491" opacity="0.8"></path>
<path stroke-miterlimit="10" stroke="white" d="M121.196 91.1724L123.298 97.6191" opacity="0.8"></path>
<path stroke-miterlimit="10" stroke="white" d="M128.264 99.8143L137.401 99.2681" opacity="0.8"></path>
<path stroke-miterlimit="10" stroke="white" d="M128.57 112.856L129.919 117.739" opacity="0.8"></path>
<path stroke-miterlimit="10" stroke="white" d="M125.444 102.89L126.793 107.773" opacity="0.8"></path>
<path stroke-miterlimit="10" stroke="white" d="M111.281 107.196L120.89 102.264" opacity="0.8"></path>
<path stroke-miterlimit="10" stroke="white" d="M101.617 102.778L104.794 105.84" opacity="0.8"></path>
<path stroke-miterlimit="10" stroke="white" d="M99.9283 109.874L103.815 109.706" opacity="0.8"></path>
<path stroke-miterlimit="10" stroke="white" d="M87.1829 113.89L92.6862 111.259" opacity="0.8"></path>
<path stroke-miterlimit="10" stroke="white" d="M108.43 111.508L110.432 120.272" opacity="0.8"></path>
<circle fill="white" r="4.125" cy="73.7878" cx="156.276"></circle>
<circle fill="white" r="1.725" cy="67.9379" cx="146.783"></circle>
<circle fill="white" r="1.725" cy="105.545" cx="189.296"></circle>
<circle fill="white" r="1.725" cy="118.89" cx="130.294"></circle>
<circle fill="white" r="1.725" cy="121.372" cx="111.156"></circle>
<circle fill="white" r="1.725" cy="101.848" cx="100.438"></circle>
<circle fill="white" r="1.725" cy="114.478" cx="86.1689"></circle>
<circle fill="white" r="1.725" cy="90.2052" cx="120.89"></circle>
<circle fill="white" r="1.725" cy="89.4474" cx="135.094"></circle>
<circle fill="white" r="4.125" cy="88.3975" cx="156.388"></circle>
<circle fill="white" r="4.125" cy="99.8142" cx="140.933"></circle>
<circle fill="white" r="4.125" cy="100.489" cx="124.444"></circle>
<circle fill="white" r="4.125" cy="109.765" cx="127.423"></circle>
<circle fill="white" r="4.125" cy="108.24" cx="107.38"></circle>
<circle fill="white" r="4.125" cy="109.965" cx="95.853"></circle>
<circle fill="white" r="4.125" cy="116.49" cx="148.539"></circle>
<circle fill="white" r="4.125" cy="115.298" cx="164.638"></circle>
<circle fill="white" r="4.125" cy="98.7654" cx="169.181"></circle>
<circle fill="white" r="4.125" cy="98.7422" cx="182.616"></circle>
<circle fill="white" r="4.125" cy="127.899" cx="173.895"></circle>
<path fill="white" d="M19.4889 27.1084C17.8395 27.1084 17.0782 26.2384 17.0511 24.9606H17.9573C18.0026 25.8759 18.5645 26.2928 19.5342 26.2928H19.5795C20.4133 26.2928 20.8483 25.8397 20.8483 25.2959C20.8483 24.8156 20.5855 24.5165 19.933 24.3806L18.927 24.1631C17.8576 23.9365 17.3682 23.3746 17.3682 22.4412C17.3682 21.4533 18.193 20.5833 19.5795 20.5833C21.0114 20.5833 21.8271 21.408 21.8543 22.5952H20.948C20.9027 21.843 20.368 21.399 19.5886 21.399H19.5524C18.782 21.399 18.2745 21.8521 18.2745 22.423C18.2745 22.9215 18.5555 23.1752 19.1898 23.3021L20.1052 23.4924C21.1565 23.7099 21.7546 24.2537 21.7546 25.2415C21.7546 26.32 20.9118 27.1084 19.4889 27.1084ZM25.0861 27.1084C23.4548 27.1084 22.6029 25.8306 22.6029 23.8459C22.6029 21.8974 23.4458 20.5833 25.0861 20.5833C26.4455 20.5833 27.1343 21.4896 27.1977 22.6859H26.2915C26.2461 21.9518 25.8474 21.399 25.1133 21.399H25.0589C24.053 21.399 23.5092 22.3505 23.5092 23.8459C23.5092 25.3594 24.0439 26.2928 25.0589 26.2928H25.1133C25.8655 26.2928 26.228 25.7672 26.2915 25.0059H27.1977C27.1343 26.2112 26.4818 27.1084 25.0861 27.1084ZM29.1336 27.0178H28.2273V20.6739H29.1336V23.4381H31.5624V20.6739H32.4687V27.0178H31.5624V24.2537H29.1336V27.0178ZM37.9027 27.0178H33.7973V20.6739H37.8121V21.4896H34.7036V23.3474H37.3409V24.1631H34.7036V26.2022H37.9027V27.0178ZM41.2161 24.3443L42.2946 20.6739H43.4002V27.0178H42.5574V22.2055L41.6512 25.2868H40.7811L39.8749 22.2055V27.0178H39.0411V20.6739H40.1377L41.2161 24.3443ZM49.1878 27.0178H48.2543L47.7649 25.3865H45.5174L45.028 27.0178H44.1217L46.0974 20.6739H47.2393L49.1878 27.0178ZM46.6412 21.6165L45.7621 24.5709H47.5293L46.6412 21.6165ZM52.6552 23.5831H51.5133V22.4412H52.6552V23.5831ZM52.6552 27.0178H51.5133V25.8759H52.6552V27.0178Z"></path>
<path fill="white" d="M84.2387 185.334H83.3053L82.8159 183.702H80.5683L80.0789 185.334H79.1727L81.1483 178.99H82.2902L84.2387 185.334ZM81.6921 179.932L80.813 182.887H82.5802L81.6921 179.932ZM87.3074 185.424C85.6761 185.424 84.8242 184.147 84.8242 182.162C84.8242 180.213 85.6671 178.899 87.3074 178.899C88.6668 178.899 89.3556 179.806 89.419 181.002H88.5128C88.4674 180.268 88.0687 179.715 87.3346 179.715H87.2802C86.2743 179.715 85.7305 180.666 85.7305 182.162C85.7305 183.675 86.2652 184.609 87.2802 184.609H87.3346C88.0868 184.609 88.4493 184.083 88.5128 183.322H89.419C89.3556 184.527 88.7031 185.424 87.3074 185.424ZM94.3275 178.99V179.742H93.0224V184.582H94.3275V185.334H90.8111V184.582H92.1162V179.742H90.8111V178.99H94.3275ZM97.7134 185.334H95.9733V178.99H97.6862C99.245 178.99 100.342 180.132 100.342 182.171C100.342 184.21 99.2631 185.334 97.7134 185.334ZM96.8796 179.806V184.518H97.6409C98.7556 184.518 99.4353 183.784 99.4353 182.162C99.4353 180.54 98.7374 179.806 97.6409 179.806H96.8796ZM111.409 185.334H110.476L109.986 183.702H107.739L107.249 185.334H106.343L108.319 178.99H109.461L111.409 185.334ZM108.862 179.932L107.983 182.887H109.751L108.862 179.932ZM114.315 185.424C112.665 185.424 111.904 184.554 111.877 183.277H112.783C112.828 184.192 113.39 184.609 114.36 184.609H114.405C115.239 184.609 115.674 184.156 115.674 183.612C115.674 183.132 115.411 182.832 114.759 182.696L113.753 182.479C112.683 182.252 112.194 181.691 112.194 180.757C112.194 179.769 113.019 178.899 114.405 178.899C115.837 178.899 116.653 179.724 116.68 180.911H115.774C115.728 180.159 115.194 179.715 114.414 179.715H114.378C113.608 179.715 113.1 180.168 113.1 180.739C113.1 181.237 113.381 181.491 114.016 181.618L114.931 181.808C115.982 182.026 116.58 182.57 116.58 183.557C116.58 184.636 115.737 185.424 114.315 185.424ZM119.912 185.424C118.281 185.424 117.429 184.147 117.429 182.162C117.429 180.213 118.272 178.899 119.912 178.899C121.271 178.899 121.96 179.806 122.023 181.002H121.117C121.072 180.268 120.673 179.715 119.939 179.715H119.885C118.879 179.715 118.335 180.666 118.335 182.162C118.335 183.675 118.87 184.609 119.885 184.609H119.939C120.691 184.609 121.054 184.083 121.117 183.322H122.023C121.96 184.527 121.308 185.424 119.912 185.424ZM125.174 185.424C123.669 185.424 122.836 184.174 122.836 182.162C122.836 180.15 123.669 178.899 125.174 178.899C126.678 178.899 127.512 180.15 127.512 182.162C127.512 184.174 126.678 185.424 125.174 185.424ZM125.156 184.609H125.192C126.125 184.609 126.606 183.684 126.606 182.162C126.606 180.639 126.125 179.715 125.192 179.715H125.156C124.222 179.715 123.742 180.639 123.742 182.162C123.742 183.684 124.222 184.609 125.156 184.609ZM131.75 182.261H131.795C132.42 182.261 132.674 182.561 132.674 183.132V185.334H131.768V183.277C131.768 182.923 131.632 182.787 131.278 182.787H129.52V185.334H128.614V178.99H130.816C131.922 178.99 132.765 179.706 132.765 180.694C132.765 181.464 132.393 182.008 131.75 182.261ZM129.52 181.971H130.608C131.333 181.971 131.858 181.555 131.858 180.857C131.858 180.177 131.405 179.806 130.608 179.806H129.52V181.971ZM136.423 185.334H134.102V178.99H136.368C137.51 178.99 138.19 179.66 138.19 180.639C138.19 181.419 137.746 181.926 137.148 182.116C137.755 182.234 138.326 182.742 138.326 183.612C138.326 184.636 137.583 185.334 136.423 185.334ZM135.009 179.806V181.718H136.223C136.867 181.718 137.283 181.382 137.283 180.757C137.283 180.141 136.93 179.806 136.223 179.806H135.009ZM135.009 182.524V184.518H136.259C137.021 184.518 137.419 184.183 137.419 183.512C137.419 182.851 136.957 182.524 136.268 182.524H135.009ZM143.234 178.99V179.742H141.929V184.582H143.234V185.334H139.718V184.582H141.023V179.742H139.718V178.99H143.234ZM147.082 185.424C145.451 185.424 144.599 184.147 144.599 182.162C144.599 180.213 145.442 178.899 147.082 178.899C148.442 178.899 149.13 179.806 149.194 181.002H148.288C148.242 180.268 147.843 179.715 147.109 179.715H147.055C146.049 179.715 145.505 180.666 145.505 182.162C145.505 183.675 146.04 184.609 147.055 184.609H147.109C147.862 184.609 148.224 184.083 148.288 183.322H149.194C149.13 184.527 148.478 185.424 147.082 185.424ZM157.778 182.66L158.857 178.99H159.962V185.334H159.119V180.521L158.213 183.603H157.343L156.437 180.521V185.334H155.603V178.99H156.7L157.778 182.66ZM163.212 185.424C161.708 185.424 160.874 184.174 160.874 182.162C160.874 180.15 161.708 178.899 163.212 178.899C164.717 178.899 165.55 180.15 165.55 182.162C165.55 184.174 164.717 185.424 163.212 185.424ZM163.194 184.609H163.23C164.164 184.609 164.644 183.684 164.644 182.162C164.644 180.639 164.164 179.715 163.23 179.715H163.194C162.261 179.715 161.78 180.639 161.78 182.162C161.78 183.684 162.261 184.609 163.194 184.609ZM170.894 185.334H166.589V178.99H167.495V184.518H170.894V185.334ZM176.201 185.334H172.096V178.99H176.11V179.806H173.002V181.663H175.639V182.479H173.002V184.518H176.201V185.334ZM179.687 185.424C178.055 185.424 177.203 184.147 177.203 182.162C177.203 180.213 178.046 178.899 179.687 178.899C181.046 178.899 181.735 179.806 181.798 181.002H180.892C180.847 180.268 180.448 179.715 179.714 179.715H179.659C178.653 179.715 178.11 180.666 178.11 182.162C178.11 183.675 178.644 184.609 179.659 184.609H179.714C180.466 184.609 180.829 184.083 180.892 183.322H181.798C181.735 184.527 181.082 185.424 179.687 185.424ZM184.949 185.424C183.571 185.424 182.792 184.582 182.792 183.204V178.99H183.698V183.077C183.698 184.128 184.142 184.609 184.93 184.609H184.967C185.755 184.609 186.199 184.128 186.199 183.077V178.99H187.105V183.204C187.105 184.582 186.326 185.424 184.949 185.424ZM192.63 185.334H188.325V178.99H189.232V184.518H192.63V185.334ZM197.937 185.334H193.832V178.99H197.847V179.806H194.738V181.663H197.375V182.479H194.738V184.518H197.937V185.334Z"></path>
<path fill="white" d="M197.411 21.0408V17.772H198.023V22.0974H197.319L195.731 18.7792V22.0974H195.119V17.772H195.848L197.411 21.0408ZM201.722 22.0974H198.923V17.772H201.66V18.3282H199.541V19.5949H201.339V20.151H199.541V21.5413H201.722V22.0974ZM204.333 19.8606L205.68 22.0974H204.988L203.981 20.3796L202.949 22.0974H202.282L203.629 19.8853L202.362 17.772H203.048L203.987 19.3724L204.939 17.772H205.6L204.333 19.8606ZM207.995 22.0974H207.377V18.3282H206.148V17.772H209.225V18.3282H207.995V22.0974ZM215.214 22.1592C214.101 22.1592 213.521 21.2879 213.521 19.9347C213.521 18.6062 214.095 17.7102 215.214 17.7102C216.141 17.7102 216.61 18.3282 216.653 19.1438H216.036C216.005 18.6433 215.733 18.2664 215.232 18.2664H215.195C214.509 18.2664 214.139 18.9152 214.139 19.9347C214.139 20.9666 214.503 21.6031 215.195 21.6031H215.232C215.745 21.6031 215.992 21.2447 216.036 20.7257H216.653C216.61 21.5475 216.165 22.1592 215.214 22.1592ZM218.808 19.805L219.79 17.772H220.457L219.104 20.3796V22.0974H218.486V20.3796L217.145 17.772H217.825L218.808 19.805ZM222.624 22.1592C221.512 22.1592 220.931 21.2879 220.931 19.9347C220.931 18.6062 221.505 17.7102 222.624 17.7102C223.551 17.7102 224.02 18.3282 224.064 19.1438H223.446C223.415 18.6433 223.143 18.2664 222.642 18.2664H222.605C221.919 18.2664 221.549 18.9152 221.549 19.9347C221.549 20.9666 221.913 21.6031 222.605 21.6031H222.642C223.155 21.6031 223.402 21.2447 223.446 20.7257H224.064C224.02 21.5475 223.575 22.1592 222.624 22.1592ZM227.744 22.0974H224.809V17.772H225.427V21.5413H227.744V22.0974ZM231.362 22.0974H228.563V17.772H231.301V18.3282H229.181V19.5949H230.979V20.151H229.181V21.5413H231.362V22.0974ZM196.571 24.6917C197.597 24.6917 198.215 25.5197 198.215 26.9162C198.215 28.3127 197.609 29.1407 196.571 29.1407C195.533 29.1407 194.927 28.3127 194.927 26.9162C194.927 25.5197 195.545 24.6917 196.571 24.6917ZM196.602 25.2355H196.54C195.972 25.2355 195.533 25.7422 195.533 26.9162C195.533 27.1942 195.558 27.4291 195.601 27.6391L197.374 25.7236C197.189 25.3899 196.917 25.2355 196.602 25.2355ZM196.54 28.5969H196.602C197.17 28.5969 197.609 28.0902 197.609 26.9162C197.609 26.6752 197.591 26.4651 197.554 26.2797L195.805 28.1705C195.99 28.461 196.25 28.5969 196.54 28.5969ZM200.276 24.6917C201.302 24.6917 201.92 25.5197 201.92 26.9162C201.92 28.3127 201.314 29.1407 200.276 29.1407C199.238 29.1407 198.632 28.3127 198.632 26.9162C198.632 25.5197 199.25 24.6917 200.276 24.6917ZM200.307 25.2355H200.245C199.677 25.2355 199.238 25.7422 199.238 26.9162C199.238 27.1942 199.263 27.4291 199.306 27.6391L201.079 25.7236C200.894 25.3899 200.622 25.2355 200.307 25.2355ZM200.245 28.5969H200.307C200.876 28.5969 201.314 28.0902 201.314 26.9162C201.314 26.6752 201.296 26.4651 201.259 26.2797L199.51 28.1705C199.695 28.461 199.955 28.5969 200.245 28.5969ZM204.37 26.7555H203.592V25.977H204.37V26.7555ZM204.37 29.0974H203.592V28.3188H204.37V29.0974ZM208.378 27.219L207.013 28.5475H209.163V29.0974H206.253V28.5166L207.865 26.9347C208.366 26.4466 208.496 26.255 208.496 25.9337C208.496 25.5568 208.187 25.254 207.76 25.254H207.699C207.229 25.254 206.914 25.5691 206.901 26.0758H206.296C206.296 25.2478 206.889 24.7102 207.723 24.7102C208.545 24.7102 209.101 25.2169 209.101 25.9152C209.101 26.4589 208.836 26.7741 208.378 27.219ZM211.373 29.1592C210.508 29.1592 209.952 28.7143 209.908 27.9543H210.514C210.576 28.3621 210.872 28.6154 211.342 28.6154H211.404C211.916 28.6154 212.25 28.3188 212.25 27.8987C212.25 27.4599 211.886 27.2128 211.391 27.2128H211.107V26.6628H211.41C211.904 26.6628 212.225 26.3662 212.225 25.9584C212.225 25.5321 211.879 25.254 211.422 25.254H211.36C210.946 25.254 210.631 25.5259 210.594 25.9275H209.989C210.007 25.2231 210.594 24.7102 211.391 24.7102C212.238 24.7102 212.831 25.1922 212.831 25.9028C212.831 26.391 212.522 26.7802 212.096 26.9285C212.522 27.0521 212.862 27.4167 212.862 27.9357C212.862 28.739 212.188 29.1592 211.373 29.1592ZM215.486 26.7555H214.707V25.977H215.486V26.7555ZM215.486 29.0974H214.707V28.3188H215.486V29.0974ZM218.783 29.1592C217.918 29.1592 217.362 28.7143 217.318 27.9543H217.924C217.986 28.3621 218.282 28.6154 218.752 28.6154H218.814C219.327 28.6154 219.66 28.3188 219.66 27.8987C219.66 27.4599 219.296 27.2128 218.801 27.2128H218.517V26.6628H218.82C219.314 26.6628 219.636 26.3662 219.636 25.9584C219.636 25.5321 219.29 25.254 218.832 25.254H218.77C218.356 25.254 218.041 25.5259 218.004 25.9275H217.399C217.417 25.2231 218.004 24.7102 218.801 24.7102C219.648 24.7102 220.241 25.1922 220.241 25.9028C220.241 26.391 219.932 26.7802 219.506 26.9285C219.932 27.0521 220.272 27.4167 220.272 27.9357C220.272 28.739 219.598 29.1592 218.783 29.1592ZM223.538 24.772V27.5897H224.224V28.1273H223.538V29.0974H222.964V28.1273H220.838V27.5094L222.914 24.772H223.538ZM222.964 25.5444L221.425 27.5897H222.964V25.5444Z"></path>
<rect stroke-width="0.8" stroke-opacity="0.15" stroke="white" height="19.797" width="69.2299" y="13.3783" x="190.176"></rect>
<path fill="white" d="M249.505 27.8079C248.564 27.8079 247.78 27.4852 247.152 26.8398C246.524 26.1945 246.21 25.3912 246.21 24.43C246.21 23.7434 246.483 22.9968 247.028 22.1903C247.574 21.3834 248.4 20.5097 249.505 19.5691C250.61 20.5097 251.436 21.3834 251.982 22.1903C252.528 22.9968 252.801 23.7434 252.801 24.43C252.801 25.3912 252.486 26.1945 251.858 26.8398C251.23 27.4852 250.446 27.8079 249.505 27.8079ZM249.505 26.984C250.219 26.984 250.81 26.7421 251.276 26.2582C251.743 25.774 251.977 25.1646 251.977 24.43C251.977 23.9288 251.769 23.3624 251.354 22.7307C250.938 22.0991 250.322 21.4091 249.505 20.6607C248.688 21.4091 248.072 22.0991 247.657 22.7307C247.241 23.3624 247.033 23.9288 247.033 24.43C247.033 25.1646 247.267 25.774 247.734 26.2582C248.201 26.7421 248.791 26.984 249.505 26.984Z"></path>
<line stroke-width="0.8" stroke-opacity="0.15" stroke="white" y2="33.5753" x2="239.61" y1="12.9783" x1="239.61"></line>
</svg>
