<svg xmlns="http://www.w3.org/2000/svg" fill="none" viewBox="0 0 43 46" height="46" width="43">
<path fill="#0D0D0D" d="M20.3755 7.3551H21.1069C21.1069 7.44351 21.1069 7.5261 21.1069 7.60922C21.1069 10.9731 21.1048 14.337 21.108 17.7014C21.109 19.117 21.5339 20.3765 22.5296 21.4083C23.3102 22.2173 24.253 22.7086 25.375 22.8632C26.4663 23.014 27.8916 22.5879 28.706 21.916C28.6569 22.0262 28.6304 22.0934 28.5982 22.1575C27.6427 24.0438 26.1259 25.2646 24.1061 25.813C21.711 26.4637 19.466 26.0809 17.4588 24.5896C16.0324 23.5297 15.1287 22.1082 14.885 20.3368C14.579 18.1138 15.3025 16.228 16.9282 14.6933C17.8541 13.8187 18.9554 13.2586 20.1868 12.9557C20.3454 12.9166 20.3797 12.852 20.3797 12.7032C20.3755 11.0049 20.3771 9.30599 20.3771 7.60763C20.3771 7.52981 20.3771 7.45199 20.3771 7.35616L20.3755 7.3551Z"></path>
<path fill="#0D0D0D" d="M29.7024 32.4317H23.8938C23.9033 33.1258 24.4487 33.8209 25.1611 34.0274C25.4232 34.1031 25.7033 34.1481 25.9755 34.1513C27.0573 34.165 28.1391 34.1571 29.2209 34.1571C29.2923 34.1571 29.3636 34.1571 29.4487 34.1571V35.389C29.4054 35.3938 29.3557 35.4038 29.306 35.4044C27.9933 35.4044 26.6805 35.4113 25.3683 35.3996C24.8451 35.3948 24.334 35.2916 23.8536 35.0761C23.1248 34.749 22.6164 34.2053 22.3575 33.4498C21.9955 32.3941 21.9796 31.3258 22.3543 30.2717C22.776 29.0859 23.6428 28.3997 24.8646 28.1769C25.7181 28.0212 26.5716 28.0778 27.404 28.3277C28.6454 28.701 29.3531 29.5639 29.5713 30.8207C29.6617 31.3411 29.6601 31.8774 29.7024 32.4317ZM27.8976 31.3369C27.8976 31.1897 27.9018 31.059 27.8971 30.9287C27.8659 30.1156 27.3575 29.4458 26.5827 29.2807C26.2234 29.2039 25.8376 29.1938 25.4692 29.224C24.2637 29.322 23.8008 30.3517 23.9023 31.3374H27.8976V31.3369Z"></path>
<path fill="#0D0D0D" d="M37.4946 28.3149V29.5341H37.2499C36.0825 29.5341 34.9146 29.5277 33.7471 29.5394C33.5014 29.542 33.2504 29.5913 33.012 29.6574C32.7108 29.7411 32.5454 29.9672 32.5131 30.279C32.4793 30.6062 32.5797 30.8804 32.8662 31.0636C33.1415 31.2404 33.4549 31.2901 33.7725 31.297C34.2603 31.3076 34.7492 31.2896 35.2369 31.3044C35.8262 31.3224 36.4065 31.4008 36.9297 31.7036C37.4851 32.025 37.7621 32.5216 37.771 33.1542C37.7747 33.4337 37.7488 33.7254 37.6706 33.9917C37.4613 34.7038 36.9011 35.041 36.2289 35.1972C35.8215 35.292 35.3976 35.3502 34.9796 35.3571C33.6938 35.3777 32.4069 35.365 31.1206 35.365C31.0688 35.365 31.0175 35.3603 30.9525 35.3576V34.1474C31.0402 34.1474 31.1174 34.1474 31.1946 34.1474C32.3488 34.1474 33.5035 34.1543 34.6577 34.1421C34.9109 34.1394 35.1693 34.0929 35.414 34.0261C35.721 33.942 35.8997 33.7154 35.9324 33.3951C35.9668 33.0605 35.8695 32.7609 35.5588 32.6079C35.3342 32.4972 35.0768 32.4141 34.829 32.3987C34.1847 32.3596 33.5352 32.394 32.8931 32.34C32.4936 32.3061 32.0866 32.2071 31.7119 32.062C31.1227 31.8339 30.7665 31.3727 30.6893 30.7369C30.5836 29.865 30.7971 29.0703 31.7008 28.6653C32.037 28.5144 32.4148 28.3911 32.7784 28.3789C34.3132 28.3265 35.8489 28.3201 37.3847 28.2979C37.4164 28.2979 37.4487 28.3074 37.4962 28.3154L37.4946 28.3149Z"></path>
<path fill="#0D0D0D" d="M15.2547 35.396H13.6053C13.6016 35.3166 13.5953 35.2462 13.5953 35.1753C13.5974 33.9068 13.5747 32.6378 13.609 31.3699C13.6561 29.6297 14.5994 28.4348 16.4782 28.1669C17.3438 28.0436 18.1994 28.0758 19.0318 28.3649C20.1728 28.7609 20.8181 29.5831 21.0205 30.7579C21.0808 31.1067 21.0977 31.4662 21.1008 31.8214C21.1109 32.938 21.1045 34.0545 21.1045 35.171V35.3944H19.425C19.425 35.3134 19.425 35.2367 19.425 35.1599C19.425 33.9507 19.4335 32.7416 19.4187 31.5329C19.415 31.2476 19.3663 30.9521 19.2807 30.68C19.0397 29.9113 18.3749 29.4206 17.569 29.3787C16.9136 29.3449 16.3085 29.4656 15.8302 29.9621C15.4846 30.3206 15.3039 30.7642 15.2922 31.2476C15.2611 32.5414 15.2648 33.8359 15.2547 35.1303C15.2542 35.2144 15.2547 35.2986 15.2547 35.3966V35.396Z"></path>
<path fill="#0D0D0D" d="M22.0698 12.6944C22.5655 12.7547 23.0327 12.7796 23.4856 12.8728C24.9998 13.1846 26.3321 13.8554 27.4054 14.9867C27.6993 15.2964 27.9672 15.6363 28.2098 15.9884C28.7642 16.7936 28.548 17.7158 27.6776 18.1685C26.423 18.8202 25.2006 18.7085 24.0897 17.7412C23.2547 17.0144 22.788 16.0614 22.4768 15.0217C22.2569 14.2874 22.1391 13.5335 22.0698 12.6944Z"></path>
<path fill="#0D0D0D" d="M12.5035 29.5346C11.4899 29.5346 10.5011 29.5314 9.51173 29.5372C9.31514 29.5383 9.11484 29.552 8.92406 29.5949C8.16409 29.7654 7.66996 30.2318 7.44377 30.9777C7.26937 31.5543 7.2625 32.135 7.43901 32.7116C7.71435 33.611 8.42305 34.1457 9.36376 34.1547C10.3335 34.1637 11.3033 34.1574 12.2731 34.1574C12.3444 34.1574 12.4152 34.1574 12.4998 34.1574V35.3899C12.4522 35.3946 12.402 35.4047 12.3518 35.4047C11.1839 35.4047 10.0159 35.4142 8.84848 35.3994C8.2719 35.392 7.71171 35.2734 7.19115 35.0076C6.46237 34.636 5.99941 34.0383 5.77111 33.2643C5.49788 32.3389 5.49154 31.4034 5.76477 30.4753C6.10511 29.3196 6.89361 28.6436 8.0584 28.4127C8.44313 28.3365 8.84214 28.3074 9.23533 28.3016C10.2447 28.2862 11.2542 28.2963 12.2636 28.2973C12.3407 28.2973 12.4179 28.3058 12.503 28.3111V29.5351L12.5035 29.5346Z"></path>
</svg>
