<svg xmlns="http://www.w3.org/2000/svg" fill="none" viewBox="0 0 1042 679" height="679" width="1042">
<g clip-path="url(#clip0_12_4651)">
<path fill="#696969" d="M3.16223 6.182C4.59223 6.182 5.53823 7.194 5.53823 8.547C5.53823 10.054 4.43823 11.11 2.86523 11.11C1.40223 11.11 0.280227 10.296 0.148227 8.943H1.22623C1.35823 9.713 2.00723 10.142 2.83223 10.142H2.92023C3.82223 10.142 4.46023 9.515 4.46023 8.602C4.46023 7.711 3.84423 7.15 2.98623 7.15H2.89823C2.40323 7.15 1.79823 7.381 1.43523 7.865H0.423227L1.35823 3.3H5.46123V4.279H2.19423L1.67723 6.732C2.01823 6.391 2.59023 6.182 3.16223 6.182ZM10.1209 11H8.73493V9.614H10.1209V11ZM15.9906 11.11C14.4506 11.11 13.4606 10.318 13.3836 8.965H14.4616C14.5716 9.691 15.0996 10.142 15.9356 10.142H16.0456C16.9586 10.142 17.5526 9.614 17.5526 8.866C17.5526 8.085 16.9036 7.645 16.0236 7.645H15.5176V6.666H16.0566C16.9366 6.666 17.5086 6.138 17.5086 5.412C17.5086 4.653 16.8926 4.158 16.0786 4.158H15.9686C15.2316 4.158 14.6706 4.642 14.6046 5.357H13.5266C13.5596 4.103 14.6046 3.19 16.0236 3.19C17.5306 3.19 18.5866 4.048 18.5866 5.313C18.5866 6.182 18.0366 6.875 17.2776 7.139C18.0366 7.359 18.6416 8.008 18.6416 8.932C18.6416 10.362 17.4426 11.11 15.9906 11.11ZM29.215 7.755L30.524 3.3H31.866V11H30.843V5.159L29.743 8.899H28.687L27.587 5.159V11H26.575V3.3H27.906L29.215 7.755ZM41.5044 11H40.3714L43.3414 3.3H44.4414L41.5044 11ZM56.4559 3.3V10.021H58.6009V11H53.1779V10.021H55.4219V4.851L53.6399 6.556V5.225L55.6199 3.3H56.4559ZM59.5426 4.301V3.3H64.8556V4.334C63.0846 5.467 61.9846 7.326 61.9846 10.549V11H60.8736V10.494C60.8736 7.282 62.1276 5.291 63.6566 4.301H59.5426ZM69.4823 11H68.0963V9.614H69.4823V11ZM77.222 3.3V8.316H78.443V9.273H77.222V11H76.199V9.273H72.415V8.173L76.111 3.3H77.222ZM76.199 4.675L73.46 8.316H76.199V4.675ZM87.3884 11H86.2884V3.3H91.1394V4.29H87.3884V6.765H90.8094V7.755H87.3884V11ZM95.7221 11H94.6221V4.29H92.4331V3.3H97.9111V4.29H95.7221V11Z"></path>
<path fill="#696969" d="M4.36208 345.156L1.93108 347.521H5.75908V348.5H0.578078V347.466L3.44908 344.65C4.34008 343.781 4.57108 343.44 4.57108 342.868C4.57108 342.197 4.02108 341.658 3.26208 341.658H3.15208C2.31608 341.658 1.75508 342.219 1.73308 343.121H0.655078C0.655078 341.647 1.71108 340.69 3.19608 340.69C4.65908 340.69 5.64908 341.592 5.64908 342.835C5.64908 343.803 5.17608 344.364 4.36208 345.156ZM10.4188 348.5H9.03278V347.114H10.4188V348.5ZM16.6185 343.44C18.0265 343.44 19.1045 344.452 19.1045 345.948C19.1045 347.477 18.0485 348.61 16.4425 348.61C14.6165 348.61 13.5715 347.213 13.5715 344.87C13.5715 342.373 14.9575 340.69 16.8055 340.69C18.0925 340.69 19.0275 341.438 19.2365 342.692H18.1585C18.0375 342.098 17.5315 341.658 16.8055 341.658H16.7065C15.6285 341.658 14.6605 342.67 14.5285 344.65C14.8915 343.858 15.7385 343.44 16.6185 343.44ZM16.3875 347.642H16.4865C17.3775 347.642 18.0265 346.949 18.0265 346.025C18.0265 345.112 17.4105 344.408 16.4865 344.408H16.3875C15.4635 344.408 14.7815 345.09 14.7815 346.014C14.7815 346.949 15.4525 347.642 16.3875 347.642ZM29.5129 345.255L30.8219 340.8H32.1639V348.5H31.1409V342.659L30.0409 346.399H28.9849L27.8849 342.659V348.5H26.8729V340.8H28.2039L29.5129 345.255ZM41.8023 348.5H40.6693L43.6393 340.8H44.7393L41.8023 348.5ZM55.8957 348.61C54.4107 348.61 53.4977 347.719 53.4977 346.542C53.4977 345.596 54.1027 344.991 54.7957 344.749C54.0367 344.507 53.3437 343.792 53.3437 342.813C53.3437 341.636 54.3007 340.69 55.8957 340.69C57.4907 340.69 58.4477 341.636 58.4477 342.813C58.4477 343.792 57.7547 344.507 56.9957 344.749C57.6887 344.991 58.2937 345.596 58.2937 346.542C58.2937 347.719 57.3807 348.61 55.8957 348.61ZM55.8407 344.221H55.9507C56.7427 344.221 57.3697 343.671 57.3697 342.956C57.3697 342.197 56.7537 341.658 55.9507 341.658H55.8407C55.0377 341.658 54.4217 342.197 54.4217 342.956C54.4217 343.671 55.0487 344.221 55.8407 344.221ZM55.8407 347.642H55.9507C56.6657 347.642 57.2267 347.158 57.2267 346.443C57.2267 345.739 56.6657 345.222 55.9507 345.222H55.8407C55.1257 345.222 54.5647 345.739 54.5647 346.443C54.5647 347.158 55.1257 347.642 55.8407 347.642ZM61.9194 349.941H61.4684V349.325H61.8314C62.2934 349.325 62.5024 349.05 62.5024 348.643V348.5H61.7874V347.114H63.1734V348.698C63.1734 349.402 62.6784 349.941 61.9194 349.941ZM66.4361 341.801V340.8H71.7491V341.834C69.9781 342.967 68.8781 344.826 68.8781 348.049V348.5H67.7671V347.994C67.7671 344.782 69.0211 342.791 70.5501 341.801H66.4361ZM81.0905 348.5H79.9905V340.8H84.8415V341.79H81.0905V344.265H84.5115V345.255H81.0905V348.5ZM89.4242 348.5H88.3242V341.79H86.1352V340.8H91.6132V341.79H89.4242V348.5Z"></path>
<path stroke-opacity="0.1" stroke="#0D0D0D" d="M519 7.49996L115 7.5"></path>
<path stroke-opacity="0.1" stroke="#0D0D0D" d="M46 659L46 25"></path>
<path fill="#696969" d="M16.3 670.657C18.126 670.657 19.226 672.131 19.226 674.617C19.226 677.103 18.148 678.577 16.3 678.577C14.452 678.577 13.374 677.103 13.374 674.617C13.374 672.131 14.474 670.657 16.3 670.657ZM16.355 671.625H16.245C15.233 671.625 14.452 672.527 14.452 674.617C14.452 675.112 14.496 675.53 14.573 675.904L17.73 672.494C17.4 671.9 16.916 671.625 16.355 671.625ZM16.245 677.609H16.355C17.367 677.609 18.148 676.707 18.148 674.617C18.148 674.188 18.115 673.814 18.049 673.484L14.936 676.85C15.266 677.367 15.728 677.609 16.245 677.609ZM29.4914 675.255L30.8004 670.8H32.1424V678.5H31.1194V672.659L30.0194 676.399H28.9634L27.8634 672.659V678.5H26.8514V670.8H28.1824L29.4914 675.255ZM41.7808 678.5H40.6478L43.6178 670.8H44.7178L41.7808 678.5ZM55.8742 670.657C57.7002 670.657 58.8002 672.131 58.8002 674.617C58.8002 677.103 57.7222 678.577 55.8742 678.577C54.0262 678.577 52.9482 677.103 52.9482 674.617C52.9482 672.131 54.0482 670.657 55.8742 670.657ZM55.9292 671.625H55.8192C54.8072 671.625 54.0262 672.527 54.0262 674.617C54.0262 675.112 54.0702 675.53 54.1472 675.904L57.3042 672.494C56.9742 671.9 56.4902 671.625 55.9292 671.625ZM55.8192 677.609H55.9292C56.9412 677.609 57.7222 676.707 57.7222 674.617C57.7222 674.188 57.6892 673.814 57.6232 673.484L54.5102 676.85C54.8402 677.367 55.3022 677.609 55.8192 677.609ZM67.8776 678.5H66.7776V670.8H71.6286V671.79H67.8776V674.265H71.2986V675.255H67.8776V678.5ZM76.2113 678.5H75.1113V671.79H72.9223V670.8H78.4003V671.79H76.2113V678.5Z"></path>
</g>
<defs>
<clipPath id="clip0_12_4651">
<rect fill="white" height="679" width="1042"></rect>
</clipPath>
</defs>
</svg>
