<svg xmlns="http://www.w3.org/2000/svg" fill="none" viewBox="0 0 277 113" height="113" width="277">
<path fill="white" d="M197.851 28.5078V25.2391H198.463V29.5645H197.758L196.17 26.2463V29.5645H195.558V25.2391H196.288L197.851 28.5078ZM202.161 29.5645H199.362V25.2391H202.1V25.7952H199.98V27.0619H201.778V27.618H199.98V29.0083H202.161V29.5645ZM204.773 27.3276L206.12 29.5645H205.428L204.421 27.8467L203.389 29.5645H202.721L204.068 27.3523L202.802 25.2391H203.488L204.427 26.8395L205.378 25.2391H206.039L204.773 27.3276ZM208.435 29.5645H207.817V25.7952H206.587V25.2391H209.664V25.7952H208.435V29.5645ZM215.653 29.6262C214.541 29.6262 213.96 28.755 213.96 27.4018C213.96 26.0733 214.535 25.1773 215.653 25.1773C216.58 25.1773 217.05 25.7952 217.093 26.6108H216.475C216.444 26.1103 216.172 25.7334 215.672 25.7334H215.635C214.949 25.7334 214.578 26.3822 214.578 27.4018C214.578 28.4337 214.943 29.0701 215.635 29.0701H215.672C216.185 29.0701 216.432 28.7117 216.475 28.1927H217.093C217.05 29.0145 216.605 29.6262 215.653 29.6262ZM219.247 27.272L220.229 25.2391H220.897L219.544 27.8467V29.5645H218.926V27.8467L217.585 25.2391H218.264L219.247 27.272ZM223.063 29.6262C221.951 29.6262 221.37 28.755 221.37 27.4018C221.37 26.0733 221.945 25.1773 223.063 25.1773C223.99 25.1773 224.46 25.7952 224.503 26.6108H223.885C223.854 26.1103 223.582 25.7334 223.082 25.7334H223.045C222.359 25.7334 221.988 26.3822 221.988 27.4018C221.988 28.4337 222.353 29.0701 223.045 29.0701H223.082C223.595 29.0701 223.842 28.7117 223.885 28.1927H224.503C224.46 29.0145 224.015 29.6262 223.063 29.6262ZM228.183 29.5645H225.248V25.2391H225.866V29.0083H228.183V29.5645ZM231.802 29.5645H229.003V25.2391H231.74V25.7952H229.621V27.0619H231.419V27.618H229.621V29.0083H231.802V29.5645ZM197.01 32.1588C198.036 32.1588 198.654 32.9868 198.654 34.3832C198.654 35.7797 198.049 36.6077 197.01 36.6077C195.972 36.6077 195.367 35.7797 195.367 34.3832C195.367 32.9868 195.985 32.1588 197.01 32.1588ZM197.041 32.7025H196.98C196.411 32.7025 195.972 33.2092 195.972 34.3832C195.972 34.6613 195.997 34.8961 196.04 35.1062L197.814 33.1907C197.628 32.857 197.356 32.7025 197.041 32.7025ZM196.98 36.0639H197.041C197.61 36.0639 198.049 35.5573 198.049 34.3832C198.049 34.1422 198.03 33.9322 197.993 33.7468L196.244 35.6376C196.43 35.928 196.689 36.0639 196.98 36.0639ZM201.197 32.2391V36.0145H202.402V36.5645H199.356V36.0145H200.617V33.1103L199.616 34.0681V33.3204L200.728 32.2391H201.197ZM204.81 34.2226H204.031V33.444H204.81V34.2226ZM204.81 36.5645H204.031V35.7859H204.81V36.5645ZM208.126 32.1588C209.151 32.1588 209.769 32.9868 209.769 34.3832C209.769 35.7797 209.164 36.6077 208.126 36.6077C207.088 36.6077 206.482 35.7797 206.482 34.3832C206.482 32.9868 207.1 32.1588 208.126 32.1588ZM208.157 32.7025H208.095C207.526 32.7025 207.088 33.2092 207.088 34.3832C207.088 34.6613 207.112 34.8961 207.155 35.1062L208.929 33.1907C208.744 32.857 208.472 32.7025 208.157 32.7025ZM208.095 36.0639H208.157C208.725 36.0639 209.164 35.5573 209.164 34.3832C209.164 34.1422 209.145 33.9322 209.108 33.7468L207.359 35.6376C207.545 35.928 207.804 36.0639 208.095 36.0639ZM212.016 33.858C212.819 33.858 213.351 34.4265 213.351 35.1865C213.351 36.0331 212.733 36.6262 211.849 36.6262C211.027 36.6262 210.397 36.169 210.323 35.409H210.929C211.003 35.8415 211.367 36.0825 211.831 36.0825H211.88C212.387 36.0825 212.745 35.7303 212.745 35.2174C212.745 34.7169 212.399 34.4018 211.917 34.4018H211.868C211.59 34.4018 211.25 34.5315 211.046 34.8034H210.477L211.003 32.2391H213.307V32.789H211.472L211.182 34.167C211.373 33.9754 211.695 33.858 212.016 33.858ZM215.925 34.2226H215.146V33.444H215.925V34.2226ZM215.925 36.5645H215.146V35.7859H215.925V36.5645ZM219.723 32.2391V36.0145H220.928V36.5645H217.881V36.0145H219.142V33.1103L218.141 34.0681V33.3204L219.253 32.2391H219.723ZM223.638 34.686L222.272 36.0145H224.423V36.5645H221.512V35.9836L223.125 34.4018C223.626 33.9136 223.755 33.7221 223.755 33.4008C223.755 33.0238 223.446 32.721 223.02 32.721H222.958C222.489 32.721 222.173 33.0362 222.161 33.5429H221.556C221.556 32.7149 222.149 32.1773 222.983 32.1773C223.805 32.1773 224.361 32.684 224.361 33.3822C224.361 33.926 224.095 34.2411 223.638 34.686Z"></path>
<rect stroke-width="0.61791" stroke-opacity="0.15" stroke="white" height="19.9791" width="69.4119" y="20.7543" x="190.624"></rect>
<path fill="white" d="M250.046 35.2749C249.106 35.2749 248.321 34.9523 247.693 34.3069C247.065 33.6615 246.751 32.8582 246.751 31.897C246.751 31.2105 247.024 30.4639 247.57 29.6573C248.115 28.8505 248.941 27.9767 250.046 27.0361C251.152 27.9767 251.977 28.8505 252.523 29.6573C253.069 30.4639 253.342 31.2105 253.342 31.897C253.342 32.8582 253.028 33.6615 252.399 34.3069C251.771 34.9523 250.987 35.2749 250.046 35.2749ZM250.046 34.4511C250.76 34.4511 251.351 34.2091 251.818 33.7252C252.284 33.2411 252.518 32.6317 252.518 31.897C252.518 31.3958 252.31 30.8294 251.895 30.1978C251.48 29.5661 250.863 28.8761 250.046 28.1278C249.229 28.8761 248.613 29.5661 248.198 30.1978C247.782 30.8294 247.575 31.3958 247.575 31.897C247.575 32.6317 247.808 33.2411 248.275 33.7252C248.742 34.2091 249.332 34.4511 250.046 34.4511Z"></path>
<line stroke-width="0.61791" stroke-opacity="0.15" stroke="white" y2="41.0423" x2="240.057" y1="20.4453" x1="240.057"></line>
<path fill="white" d="M20.4719 28.6211H19.5656V23.0929H17.7621V22.2772H22.2753V23.0929H20.4719V28.6211ZM27.5735 28.6211H23.4681V22.2772H27.4828V23.0929H24.3743V24.9507H27.0116V25.7663H24.3743V27.8055H27.5735V28.6211ZM30.8869 25.9476L31.9653 22.2772H33.071V28.6211H32.2282V23.8088L31.3219 26.8901H30.4519L29.5456 23.8088V28.6211H28.7118V22.2772H29.8084L30.8869 25.9476ZM35.2516 28.6211H34.3453V22.2772H36.5928C37.7529 22.2772 38.5776 22.966 38.5776 24.2076C38.5776 25.4492 37.7257 26.1289 36.5838 26.1289H35.2516V28.6211ZM35.2516 23.0929V25.3132H36.4569C37.2272 25.3132 37.6713 24.9235 37.6713 24.2076C37.6713 23.4916 37.2453 23.0929 36.4569 23.0929H35.2516ZM43.8757 28.6211H39.7703V22.2772H43.7851V23.0929H40.6766V24.9507H43.3138V25.7663H40.6766V27.8055H43.8757V28.6211ZM48.331 25.5488H48.3763C49.0016 25.5488 49.2554 25.8479 49.2554 26.4189V28.6211H48.3491V26.5639C48.3491 26.2104 48.2132 26.0745 47.8597 26.0745H46.1016V28.6211H45.1953V22.2772H47.3975C48.5032 22.2772 49.346 22.9932 49.346 23.981C49.346 24.7513 48.9744 25.2951 48.331 25.5488ZM46.1016 25.2588H47.1891C47.9141 25.2588 48.4397 24.842 48.4397 24.1441C48.4397 23.4644 47.9866 23.0929 47.1891 23.0929H46.1016V25.2588ZM55.1607 28.6211H54.2273L53.7379 26.9898H51.4903L51.0009 28.6211H50.0947L52.0703 22.2772H53.2122L55.1607 28.6211ZM52.6141 23.2197L51.735 26.1742H53.5022L52.6141 23.2197ZM58.5104 28.6211H57.6041V23.0929H55.8006V22.2772H60.3138V23.0929H58.5104V28.6211ZM63.4913 28.7117C62.1138 28.7117 61.3344 27.8689 61.3344 26.4914V22.2772H62.2407V26.3645C62.2407 27.4158 62.6847 27.8961 63.4732 27.8961H63.5094C64.2979 27.8961 64.742 27.4158 64.742 26.3645V22.2772H65.6482V26.4914C65.6482 27.8689 64.8688 28.7117 63.4913 28.7117ZM70.0673 25.5488H70.1126C70.7379 25.5488 70.9917 25.8479 70.9917 26.4189V28.6211H70.0854V26.5639C70.0854 26.2104 69.9495 26.0745 69.596 26.0745H67.8379V28.6211H66.9316V22.2772H69.1338C70.2395 22.2772 71.0823 22.9932 71.0823 23.981C71.0823 24.7513 70.7107 25.2951 70.0673 25.5488ZM67.8379 25.2588H68.9254C69.6504 25.2588 70.176 24.842 70.176 24.1441C70.176 23.4644 69.7229 23.0929 68.9254 23.0929H67.8379V25.2588ZM76.4801 28.6211H72.3747V22.2772H76.3895V23.0929H73.281V24.9507H75.9182V25.7663H73.281V27.8055H76.4801V28.6211ZM80.3645 25.1863H79.2226V24.0444H80.3645V25.1863ZM80.3645 28.6211H79.2226V27.4792H80.3645V28.6211ZM90.6617 28.7117C89.4382 28.7117 88.686 27.9776 88.686 27.0079C88.686 26.2285 89.1845 25.7301 89.7554 25.5307C89.1301 25.3313 88.5591 24.7423 88.5591 23.9357C88.5591 22.966 89.3476 22.1866 90.6617 22.1866C91.9758 22.1866 92.7642 22.966 92.7642 23.9357C92.7642 24.7423 92.1933 25.3313 91.5679 25.5307C92.1389 25.7301 92.6373 26.2285 92.6373 27.0079C92.6373 27.9776 91.8851 28.7117 90.6617 28.7117ZM90.6164 25.0957H90.707C91.3595 25.0957 91.8761 24.6426 91.8761 24.0535C91.8761 23.4282 91.3686 22.9841 90.707 22.9841H90.6164C89.9548 22.9841 89.4473 23.4282 89.4473 24.0535C89.4473 24.6426 89.9638 25.0957 90.6164 25.0957ZM90.6164 27.9142H90.707C91.2961 27.9142 91.7583 27.5154 91.7583 26.9264C91.7583 26.3464 91.2961 25.9204 90.707 25.9204H90.6164C90.0273 25.9204 89.5651 26.3464 89.5651 26.9264C89.5651 27.5154 90.0273 27.9142 90.6164 27.9142ZM96.0957 22.1594C97.6002 22.1594 98.5064 23.3738 98.5064 25.422C98.5064 27.4701 97.6183 28.6845 96.0957 28.6845C94.5732 28.6845 93.6851 27.4701 93.6851 25.422C93.6851 23.3738 94.5913 22.1594 96.0957 22.1594ZM96.1411 22.9569H96.0504C95.2167 22.9569 94.5732 23.7001 94.5732 25.422C94.5732 25.8298 94.6095 26.1742 94.6729 26.4823L97.2739 23.6729C97.002 23.1835 96.6033 22.9569 96.1411 22.9569ZM96.0504 27.887H96.1411C96.9748 27.887 97.6183 27.1439 97.6183 25.422C97.6183 25.0685 97.5911 24.7604 97.5367 24.4885L94.972 27.2617C95.2439 27.6876 95.6245 27.887 96.0504 27.887ZM101.53 25.5398C100.569 25.5398 99.8532 24.8148 99.8532 23.8632C99.8532 22.9116 100.569 22.1866 101.53 22.1866C102.49 22.1866 103.206 22.9116 103.206 23.8632C103.206 24.8148 102.49 25.5398 101.53 25.5398ZM101.53 24.8057C102.028 24.8057 102.427 24.3888 102.427 23.8632C102.427 23.3466 102.028 22.9388 101.53 22.9388C101.031 22.9388 100.633 23.3466 100.633 23.8632C100.633 24.3888 101.031 24.8057 101.53 24.8057ZM105.985 28.6211H105.079V22.2772H109.075V23.0929H105.985V25.132H108.804V25.9476H105.985V28.6211ZM117.089 28.6211H116.155L118.602 22.2772H119.509L117.089 28.6211ZM129.715 25.866L127.712 27.8145H130.866V28.6211H126.598V27.7692L128.963 25.4492C129.697 24.7332 129.887 24.4523 129.887 23.981C129.887 23.4282 129.434 22.9841 128.809 22.9841H128.718C128.03 22.9841 127.567 23.4463 127.549 24.1894H126.661C126.661 22.975 127.531 22.1866 128.755 22.1866C129.96 22.1866 130.776 22.9297 130.776 23.9538C130.776 24.7513 130.386 25.2135 129.715 25.866ZM131.95 23.1019V22.2772H136.327V23.1291C134.868 24.0626 133.962 25.5942 133.962 28.2495V28.6211H133.047V28.2042C133.047 25.5579 134.08 23.9176 135.34 23.1019H131.95ZM139.568 25.5398C138.608 25.5398 137.892 24.8148 137.892 23.8632C137.892 22.9116 138.608 22.1866 139.568 22.1866C140.529 22.1866 141.245 22.9116 141.245 23.8632C141.245 24.8148 140.529 25.5398 139.568 25.5398ZM139.568 24.8057C140.067 24.8057 140.466 24.3888 140.466 23.8632C140.466 23.3466 140.067 22.9388 139.568 22.9388C139.07 22.9388 138.671 23.3466 138.671 23.8632C138.671 24.3888 139.07 24.8057 139.568 24.8057ZM145.175 28.7117C143.543 28.7117 142.691 27.4339 142.691 25.4492C142.691 23.5007 143.534 22.1866 145.175 22.1866C146.534 22.1866 147.223 23.0929 147.286 24.2891H146.38C146.335 23.5551 145.936 23.0022 145.202 23.0022H145.147C144.141 23.0022 143.598 23.9538 143.598 25.4492C143.598 26.9626 144.132 27.8961 145.147 27.8961H145.202C145.954 27.8961 146.316 27.3704 146.38 26.6092H147.286C147.223 27.8145 146.57 28.7117 145.175 28.7117ZM21.1606 38.5488H21.2059C21.8313 38.5488 22.085 38.8479 22.085 39.4189V41.6211H21.1788V39.5639C21.1788 39.2104 21.0428 39.0745 20.6894 39.0745H18.9312V41.6211H18.0249V35.2772H20.2272C21.3328 35.2772 22.1757 35.9932 22.1757 36.981C22.1757 37.7513 21.8041 38.2951 21.1606 38.5488ZM18.9312 38.2588H20.0187C20.7437 38.2588 21.2694 37.842 21.2694 37.1441C21.2694 36.4644 20.8162 36.0929 20.0187 36.0929H18.9312V38.2588ZM27.5735 41.6211H23.4681V35.2772H27.4828V36.0929H24.3743V37.9507H27.0116V38.7663H24.3743V40.8055H27.5735V41.6211ZM33.1344 41.6211H28.8296V35.2772H29.7359V40.8055H33.1344V41.6211ZM38.8585 41.6211H37.925L37.4357 39.9898H35.1881L34.6987 41.6211H33.7925L35.7681 35.2772H36.91L38.8585 41.6211ZM36.3119 36.2197L35.4328 39.1742H37.2L36.3119 36.2197ZM42.2082 41.6211H41.3019V36.0929H39.4984V35.2772H44.0116V36.0929H42.2082V41.6211ZM48.9473 35.2772V36.0294H47.6422V40.8689H48.9473V41.6211H45.4309V40.8689H46.736V36.0294H45.4309V35.2772H48.9473ZM52.6413 40.5789L54.1185 35.2772H55.0973L53.2213 41.6211H52.0432L50.1581 35.2772H51.1369L52.6413 40.5789ZM60.1779 41.6211H56.0725V35.2772H60.0873V36.0929H56.9788V37.9507H59.616V38.7663H56.9788V40.8055H60.1779V41.6211ZM67.711 41.6211H66.8047V35.2772H67.711V38.0413H70.1398V35.2772H71.046V41.6211H70.1398V38.857H67.711V41.6211ZM74.3595 41.7117C72.9819 41.7117 72.2025 40.8689 72.2025 39.4914V35.2772H73.1088V39.3645C73.1088 40.4158 73.5529 40.8961 74.3413 40.8961H74.3776C75.166 40.8961 75.6101 40.4158 75.6101 39.3645V35.2772H76.5164V39.4914C76.5164 40.8689 75.737 41.7117 74.3595 41.7117ZM79.7935 38.9476L80.872 35.2772H81.9776V41.6211H81.1348V36.8088L80.2285 39.8901H79.3585L78.4522 36.8088V41.6211H77.6185V35.2772H78.7151L79.7935 38.9476ZM86.9858 35.2772V36.0294H85.6807V40.8689H86.9858V41.6211H83.4694V40.8689H84.7745V36.0294H83.4694V35.2772H86.9858ZM90.3717 41.6211H88.6316V35.2772H90.3445C91.9033 35.2772 92.9998 36.4191 92.9998 38.4582C92.9998 40.4973 91.9214 41.6211 90.3717 41.6211ZM89.5379 36.0929V40.8055H90.2992C91.4139 40.8055 92.0936 40.0714 92.0936 38.4492C92.0936 36.8269 91.3957 36.0929 90.2992 36.0929H89.5379ZM97.8539 35.2772V36.0294H96.5489V40.8689H97.8539V41.6211H94.3376V40.8689H95.6426V36.0294H94.3376V35.2772H97.8539ZM101.983 41.6211H101.077V36.0929H99.2732V35.2772H103.786V36.0929H101.983V41.6211ZM106.973 38.2588L108.414 35.2772H109.393L107.408 39.1017V41.6211H106.502V39.1017L104.535 35.2772H105.532L106.973 38.2588ZM112.969 38.1863H111.827V37.0444H112.969V38.1863ZM112.969 41.6211H111.827V40.4792H112.969V41.6211ZM118.077 37.4523C119.237 37.4523 120.125 38.286 120.125 39.5186C120.125 40.7783 119.255 41.7117 117.932 41.7117C116.427 41.7117 115.566 40.5608 115.566 38.6304C115.566 36.5732 116.708 35.1866 118.231 35.1866C119.291 35.1866 120.061 35.8028 120.234 36.836H119.345C119.246 36.3466 118.829 35.9841 118.231 35.9841H118.149C117.261 35.9841 116.464 36.8179 116.355 38.4492C116.654 37.7966 117.352 37.4523 118.077 37.4523ZM117.886 40.9142H117.968C118.702 40.9142 119.237 40.3433 119.237 39.582C119.237 38.8298 118.729 38.2498 117.968 38.2498H117.886C117.125 38.2498 116.563 38.8117 116.563 39.5729C116.563 40.3433 117.116 40.9142 117.886 40.9142ZM124.281 38.866L122.278 40.8145H125.432V41.6211H121.164V40.7692L123.529 38.4492C124.263 37.7332 124.453 37.4523 124.453 36.981C124.453 36.4282 124 35.9841 123.375 35.9841H123.284C122.595 35.9841 122.133 36.4463 122.115 37.1894H121.227C121.227 35.975 122.097 35.1866 123.32 35.1866C124.526 35.1866 125.341 35.9297 125.341 36.9538C125.341 37.7513 124.952 38.2135 124.281 38.866ZM127.295 37.996C126.507 37.996 126.126 37.3616 126.126 36.6185C126.126 35.8754 126.507 35.241 127.295 35.241C128.093 35.241 128.474 35.8754 128.474 36.6185C128.474 37.3616 128.093 37.996 127.295 37.996ZM127.16 41.6211H126.425L130.232 35.2772H130.966L127.16 41.6211ZM127.286 37.4432H127.314C127.649 37.4432 127.821 37.0807 127.821 36.6185C127.821 36.1472 127.649 35.8028 127.314 35.8028H127.286C126.951 35.8028 126.779 36.1472 126.779 36.6185C126.779 37.0807 126.951 37.4432 127.286 37.4432ZM130.087 41.6573C129.298 41.6573 128.918 41.023 128.918 40.2798C128.918 39.5367 129.298 38.9023 130.087 38.9023C130.884 38.9023 131.265 39.5367 131.265 40.2798C131.265 41.023 130.884 41.6573 130.087 41.6573ZM130.078 41.1045H130.105C130.44 41.1045 130.612 40.742 130.612 40.2798C130.612 39.8086 130.44 39.4642 130.105 39.4642H130.078C129.742 39.4642 129.57 39.8086 129.57 40.2798C129.57 40.742 129.742 41.1045 130.078 41.1045Z"></path>
<path fill="white" d="M23.6076 99.6841C20.0484 99.6841 18.1897 96.896 18.1897 92.5657C18.1897 88.3145 20.0286 85.4474 23.6076 85.4474C26.5735 85.4474 28.0763 87.4247 28.2147 90.0348H26.2374C26.1385 88.4331 25.2685 87.227 23.6669 87.227H23.5482C21.3534 87.227 20.167 89.3032 20.167 92.5657C20.167 95.8678 21.3336 97.9045 23.5482 97.9045H23.6669C25.308 97.9045 26.099 96.7576 26.2374 95.0967H28.2147C28.0763 97.7265 26.6526 99.6841 23.6076 99.6841ZM34.6926 99.6841C31.4102 99.6841 29.5911 96.9554 29.5911 92.5657C29.5911 88.1761 31.4102 85.4474 34.6926 85.4474C37.9749 85.4474 39.794 88.1761 39.794 92.5657C39.794 96.9554 37.9749 99.6841 34.6926 99.6841ZM34.653 97.9045H34.7321C36.7687 97.9045 37.8167 95.8876 37.8167 92.5657C37.8167 89.2438 36.7687 87.227 34.7321 87.227H34.653C32.6164 87.227 31.5684 89.2438 31.5684 92.5657C31.5684 95.8876 32.6164 97.9045 34.653 97.9045ZM48.3678 93.4753L43.998 97.7265H50.879V99.4863H41.5659V97.6277L46.7267 92.5657C48.3283 91.0037 48.7435 90.3907 48.7435 89.3625C48.7435 88.1563 47.7549 87.1874 46.3905 87.1874H46.1928C44.69 87.1874 43.6816 88.1959 43.6421 89.8173H41.7043C41.7043 87.1677 43.6025 85.4474 46.2719 85.4474C48.9017 85.4474 50.6813 87.0688 50.6813 89.3032C50.6813 91.0432 49.8311 92.0516 48.3678 93.4753ZM58.8597 91.9923H56.3682V89.5009H58.8597V91.9923ZM58.8597 99.4863H56.3682V96.9949H58.8597V99.4863ZM81.0692 90.3907C83.6002 90.3907 85.5379 92.2098 85.5379 94.899C85.5379 97.6474 83.6397 99.6841 80.7528 99.6841C77.4705 99.6841 75.5921 97.1729 75.5921 92.9612C75.5921 88.4727 78.0835 85.4474 81.4054 85.4474C83.7188 85.4474 85.3995 86.792 85.7752 89.0461H83.8374C83.6199 87.9784 82.7104 87.1874 81.4054 87.1874H81.2274C79.2896 87.1874 77.5496 89.0066 77.3123 92.5657C77.9648 91.1421 79.4874 90.3907 81.0692 90.3907ZM80.654 97.944H80.8319C82.4336 97.944 83.6002 96.6983 83.6002 95.0374C83.6002 93.3962 82.4929 92.1307 80.8319 92.1307H80.654C78.993 92.1307 77.7671 93.3567 77.7671 95.0176C77.7671 96.6983 78.9733 97.944 80.654 97.944ZM91.996 85.3881C95.2784 85.3881 97.2557 88.0377 97.2557 92.5064C97.2557 96.9751 95.3179 99.6247 91.996 99.6247C88.6741 99.6247 86.7364 96.9751 86.7364 92.5064C86.7364 88.0377 88.7137 85.3881 91.996 85.3881ZM92.0949 87.1281H91.8972C90.078 87.1281 88.6741 88.7495 88.6741 92.5064C88.6741 93.3962 88.7532 94.1476 88.8916 94.8199L94.5665 88.6902C93.9733 87.6224 93.1033 87.1281 92.0949 87.1281ZM91.8972 97.8847H92.0949C93.914 97.8847 95.3179 96.2633 95.3179 92.5064C95.3179 91.7353 95.2586 91.063 95.14 90.4698L89.5442 96.5204C90.1374 97.4497 90.9678 97.8847 91.8972 97.8847ZM104.05 90.8257C106.62 90.8257 108.321 92.6448 108.321 95.0769C108.321 97.7858 106.344 99.6841 103.516 99.6841C100.886 99.6841 98.8694 98.2208 98.6321 95.7888H100.57C100.807 97.1729 101.974 97.944 103.457 97.944H103.615C105.236 97.944 106.383 96.817 106.383 95.1758C106.383 93.5742 105.276 92.5657 103.734 92.5657H103.575C102.686 92.5657 101.598 92.981 100.946 93.851H99.1264L100.807 85.6451H108.183V87.4049H102.31L101.381 91.8144C101.994 91.2014 103.022 90.8257 104.05 90.8257ZM112.584 99.4863H110.607V85.6451H115.511C118.042 85.6451 119.841 87.1479 119.841 89.8568C119.841 92.5657 117.982 94.0487 115.491 94.0487H112.584V99.4863ZM112.584 87.4247V92.2691H115.214C116.895 92.2691 117.864 91.4189 117.864 89.8568C117.864 88.2947 116.934 87.4247 115.214 87.4247H112.584ZM124.045 99.4863H122.068V85.6451H126.971C129.502 85.6451 131.302 87.1479 131.302 89.8568C131.302 92.5657 129.443 94.0487 126.952 94.0487H124.045V99.4863ZM124.045 87.4247V92.2691H126.675C128.355 92.2691 129.324 91.4189 129.324 89.8568C129.324 88.2947 128.395 87.4247 126.675 87.4247H124.045ZM137.839 93.6533L140.192 85.6451H142.604V99.4863H140.765V88.9868L138.788 95.7097H136.89L134.912 88.9868V99.4863H133.093V85.6451H135.486L137.839 93.6533Z"></path>
</svg>
