<svg xmlns="http://www.w3.org/2000/svg" fill="none" viewBox="0 0 217 264" height="264" width="217">
<g filter="url(#filter0_b_3449_10091)">
<rect stroke-opacity="0.1" stroke="#0D0D0D" height="262.609" width="216" y="0.5" x="0.5"></rect>
</g>
<circle fill="#0D0D0D" r="2" cy="14" cx="14"></circle>
<path fill="#0D0D0D" d="M25.48 16H24.862L24.538 14.92H23.05L22.726 16H22.126L23.434 11.8H24.19L25.48 16ZM23.794 12.424L23.212 14.38H24.382L23.794 12.424ZM28.2137 14.974V11.8H28.8077V16H28.1237L26.5817 12.778V16H25.9877V11.8H26.6957L28.2137 14.974ZM32.6753 16H32.0573L31.7333 14.92H30.2453L29.9213 16H29.3213L30.6293 11.8H31.3853L32.6753 16ZM30.9893 12.424L30.4073 14.38H31.5773L30.9893 12.424ZM36.081 16H33.231V11.8H33.831V15.46H36.081V16ZM38.1966 13.774L39.1506 11.8H39.7986L38.4846 14.332V16H37.8846V14.332L36.5826 11.8H37.2426L38.1966 13.774ZM42.0883 16H41.4883V12.34H40.2943V11.8H43.2823V12.34H42.0883V16ZM46.5499 11.8V12.298H45.6859V15.502H46.5499V16H44.2219V15.502H45.0859V12.298H44.2219V11.8H46.5499ZM49.0976 16.06C48.0176 16.06 47.4536 15.214 47.4536 13.9C47.4536 12.61 48.0116 11.74 49.0976 11.74C49.9976 11.74 50.4536 12.34 50.4956 13.132H49.8956C49.8656 12.646 49.6016 12.28 49.1156 12.28H49.0796C48.4136 12.28 48.0536 12.91 48.0536 13.9C48.0536 14.902 48.4076 15.52 49.0796 15.52H49.1156C49.6136 15.52 49.8536 15.172 49.8956 14.668H50.4956C50.4536 15.466 50.0216 16.06 49.0976 16.06ZM52.5873 16.06C51.4953 16.06 50.9913 15.484 50.9733 14.638H51.5732C51.6033 15.244 51.9753 15.52 52.6173 15.52H52.6473C53.1993 15.52 53.4873 15.22 53.4873 14.86C53.4873 14.542 53.3133 14.344 52.8813 14.254L52.2153 14.11C51.5073 13.96 51.1833 13.588 51.1833 12.97C51.1833 12.316 51.7293 11.74 52.6473 11.74C53.5953 11.74 54.1353 12.286 54.1533 13.072H53.5533C53.5233 12.574 53.1693 12.28 52.6533 12.28H52.6293C52.1193 12.28 51.7833 12.58 51.7833 12.958C51.7833 13.288 51.9693 13.456 52.3893 13.54L52.9953 13.666C53.6913 13.81 54.0872 14.17 54.0872 14.824C54.0872 15.538 53.5293 16.06 52.5873 16.06Z"></path>
<defs>
<filter color-interpolation-filters="sRGB" filterUnits="userSpaceOnUse" height="385.863" width="339.254" y="-61.1268" x="-61.1268" id="filter0_b_3449_10091">
<feFlood result="BackgroundImageFix" flood-opacity="0"></feFlood>
<feGaussianBlur stdDeviation="30.5634" in="BackgroundImageFix"></feGaussianBlur>
<feComposite result="effect1_backgroundBlur_3449_10091" operator="in" in2="SourceAlpha"></feComposite>
<feBlend result="shape" in2="effect1_backgroundBlur_3449_10091" in="SourceGraphic" mode="normal"></feBlend>
</filter>
</defs>
</svg>
