<svg xmlns="http://www.w3.org/2000/svg" fill="none" viewBox="0 0 277 113" height="113" width="277">
<path fill="white" d="M197.433 28.1084V24.8397H198.045V29.165H197.34L195.752 25.8469V29.165H195.14V24.8397H195.87L197.433 28.1084ZM201.743 29.165H198.944V24.8397H201.682V25.3958H199.562V26.6625H201.36V27.2186H199.562V28.6089H201.743V29.165ZM204.355 26.9282L205.702 29.165H205.01L204.003 27.4472L202.971 29.165H202.303L203.65 26.9529L202.384 24.8397H203.07L204.009 26.4401L204.96 24.8397H205.622L204.355 26.9282ZM208.017 29.165H207.399V25.3958H206.169V24.8397H209.246V25.3958H208.017V29.165ZM215.235 29.2268C214.123 29.2268 213.542 28.3556 213.542 27.0024C213.542 25.6738 214.117 24.7779 215.235 24.7779C216.162 24.7779 216.632 25.3958 216.675 26.2114H216.057C216.026 25.7109 215.754 25.334 215.254 25.334H215.217C214.531 25.334 214.16 25.9828 214.16 27.0024C214.16 28.0343 214.525 28.6707 215.217 28.6707H215.254C215.767 28.6707 216.014 28.3123 216.057 27.7933H216.675C216.632 28.6151 216.187 29.2268 215.235 29.2268ZM218.829 26.8726L219.811 24.8397H220.479L219.126 27.4472V29.165H218.508V27.4472L217.167 24.8397H217.846L218.829 26.8726ZM222.645 29.2268C221.533 29.2268 220.952 28.3556 220.952 27.0024C220.952 25.6738 221.527 24.7779 222.645 24.7779C223.572 24.7779 224.042 25.3958 224.085 26.2114H223.467C223.436 25.7109 223.164 25.334 222.664 25.334H222.627C221.941 25.334 221.57 25.9828 221.57 27.0024C221.57 28.0343 221.935 28.6707 222.627 28.6707H222.664C223.177 28.6707 223.424 28.3123 223.467 27.7933H224.085C224.042 28.6151 223.597 29.2268 222.645 29.2268ZM227.765 29.165H224.83V24.8397H225.448V28.6089H227.765V29.165ZM231.384 29.165H228.585V24.8397H231.322V25.3958H229.203V26.6625H231.001V27.2186H229.203V28.6089H231.384V29.165ZM196.593 31.7593C197.618 31.7593 198.236 32.5873 198.236 33.9838C198.236 35.3803 197.631 36.2083 196.593 36.2083C195.554 36.2083 194.949 35.3803 194.949 33.9838C194.949 32.5873 195.567 31.7593 196.593 31.7593ZM196.623 32.3031H196.562C195.993 32.3031 195.554 32.8098 195.554 33.9838C195.554 34.2619 195.579 34.4967 195.622 34.7068L197.396 32.7912C197.21 32.4576 196.939 32.3031 196.623 32.3031ZM196.562 35.6645H196.623C197.192 35.6645 197.631 35.1578 197.631 33.9838C197.631 33.7428 197.612 33.5327 197.575 33.3474L195.826 35.2382C196.012 35.5286 196.271 35.6645 196.562 35.6645ZM200.298 31.7593C201.323 31.7593 201.941 32.5873 201.941 33.9838C201.941 35.3803 201.336 36.2083 200.298 36.2083C199.259 36.2083 198.654 35.3803 198.654 33.9838C198.654 32.5873 199.272 31.7593 200.298 31.7593ZM200.328 32.3031H200.267C199.698 32.3031 199.259 32.8098 199.259 33.9838C199.259 34.2619 199.284 34.4967 199.327 34.7068L201.101 32.7912C200.915 32.4576 200.644 32.3031 200.328 32.3031ZM200.267 35.6645H200.328C200.897 35.6645 201.336 35.1578 201.336 33.9838C201.336 33.7428 201.317 33.5327 201.28 33.3474L199.531 35.2382C199.717 35.5286 199.976 35.6645 200.267 35.6645ZM204.392 33.8232H203.613V33.0446H204.392V33.8232ZM204.392 36.165H203.613V35.3865H204.392V36.165ZM208.19 31.8397V35.6151H209.395V36.165H206.348V35.6151H207.609V32.7109L206.608 33.6687V32.921L207.72 31.8397H208.19ZM211.895 31.8397V35.6151H213.1V36.165H210.053V35.6151H211.314V32.7109L210.313 33.6687V32.921L211.425 31.8397H211.895ZM215.507 33.8232H214.728V33.0446H215.507V33.8232ZM215.507 36.165H214.728V35.3865H215.507V36.165ZM219.305 31.8397V35.6151H220.51V36.165H217.463V35.6151H218.724V32.7109L217.723 33.6687V32.921L218.835 31.8397H219.305ZM222.528 36.2268C221.694 36.2268 221.181 35.7263 221.181 35.0652C221.181 34.5338 221.521 34.1939 221.91 34.058C221.484 33.922 221.094 33.5204 221.094 32.9704C221.094 32.3093 221.632 31.7779 222.528 31.7779C223.424 31.7779 223.961 32.3093 223.961 32.9704C223.961 33.5204 223.572 33.922 223.146 34.058C223.535 34.1939 223.875 34.5338 223.875 35.0652C223.875 35.7263 223.362 36.2268 222.528 36.2268ZM222.497 33.7614H222.559C223.004 33.7614 223.356 33.4524 223.356 33.0508C223.356 32.6244 223.01 32.3216 222.559 32.3216H222.497C222.046 32.3216 221.7 32.6244 221.7 33.0508C221.7 33.4524 222.052 33.7614 222.497 33.7614ZM222.497 35.6831H222.559C222.96 35.6831 223.276 35.4112 223.276 35.0095C223.276 34.6141 222.96 34.3237 222.559 34.3237H222.497C222.095 34.3237 221.78 34.6141 221.78 35.0095C221.78 35.4112 222.095 35.6831 222.497 35.6831Z"></path>
<rect stroke-width="0.61791" stroke-opacity="0.15" stroke="white" height="19.9791" width="69.4119" y="20.3549" x="190.104"></rect>
<path fill="white" d="M249.527 34.8755C248.586 34.8755 247.802 34.5528 247.174 33.9075C246.545 33.2621 246.231 32.4588 246.231 31.4976C246.231 30.811 246.504 30.0645 247.05 29.2579C247.596 28.451 248.421 27.5773 249.527 26.6367C250.632 27.5773 251.458 28.451 252.004 29.2579C252.549 30.0645 252.822 30.811 252.822 31.4976C252.822 32.4588 252.508 33.2621 251.88 33.9075C251.252 34.5528 250.467 34.8755 249.527 34.8755ZM249.527 34.0516C250.241 34.0516 250.831 33.8097 251.298 33.3258C251.765 32.8416 251.998 32.2322 251.998 31.4976C251.998 30.9964 251.791 30.43 251.376 29.7984C250.96 29.1667 250.344 28.4767 249.527 27.7284C248.71 28.4767 248.094 29.1667 247.678 29.7984C247.263 30.43 247.055 30.9964 247.055 31.4976C247.055 32.2322 247.289 32.8416 247.755 33.3258C248.222 33.8097 248.813 34.0516 249.527 34.0516Z"></path>
<line stroke-width="0.61791" stroke-opacity="0.15" stroke="white" y2="40.6429" x2="239.537" y1="20.0459" x1="239.537"></line>
<path fill="white" d="M19.9525 28.2217H19.0462V22.6934H17.2427V21.8778H21.756V22.6934H19.9525V28.2217ZM27.0541 28.2217H22.9487V21.8778H26.9635V22.6934H23.855V24.5513H26.4922V25.3669H23.855V27.406H27.0541V28.2217ZM30.3675 25.5482L31.446 21.8778H32.5516V28.2217H31.7088V23.4094L30.8025 26.4907H29.9325L29.0262 23.4094V28.2217H28.1925V21.8778H29.289L30.3675 25.5482ZM34.7322 28.2217H33.8259V21.8778H36.0735C37.2335 21.8778 38.0582 22.5666 38.0582 23.8082C38.0582 25.0497 37.2063 25.7294 36.0644 25.7294H34.7322V28.2217ZM34.7322 22.6934V24.9138H35.9375C36.7078 24.9138 37.1519 24.5241 37.1519 23.8082C37.1519 23.0922 36.726 22.6934 35.9375 22.6934H34.7322ZM43.3563 28.2217H39.2509V21.8778H43.2657V22.6934H40.1572V24.5513H42.7944V25.3669H40.1572V27.406H43.3563V28.2217ZM47.8116 25.1494H47.8569C48.4823 25.1494 48.736 25.4485 48.736 26.0194V28.2217H47.8297V26.1644C47.8297 25.811 47.6938 25.6751 47.3404 25.6751H45.5822V28.2217H44.6759V21.8778H46.8782C47.9838 21.8778 48.8266 22.5938 48.8266 23.5816C48.8266 24.3519 48.4551 24.8957 47.8116 25.1494ZM45.5822 24.8594H46.6697C47.3947 24.8594 47.9204 24.4425 47.9204 23.7447C47.9204 23.065 47.4672 22.6934 46.6697 22.6934H45.5822V24.8594ZM54.6413 28.2217H53.7079L53.2185 26.5904H50.9709L50.4816 28.2217H49.5753L51.551 21.8778H52.6929L54.6413 28.2217ZM52.0947 22.8203L51.2156 25.7748H52.9829L52.0947 22.8203ZM57.991 28.2217H57.0847V22.6934H55.2813V21.8778H59.7945V22.6934H57.991V28.2217ZM62.9719 28.3123C61.5944 28.3123 60.815 27.4695 60.815 26.0919V21.8778H61.7213V25.9651C61.7213 27.0163 62.1654 27.4967 62.9538 27.4967H62.9901C63.7785 27.4967 64.2226 27.0163 64.2226 25.9651V21.8778H65.1289V26.0919C65.1289 27.4695 64.3495 28.3123 62.9719 28.3123ZM69.5479 25.1494H69.5932C70.2185 25.1494 70.4723 25.4485 70.4723 26.0194V28.2217H69.566V26.1644C69.566 25.811 69.4301 25.6751 69.0766 25.6751H67.3185V28.2217H66.4122V21.8778H68.6144C69.7201 21.8778 70.5629 22.5938 70.5629 23.5816C70.5629 24.3519 70.1914 24.8957 69.5479 25.1494ZM67.3185 24.8594H68.406C69.131 24.8594 69.6567 24.4425 69.6567 23.7447C69.6567 23.065 69.2035 22.6934 68.406 22.6934H67.3185V24.8594ZM75.9607 28.2217H71.8553V21.8778H75.8701V22.6934H72.7616V24.5513H75.3989V25.3669H72.7616V27.406H75.9607V28.2217ZM79.8451 24.7869H78.7032V23.645H79.8451V24.7869ZM79.8451 28.2217H78.7032V27.0798H79.8451V28.2217ZM87.9582 22.7025V21.8778H92.3355V22.7297C90.8764 23.6631 89.9701 25.1947 89.9701 27.8501V28.2217H89.0548V27.8048C89.0548 25.1585 90.0879 23.5181 91.3476 22.7025H87.9582ZM95.5764 21.76C97.0808 21.76 97.987 22.9744 97.987 25.0226C97.987 27.0707 97.0989 28.2851 95.5764 28.2851C94.0538 28.2851 93.1657 27.0707 93.1657 25.0226C93.1657 22.9744 94.072 21.76 95.5764 21.76ZM95.6217 22.5575H95.5311C94.6973 22.5575 94.0538 23.3006 94.0538 25.0226C94.0538 25.4304 94.0901 25.7748 94.1535 26.0829L96.7545 23.2735C96.4826 22.7841 96.0839 22.5575 95.6217 22.5575ZM95.5311 27.4876H95.6217C96.4554 27.4876 97.0989 26.7445 97.0989 25.0226C97.0989 24.6691 97.0717 24.361 97.0173 24.0891L94.4526 26.8623C94.7245 27.2882 95.1051 27.4876 95.5311 27.4876ZM101.01 25.1404C100.05 25.1404 99.3338 24.4154 99.3338 23.4638C99.3338 22.5122 100.05 21.7872 101.01 21.7872C101.971 21.7872 102.687 22.5122 102.687 23.4638C102.687 24.4154 101.971 25.1404 101.01 25.1404ZM101.01 24.4063C101.509 24.4063 101.908 23.9894 101.908 23.4638C101.908 22.9472 101.509 22.5394 101.01 22.5394C100.512 22.5394 100.113 22.9472 100.113 23.4638C100.113 23.9894 100.512 24.4063 101.01 24.4063ZM105.466 28.2217H104.559V21.8778H108.556V22.6934H105.466V24.7325H108.284V25.5482H105.466V28.2217ZM116.57 28.2217H115.636L118.083 21.8778H118.989L116.57 28.2217ZM129.196 25.4666L127.193 27.4151H130.347V28.2217H126.078V27.3698L128.444 25.0497C129.178 24.3338 129.368 24.0528 129.368 23.5816C129.368 23.0288 128.915 22.5847 128.29 22.5847H128.199C127.51 22.5847 127.048 23.0469 127.03 23.79H126.142C126.142 22.5756 127.012 21.7872 128.235 21.7872C129.441 21.7872 130.256 22.5303 130.256 23.5544C130.256 24.3519 129.866 24.8141 129.196 25.4666ZM134.322 21.8778V27.4151H136.089V28.2217H131.621V27.4151H133.47V23.1556L132.002 24.5604V23.4638L133.633 21.8778H134.322ZM139.049 25.1404C138.088 25.1404 137.372 24.4154 137.372 23.4638C137.372 22.5122 138.088 21.7872 139.049 21.7872C140.01 21.7872 140.726 22.5122 140.726 23.4638C140.726 24.4154 140.01 25.1404 139.049 25.1404ZM139.049 24.4063C139.547 24.4063 139.946 23.9894 139.946 23.4638C139.946 22.9472 139.547 22.5394 139.049 22.5394C138.55 22.5394 138.152 22.9472 138.152 23.4638C138.152 23.9894 138.55 24.4063 139.049 24.4063ZM144.655 28.3123C143.024 28.3123 142.172 27.0345 142.172 25.0497C142.172 23.1013 143.015 21.7872 144.655 21.7872C146.015 21.7872 146.703 22.6934 146.767 23.8897H145.861C145.815 23.1556 145.416 22.6028 144.682 22.6028H144.628C143.622 22.6028 143.078 23.5544 143.078 25.0497C143.078 26.5632 143.613 27.4967 144.628 27.4967H144.682C145.435 27.4967 145.797 26.971 145.861 26.2098H146.767C146.703 27.4151 146.051 28.3123 144.655 28.3123ZM20.6413 38.1494H20.6866C21.3119 38.1494 21.5656 38.4485 21.5656 39.0194V41.2217H20.6594V39.1644C20.6594 38.811 20.5234 38.6751 20.17 38.6751H18.4118V41.2217H17.5056V34.8778H19.7078C20.8134 34.8778 21.6563 35.5938 21.6563 36.5816C21.6563 37.3519 21.2847 37.8957 20.6413 38.1494ZM18.4118 37.8594H19.4994C20.2244 37.8594 20.75 37.4425 20.75 36.7447C20.75 36.065 20.2969 35.6934 19.4994 35.6934H18.4118V37.8594ZM27.0541 41.2217H22.9487V34.8778H26.9635V35.6934H23.855V37.5513H26.4922V38.3669H23.855V40.406H27.0541V41.2217ZM32.615 41.2217H28.3103V34.8778H29.2165V40.406H32.615V41.2217ZM38.3391 41.2217H37.4057L36.9163 39.5904H34.6687L34.1793 41.2217H33.2731L35.2487 34.8778H36.3906L38.3391 41.2217ZM35.7925 35.8203L34.9134 38.7748H36.6807L35.7925 35.8203ZM41.6888 41.2217H40.7825V35.6934H38.979V34.8778H43.4923V35.6934H41.6888V41.2217ZM48.4279 34.8778V35.63H47.1228V40.4695H48.4279V41.2217H44.9116V40.4695H46.2166V35.63H44.9116V34.8778H48.4279ZM52.1219 40.1795L53.5991 34.8778H54.5779L52.7019 41.2217H51.5238L49.6387 34.8778H50.6175L52.1219 40.1795ZM59.6585 41.2217H55.5531V34.8778H59.5679V35.6934H56.4594V37.5513H59.0966V38.3669H56.4594V40.406H59.6585V41.2217ZM67.1916 41.2217H66.2853V34.8778H67.1916V37.6419H69.6204V34.8778H70.5267V41.2217H69.6204V38.4576H67.1916V41.2217ZM73.8401 41.3123C72.4625 41.3123 71.6832 40.4695 71.6832 39.0919V34.8778H72.5894V38.9651C72.5894 40.0163 73.0335 40.4967 73.8219 40.4967H73.8582C74.6467 40.4967 75.0907 40.0163 75.0907 38.9651V34.8778H75.997V39.0919C75.997 40.4695 75.2176 41.3123 73.8401 41.3123ZM79.2741 38.5482L80.3526 34.8778H81.4583V41.2217H80.6154V36.4094L79.7092 39.4907H78.8391L77.9329 36.4094V41.2217H77.0991V34.8778H78.1957L79.2741 38.5482ZM86.4664 34.8778V35.63H85.1614V40.4695H86.4664V41.2217H82.9501V40.4695H84.2551V35.63H82.9501V34.8778H86.4664ZM89.8523 41.2217H88.1122V34.8778H89.8251C91.3839 34.8778 92.4805 36.0197 92.4805 38.0588C92.4805 40.0979 91.402 41.2217 89.8523 41.2217ZM89.0185 35.6934V40.406H89.7798C90.8945 40.406 91.5742 39.672 91.5742 38.0497C91.5742 36.4275 90.8764 35.6934 89.7798 35.6934H89.0185ZM97.3345 34.8778V35.63H96.0295V40.4695H97.3345V41.2217H93.8182V40.4695H95.1232V35.63H93.8182V34.8778H97.3345ZM101.464 41.2217H100.557V35.6934H98.7538V34.8778H103.267V35.6934H101.464V41.2217ZM106.454 37.8594L107.895 34.8778H108.873L106.889 38.7023V41.2217H105.982V38.7023L104.016 34.8778H105.013L106.454 37.8594ZM112.45 37.7869H111.308V36.645H112.45V37.7869ZM112.45 41.2217H111.308V40.0798H112.45V41.2217ZM117.313 41.3123C116.089 41.3123 115.337 40.5782 115.337 39.6085C115.337 38.8291 115.835 38.3307 116.406 38.1313C115.781 37.9319 115.21 37.3428 115.21 36.5363C115.21 35.5666 115.999 34.7872 117.313 34.7872C118.627 34.7872 119.415 35.5666 119.415 36.5363C119.415 37.3428 118.844 37.9319 118.219 38.1313C118.79 38.3307 119.288 38.8291 119.288 39.6085C119.288 40.5782 118.536 41.3123 117.313 41.3123ZM117.267 37.6963H117.358C118.01 37.6963 118.527 37.2432 118.527 36.6541C118.527 36.0288 118.02 35.5847 117.358 35.5847H117.267C116.606 35.5847 116.098 36.0288 116.098 36.6541C116.098 37.2432 116.615 37.6963 117.267 37.6963ZM117.267 40.5148H117.358C117.947 40.5148 118.409 40.116 118.409 39.527C118.409 38.9469 117.947 38.521 117.358 38.521H117.267C116.678 38.521 116.216 38.9469 116.216 39.527C116.216 40.116 116.678 40.5148 117.267 40.5148ZM123.454 34.8778V40.4151H125.221V41.2217H120.753V40.4151H122.602V36.1556L121.134 37.5604V36.4638L122.765 34.8778H123.454ZM126.776 37.5966C125.988 37.5966 125.607 36.9622 125.607 36.2191C125.607 35.4759 125.988 34.8415 126.776 34.8415C127.574 34.8415 127.954 35.4759 127.954 36.2191C127.954 36.9622 127.574 37.5966 126.776 37.5966ZM126.64 41.2217H125.906L129.712 34.8778H130.446L126.64 41.2217ZM126.767 37.0438H126.794C127.13 37.0438 127.302 36.6813 127.302 36.2191C127.302 35.7478 127.13 35.4034 126.794 35.4034H126.767C126.432 35.4034 126.26 35.7478 126.26 36.2191C126.26 36.6813 126.432 37.0438 126.767 37.0438ZM129.567 41.2579C128.779 41.2579 128.398 40.6235 128.398 39.8804C128.398 39.1373 128.779 38.5029 129.567 38.5029C130.365 38.5029 130.746 39.1373 130.746 39.8804C130.746 40.6235 130.365 41.2579 129.567 41.2579ZM129.558 40.7051H129.586C129.921 40.7051 130.093 40.3426 130.093 39.8804C130.093 39.4091 129.921 39.0648 129.586 39.0648H129.558C129.223 39.0648 129.051 39.4091 129.051 39.8804C129.051 40.3426 129.223 40.7051 129.558 40.7051Z"></path>
<path fill="white" d="M23.0882 99.2846C19.529 99.2846 17.6703 96.4966 17.6703 92.1663C17.6703 87.9151 19.5092 85.048 23.0882 85.048C26.0541 85.048 27.5569 87.0253 27.6953 89.6354H25.718C25.6191 88.0337 24.7491 86.8276 23.1475 86.8276H23.0289C20.834 86.8276 19.6477 88.9037 19.6477 92.1663C19.6477 95.4684 20.8143 97.5051 23.0289 97.5051H23.1475C24.7887 97.5051 25.5796 96.3582 25.718 94.6973H27.6953C27.5569 97.3271 26.1332 99.2846 23.0882 99.2846ZM34.1732 99.2846C30.8908 99.2846 29.0717 96.556 29.0717 92.1663C29.0717 87.7767 30.8908 85.048 34.1732 85.048C37.4555 85.048 39.2747 87.7767 39.2747 92.1663C39.2747 96.556 37.4555 99.2846 34.1732 99.2846ZM34.1336 97.5051H34.2127C36.2494 97.5051 37.2973 95.4882 37.2973 92.1663C37.2973 88.8444 36.2494 86.8276 34.2127 86.8276H34.1336C32.097 86.8276 31.049 88.8444 31.049 92.1663C31.049 95.4882 32.097 97.5051 34.1336 97.5051ZM47.8485 93.0759L43.4786 97.3271H50.3597V99.0869H41.0465V97.2282L46.2073 92.1663C47.8089 90.6042 48.2242 89.9913 48.2242 88.9631C48.2242 87.7569 47.2355 86.788 45.8712 86.788H45.6734C44.1707 86.788 43.1622 87.7965 43.1227 89.4179H41.1849C41.1849 86.7683 43.0831 85.048 45.7525 85.048C48.3823 85.048 50.1619 86.6694 50.1619 88.9037C50.1619 90.6438 49.3117 91.6522 47.8485 93.0759ZM58.3403 91.5929H55.8489V89.1015H58.3403V91.5929ZM58.3403 99.0869H55.8489V96.5955H58.3403V99.0869ZM79.7985 85.048C83.0808 85.048 84.9592 87.5592 84.9592 91.7709C84.9592 96.2594 82.4678 99.2846 79.1459 99.2846C76.8325 99.2846 75.1518 97.9401 74.7761 95.6859H76.7138C76.9313 96.7537 77.8409 97.5446 79.1459 97.5446H79.3239C81.2617 97.5446 83.0017 95.7255 83.239 92.1663C82.5865 93.59 81.0639 94.3414 79.4821 94.3414C76.9511 94.3414 75.0134 92.5222 75.0134 89.8331C75.0134 87.0846 76.9116 85.048 79.7985 85.048ZM79.7194 92.6013H79.8973C81.5583 92.6013 82.7842 91.3754 82.7842 89.7144C82.7842 88.0337 81.578 86.788 79.8973 86.788H79.7194C78.1177 86.788 76.9511 88.0337 76.9511 89.6947C76.9511 91.3358 78.0584 92.6013 79.7194 92.6013ZM91.4173 99.2846C88.6491 99.2846 86.8695 97.861 86.7311 95.4289H88.6689C88.8666 96.7339 89.8157 97.5446 91.3185 97.5446H91.5162C93.1574 97.5446 94.2251 96.5955 94.2251 95.2509C94.2251 93.847 93.0585 93.0561 91.4766 93.0561H90.5671V91.2963H91.536C93.1178 91.2963 94.146 90.3472 94.146 89.0422C94.146 87.6778 93.0387 86.788 91.5755 86.788H91.3778C90.053 86.788 89.0446 87.658 88.9259 88.9433H86.9881C87.0475 86.6892 88.9259 85.048 91.4766 85.048C94.1856 85.048 96.0838 86.5903 96.0838 88.8642C96.0838 90.4263 95.0951 91.672 93.7308 92.1465C95.0951 92.542 96.1827 93.7086 96.1827 95.3696C96.1827 97.9401 94.0274 99.2846 91.4173 99.2846ZM103.471 89.9913C106.002 89.9913 107.94 91.8104 107.94 94.4995C107.94 97.248 106.042 99.2846 103.155 99.2846C99.8725 99.2846 97.9941 96.7735 97.9941 92.5618C97.9941 88.0733 100.485 85.048 103.807 85.048C106.121 85.048 107.802 86.3926 108.177 88.6467H106.239C106.022 87.5789 105.112 86.788 103.807 86.788H103.629C101.692 86.788 99.9516 88.6072 99.7143 92.1663C100.367 90.7427 101.889 89.9913 103.471 89.9913ZM103.056 97.5446H103.234C104.836 97.5446 106.002 96.2989 106.002 94.638C106.002 92.9968 104.895 91.7313 103.234 91.7313H103.056C101.395 91.7313 100.169 92.9572 100.169 94.6182C100.169 96.2989 101.375 97.5446 103.056 97.5446ZM123.525 99.0869H121.548V85.2457H126.452C128.983 85.2457 130.782 86.7485 130.782 89.4574C130.782 92.1663 128.924 93.6493 126.432 93.6493H123.525V99.0869ZM123.525 87.0253V91.8697H126.155C127.836 91.8697 128.805 91.0195 128.805 89.4574C128.805 87.8953 127.876 87.0253 126.155 87.0253H123.525ZM134.986 99.0869H133.009V85.2457H137.913C140.444 85.2457 142.243 86.7485 142.243 89.4574C142.243 92.1663 140.384 93.6493 137.893 93.6493H134.986V99.0869ZM134.986 87.0253V91.8697H137.616C139.297 91.8697 140.266 91.0195 140.266 89.4574C140.266 87.8953 139.336 87.0253 137.616 87.0253H134.986ZM148.78 93.2538L151.133 85.2457H153.545V99.0869H151.707V88.5874L149.729 95.3102H147.831L145.854 88.5874V99.0869H144.035V85.2457H146.427L148.78 93.2538Z"></path>
</svg>
