<svg xmlns="http://www.w3.org/2000/svg" fill="none" viewBox="0 0 277 113" height="113" width="277">
<path fill="white" d="M197.148 28.21V24.9412H197.759V29.2666H197.055L195.467 25.9484V29.2666H194.855V24.9412H195.584L197.148 28.21ZM201.458 29.2666H198.659V24.9412H201.397V25.4973H199.277V26.7641H201.075V27.3202H199.277V28.7105H201.458V29.2666ZM204.07 27.0298L205.417 29.2666H204.725L203.717 27.5488L202.686 29.2666H202.018L203.365 27.0545L202.099 24.9412H202.784L203.724 26.5416L204.675 24.9412H205.336L204.07 27.0298ZM207.731 29.2666H207.114V25.4973H205.884V24.9412H208.961V25.4973H207.731V29.2666ZM214.95 29.3284C213.838 29.3284 213.257 28.4571 213.257 27.1039C213.257 25.7754 213.832 24.8794 214.95 24.8794C215.877 24.8794 216.346 25.4973 216.39 26.313H215.772C215.741 25.8125 215.469 25.4356 214.969 25.4356H214.931C214.246 25.4356 213.875 26.0844 213.875 27.1039C213.875 28.1358 214.239 28.7723 214.931 28.7723H214.969C215.481 28.7723 215.729 28.4139 215.772 27.8948H216.39C216.346 28.7167 215.902 29.3284 214.95 29.3284ZM218.544 26.9742L219.526 24.9412H220.194L218.84 27.5488V29.2666H218.223V27.5488L216.882 24.9412H217.561L218.544 26.9742ZM222.36 29.3284C221.248 29.3284 220.667 28.4571 220.667 27.1039C220.667 25.7754 221.242 24.8794 222.36 24.8794C223.287 24.8794 223.757 25.4973 223.8 26.313H223.182C223.151 25.8125 222.879 25.4356 222.379 25.4356H222.342C221.656 25.4356 221.285 26.0844 221.285 27.1039C221.285 28.1358 221.649 28.7723 222.342 28.7723H222.379C222.891 28.7723 223.139 28.4139 223.182 27.8948H223.8C223.757 28.7167 223.312 29.3284 222.36 29.3284ZM227.48 29.2666H224.545V24.9412H225.163V28.7105H227.48V29.2666ZM231.099 29.2666H228.3V24.9412H231.037V25.4973H228.917V26.7641H230.716V27.3202H228.917V28.7105H231.099V29.2666ZM196.307 31.8609C197.333 31.8609 197.951 32.6889 197.951 34.0854C197.951 35.4819 197.345 36.3099 196.307 36.3099C195.269 36.3099 194.664 35.4819 194.664 34.0854C194.664 32.6889 195.282 31.8609 196.307 31.8609ZM196.338 32.4047H196.276C195.708 32.4047 195.269 32.9113 195.269 34.0854C195.269 34.3634 195.294 34.5982 195.337 34.8083L197.111 32.8928C196.925 32.5591 196.653 32.4047 196.338 32.4047ZM196.276 35.7661H196.338C196.907 35.7661 197.345 35.2594 197.345 34.0854C197.345 33.8444 197.327 33.6343 197.29 33.4489L195.541 35.3397C195.727 35.6302 195.986 35.7661 196.276 35.7661ZM200.012 31.8609C201.038 31.8609 201.656 32.6889 201.656 34.0854C201.656 35.4819 201.05 36.3099 200.012 36.3099C198.974 36.3099 198.369 35.4819 198.369 34.0854C198.369 32.6889 198.987 31.8609 200.012 31.8609ZM200.043 32.4047H199.981C199.413 32.4047 198.974 32.9113 198.974 34.0854C198.974 34.3634 198.999 34.5982 199.042 34.8083L200.816 32.8928C200.63 32.5591 200.358 32.4047 200.043 32.4047ZM199.981 35.7661H200.043C200.612 35.7661 201.05 35.2594 201.05 34.0854C201.05 33.8444 201.032 33.6343 200.995 33.4489L199.246 35.3397C199.432 35.6302 199.691 35.7661 199.981 35.7661ZM204.107 33.9247H203.328V33.1462H204.107V33.9247ZM204.107 36.2666H203.328V35.488H204.107V36.2666ZM208.454 31.9412V34.7589H209.14V35.2965H208.454V36.2666H207.88V35.2965H205.754V34.6786L207.83 31.9412H208.454ZM207.88 32.7136L206.341 34.7589H207.88V32.7136ZM211.82 34.3882L210.454 35.7167H212.604V36.2666H209.694V35.6858L211.307 34.1039C211.807 33.6158 211.937 33.4242 211.937 33.1029C211.937 32.726 211.628 32.4232 211.202 32.4232H211.14C210.67 32.4232 210.355 32.7383 210.343 33.245H209.737C209.737 32.417 210.33 31.8794 211.165 31.8794C211.986 31.8794 212.543 32.3861 212.543 33.0844C212.543 33.6281 212.277 33.9433 211.82 34.3882ZM215.222 33.9247H214.443V33.1462H215.222V33.9247ZM215.222 36.2666H214.443V35.488H215.222V36.2666ZM218.519 36.3284C217.654 36.3284 217.098 35.8835 217.055 35.1235H217.66C217.722 35.5313 218.019 35.7846 218.488 35.7846H218.55C219.063 35.7846 219.397 35.488 219.397 35.0679C219.397 34.6291 219.032 34.382 218.538 34.382H218.253V33.832H218.556C219.051 33.832 219.372 33.5354 219.372 33.1276C219.372 32.7013 219.026 32.4232 218.569 32.4232H218.507C218.093 32.4232 217.778 32.6951 217.741 33.0967H217.135C217.154 32.3923 217.741 31.8794 218.538 31.8794C219.384 31.8794 219.977 32.3614 219.977 33.072C219.977 33.5602 219.668 33.9494 219.242 34.0977C219.668 34.2213 220.008 34.5859 220.008 35.1049C220.008 35.9082 219.335 36.3284 218.519 36.3284ZM222.224 36.3284C221.359 36.3284 220.803 35.8835 220.76 35.1235H221.365C221.427 35.5313 221.724 35.7846 222.193 35.7846H222.255C222.768 35.7846 223.102 35.488 223.102 35.0679C223.102 34.6291 222.737 34.382 222.243 34.382H221.958V33.832H222.261C222.756 33.832 223.077 33.5354 223.077 33.1276C223.077 32.7013 222.731 32.4232 222.274 32.4232H222.212C221.798 32.4232 221.483 32.6951 221.446 33.0967H220.84C220.859 32.3923 221.446 31.8794 222.243 31.8794C223.089 31.8794 223.682 32.3614 223.682 33.072C223.682 33.5602 223.373 33.9494 222.947 34.0977C223.373 34.2213 223.713 34.5859 223.713 35.1049C223.713 35.9082 223.04 36.3284 222.224 36.3284Z"></path>
<rect stroke-width="0.61791" stroke-opacity="0.15" stroke="white" height="19.9791" width="69.4119" y="20.4564" x="189.819"></rect>
<path fill="white" d="M249.242 34.9771C248.301 34.9771 247.517 34.6544 246.889 34.009C246.26 33.3637 245.946 32.5604 245.946 31.5992C245.946 30.9126 246.219 30.166 246.765 29.3595C247.311 28.5526 248.136 27.6789 249.242 26.7383C250.347 27.6789 251.173 28.5526 251.719 29.3595C252.264 30.166 252.537 30.9126 252.537 31.5992C252.537 32.5604 252.223 33.3637 251.595 34.009C250.967 34.6544 250.182 34.9771 249.242 34.9771ZM249.242 34.1532C249.956 34.1532 250.546 33.9113 251.013 33.4274C251.48 32.9432 251.713 32.3338 251.713 31.5992C251.713 31.098 251.506 30.5316 251.09 29.8999C250.675 29.2683 250.059 28.5783 249.242 27.8299C248.425 28.5783 247.809 29.2683 247.393 29.8999C246.978 30.5316 246.77 31.098 246.77 31.5992C246.77 32.3338 247.003 32.9432 247.47 33.4274C247.937 33.9113 248.528 34.1532 249.242 34.1532Z"></path>
<line stroke-width="0.61791" stroke-opacity="0.15" stroke="white" y2="40.7445" x2="239.252" y1="20.1475" x1="239.252"></line>
<path fill="white" d="M19.6674 28.3232H18.7611V22.795H16.9576V21.9794H21.4708V22.795H19.6674V28.3232ZM26.769 28.3232H22.6636V21.9794H26.6783V22.795H23.5698V24.6529H26.2071V25.4685H23.5698V27.5076H26.769V28.3232ZM30.0824 25.6497L31.1608 21.9794H32.2665V28.3232H31.4237V23.511L30.5174 26.5923H29.6474L28.7411 23.511V28.3232H27.9073V21.9794H29.0039L30.0824 25.6497ZM34.447 28.3232H33.5408V21.9794H35.7883C36.9483 21.9794 37.7731 22.6681 37.7731 23.9097C37.7731 25.1513 36.9212 25.831 35.7793 25.831H34.447V28.3232ZM34.447 22.795V25.0154H35.6524C36.4227 25.0154 36.8668 24.6257 36.8668 23.9097C36.8668 23.1938 36.4408 22.795 35.6524 22.795H34.447ZM43.0712 28.3232H38.9658V21.9794H42.9806V22.795H39.8721V24.6529H42.5093V25.4685H39.8721V27.5076H43.0712V28.3232ZM47.5265 25.251H47.5718C48.1971 25.251 48.4509 25.5501 48.4509 26.121V28.3232H47.5446V26.266C47.5446 25.9126 47.4087 25.7766 47.0552 25.7766H45.2971V28.3232H44.3908V21.9794H46.593C47.6987 21.9794 48.5415 22.6953 48.5415 23.6831C48.5415 24.4535 48.1699 24.9972 47.5265 25.251ZM45.2971 24.961H46.3846C47.1096 24.961 47.6352 24.5441 47.6352 23.8463C47.6352 23.1666 47.1821 22.795 46.3846 22.795H45.2971V24.961ZM54.3562 28.3232H53.4228L52.9334 26.692H50.6858L50.1964 28.3232H49.2902L51.2658 21.9794H52.4077L54.3562 28.3232ZM51.8096 22.9219L50.9305 25.8763H52.6977L51.8096 22.9219ZM57.7059 28.3232H56.7996V22.795H54.9961V21.9794H59.5093V22.795H57.7059V28.3232ZM62.6868 28.4139C61.3093 28.4139 60.5299 27.571 60.5299 26.1935V21.9794H61.4362V26.0666C61.4362 27.1179 61.8802 27.5982 62.6687 27.5982H62.7049C63.4934 27.5982 63.9375 27.1179 63.9375 26.0666V21.9794H64.8437V26.1935C64.8437 27.571 64.0643 28.4139 62.6868 28.4139ZM69.2628 25.251H69.3081C69.9334 25.251 70.1872 25.5501 70.1872 26.121V28.3232H69.2809V26.266C69.2809 25.9126 69.145 25.7766 68.7915 25.7766H67.0334V28.3232H66.1271V21.9794H68.3293C69.435 21.9794 70.2778 22.6953 70.2778 23.6831C70.2778 24.4535 69.9062 24.9972 69.2628 25.251ZM67.0334 24.961H68.1209C68.8459 24.961 69.3715 24.5441 69.3715 23.8463C69.3715 23.1666 68.9184 22.795 68.1209 22.795H67.0334V24.961ZM75.6756 28.3232H71.5702V21.9794H75.585V22.795H72.4765V24.6529H75.1137V25.4685H72.4765V27.5076H75.6756V28.3232ZM79.56 24.8885H78.4181V23.7466H79.56V24.8885ZM79.56 28.3232H78.4181V27.1813H79.56V28.3232ZM89.8572 28.4139C88.6337 28.4139 87.8815 27.6798 87.8815 26.7101C87.8815 25.9307 88.3799 25.4322 88.9509 25.2329C88.3256 25.0335 87.7546 24.4444 87.7546 23.6378C87.7546 22.6681 88.5431 21.8887 89.8572 21.8887C91.1713 21.8887 91.9597 22.6681 91.9597 23.6378C91.9597 24.4444 91.3888 25.0335 90.7634 25.2329C91.3344 25.4322 91.8328 25.9307 91.8328 26.7101C91.8328 27.6798 91.0806 28.4139 89.8572 28.4139ZM89.8119 24.7979H89.9025C90.555 24.7979 91.0716 24.3447 91.0716 23.7556C91.0716 23.1303 90.5641 22.6863 89.9025 22.6863H89.8119C89.1503 22.6863 88.6428 23.1303 88.6428 23.7556C88.6428 24.3447 89.1593 24.7979 89.8119 24.7979ZM89.8119 27.6164H89.9025C90.4916 27.6164 90.9538 27.2176 90.9538 26.6285C90.9538 26.0485 90.4916 25.6226 89.9025 25.6226H89.8119C89.2228 25.6226 88.7606 26.0485 88.7606 26.6285C88.7606 27.2176 89.2228 27.6164 89.8119 27.6164ZM95.2912 21.8615C96.7956 21.8615 97.7019 23.0759 97.7019 25.1241C97.7019 27.1723 96.8138 28.3867 95.2912 28.3867C93.7687 28.3867 92.8806 27.1723 92.8806 25.1241C92.8806 23.0759 93.7868 21.8615 95.2912 21.8615ZM95.3366 22.6591H95.2459C94.4122 22.6591 93.7687 23.4022 93.7687 25.1241C93.7687 25.5319 93.805 25.8763 93.8684 26.1844L96.4694 23.375C96.1975 22.8856 95.7988 22.6591 95.3366 22.6591ZM95.2459 27.5892H95.3366C96.1703 27.5892 96.8138 26.846 96.8138 25.1241C96.8138 24.7707 96.7866 24.4625 96.7322 24.1907L94.1675 26.9638C94.4393 27.3898 94.82 27.5892 95.2459 27.5892ZM100.725 25.2419C99.7647 25.2419 99.0487 24.5169 99.0487 23.5653C99.0487 22.6137 99.7647 21.8887 100.725 21.8887C101.686 21.8887 102.402 22.6137 102.402 23.5653C102.402 24.5169 101.686 25.2419 100.725 25.2419ZM100.725 24.5079C101.224 24.5079 101.623 24.091 101.623 23.5653C101.623 23.0488 101.224 22.6409 100.725 22.6409C100.227 22.6409 99.8281 23.0488 99.8281 23.5653C99.8281 24.091 100.227 24.5079 100.725 24.5079ZM105.181 28.3232H104.274V21.9794H108.271V22.795H105.181V24.8341H107.999V25.6497H105.181V28.3232ZM116.284 28.3232H115.351L117.798 21.9794H118.704L116.284 28.3232ZM128.911 25.5682L126.908 27.5167H130.062V28.3232H125.793V27.4713L128.158 25.1513C128.893 24.4353 129.083 24.1544 129.083 23.6831C129.083 23.1303 128.63 22.6863 128.004 22.6863H127.914C127.225 22.6863 126.763 23.1484 126.745 23.8916H125.857C125.857 22.6772 126.727 21.8887 127.95 21.8887C129.155 21.8887 129.971 22.6319 129.971 23.656C129.971 24.4535 129.581 24.9157 128.911 25.5682ZM131.146 22.8041V21.9794H135.523V22.8313C134.064 23.7647 133.158 25.2963 133.158 27.9517V28.3232H132.242V27.9064C132.242 25.2601 133.275 23.6197 134.535 22.8041H131.146ZM138.764 25.2419C137.803 25.2419 137.087 24.5169 137.087 23.5653C137.087 22.6137 137.803 21.8887 138.764 21.8887C139.724 21.8887 140.44 22.6137 140.44 23.5653C140.44 24.5169 139.724 25.2419 138.764 25.2419ZM138.764 24.5079C139.262 24.5079 139.661 24.091 139.661 23.5653C139.661 23.0488 139.262 22.6409 138.764 22.6409C138.265 22.6409 137.867 23.0488 137.867 23.5653C137.867 24.091 138.265 24.5079 138.764 24.5079ZM144.37 28.4139C142.739 28.4139 141.887 27.136 141.887 25.1513C141.887 23.2028 142.73 21.8887 144.37 21.8887C145.729 21.8887 146.418 22.795 146.482 23.9913H145.575C145.53 23.2572 145.131 22.7044 144.397 22.7044H144.343C143.337 22.7044 142.793 23.656 142.793 25.1513C142.793 26.6648 143.328 27.5982 144.343 27.5982H144.397C145.149 27.5982 145.512 27.0726 145.575 26.3113H146.482C146.418 27.5167 145.766 28.4139 144.37 28.4139ZM20.3561 38.251H20.4014C21.0268 38.251 21.2805 38.5501 21.2805 39.121V41.3232H20.3743V39.266C20.3743 38.9126 20.2383 38.7766 19.8849 38.7766H18.1267V41.3232H17.2204V34.9794H19.4227C20.5283 34.9794 21.3711 35.6953 21.3711 36.6831C21.3711 37.4535 20.9996 37.9972 20.3561 38.251ZM18.1267 37.961H19.2142C19.9392 37.961 20.4649 37.5441 20.4649 36.8463C20.4649 36.1666 20.0117 35.795 19.2142 35.795H18.1267V37.961ZM26.769 41.3232H22.6636V34.9794H26.6783V35.795H23.5698V37.6529H26.2071V38.4685H23.5698V40.5076H26.769V41.3232ZM32.3299 41.3232H28.0251V34.9794H28.9314V40.5076H32.3299V41.3232ZM38.054 41.3232H37.1205L36.6312 39.692H34.3836L33.8942 41.3232H32.988L34.9636 34.9794H36.1055L38.054 41.3232ZM35.5074 35.9219L34.6283 38.8763H36.3955L35.5074 35.9219ZM41.4037 41.3232H40.4974V35.795H38.6939V34.9794H43.2071V35.795H41.4037V41.3232ZM48.1428 34.9794V35.7316H46.8377V40.571H48.1428V41.3232H44.6264V40.571H45.9315V35.7316H44.6264V34.9794H48.1428ZM51.8368 40.281L53.314 34.9794H54.2928L52.4168 41.3232H51.2386L49.3536 34.9794H50.3324L51.8368 40.281ZM59.3734 41.3232H55.268V34.9794H59.2828V35.795H56.1743V37.6529H58.8115V38.4685H56.1743V40.5076H59.3734V41.3232ZM66.9065 41.3232H66.0002V34.9794H66.9065V37.7435H69.3353V34.9794H70.2415V41.3232H69.3353V38.5591H66.9065V41.3232ZM73.5549 41.4139C72.1774 41.4139 71.398 40.571 71.398 39.1935V34.9794H72.3043V39.0666C72.3043 40.1179 72.7484 40.5982 73.5368 40.5982H73.5731C74.3615 40.5982 74.8056 40.1179 74.8056 39.0666V34.9794H75.7119V39.1935C75.7119 40.571 74.9325 41.4139 73.5549 41.4139ZM78.989 38.6497L80.0675 34.9794H81.1731V41.3232H80.3303V36.511L79.424 39.5923H78.554L77.6477 36.511V41.3232H76.814V34.9794H77.9106L78.989 38.6497ZM86.1813 34.9794V35.7316H84.8762V40.571H86.1813V41.3232H82.6649V40.571H83.97V35.7316H82.6649V34.9794H86.1813ZM89.5672 41.3232H87.8271V34.9794H89.54C91.0988 34.9794 92.1953 36.1213 92.1953 38.1604C92.1953 40.1995 91.1169 41.3232 89.5672 41.3232ZM88.7334 35.795V40.5076H89.4947C90.6094 40.5076 91.2891 39.7735 91.2891 38.1513C91.2891 36.5291 90.5912 35.795 89.4947 35.795H88.7334ZM97.0494 34.9794V35.7316H95.7444V40.571H97.0494V41.3232H93.5331V40.571H94.8381V35.7316H93.5331V34.9794H97.0494ZM101.178 41.3232H100.272V35.795H98.4687V34.9794H102.982V35.795H101.178V41.3232ZM106.168 37.961L107.609 34.9794H108.588L106.603 38.8038V41.3232H105.697V38.8038L103.731 34.9794H104.727L106.168 37.961ZM112.164 37.8885H111.023V36.7466H112.164V37.8885ZM112.164 41.3232H111.023V40.1813H112.164V41.3232ZM117.272 37.1544C118.432 37.1544 119.32 37.9882 119.32 39.2207C119.32 40.4804 118.45 41.4139 117.127 41.4139C115.623 41.4139 114.762 40.2629 114.762 38.3326C114.762 36.2753 115.904 34.8887 117.426 34.8887C118.487 34.8887 119.257 35.505 119.429 36.5381H118.541C118.441 36.0488 118.024 35.6863 117.426 35.6863H117.345C116.457 35.6863 115.659 36.52 115.55 38.1513C115.849 37.4988 116.547 37.1544 117.272 37.1544ZM117.082 40.6164H117.163C117.898 40.6164 118.432 40.0454 118.432 39.2841C118.432 38.5319 117.925 37.9519 117.163 37.9519H117.082C116.321 37.9519 115.759 38.5138 115.759 39.2751C115.759 40.0454 116.312 40.6164 117.082 40.6164ZM123.477 38.5682L121.474 40.5167H124.628V41.3232H120.359V40.4713L122.724 38.1513C123.458 37.4353 123.649 37.1544 123.649 36.6831C123.649 36.1303 123.196 35.6863 122.57 35.6863H122.48C121.791 35.6863 121.329 36.1484 121.311 36.8916H120.422C120.422 35.6772 121.293 34.8887 122.516 34.8887C123.721 34.8887 124.537 35.6319 124.537 36.656C124.537 37.4535 124.147 37.9157 123.477 38.5682ZM126.491 37.6982C125.703 37.6982 125.322 37.0638 125.322 36.3206C125.322 35.5775 125.703 34.9431 126.491 34.9431C127.288 34.9431 127.669 35.5775 127.669 36.3206C127.669 37.0638 127.288 37.6982 126.491 37.6982ZM126.355 41.3232H125.621L129.427 34.9794H130.161L126.355 41.3232ZM126.482 37.1453H126.509C126.844 37.1453 127.017 36.7828 127.017 36.3206C127.017 35.8494 126.844 35.505 126.509 35.505H126.482C126.147 35.505 125.974 35.8494 125.974 36.3206C125.974 36.7828 126.147 37.1453 126.482 37.1453ZM129.282 41.3595C128.494 41.3595 128.113 40.7251 128.113 39.982C128.113 39.2388 128.494 38.6044 129.282 38.6044C130.08 38.6044 130.46 39.2388 130.46 39.982C130.46 40.7251 130.08 41.3595 129.282 41.3595ZM129.273 40.8067H129.3C129.636 40.8067 129.808 40.4442 129.808 39.982C129.808 39.5107 129.636 39.1663 129.3 39.1663H129.273C128.938 39.1663 128.766 39.5107 128.766 39.982C128.766 40.4442 128.938 40.8067 129.273 40.8067Z"></path>
<path fill="white" d="M22.8031 99.3857C19.2439 99.3857 17.3852 96.5977 17.3852 92.2674C17.3852 88.0162 19.2241 85.1491 22.8031 85.1491C25.769 85.1491 27.2718 87.1264 27.4102 89.7364H25.4329C25.334 88.1348 24.464 86.9286 22.8624 86.9286H22.7437C20.5489 86.9286 19.3625 89.0048 19.3625 92.2674C19.3625 95.5695 20.5291 97.6061 22.7437 97.6061H22.8624C24.5035 97.6061 25.2945 96.4593 25.4329 94.7984H27.4102C27.2718 97.4282 25.8481 99.3857 22.8031 99.3857ZM33.8881 99.3857C30.6057 99.3857 28.7866 96.657 28.7866 92.2674C28.7866 87.8778 30.6057 85.1491 33.8881 85.1491C37.1704 85.1491 38.9895 87.8778 38.9895 92.2674C38.9895 96.657 37.1704 99.3857 33.8881 99.3857ZM33.8485 97.6061H33.9276C35.9642 97.6061 37.0122 95.5893 37.0122 92.2674C37.0122 88.9455 35.9642 86.9286 33.9276 86.9286H33.8485C31.8119 86.9286 30.7639 88.9455 30.7639 92.2674C30.7639 95.5893 31.8119 97.6061 33.8485 97.6061ZM47.5633 93.177L43.1935 97.4282H50.0745V99.188H40.7614V97.3293L45.9222 92.2674C47.5238 90.7053 47.939 90.0923 47.939 89.0641C47.939 87.858 46.9504 86.8891 45.586 86.8891H45.3883C43.8855 86.8891 42.8771 87.8975 42.8376 89.5189H40.8998C40.8998 86.8693 42.798 85.1491 45.4674 85.1491C48.0972 85.1491 49.8768 86.7705 49.8768 89.0048C49.8768 90.7449 49.0266 91.7533 47.5633 93.177ZM58.0552 91.694H55.5637V89.2026H58.0552V91.694ZM58.0552 99.188H55.5637V96.6966H58.0552V99.188ZM83.0329 85.3468V94.3633H85.2278V96.0836H83.0329V99.188H81.194V96.0836H74.3921V94.1063L81.0359 85.3468H83.0329ZM81.194 87.8184L76.2705 94.3633H81.194V87.8184ZM91.1915 99.3857C88.5221 99.3857 86.881 97.7841 86.881 95.6684C86.881 93.9679 87.9685 92.8804 89.2142 92.4453C87.8499 92.0103 86.6042 90.7251 86.6042 88.9653C86.6042 86.8496 88.3244 85.1491 91.1915 85.1491C94.0586 85.1491 95.7789 86.8496 95.7789 88.9653C95.7789 90.7251 94.5332 92.0103 93.1688 92.4453C94.4145 92.8804 95.5021 93.9679 95.5021 95.6684C95.5021 97.7841 93.8609 99.3857 91.1915 99.3857ZM91.0927 91.4962H91.2904C92.7141 91.4962 93.8411 90.5076 93.8411 89.2223C93.8411 87.858 92.7338 86.8891 91.2904 86.8891H91.0927C89.6492 86.8891 88.5419 87.858 88.5419 89.2223C88.5419 90.5076 89.669 91.4962 91.0927 91.4962ZM91.0927 97.6457H91.2904C92.5756 97.6457 93.5841 96.7757 93.5841 95.4904C93.5841 94.2249 92.5756 93.2956 91.2904 93.2956H91.0927C89.8074 93.2956 88.799 94.2249 88.799 95.4904C88.799 96.7757 89.8074 97.6457 91.0927 97.6457ZM102.652 99.3857C99.9828 99.3857 98.3417 97.7841 98.3417 95.6684C98.3417 93.9679 99.4292 92.8804 100.675 92.4453C99.3106 92.0103 98.0648 90.7251 98.0648 88.9653C98.0648 86.8496 99.7851 85.1491 102.652 85.1491C105.519 85.1491 107.24 86.8496 107.24 88.9653C107.24 90.7251 105.994 92.0103 104.63 92.4453C105.875 92.8804 106.963 93.9679 106.963 95.6684C106.963 97.7841 105.322 99.3857 102.652 99.3857ZM102.553 91.4962H102.751C104.175 91.4962 105.302 90.5076 105.302 89.2223C105.302 87.858 104.195 86.8891 102.751 86.8891H102.553C101.11 86.8891 100.003 87.858 100.003 89.2223C100.003 90.5076 101.13 91.4962 102.553 91.4962ZM102.553 97.6457H102.751C104.036 97.6457 105.045 96.7757 105.045 95.4904C105.045 94.2249 104.036 93.2956 102.751 93.2956H102.553C101.268 93.2956 100.26 94.2249 100.26 95.4904C100.26 96.7757 101.268 97.6457 102.553 97.6457ZM123.24 99.188H121.263V85.3468H126.167C128.698 85.3468 130.497 86.8496 130.497 89.5585C130.497 92.2674 128.638 93.7504 126.147 93.7504H123.24V99.188ZM123.24 87.1264V91.9708H125.87C127.551 91.9708 128.52 91.1205 128.52 89.5585C128.52 87.9964 127.59 87.1264 125.87 87.1264H123.24ZM134.701 99.188H132.724V85.3468H137.627C140.158 85.3468 141.958 86.8496 141.958 89.5585C141.958 92.2674 140.099 93.7504 137.608 93.7504H134.701V99.188ZM134.701 87.1264V91.9708H137.331C139.012 91.9708 139.98 91.1205 139.98 89.5585C139.98 87.9964 139.051 87.1264 137.331 87.1264H134.701ZM148.495 93.3549L150.848 85.3468H153.26V99.188H151.421V88.6885L149.444 95.4113H147.546L145.569 88.6885V99.188H143.749V85.3468H146.142L148.495 93.3549Z"></path>
</svg>
