<svg xmlns="http://www.w3.org/2000/svg" fill="none" viewBox="0 0 115 23" height="23" width="115">
<path fill="#0D0D0D" d="M43.6154 3.29492L41.5995 8.8483H40.7817L39.3363 4.91149C38.8608 6.20474 38.3473 7.55505 37.8909 8.8483H37.0921L35.0762 3.29492H36.1602L37.5105 6.96548L38.8608 3.29492H39.8498L41.2001 6.96548L42.5314 3.29492H43.6154Z"></path>
<path fill="#0D0D0D" d="M59.6862 4.7974H58.6592V4.35998C58.6592 4.32194 58.6402 4.30292 58.6021 4.30292H55.1978C55.1598 4.30292 55.1408 4.32194 55.1408 4.35998V7.78329C55.1408 7.82133 55.1598 7.84034 55.1978 7.84034H58.6021C58.6402 7.84034 58.6592 7.82133 58.6592 7.78329V6.73728H57.404V5.71029H59.6862V7.78329C59.6862 8.37286 59.1917 8.84832 58.6021 8.84832H55.1978C54.6083 8.84832 54.1328 8.37286 54.1328 7.78329V4.379C54.1328 3.78943 54.6083 3.31396 55.1978 3.31396H58.6021C59.1917 3.31396 59.6862 3.78943 59.6862 4.379V4.7974Z"></path>
<path fill="#0D0D0D" d="M68.0354 4.32191H63.9655V5.55811H67.2366V6.58511H63.9655V7.84032H68.0354V8.8483H62.9385V3.29492H68.0354V4.32191Z"></path>
<path fill="#0D0D0D" d="M75.6426 3.29492H76.6696V8.8483H75.5475L72.1242 4.77836V8.8483H71.1162V3.29492H72.2193L75.6426 7.36486V3.29492Z"></path>
<path fill="#0D0D0D" d="M80.6633 3.29492H79.6553V8.8483H80.6633V3.29492Z"></path>
<path fill="#0D0D0D" d="M88.3467 3.29492H89.3737V8.8483H88.2516L84.8283 4.77836V8.8483H83.8203V3.29492H84.9234L88.3467 7.36486V3.29492Z"></path>
<path fill="#0D0D0D" d="M97.9508 4.7974H96.9238V4.35998C96.9238 4.32194 96.9048 4.30292 96.8668 4.30292H93.4625C93.4245 4.30292 93.4054 4.32194 93.4054 4.35998V7.78329C93.4054 7.82133 93.4245 7.84034 93.4625 7.84034H96.8668C96.9048 7.84034 96.9238 7.82133 96.9238 7.78329V6.73728H95.6686V5.71029H97.9508V7.78329C97.9508 8.37286 97.4564 8.84832 96.8668 8.84832H93.4625C92.8729 8.84832 92.3975 8.37286 92.3975 7.78329V4.379C92.3975 3.78943 92.8729 3.31396 93.4625 3.31396H96.8668C97.4564 3.31396 97.9508 3.78943 97.9508 4.379V4.7974Z"></path>
<path fill="#0D0D0D" d="M106.205 4.32191H102.116V5.55811H105.407V6.58511H102.116V7.84032H106.205V8.8483H101.108V3.29492H106.205V4.32191Z"></path>
<path fill="#0D0D0D" d="M113.698 3.29492H114.725V8.8483H113.622L110.199 4.77836V8.8483H109.172V3.29492H110.294L113.698 7.36486V3.29492Z"></path>
<path fill="#0D0D0D" d="M50.348 4.379C50.1198 3.73237 49.8725 3.31396 49.283 3.31396H47.6093C47.0198 3.31396 46.7535 3.73237 46.5443 4.379L44.9277 8.86734H45.9737L46.6394 7.00353H50.2339L50.9185 8.86734H51.9455L50.348 4.379ZM46.9817 5.97654L47.5333 4.379C47.5523 4.34096 47.5523 4.32194 47.5903 4.32194H49.283C49.321 4.32194 49.321 4.34096 49.34 4.379L49.8915 5.97654H46.9817Z"></path>
<path fill="#0D0D0D" d="M38.2708 13.2227H38.7653V15.9233C38.7653 16.2466 38.499 16.5128 38.1757 16.5128H36.0837C35.7604 16.5128 35.4941 16.2466 35.4941 15.9233V13.2227H35.9886V15.9233C35.9886 15.9803 36.0267 16.0184 36.0837 16.0184H38.1757C38.2328 16.0184 38.2708 15.9803 38.2708 15.9233V13.2227Z"></path>
<path fill="#0D0D0D" d="M42.7781 13.2227H43.2536V16.5128H42.683L40.4769 13.8883V16.5128H39.9824V13.2227H40.553L42.7781 15.8662V13.2227Z"></path>
<path fill="#0D0D0D" d="M44.9847 13.2227H44.4902V16.5128H44.9847V13.2227Z"></path>
<path fill="#0D0D0D" d="M49.2637 13.2227H49.8343L47.9325 16.5128H47.438L45.5361 13.2227H46.1067L47.6852 15.9613L49.2637 13.2227Z"></path>
<path fill="#0D0D0D" d="M53.2954 13.7171H50.766V14.63H52.8009V15.1245H50.766V16.0184H53.2954V16.5128H50.2715V13.2227H53.2954V13.7171Z"></path>
<path fill="#0D0D0D" d="M57.7648 14.7441C57.7648 15.0674 57.4985 15.3337 57.1752 15.3337H56.8519L57.7838 16.4367V16.5128H57.1942L56.2053 15.3337H55.0832C55.0452 15.3337 55.0071 15.3337 54.9881 15.3147V16.4938H54.4746V13.2036H57.1752C57.4985 13.2036 57.7648 13.4699 57.7648 13.7932V14.7441ZM54.9691 13.7361V14.8582H57.1752C57.2323 14.8582 57.2703 14.8202 57.2703 14.7631V13.8312C57.2703 13.7742 57.2323 13.7361 57.1752 13.7361H54.9691Z"></path>
<path fill="#0D0D0D" d="M84.5431 14.7441C84.5431 15.0674 84.2769 15.3337 83.9535 15.3337H83.6112L84.5431 16.4367V16.5128H83.9535L82.9646 15.3337H81.8425C81.8045 15.3337 81.7664 15.3337 81.7474 15.3147V16.4938H81.2529V13.2036H83.9535C84.2769 13.2036 84.5431 13.4699 84.5431 13.7932V14.7441ZM81.7474 13.7361V14.8582H83.9535C84.0106 14.8582 84.0486 14.8202 84.0486 14.7631V13.8312C84.0486 13.7742 84.0106 13.7361 83.9535 13.7361H81.7474Z"></path>
<path fill="#0D0D0D" d="M106.015 14.7441C106.015 15.0674 105.749 15.3337 105.425 15.3337H105.083L106.015 16.4367V16.5128H105.425L104.436 15.3337H103.314C103.276 15.3337 103.238 15.3337 103.219 15.3147V16.4938H102.725V13.2036H105.425C105.749 13.2036 106.015 13.4699 106.015 13.7932V14.7441ZM103.219 13.7361V14.8582H105.425C105.482 14.8582 105.52 14.8202 105.52 14.7631V13.8312C105.52 13.7742 105.482 13.7361 105.425 13.7361H103.219Z"></path>
<path fill="#0D0D0D" d="M62.2155 14.0214H61.721V13.8313C61.721 13.7742 61.683 13.7362 61.6259 13.7362H59.5339C59.4769 13.7362 59.4388 13.7742 59.4388 13.8313V14.5349C59.4388 14.592 59.4769 14.63 59.5339 14.63H61.6259C61.9492 14.63 62.2155 14.8963 62.2155 15.2196V15.9233C62.2155 16.2466 61.9492 16.5129 61.6259 16.5129H59.5339C59.2106 16.5129 58.9443 16.2466 58.9443 15.9233V15.7331H59.4388V15.9233C59.4388 15.9803 59.4769 16.0184 59.5339 16.0184H61.6259C61.683 16.0184 61.721 15.9803 61.721 15.9233V15.2196C61.721 15.1626 61.683 15.1245 61.6259 15.1245H59.5339C59.2106 15.1245 58.9443 14.8583 58.9443 14.5349V13.8313C58.9443 13.508 59.2106 13.2417 59.5339 13.2417H61.6259C61.9492 13.2417 62.2155 13.508 62.2155 13.8313V14.0214Z"></path>
<path fill="#0D0D0D" d="M63.9271 13.2227H63.4326V16.5128H63.9271V13.2227Z"></path>
<path fill="#0D0D0D" d="M68.0158 13.2227V13.7171H66.6274V16.5128H66.1329V13.7171H64.7256V13.2227H68.0158Z"></path>
<path fill="#0D0D0D" d="M71.8768 13.2227L70.3744 15.2766V16.5128H69.8799V15.2766L68.3584 13.2227H68.948L70.1271 14.7251L71.3063 13.2227H71.8768Z"></path>
<path fill="#0D0D0D" d="M88.7461 13.7171H86.2357V14.63H88.2707V15.1245H86.2357V16.0184H88.7461V16.5128H85.7412V13.2227H88.7461V13.7171Z"></path>
<path fill="#0D0D0D" d="M93.0446 14.0214H92.5501V13.8313C92.5501 13.7742 92.5121 13.7362 92.455 13.7362H90.363C90.306 13.7362 90.2679 13.7742 90.2679 13.8313V14.5349C90.2679 14.592 90.306 14.63 90.363 14.63H92.455C92.7783 14.63 93.0446 14.8963 93.0446 15.2196V15.9233C93.0446 16.2466 92.7783 16.5129 92.455 16.5129H90.363C90.0397 16.5129 89.7734 16.2466 89.7734 15.9233V15.7331H90.2679V15.9233C90.2679 15.9803 90.306 16.0184 90.363 16.0184H92.455C92.5121 16.0184 92.5501 15.9803 92.5501 15.9233V15.2196C92.5501 15.1626 92.5121 15.1245 92.455 15.1245H90.363C90.0397 15.1245 89.7734 14.8583 89.7734 14.5349V13.8313C89.7734 13.508 90.0397 13.2417 90.363 13.2417H92.455C92.7783 13.2417 93.0446 13.508 93.0446 13.8313V14.0214Z"></path>
<path fill="#0D0D0D" d="M97.2666 13.7171H94.7562V14.63H96.7722V15.1245H94.7562V16.0184H97.2666V16.5128H94.2617V13.2227H97.2666V13.7171Z"></path>
<path fill="#0D0D0D" d="M100.423 13.2227C100.747 13.2227 100.937 13.4699 101.07 13.8122L102.021 16.5128H101.508L101.07 15.3527H98.7879L98.3695 16.5128H97.875L98.864 13.8122C98.9971 13.4509 99.1302 13.2227 99.4535 13.2227H100.423ZM100.937 14.8773L100.538 13.8312C100.519 13.7742 100.5 13.7361 100.442 13.7361H99.4916C99.4345 13.7361 99.4155 13.7742 99.3965 13.8312L98.9971 14.8773H100.937Z"></path>
<path fill="#0D0D0D" d="M107.726 13.7171C107.669 13.7171 107.631 13.7552 107.631 13.8122V15.9043C107.631 15.9613 107.669 15.9993 107.726 15.9993H110.408V16.4938H107.726C107.403 16.4938 107.137 16.2276 107.137 15.9043V13.8122C107.137 13.4889 107.403 13.2227 107.726 13.2227H110.408V13.7171H107.726Z"></path>
<path fill="#0D0D0D" d="M114.744 13.2227V16.5128H114.25V15.1245H111.872V16.5128H111.378V13.2227H111.872V14.63H114.25V13.2227H114.744Z"></path>
<path fill="#0D0D0D" d="M78.2475 16.0374L77.6769 15.676V14.7251H77.1824V15.3527C77.1824 15.3527 75.3947 14.2306 75.3757 14.2116C75.3376 14.1926 75.3186 14.1545 75.3186 14.1165V13.8122C75.3186 13.7551 75.3567 13.7171 75.4137 13.7171H76.6309C76.6879 13.7171 76.726 13.7551 76.726 13.8122V14.0214H77.2205V13.6981C77.1634 13.4128 76.9162 13.2036 76.6309 13.2036H75.4137C75.0904 13.2036 74.8241 13.4699 74.8241 13.7932V14.1545C74.8432 14.3257 74.9192 14.3828 75.0714 14.4778H74.9763C74.653 14.4778 74.3867 14.5729 74.3867 14.8963V15.8852C74.3867 16.2085 74.653 16.4748 74.9763 16.4748H77.0683C77.3346 16.4748 77.5438 16.3226 77.6198 16.0944L78.2284 16.4748V16.0374H78.2475ZM77.1824 15.9232C77.1824 15.9803 77.1444 16.0183 77.0873 16.0183H74.9953C74.9382 16.0183 74.9002 15.9803 74.9002 15.9232V14.9343C74.9002 14.9153 74.9002 14.9153 74.9002 14.8963C74.9192 14.8582 74.9573 14.8392 75.0143 14.8392H75.2616H75.6039L77.1824 15.8282V15.9232Z"></path>
<path fill="#0D0D0D" d="M31.9002 15.7604C32.2235 15.4752 31.1965 15.1138 31.1965 15.1138C31.1965 15.1138 30.0934 14.6003 25.7382 14.258V15.7604H24.7112H18.9867V14.0298C17.6364 13.9917 14.9738 14.0108 13.129 14.0298V15.7604H8.52657H8.07013H6.39651V14.258C3.46768 14.4482 1.54682 14.8285 1.54682 14.8285C1.54682 14.8285 1.2235 15.0948 1.18547 15.1328C0.824118 15.3801 1.18547 15.4752 1.43271 15.5893C1.5278 15.6463 1.5278 15.6654 1.50878 15.7604C1.48976 15.8365 1.26154 15.8936 1.29958 16.0267C1.39467 16.312 1.79406 16.0457 1.77504 16.4071C1.737 16.8445 0.767063 16.5973 0.671971 17.0157C0.595898 17.339 1.03332 17.0347 1.03332 17.6623C1.03332 18.2899 1.48976 18.8985 2.74498 19.2218C3.04927 19.2979 4.45663 19.2789 3.73393 19.6973C3.63884 19.7543 3.35357 19.7353 3.25847 19.7543C3.12535 19.7733 2.80203 19.7543 2.70694 19.8874C2.57381 20.0776 2.85909 20.0776 2.82105 20.2678C2.64989 20.2868 2.30755 20.2868 2.4597 20.5721C2.53577 20.7052 2.80203 20.8003 2.95418 20.7813C3.75295 20.7433 3.63884 20.8003 3.88608 20.8384C3.44866 20.9335 3.04927 21.3899 4.70387 21.3328C4.74191 21.5801 5.17933 21.5611 5.3505 21.523C15.6965 19.2218 20.1658 20.2108 20.2039 19.5641C20.0517 19.2598 18.6063 19.2789 18.3591 19.2789C17.4082 19.2408 15.3922 19.3359 15.5253 19.0887C15.5824 18.5181 26.0615 18.6703 24.8253 19.0126C24.7683 19.0316 24.0266 19.1457 23.9505 19.2028C23.3799 19.5071 25.548 19.5641 25.7763 19.5832C26.0425 19.6022 26.6892 19.5832 26.575 19.8684C26.537 19.9635 25.7572 19.8494 25.7953 19.9825C25.8143 20.0776 26.2707 20.0206 26.3088 20.0966C26.6321 20.5911 22.448 20.3439 20.299 20.4009C19.6714 20.42 18.4352 20.477 17.7885 20.5721C16.7045 20.7243 17.6174 20.9715 19.329 21.1236C20.2419 21.1997 24.9204 21.5801 28.8763 22.1126C30.0744 22.3218 30.4168 21.7512 30.1505 21.5801C29.9984 21.485 30.645 21.1617 29.9223 20.8384C29.4658 20.6482 29.8462 20.5531 29.8652 20.5721C29.9413 20.5911 30.8732 20.8193 30.5309 20.496C30.3026 20.2868 30.683 20.42 30.7591 20.4009C31.6339 20.3439 31.4247 20.0016 31.4818 20.0586C31.2155 19.7924 31.9192 19.6212 31.7671 19.0506C31.71 18.8795 30.702 18.9175 31.3677 18.7844C31.4438 18.7654 32.3757 18.7844 31.5198 18.2899C31.3296 18.1758 31.1395 18.1758 30.8542 18.0997C30.2266 17.9476 30.702 17.6433 31.0063 17.6813C31.3867 17.7384 31.7861 17.4911 31.71 17.1108C31.5579 16.5973 31.3867 15.8746 31.9002 15.7604Z"></path>
<path fill="#0D0D0D" d="M7.38574 0.431641V15.7605H13.1103V6.21323H18.968V15.7605H24.7115V0.431641H7.38574Z"></path>
</svg>
