<svg xmlns="http://www.w3.org/2000/svg" fill="none" viewBox="0 0 170 245" height="245" width="170">
<path fill="#696969" d="M4.63 6.77184C6.06 6.77184 7.006 7.78384 7.006 9.13684C7.006 10.6438 5.906 11.6998 4.333 11.6998C2.87 11.6998 1.748 10.8858 1.616 9.53284H2.694C2.826 10.3028 3.475 10.7318 4.3 10.7318H4.388C5.29 10.7318 5.928 10.1048 5.928 9.19184C5.928 8.30084 5.312 7.73984 4.454 7.73984H4.366C3.871 7.73984 3.266 7.97084 2.903 8.45484H1.891L2.826 3.88984H6.929V4.86884H3.662L3.145 7.32184C3.486 6.98084 4.058 6.77184 4.63 6.77184ZM11.5887 11.5898H10.2027V10.2038H11.5887V11.5898ZM17.4584 11.6998C15.9184 11.6998 14.9284 10.9078 14.8514 9.55484H15.9294C16.0394 10.2808 16.5674 10.7318 17.4034 10.7318H17.5134C18.4264 10.7318 19.0204 10.2038 19.0204 9.45584C19.0204 8.67484 18.3714 8.23484 17.4914 8.23484H16.9854V7.25584H17.5244C18.4044 7.25584 18.9764 6.72784 18.9764 6.00184C18.9764 5.24284 18.3604 4.74784 17.5464 4.74784H17.4364C16.6994 4.74784 16.1384 5.23184 16.0724 5.94684H14.9944C15.0274 4.69284 16.0724 3.77984 17.4914 3.77984C18.9984 3.77984 20.0544 4.63784 20.0544 5.90284C20.0544 6.77184 19.5044 7.46484 18.7454 7.72884C19.5044 7.94884 20.1094 8.59784 20.1094 9.52184C20.1094 10.9518 18.9104 11.6998 17.4584 11.6998ZM30.6828 8.34484L31.9918 3.88984H33.3338V11.5898H32.3108V5.74884L31.2108 9.48884H30.1548L29.0548 5.74884V11.5898H28.0428V3.88984H29.3738L30.6828 8.34484ZM5.158 18.8898V25.6108H7.303V26.5898H1.88V25.6108H4.124V20.4408L2.342 22.1458V20.8148L4.322 18.8898H5.158ZM8.2447 19.8908V18.8898H13.5577V19.9238C11.7867 21.0568 10.6867 22.9158 10.6867 26.1388V26.5898H9.5757V26.0838C9.5757 22.8718 10.8297 20.8808 12.3587 19.8908H8.2447ZM18.1844 26.5898H16.7984V25.2038H18.1844V26.5898ZM25.9241 18.8898V23.9058H27.1451V24.8628H25.9241V26.5898H24.9011V24.8628H21.1171V23.7628L24.8131 18.8898H25.9241ZM24.9011 20.2648L22.1621 23.9058H24.9011V20.2648ZM36.0905 26.5898H34.9905V18.8898H39.8415V19.8798H36.0905V22.3548H39.5115V23.3448H36.0905V26.5898ZM44.4242 26.5898H43.3242V19.8798H41.1352V18.8898H46.6132V19.8798H44.4242V26.5898Z"></path>
<path fill="#696969" d="M5.532 118.656L3.101 121.021H6.929V122H1.748V120.966L4.619 118.15C5.51 117.281 5.741 116.94 5.741 116.368C5.741 115.697 5.191 115.158 4.432 115.158H4.322C3.486 115.158 2.925 115.719 2.903 116.621H1.825C1.825 115.147 2.881 114.19 4.366 114.19C5.829 114.19 6.819 115.092 6.819 116.335C6.819 117.303 6.346 117.864 5.532 118.656ZM11.5887 122H10.2027V120.614H11.5887V122ZM17.7884 116.94C19.1964 116.94 20.2744 117.952 20.2744 119.448C20.2744 120.977 19.2184 122.11 17.6124 122.11C15.7864 122.11 14.7414 120.713 14.7414 118.37C14.7414 115.873 16.1274 114.19 17.9754 114.19C19.2624 114.19 20.1974 114.938 20.4064 116.192H19.3284C19.2074 115.598 18.7014 115.158 17.9754 115.158H17.8764C16.7984 115.158 15.8304 116.17 15.6984 118.15C16.0614 117.358 16.9084 116.94 17.7884 116.94ZM17.5574 121.142H17.6564C18.5474 121.142 19.1964 120.449 19.1964 119.525C19.1964 118.612 18.5804 117.908 17.6564 117.908H17.5574C16.6334 117.908 15.9514 118.59 15.9514 119.514C15.9514 120.449 16.6224 121.142 17.5574 121.142ZM30.6828 118.755L31.9918 114.3H33.3338V122H32.3108V116.159L31.2108 119.899H30.1548L29.0548 116.159V122H28.0428V114.3H29.3738L30.6828 118.755ZM4.3 137.11C2.815 137.11 1.902 136.219 1.902 135.042C1.902 134.096 2.507 133.491 3.2 133.249C2.441 133.007 1.748 132.292 1.748 131.313C1.748 130.136 2.705 129.19 4.3 129.19C5.895 129.19 6.852 130.136 6.852 131.313C6.852 132.292 6.159 133.007 5.4 133.249C6.093 133.491 6.698 134.096 6.698 135.042C6.698 136.219 5.785 137.11 4.3 137.11ZM4.245 132.721H4.355C5.147 132.721 5.774 132.171 5.774 131.456C5.774 130.697 5.158 130.158 4.355 130.158H4.245C3.442 130.158 2.826 130.697 2.826 131.456C2.826 132.171 3.453 132.721 4.245 132.721ZM4.245 136.142H4.355C5.07 136.142 5.631 135.658 5.631 134.943C5.631 134.239 5.07 133.722 4.355 133.722H4.245C3.53 133.722 2.969 134.239 2.969 134.943C2.969 135.658 3.53 136.142 4.245 136.142ZM10.3237 138.441H9.8727V137.825H10.2357C10.6977 137.825 10.9067 137.55 10.9067 137.143V137H10.1917V135.614H11.5777V137.198C11.5777 137.902 11.0827 138.441 10.3237 138.441ZM14.8404 130.301V129.3H20.1534V130.334C18.3824 131.467 17.2824 133.326 17.2824 136.549V137H16.1714V136.494C16.1714 133.282 17.4254 131.291 18.9544 130.301H14.8404ZM29.4948 137H28.3948V129.3H33.2458V130.29H29.4948V132.765H32.9158V133.755H29.4948V137ZM37.8285 137H36.7285V130.29H34.5395V129.3H40.0175V130.29H37.8285V137Z"></path>
<path fill="#696969" d="M4.3 232.793C6.126 232.793 7.226 234.267 7.226 236.753C7.226 239.239 6.148 240.713 4.3 240.713C2.452 240.713 1.374 239.239 1.374 236.753C1.374 234.267 2.474 232.793 4.3 232.793ZM4.355 233.761H4.245C3.233 233.761 2.452 234.663 2.452 236.753C2.452 237.248 2.496 237.666 2.573 238.04L5.73 234.63C5.4 234.036 4.916 233.761 4.355 233.761ZM4.245 239.745H4.355C5.367 239.745 6.148 238.843 6.148 236.753C6.148 236.324 6.115 235.95 6.049 235.62L2.936 238.986C3.266 239.503 3.728 239.745 4.245 239.745ZM17.4914 237.391L18.8004 232.936H20.1424V240.636H19.1194V234.795L18.0194 238.535H16.9634L15.8634 234.795V240.636H14.8514V232.936H16.1824L17.4914 237.391Z"></path>
<path stroke-opacity="0.1" stroke="#0D0D0D" d="M1.00001 222.477L1 36.5898"></path>
<path stroke-opacity="0.1" stroke="#0D0D0D" d="M169.156 11.5898L59.7964 11.5898"></path>
</svg>
