<svg xmlns="http://www.w3.org/2000/svg" fill="none" viewBox="0 0 67 41" height="41" width="67">
<g clip-path="url(#clip0_2152_21612)">
<path fill="#0D0D0D" d="M20.3721 2.15179V3.9375H21.7636H23.1552V2.15179V0.366071H21.7636H20.3721V2.15179Z"></path>
<path fill="#0D0D0D" d="M25.9941 3.65199V5.08057H27.1074H28.2206V3.65199V2.22342H27.1074H25.9941V3.65199Z"></path>
<path fill="#0D0D0D" d="M13.0811 3.509V4.15186H13.6098H14.1386V3.509V2.86614H13.6098H13.0811V3.509Z"></path>
<path fill="#0D0D0D" d="M14.584 5.68743V7.22314H15.8085H17.0331V5.68743V4.15172H15.8085H14.584V5.68743Z"></path>
<path fill="#0D0D0D" d="M17.8672 5.75879V7.00879H18.8413H19.8153V5.75879V4.50879H18.8413H17.8672V5.75879Z"></path>
<path fill="#0D0D0D" d="M4.23047 18.4876V30.6519L9.92467 30.6447H15.6133L14.8173 30.4019C10.2586 29.009 7.60914 25.9019 6.59053 20.7519C6.24542 18.9876 6.13967 17.6661 6.06731 14.1947C6.03948 12.8161 5.98938 11.4304 5.95598 11.1161C5.80013 9.72328 5.08209 7.659 4.34736 6.509L4.23047 6.33043V18.4876Z"></path>
<path fill="#0D0D0D" d="M20.7061 8.29492V9.29492H21.4575H22.2089V8.29492V7.29492H21.4575H20.7061V8.29492Z"></path>
<path fill="#0D0D0D" d="M23.4893 12.7591V14.3662H24.7138H25.9384V12.7591V11.1519H24.7138H23.4893V12.7591Z"></path>
<path fill="#0D0D0D" d="M23.8622 17.8376C23.8399 17.8662 23.8232 20.4734 23.8232 23.6305V29.3662H24.7417H25.6601L25.6489 23.5948L25.6322 17.8305L24.7639 17.8091C24.2908 17.8019 23.8845 17.8162 23.8622 17.8376Z"></path>
<path fill="#0D0D0D" d="M29.3617 17.8664C28.3042 18.1521 27.5082 19.1021 27.241 20.4021C27.1798 20.6806 27.1631 21.6949 27.1631 25.0235V29.2949H28.0537H28.9443V27.0092V24.7235H32.4955C34.7386 24.7235 36.1358 24.6949 36.2916 24.6449C36.9985 24.4378 37.7444 23.6806 38.0561 22.8449C38.7853 20.9164 38.1118 18.7521 36.5365 17.9949C36.2137 17.8378 36.1747 17.8306 32.8962 17.8235C31.0761 17.8164 29.4842 17.8378 29.3617 17.8664ZM35.863 20.1592C36.492 20.3806 36.7647 21.3235 36.3807 21.9664C36.0912 22.4521 36.236 22.4378 32.4009 22.4378H28.9443V21.7164C28.9443 21.1021 28.961 20.9521 29.0667 20.7164C29.2003 20.4092 29.384 20.2235 29.64 20.1449C29.9128 20.0592 35.6237 20.0735 35.863 20.1592Z"></path>
<path fill="#0D0D0D" d="M41.6069 17.8661C40.3099 18.209 39.4027 19.6018 39.4082 21.2518C39.4138 21.8947 39.4806 22.2875 39.7032 22.859C40.0261 23.709 40.7441 24.4304 41.4677 24.6447C41.6236 24.6947 42.9149 24.7233 44.8909 24.7233H48.0692L48.3141 24.8804C48.6815 25.1233 48.8318 25.4447 48.8039 25.9447C48.7761 26.409 48.6258 26.7233 48.3475 26.8947C48.1805 26.9947 47.713 27.009 43.8667 27.009C40.7608 27.009 39.5752 27.0304 39.5752 27.0875C39.5752 27.1304 39.6531 27.359 39.7533 27.5947C40.0929 28.409 40.861 29.1161 41.6013 29.2875C42.0299 29.3875 48.0135 29.3947 48.431 29.2947C49.2158 29.109 49.9895 28.3447 50.3458 27.409C51.0916 25.4518 50.3012 23.1804 48.6536 22.5518C48.3865 22.4518 47.93 22.4375 45.1414 22.4375H41.9297L41.6848 22.2733C41.2005 21.9518 41.0558 21.1661 41.3787 20.6161C41.6681 20.1304 41.5178 20.1518 45.0356 20.1518C48.1304 20.1518 48.225 20.159 48.3976 20.2947C48.6147 20.4661 48.7316 20.6804 48.8039 21.0161L48.8485 21.259L49.7224 21.2804L50.5962 21.3018V20.9733C50.5962 20.5661 50.4181 19.859 50.201 19.4304C49.8114 18.6447 49.1156 18.0447 48.3976 17.8733C48.0135 17.7804 41.9575 17.7804 41.6069 17.8661Z"></path>
<path fill="#0D0D0D" d="M57.6381 17.8664C56.5917 18.1449 55.8347 19.0378 55.5285 20.3592C55.4506 20.7021 55.4395 21.3021 55.4395 25.0235V29.2949H56.33H57.2206L57.2318 25.0878C57.2485 20.9449 57.2485 20.8735 57.3653 20.6735C57.4266 20.5664 57.5657 20.4021 57.6659 20.3092C57.844 20.1592 57.8997 20.1521 59.0074 20.1521H60.1707V24.7235V29.2949H61.0613H61.9519V24.7235V20.1521H63.1096C64.2396 20.1521 64.2674 20.1521 64.4622 20.3235C64.8574 20.6735 64.8463 20.5164 64.8463 25.1449V29.2949H65.7647H66.6831V25.1664C66.6831 20.6164 66.672 20.4378 66.3436 19.6449C66.1154 19.0949 65.6701 18.5235 65.2471 18.2378C64.6181 17.8021 64.5346 17.7949 61.0335 17.8021C59.2912 17.8092 57.7605 17.8378 57.6381 17.8664Z"></path>
<path fill="#0D0D0D" d="M52.5174 20.6303C52.2613 20.8017 52.15 20.9517 52.0387 21.2588C51.7492 22.0588 52.0832 23.0088 52.7289 23.2303C53.5304 23.5088 54.293 22.516 54.0536 21.5017C53.9701 21.1517 53.6918 20.7303 53.4525 20.6088C53.2131 20.4731 52.7233 20.4874 52.5174 20.6303Z"></path>
<path fill="#0D0D0D" d="M52.1553 26.7234V29.3662H53.0459H53.9364V26.7234V24.0805H53.0459H52.1553V26.7234Z"></path>
<path fill="#0D0D0D" d="M17.0322 40.2663C17.0322 40.2663 19.409 35.8377 19.7763 31.2806C19.7763 31.2806 18.8245 31.2377 18.7355 31.2163C18.7355 31.2163 18.8635 34.4449 17.0322 40.2663Z"></path>
<path fill="#0D0D0D" d="M21.0513 20.9946V20.4589H20.7062V17.8089H19.4371V14.8589H19.9993L19.1143 12.5303V14.1661H17.0325V11.5875H18.5743L17.5446 10.0446L16.6151 10.0161V8.78749L16.1976 8.29463V9.54463H13.9155V6.49463L13.3032 6.0232V6.46606H12.3013V5.51606C9.12855 3.23034 0.500977 2.49463 0.500977 2.49463C4.06889 4.44463 5.03184 7.10177 5.85564 8.9732C6.52914 10.5089 6.45122 15.3232 6.45122 15.3232C6.00036 31.2161 18.8415 30.6518 18.8415 30.6518C19.0085 11.3732 6.12281 4.50891 6.12281 4.50891C11.4886 7.18034 14.383 11.9303 14.383 11.9303V10.9232H15.808V12.5589H14.8283C15.808 14.0089 16.8154 16.2732 16.8154 16.2732V14.9232H18.6801V17.4089H17.2106C19.6152 21.8161 19.8212 30.4946 19.8212 30.4946C20.7674 27.2875 21.0569 23.5875 21.0569 23.5875H19.6097V20.9946H21.0513ZM18.5354 19.8089V18.3875H19.6431V19.8089H18.5354Z"></path>
</g>
<defs>
<clipPath id="clip0_2152_21612">
<rect transform="translate(0.500977 0.294922)" fill="white" height="40" width="66.1818"></rect>
</clipPath>
</defs>
</svg>
